<?xml version="1.0" encoding="UTF-8"?>
<!DOCTYPE svg PUBLIC "-//W3C//DTD SVG 1.1//EN" "http://www.w3.org/Graphics/SVG/1.1/DTD/svg11.dtd">
<svg version="1.1" xmlns="http://www.w3.org/2000/svg" xmlns:xlink="http://www.w3.org/1999/xlink" x="0" y="0" width="360" height="72" viewBox="0, 0, 360, 72">
  <g id="Layer_1">
    <path d="M332.022,0 C346.48,0 358.2,13.605 358.2,30.388 L358.2,41.612 C358.2,58.395 346.48,72 332.022,72 L27.978,72 C13.52,72 1.8,58.395 1.8,41.612 L1.8,30.388 C1.8,13.605 13.52,0 27.978,0 L332.022,0 z M184.014,11.684 C180.599,11.768 182.025,11.448 179.665,12.237 C170.168,16.51 166.445,28.613 168.107,40.54 C168.88,46.079 170.822,50.993 173.982,54.335 C178.517,59.132 185.048,60.082 191.067,56.509 C205.256,48.084 205.288,21.373 190.853,13.776 C188.689,12.902 189.949,13.25 187.011,12.997 C185.994,12.049 186.829,12.751 184.014,11.684 z M184.491,27.504 C184.508,27.516 184.526,27.529 184.543,27.542 C184.903,28.065 185.263,28.589 185.623,29.112 C187.245,32.496 187.061,37.982 185.377,41.309 C185.074,41.906 184.605,42.403 184.219,42.95 C183.483,41.568 183.23,39.989 182.964,38.469 C182.633,34.797 182.491,30.763 184.491,27.504 z M114.432,10.301 C110.401,11.431 112.012,10.624 109.404,12.282 C105.398,15.395 103.189,21.299 100.115,32.89 C99.45,35.398 96.68,46.661 96.242,48.066 C95.006,52.019 97.209,56.226 101.163,57.461 C101.659,57.563 102.145,57.763 102.651,57.767 C104.345,57.778 106.901,57.562 108.137,56.099 C112.433,56.003 110.406,56.034 114.216,55.995 C116.136,55.981 117.679,55.979 121.156,55.98 L121.304,55.98 C124.282,57.043 122.921,56.833 125.322,56.941 C129.458,56.711 132.625,53.172 132.395,49.036 C132.107,43.855 131.111,39.44 129.068,32.864 C128.95,32.483 128.826,32.086 128.678,31.616 C128.587,31.326 128.484,30.999 128.291,30.388 C127.177,26.853 126.632,25.004 126.119,22.893 C125.138,18.863 124.002,15.986 122.285,13.876 C120.161,11.492 117.719,10.289 114.432,10.301 z M114.591,36.823 L114.743,37.312 C115.511,39.844 115.159,38.618 115.808,40.988 L114.11,40.995 L113.52,41.001 C113.907,39.439 113.561,40.835 114.591,36.823 z M211.615,10.131 C207.48,9.888 203.931,13.043 203.687,17.178 C202.384,39.33 207.322,55.79 218.32,57.594 C222.126,58.218 225.704,56.802 228.402,54.022 C230.423,51.941 231.946,49.13 233.069,45.692 C235.161,39.29 235.948,30.38 235.307,19.486 C235.064,15.351 231.515,12.196 227.38,12.44 C223.245,12.683 220.09,16.232 220.333,20.367 C220.578,25.875 220.768,31.466 219.725,36.91 C219.477,35.476 219.156,34.054 218.981,32.61 C218.393,27.783 218.384,22.906 218.661,18.059 C218.905,13.924 215.75,10.374 211.615,10.131 z M147.063,9.633 C144.217,9.694 141.379,9.799 138.572,10.33 C134.48,10.969 131.68,14.805 132.32,18.897 C132.78,20.662 132.437,19.936 133.183,21.143 C133.131,23.078 132.957,25.008 132.85,26.941 C132.69,29.439 132.597,31.135 132.534,32.9 C132.351,38.066 132.523,42.118 133.265,45.577 C134.539,51.519 137.602,55.935 143.408,56.96 C147.004,57.594 151.619,57.519 155.372,56.514 C162.095,54.714 166.775,49.75 165.463,42.317 C164.807,39.838 163.588,37.635 162.008,35.611 C166.073,31.314 166.175,25.978 164.081,20.696 C161.787,14.885 157.266,11.362 151.447,10.142 C149.037,9.713 150.492,9.927 147.063,9.633 z M147.869,42.091 L148.079,42.314 L147.911,42.318 L147.869,42.091 z M148.014,24.804 C148.82,24.909 149.695,25.196 150.028,26.026 L147.946,25.908 L148.014,24.804 z M255.766,11.819 C254.538,11.819 253.582,11.839 251.506,11.895 C250.642,11.918 250.275,11.928 249.811,11.938 C247.437,11.991 245.798,11.97 244.214,11.843 C240.085,11.513 236.47,14.592 236.14,18.721 C235.963,23.03 238.82,26.03 242.915,26.777 C242.849,28.535 242.759,30.294 242.673,32.052 C242.664,32.249 242.664,32.249 242.654,32.447 C242.245,40.697 242.159,44.745 242.447,49.65 C242.69,53.785 246.24,56.94 250.375,56.696 C254.51,56.453 257.665,52.904 257.421,48.769 C257.175,44.577 257.253,40.908 257.635,33.189 C257.645,32.992 257.645,32.992 257.655,32.795 C257.759,30.661 257.87,28.527 257.934,26.391 C261.316,25.375 262.927,22.687 263.266,19.319 C263.266,15.177 259.909,11.819 255.766,11.819 z" fill="#FF0000"/>
  </g>
</svg>
