<?xml version="1.0" encoding="UTF-8"?>
<!DOCTYPE svg PUBLIC "-//W3C//DTD SVG 1.1//EN" "http://www.w3.org/Graphics/SVG/1.1/DTD/svg11.dtd">
<svg version="1.1" xmlns="http://www.w3.org/2000/svg" xmlns:xlink="http://www.w3.org/1999/xlink" x="0" y="0" width="360" height="72" viewBox="0, 0, 360, 72">
  <g id="Layer_1">
    <path d="M331.965,0 C346.454,0 358.2,11.19 358.2,24.994 L358.2,47.006 C358.2,60.81 346.454,72 331.965,72 L28.035,72 C13.546,72 1.8,60.81 1.8,47.006 L1.8,24.994 C1.8,11.19 13.546,0 28.035,0 L331.965,0 z M234.104,9.804 L232.683,9.809 L231.232,10.209 C227.404,11.696 225.495,16.036 226.967,19.902 C229.081,25.391 231.177,30.895 233.62,36.245 C231.515,40.549 229.301,44.796 226.963,48.975 C224.928,52.571 226.165,57.153 229.725,59.208 C233.286,61.263 237.821,60.013 239.856,56.417 C241.355,53.739 240.529,55.236 242.322,51.917 C243.886,54.228 242.822,52.725 245.689,56.294 C248.375,59.424 253.064,59.762 256.163,57.049 C259.262,54.337 259.597,49.6 256.911,46.47 C254.199,43.419 252.163,39.871 250.179,36.321 C252.473,31.62 254.868,26.971 257.422,22.409 C259.456,18.813 258.219,14.231 254.659,12.176 C252.408,11.164 253.782,11.62 250.425,11.208 C247.546,12.001 246.218,12.209 244.528,14.967 C243.166,17.401 243.857,16.146 242.459,18.733 C241.601,16.564 242.151,17.966 240.827,14.517 C239.168,11.58 237.56,10.12 234.104,9.804 z M193.498,10.645 C191.219,10.844 190.057,10.897 188.203,12.466 C186.463,13.951 185.82,15.557 185.553,17.307 C185.457,17.94 185.437,18.478 185.452,19.062 C185.47,19.56 185.458,19.309 185.488,19.815 L185.442,20.206 C185.409,20.497 185.422,20.393 185.406,20.516 C185.326,20.724 185.392,20.554 185.199,21.023 L185.193,21.036 C184.712,22.186 184.483,22.8 184.243,23.769 C184.077,24.439 183.995,25.073 183.964,25.713 L183.953,26.082 L183.586,26.819 L183.481,26.174 C183.024,23.63 182.485,21.457 181.786,19.637 C181.254,18.25 180.625,17.042 179.763,15.957 C178.144,13.917 175.863,12.502 172.905,12.502 C169.596,12.502 167.811,14.035 166.522,16.068 C166.142,16.667 165.891,17.216 165.67,17.814 C165.441,18.432 165.252,19.102 165.058,19.913 C164.773,21.104 164.461,22.693 164.097,24.759 C163.562,27.786 163.275,29.586 161.916,38.263 C161.825,38.845 161.79,39.064 161.733,39.426 C160.925,44.576 160.396,47.816 159.907,50.533 C159.173,54.608 161.849,58.513 165.884,59.253 C169.918,59.995 173.784,57.291 174.517,53.216 C174.971,50.625 174.788,51.714 175.08,49.952 C175.905,51.737 175.493,50.881 176.311,52.523 C176.797,53.466 177.231,54.229 177.675,54.879 C178.12,55.53 178.57,56.084 179.221,56.655 C180.006,57.346 180.905,57.911 182.143,58.273 C184.514,58.966 187.192,58.482 189.223,56.659 C190.891,55.024 191.931,53.124 192.395,50.802 C193.599,54.132 192.914,52.537 194.433,55.595 C196.468,59.192 201.003,60.441 204.564,58.386 C208.124,56.331 209.361,51.75 207.326,48.153 C206.624,46.912 205.882,44.601 205.102,41.217 C204.794,39.884 203.778,35.038 203.56,34.088 C203.515,33.889 202.749,27.075 202.638,26.176 C202.311,23.523 201.996,21.414 201.64,19.689 C201.397,18.507 201.134,17.499 200.808,16.597 C199.989,14.331 199.023,12.733 196.556,11.487 C194.929,10.793 195.927,11.142 193.498,10.645 z M142.563,13.398 C139.186,13.58 140.588,13.219 138.274,14.075 C130.498,17.884 125.55,28.607 125.236,38.877 C125.068,44.363 126.28,49.32 129.254,52.971 C133.116,57.71 139.081,59.188 145.56,57.262 C154.795,54.519 159.522,44.082 158.858,33.434 C158.019,24.947 154.299,16.989 145.572,14.63 C144.532,13.707 145.381,14.386 142.563,13.398 z M142.776,29.833 C142.993,30.2 143.284,30.532 143.428,30.934 C143.894,32.239 143.914,33.085 144.037,34.377 C144.181,36.683 143.781,39.062 142.982,40.827 C142.386,42.142 141.783,42.75 141.37,42.872 C140.688,43.043 140.97,42.996 140.534,43.054 L140.339,42.425 C140.138,41.602 140.042,40.544 140.079,39.34 C140.159,36.717 140.855,33.773 141.974,31.349 L142.776,29.833 z M115.493,13.369 C111.077,13.58 109.652,13.432 105.844,16.197 C102.303,18.881 99.665,23.163 98.399,27.973 C95.445,39.198 100.165,50.704 112.188,56.371 C115.904,58.122 120.322,56.5 122.056,52.746 C123.79,48.993 122.183,44.53 118.467,42.778 C113.229,40.309 111.578,36.284 112.751,31.827 C113.256,30.308 113.218,30.334 114.238,28.718 C115.167,28.915 116.076,29.296 117.025,29.31 C119.556,29.346 121.739,28.066 123.221,26.079 C125.556,22.673 124.715,18.001 121.343,15.643 C118.262,13.832 120.15,14.735 115.493,13.369 z M217.605,7.911 C213.509,8.108 210.346,11.621 210.541,15.759 C210.746,20.107 210.68,24.497 210.387,30.861 C210.337,31.929 210.296,32.774 210.198,34.729 C209.841,41.886 209.72,45.127 209.719,49.246 C209.72,53.388 213.044,56.746 217.144,56.746 C221.245,56.746 224.57,53.388 224.569,49.246 C224.57,45.462 224.684,42.391 225.029,35.485 C225.128,33.511 225.17,32.653 225.221,31.56 C225.534,24.765 225.606,19.961 225.374,15.045 C225.179,10.908 221.701,7.714 217.605,7.911 z" fill="#007F7F"/>
  </g>
</svg>
