<?xml version="1.0" encoding="UTF-8"?>
<!DOCTYPE svg PUBLIC "-//W3C//DTD SVG 1.1//EN" "http://www.w3.org/Graphics/SVG/1.1/DTD/svg11.dtd">
<svg version="1.1" xmlns="http://www.w3.org/2000/svg" xmlns:xlink="http://www.w3.org/1999/xlink" x="0" y="0" width="360" height="72" viewBox="0, 0, 360, 72">
  <g id="Layer_1">
    <path d="M332.022,0 C346.48,0 358.2,13.605 358.2,30.388 L358.2,41.612 C358.2,58.395 346.48,72 332.022,72 L27.978,72 C13.52,72 1.8,58.395 1.8,41.612 L1.8,30.388 C1.8,13.605 13.52,0 27.978,0 L332.022,0 z M175.269,10.403 C171.134,10.647 167.979,14.196 168.222,18.331 C168.265,19.049 168.288,19.797 168.293,20.582 C168.307,22.87 168.197,24.922 167.89,28.998 C167.218,37.92 167.188,41.235 168.328,45.657 C170.123,52.613 174.899,57.393 182.518,59.298 C186.537,60.303 190.609,57.86 191.613,53.841 C192.618,49.823 190.175,45.751 186.156,44.746 C182.408,43.809 181.951,42.037 182.848,30.124 C183.185,25.655 183.31,23.307 183.292,20.488 C183.286,19.448 183.255,18.439 183.196,17.45 C182.953,13.315 179.404,10.16 175.269,10.403 z M152.118,10.52 L150.613,10.724 C146.585,11.691 144.103,15.74 145.07,19.768 C145.585,21.913 145.696,24.642 145.499,28.872 C145.465,29.627 145.429,30.29 145.354,31.603 C144.91,39.389 144.932,42.524 145.953,46.526 C147.627,53.084 152.056,57.632 159.065,59.107 C163.119,59.961 167.096,57.367 167.949,53.313 C168.803,49.26 166.209,45.283 162.155,44.429 C160.946,44.174 160.794,44.019 160.487,42.816 C160,40.907 159.984,38.53 160.329,32.456 C160.407,31.092 160.445,30.391 160.483,29.566 C160.74,24.032 160.581,20.124 159.656,16.267 C158.412,12.707 155.956,10.707 152.118,10.52 z M200.104,9.759 C195.964,9.881 192.706,13.336 192.828,17.476 C192.886,19.46 192.774,21.307 192.327,26.711 C192.192,28.348 192.113,29.342 192.038,30.414 C191.516,37.813 191.658,42.811 193.009,47.324 C195.184,54.589 200.626,59.141 208.572,59.141 C212.714,59.141 216.072,55.784 216.072,51.641 C216.072,47.499 212.714,44.141 208.572,44.141 C207.625,44.141 207.744,44.241 207.379,43.022 L207.249,42.5 C211.554,42.304 214.14,39.081 214.549,35.02 C214.382,30.822 211.398,27.958 207.309,27.546 L207.484,25.236 L208.403,25.333 C212.513,25.846 216.262,22.931 216.775,18.821 C217.289,14.711 214.374,10.962 210.264,10.448 C206.853,10.094 208.89,10.259 204.142,10.084 L202.325,10.14 C201.147,9.684 201.871,9.885 200.104,9.759 z M232.061,9.131 C225.48,9.452 221.413,13.987 219.583,20.452 C218.468,24.395 218.103,29.136 218.208,35.032 C218.253,37.571 218.374,40.027 218.595,43.501 C218.972,49.399 218.995,49.816 218.965,50.937 C218.856,55.077 222.125,58.522 226.265,58.631 C230.406,58.74 233.851,55.472 233.96,51.331 C233.979,50.541 233.975,50.917 233.973,50.206 C234.387,50.648 234.152,50.381 234.661,51.021 C234.883,51.321 235.037,51.571 235.13,51.764 C235.173,51.855 235.183,51.885 235.179,51.859 C235.86,55.945 239.724,58.705 243.81,58.024 C247.896,57.343 250.656,53.479 249.975,49.393 C249.206,45.88 247.687,42.698 245.074,40.16 L245.697,39.685 C247.782,37.888 249.099,35.651 249.665,33.114 C250.02,31.52 250.046,30.519 249.972,28.349 C249.955,27.858 249.95,27.637 249.95,27.407 C249.95,16.891 243.014,8.596 232.061,9.131 z M234.061,24.4 C234.947,24.73 234.92,26.637 234.95,27.407 C234.959,28.239 234.951,27.839 234.973,28.606 C234.574,28.835 234.181,29.073 233.799,29.33 L233.327,29.286 C233.452,27.691 233.563,26.081 234.017,24.537 L234.061,24.4 z M125.775,11.611 C121.426,11.624 118.721,14.267 117.126,17.9 C116.242,19.914 115.614,22.486 115.125,25.808 C114.742,28.415 114.181,30.493 112.674,35.287 C112.673,35.288 112.673,35.288 112.673,35.289 C110.536,42.087 109.718,45.365 109.358,50.051 C109.04,54.181 112.131,57.787 116.26,58.104 C118.962,58.169 119.792,57.789 121.743,56.117 C123.095,55.734 124.558,55.778 125.951,55.753 C126.597,55.755 127.155,55.766 128.351,55.796 C129.783,55.831 130.379,55.842 131.173,55.842 C132.876,55.671 132.218,55.886 133.215,55.467 C134.794,57.434 137.184,57.805 139.57,57.656 C140.076,57.625 140.55,57.397 141.039,57.268 C144.918,55.814 146.883,51.491 145.428,47.612 C145.18,46.95 142.111,36.358 140.958,32.722 C139.514,28.167 138.174,24.447 136.846,21.485 C135.883,19.336 134.925,17.577 133.869,16.151 C131.848,13.422 129.424,11.6 125.775,11.611 z M127.211,39.053 L127.724,40.777 L126.681,40.759 L126.982,39.788 C126.983,39.787 126.983,39.787 126.983,39.786 L127.211,39.053 z M93.346,13.157 C88.116,13.684 84.95,14.657 81.133,18.506 C76.06,23.808 74.131,32.098 75.406,41.029 C77.667,56.856 89.81,61.555 100.863,54.689 C104.836,52.22 108.132,48.516 109.461,44.614 C111.773,37.829 107.82,31.441 100.256,30.496 C96.146,29.982 92.397,32.898 91.884,37.008 C91.844,38.668 91.818,40.569 93.056,41.869 L92.947,41.947 C91.823,42.54 92.366,42.319 91.339,42.655 C90.743,41.486 90.427,40.205 90.256,38.908 C89.58,34.177 90.442,30.474 91.971,28.876 C92.957,27.845 94.482,27.703 97.609,29.349 C101.275,31.278 105.81,29.871 107.739,26.205 C109.668,22.54 108.261,18.004 104.595,16.075 C101.049,14.347 97.348,13.081 93.346,13.157 z M275.252,9.007 C272.264,9.406 270.907,9.433 268.847,11.939 C266.561,15.185 267.529,13.68 265.876,16.408 L265.656,15.363 C264.821,11.306 260.855,8.694 256.798,9.529 C252.741,10.365 250.129,14.331 250.964,18.388 C252.263,24.698 253.38,29.096 254.478,32.126 C255.155,33.995 255.872,35.495 256.774,36.758 L257.281,37.411 L257.281,50.119 C257.281,54.261 260.639,57.619 264.781,57.619 C268.924,57.619 272.281,54.261 272.281,50.119 L272.281,36.055 C273.623,33.926 273.054,34.908 274.026,33.13 C274.09,33.01 277.183,26.796 278.217,24.973 C279.081,23.452 279.917,22.157 280.763,21.051 C283.279,17.76 282.651,13.053 279.361,10.537 C277.242,9.231 278.558,9.867 275.252,9.007 z" fill="#007F7F"/>
  </g>
</svg>
