<?xml version="1.0" encoding="UTF-8"?>
<!DOCTYPE svg PUBLIC "-//W3C//DTD SVG 1.1//EN" "http://www.w3.org/Graphics/SVG/1.1/DTD/svg11.dtd">
<svg version="1.1" xmlns="http://www.w3.org/2000/svg" xmlns:xlink="http://www.w3.org/1999/xlink" x="0" y="0" width="360" height="72" viewBox="0, 0, 360, 72">
  <g id="Layer_1">
    <path d="M332.022,0 C346.48,0 358.2,13.605 358.2,30.388 L358.2,41.612 C358.2,58.395 346.48,72 332.022,72 L27.978,72 C13.52,72 1.8,58.395 1.8,41.612 L1.8,30.388 C1.8,13.605 13.52,0 27.978,0 L332.022,0 z M198.617,10.39 C195.905,11.063 197.021,10.596 195.179,11.553 C193.198,12.785 192.322,14.298 191.805,16.019 C191.617,16.645 191.519,17.196 191.452,17.795 C191.418,18.094 191.399,18.34 191.375,18.702 C191.371,18.759 191.371,18.759 191.368,18.809 L191.363,18.885 C191.227,19.493 191.125,20.108 191.018,20.721 L191.015,20.738 C190.956,21.078 190.93,21.225 190.899,21.396 C190.812,21.877 190.738,22.306 190.672,22.713 C190.628,22.984 190.646,22.871 190.617,23.053 C190.33,23.598 190.054,24.15 189.785,24.704 L189.663,24.952 C189.073,22.013 189.404,23.287 188.762,21.109 C188.284,19.68 187.676,18.422 186.774,17.274 C185.152,15.208 182.776,13.807 179.834,13.806 C175.574,13.807 174.121,15.572 172.769,18.452 C172.473,19.083 172.247,19.727 172.028,20.48 C171.726,21.516 171.419,22.846 171.088,24.497 C170.517,27.345 169.869,31.2 169.226,35.516 C168.399,41.113 167.636,46.722 167.136,52.358 L167.133,52.331 C166.053,47.291 164.791,43.457 161.716,35.108 C161.619,34.846 161.619,34.846 161.522,34.584 C159.759,29.795 158.903,27.34 158.086,24.582 C156.571,19.468 154.857,16.262 151.482,14.442 C149.639,13.603 150.76,14.022 148.046,13.403 C145.78,13.508 144.453,13.51 142.461,14.796 C140.846,15.822 139.674,17.19 138.656,18.88 C136.485,22.489 134.798,28.042 132.784,36.748 C132.811,36.629 129.761,50.536 129.257,52.174 C128.039,56.133 130.261,60.33 134.22,61.548 C136.647,62.199 139.121,61.797 141.137,60.216 C141.779,59.713 142.184,58.965 142.708,58.339 C144.403,58.304 146.096,58.215 147.79,58.134 C149.734,58.048 151.678,57.93 153.625,57.913 C155.381,60.866 158.13,61.596 161.371,61.236 C164.065,60.542 166.393,58.632 166.928,55.808 L166.928,55.811 C166.928,59.953 170.286,63.311 174.428,63.311 C178.57,63.311 181.928,59.953 181.928,55.811 C181.944,55.138 181.929,55.515 181.984,54.679 L182.206,55.393 C182.687,56.666 183.477,57.861 184.795,58.847 C188.11,61.328 191.568,60.638 194.033,58.789 C195.491,57.572 196.805,56.144 197.336,54.259 C199.037,58.293 202.326,60.219 206.685,59.163 C210.644,57.945 212.866,53.748 211.648,49.789 C211.473,49.22 211.171,46.614 210.819,42.18 C210.774,41.614 210.368,36.313 210.235,34.685 C209.82,29.612 209.426,25.949 208.913,22.889 C207.967,17.256 206.957,14.196 203.803,11.902 C202.194,10.885 200.573,10.253 198.617,10.39 z M147.469,39.829 C147.526,39.984 147.583,40.139 147.64,40.293 C148.321,42.147 147.983,41.22 148.656,43.076 C147.944,43.107 148.477,43.083 147.058,43.152 L146.732,43.167 C146.962,42.156 147.18,41.142 147.398,40.129 L147.469,39.829 z M226.953,9.706 C223.83,9.752 220.711,9.832 217.995,11.607 C214.266,13.938 213.171,17.458 212.634,22.985 C212.319,26.235 212.308,30.265 212.557,34.613 C213.09,43.932 214.449,52.094 216.734,55.435 C218.36,57.81 220.63,59.009 223.263,59.601 C224.759,59.937 226.35,60.057 228.095,60.033 C230.305,60.003 232.289,59.781 234.718,59.407 C237.167,58.932 239.265,57.504 240.362,55.193 C240.755,54.365 240.808,53.415 241.031,52.526 C242.787,54.787 244.495,55.559 247.252,55.837 C252.515,55.837 256.433,55.451 259.394,54.564 C263.909,53.211 267.199,50.346 267.771,45.711 C268.19,42.318 267.038,39.601 264.9,36.629 C264.291,35.783 263.605,34.93 262.743,33.924 C262.427,33.556 262.101,33.181 261.67,32.691 C261.639,32.657 260.856,31.768 260.634,31.514 C259.385,30.091 258.621,29.164 258.017,28.316 C257.465,27.504 257.745,27.946 257.189,26.982 C257.912,27.312 258.583,27.8 259.359,27.97 C261.862,28.518 264.263,27.822 266.172,26.181 C269.216,23.372 269.406,18.627 266.596,15.583 C263.703,12.688 260.313,10.676 256.13,10.509 C252.686,10.772 250.72,11.15 247.884,13.327 C243.095,17.085 241.005,23.722 242.488,30.148 C243.04,32.54 244.169,34.729 245.801,37.02 C246.765,38.326 247.765,39.607 248.849,40.819 C248.194,40.843 248.726,40.825 247.252,40.837 C243.084,41.004 240.193,43.961 239.782,48.036 C238.251,45.172 235.465,44.423 232.437,44.582 C231.246,44.753 230.046,44.947 228.842,44.997 L228.589,43.627 L228.295,41.66 C229.494,41.554 228.76,41.588 230.499,41.667 C234.631,41.962 238.219,38.852 238.514,34.72 C238.809,30.589 235.699,27 231.568,26.705 L230.086,26.623 C227.646,26.668 228.512,26.575 227.474,26.697 L227.542,24.756 C229.35,24.915 228.409,24.82 230.362,25.049 C230.523,25.07 232.7,25.363 233.226,25.422 C237.343,25.879 241.051,22.913 241.508,18.796 C241.966,14.679 238.999,10.971 234.883,10.513 C234.562,10.478 232.588,10.212 232.268,10.171 C230.9,9.995 229.722,9.871 228.553,9.79 L226.953,9.706 z M114.249,11.469 C113.1,11.511 111.938,11.415 110.802,11.597 C106.483,12.29 102.958,14.993 100.408,18.432 C95.756,24.861 94.145,34.736 96.487,42.542 C98.95,50.753 102.763,56.175 108.258,58.347 C113.725,60.508 119.242,58.872 123.591,55.017 C126.88,52.102 129.403,47.949 130.252,43.981 C131.674,37.33 128.136,30.82 120.366,30.82 C116.224,30.82 112.866,34.178 112.866,38.32 C113.025,39.899 113.176,41.732 114.489,42.855 C114.156,43.325 114.409,42.988 113.641,43.792 L113.435,43.953 L113.224,43.68 C112.428,42.549 111.607,40.741 110.854,38.232 C109.846,34.871 110.666,29.844 112.56,27.227 C113.51,25.914 113.419,25.92 115.858,28.359 C118.787,31.288 123.536,31.288 126.465,28.359 C129.394,25.43 129.394,20.681 126.465,17.752 C122.96,14.522 119.121,11.954 114.249,11.469 z M119.738,45.757 C119.78,45.774 119.983,45.83 119.738,45.757 z" fill="#007F7F"/>
  </g>
</svg>
