<?xml version="1.0" encoding="UTF-8"?>
<!DOCTYPE svg PUBLIC "-//W3C//DTD SVG 1.1//EN" "http://www.w3.org/Graphics/SVG/1.1/DTD/svg11.dtd">
<svg version="1.1" xmlns="http://www.w3.org/2000/svg" xmlns:xlink="http://www.w3.org/1999/xlink" x="0" y="0" width="360" height="144" viewBox="0, 0, 360, 144">
  <g id="Layer_1">
    <path d="M180,0 C279.411,0 360,32.236 360,72 C360,111.764 279.411,144 180,144 C80.589,144 -0,111.764 -0,72 C-0,32.236 80.589,0 180,0 z M83.387,41.268 C78.346,41.899 74.726,44.745 74.158,50.037 C73.931,52.992 73.997,55.121 74.357,61.433 C74.533,64.525 74.608,66.195 74.636,68.009 C74.753,75.823 73.597,79.682 71.377,81.03 C70.514,81.519 70.867,81.345 70.339,81.593 C69.657,80.777 69.096,79.866 68.544,78.96 C65.844,74.461 60.009,73.002 55.51,75.701 C51.011,78.401 49.552,84.236 52.251,88.735 C59.416,100.676 68.983,104.711 81.237,97.271 C86.617,94.005 90.096,89.034 91.937,82.886 C93.272,78.428 93.721,73.602 93.633,67.725 C93.601,65.568 93.517,63.698 93.326,60.353 C93.024,55.042 92.968,53.246 93.102,51.494 C93.505,46.263 89.59,41.696 84.359,41.294 L83.387,41.268 z M138.687,38.768 C133.44,38.768 129.187,43.021 129.187,48.268 C129.187,50.84 129.035,53.635 128.736,56.923 L128.727,57.015 C127.591,54.189 128.104,55.434 127.2,53.274 C124.917,47.906 123.18,44.692 120.702,42.36 C116.09,38.019 108.96,37.942 104.717,43.337 C102.935,45.604 102.143,48.106 101.615,51.397 C100.989,55.301 100.802,60.666 100.937,67.274 C101.153,77.814 102.237,91.436 103.158,94.202 C104.818,99.18 110.198,101.87 115.175,100.21 C119.975,98.336 122.663,93.609 121.241,88.45 L121.285,88.529 C121.379,88.841 121.328,88.653 121.427,89.095 C121.425,89.087 121.414,89.019 121.398,88.91 L121.367,88.676 C123.29,92.139 122.349,90.626 124.109,93.265 C126.742,96.944 129.671,99.423 133.959,100.082 C136.722,100.508 139.281,99.713 141.232,98.211 C142.314,97.378 143.05,96.478 143.624,95.519 C144.138,94.66 144.426,93.925 144.655,93.143 C144.845,92.495 144.962,91.901 145.065,91.216 C145.188,90.402 145.292,89.406 145.394,88.162 C145.552,86.237 145.704,83.726 145.869,80.489 C145.878,80.304 146.329,70.815 146.361,70.529 C146.473,69.524 146.514,69.16 146.796,66.719 C147.228,62.976 147.448,60.959 147.658,58.644 C148.005,54.826 148.187,51.48 148.187,48.268 C148.187,43.021 143.933,38.768 138.687,38.768 z M190.939,37.143 C186.622,37.425 188.41,36.947 185.463,38.067 C180.576,40.511 177.914,43.308 173.436,49.318 C173.296,49.505 173.296,49.505 173.159,49.689 C172.507,50.561 172.814,50.154 172.237,50.911 C172.075,47.796 172.182,49.448 171.899,45.957 C171.199,41.028 167.552,37.585 162.55,37.317 L161.578,37.356 C156.353,37.831 152.502,42.452 152.977,47.677 C153.565,54.137 153.644,60.772 153.389,70.629 C153.351,72.118 153.316,73.332 153.236,76.002 C153.013,83.51 152.938,86.822 152.938,91.01 C152.938,96.256 157.192,100.51 162.438,100.51 C167.685,100.51 171.938,96.256 171.938,91.01 C171.942,89.363 171.937,90.043 171.948,88.97 C173.337,90.04 172.619,89.529 174.105,90.501 C174.986,91.047 175.862,91.547 176.868,92.091 C177.391,92.374 178.972,93.207 179.071,93.26 C181.364,94.483 182.009,94.995 182.666,96.045 C185.446,100.494 191.307,101.846 195.757,99.066 C200.206,96.285 201.558,90.424 198.778,85.975 C196.01,81.547 192.977,79.144 188.015,76.497 C187.838,76.402 186.321,75.602 185.901,75.376 C185.199,74.996 184.634,74.673 184.106,74.346 C183.66,74.07 183.097,73.623 181.917,72.597 C181.774,72.473 181.774,72.473 181.626,72.344 C180.133,71.065 180.779,71.589 179.709,70.745 C181.144,69.295 182.594,67.861 184.038,66.422 C185.468,64.886 186.518,63.56 188.394,61.043 C188.534,60.855 188.534,60.855 188.672,60.67 C191.415,56.988 192.603,55.74 193.96,55.061 C198.653,52.715 200.555,47.009 198.209,42.316 C196.581,39.434 194.224,37.742 190.939,37.143 z M278.856,40.244 C275.469,40.398 276.917,40.228 274.499,40.603 C268.167,41.816 262.474,45.916 258.098,51.705 C249.19,63.487 247.084,79.817 255.737,90.857 C266.715,104.865 281.505,105.992 291.67,96.013 C295.526,92.228 298.184,87.175 298.748,82.277 C299.631,74.618 295.161,67.602 286.702,66.951 C281.471,66.549 274.845,68.256 274.443,73.488 C274.381,75.83 276.925,80.454 278.525,82.264 L278.36,82.454 C277.522,83.276 276.794,83.587 276.23,83.544 C275.824,83.513 275.294,83.333 274.574,82.885 C273.424,82.171 272.111,80.949 270.691,79.137 C268.125,75.862 269.044,68.731 273.254,63.163 C275.012,60.838 276.88,59.492 278.074,59.263 C278.274,59.225 278.344,59.232 278.46,59.281 C278.858,59.448 279.431,59.913 280.159,60.859 C283.358,65.017 289.322,65.795 293.481,62.596 C297.64,59.397 298.417,53.433 295.218,49.274 C291.035,44.146 285.631,40.529 278.856,40.244 z M233.118,41.251 C228.514,41.301 230.578,41.251 226.924,41.371 C217.066,41.781 209.552,43.308 203.558,47.054 C199.108,49.835 197.756,55.696 200.537,60.145 C203.317,64.595 209.178,65.947 213.628,63.166 C215.592,61.933 217.893,61.563 220.12,61.117 C219.367,65.845 219.665,70.635 219.951,75.385 C219.966,75.615 219.977,75.795 220.004,76.2 C220.371,81.834 220.42,84.16 220.126,86.508 C219.475,91.715 223.168,96.463 228.374,97.113 C233.58,97.764 238.329,94.071 238.979,88.865 C239.476,84.895 239.412,81.842 238.964,74.965 C238.937,74.562 238.926,74.388 238.912,74.165 C238.437,66.791 238.624,63.466 239.716,61.062 L239.972,60.305 C241.63,60.318 240.894,60.315 242.179,60.317 C247.426,60.317 251.679,56.064 251.679,50.817 C251.679,45.571 247.426,41.317 242.179,41.317 C241.135,41.317 240.361,41.311 238.071,41.285 C235.195,41.257 236.846,41.27 233.118,41.251 z" fill="#FF0000"/>
  </g>
</svg>
