<?xml version="1.0" encoding="UTF-8"?>
<!DOCTYPE svg PUBLIC "-//W3C//DTD SVG 1.1//EN" "http://www.w3.org/Graphics/SVG/1.1/DTD/svg11.dtd">
<svg version="1.1" xmlns="http://www.w3.org/2000/svg" xmlns:xlink="http://www.w3.org/1999/xlink" x="0" y="0" width="360" height="72" viewBox="0, 0, 360, 72">
  <g id="Layer_1">
    <path d="M332.022,0 C346.48,0 358.2,13.605 358.2,30.388 L358.2,41.612 C358.2,58.395 346.48,72 332.022,72 L27.978,72 C13.52,72 1.8,58.395 1.8,41.612 L1.8,30.388 C1.8,13.605 13.52,0 27.978,0 L332.022,0 z M180.425,9.839 C176.286,9.666 172.792,12.882 172.619,17.02 C172.556,18.524 172.545,18.212 172.846,24.916 C173.017,28.706 173.093,31.375 173.077,34.051 C173.023,37.279 172.981,40.552 172.238,43.709 C171.508,43.62 170.78,43.371 170.048,43.443 C167.496,43.694 165.419,45.05 164.091,47.202 C162.036,50.799 163.285,55.38 166.882,57.435 C174.788,61.953 182.309,59.021 185.584,51.232 C187.372,46.978 188.033,41.415 188.077,34.141 C188.095,31.153 188.012,28.266 187.831,24.242 C187.579,18.636 187.572,18.457 187.606,17.645 C187.779,13.506 184.563,10.011 180.425,9.839 z M205.114,10.906 C201.9,10.906 199.293,11 196.612,11.243 C192.487,11.619 189.447,15.267 189.822,19.392 C190.143,21.051 189.873,20.436 190.351,21.335 C190.169,23.944 189.763,26.527 189.378,29.11 C189.377,29.116 189.377,29.116 189.376,29.122 C188.003,38.213 187.717,42.004 188.775,46.652 C190.573,54.555 196.639,59.19 205.728,59.19 C209.87,59.19 213.228,55.832 213.228,51.69 C213.228,47.548 209.87,44.19 205.728,44.19 C204.886,44.19 204.252,44.112 203.813,43.988 L203.593,43.918 C203.46,43.607 203.534,43.802 203.401,43.324 C203.191,42.122 203.27,42.782 203.209,41.338 C203.903,41.422 203.484,41.363 204.463,41.538 C208.513,42.406 212.5,39.826 213.368,35.776 C214.236,31.726 211.656,27.739 207.606,26.871 C205.572,26.502 206.474,26.632 204.906,26.439 L204.963,25.907 L205.114,25.906 C209.256,25.906 212.614,22.548 212.614,18.406 C212.614,14.264 209.256,10.906 205.114,10.906 z M74.954,11.182 C71.024,11.707 69.479,12.125 66.794,15.295 C65.352,17.162 64.467,19.397 63.875,22.062 C63.075,25.668 62.806,30.155 62.875,35.801 C62.906,38.283 62.994,40.72 63.153,44.061 C63.441,50.08 63.457,50.494 63.415,51.285 C63.191,55.421 66.363,58.956 70.499,59.179 C74.635,59.403 78.169,56.231 78.393,52.095 C78.515,49.787 78.315,47.482 78.223,45.176 C87.724,44.78 95.572,37.722 94.21,27.81 C92.989,19.499 85.73,12.573 76.377,11.283 L74.954,11.182 z M78.134,27.941 C78.738,28.432 79.204,29.112 79.342,29.888 L79.265,29.919 C78.541,30.126 78.969,30.027 77.972,30.163 C78.093,28.204 78.01,28.942 78.134,27.941 z M233.483,11.748 L232.142,11.809 C228.444,12.249 225.966,14.35 223.185,17.836 C220.216,21.559 216.668,27.77 215.663,30.686 C213.717,36.329 215.56,44.65 219.201,50.719 C221.439,54.45 224.224,57.159 227.992,58.113 C233.53,59.515 238.179,56.475 240.812,51.21 C242.664,47.505 241.162,43 237.458,41.147 C234.848,40.156 233.834,39.97 231.156,41.077 C230.338,38.968 230.656,39.974 230.154,38.074 C229.974,37.263 229.879,36.53 229.867,35.953 C229.87,35.602 229.862,35.759 229.883,35.482 C230.678,33.607 231.779,31.862 232.861,30.146 C234.673,30.76 233.724,30.584 235.712,30.642 C239.843,30.347 242.953,26.758 242.658,22.626 C242.479,20.116 241.978,18.032 240.882,16.196 C239.066,13.575 236.744,11.966 233.483,11.748 z M110.868,9.412 C109.481,9.58 108.054,9.544 106.707,9.915 C103.276,10.862 100.559,13.156 98.576,16.029 C96.297,19.454 95.026,23.863 94.47,29.059 C93.61,37.101 94.603,47.267 96.613,53.295 C97.922,57.225 102.17,59.348 106.099,58.038 C108.441,57.157 110.251,55.396 110.954,52.935 C111.195,52.089 111.088,51.181 111.155,50.304 C112.346,52.872 114.585,54.751 116.639,56.618 C119.784,59.313 124.519,58.949 127.215,55.804 C129.91,52.659 129.546,47.925 126.401,45.229 C125.324,44.306 124.58,43.528 124.156,42.898 C123.967,42.591 124.036,42.726 123.933,42.504 C123.73,40.793 123.937,41.483 123.512,40.385 L123.504,40.352 C123.461,40.168 123.461,40.168 123.413,39.969 L123.204,39.152 L123.394,39.012 C129.243,34.286 131.213,27.11 127.364,19.926 C124.615,14.794 118.823,10.583 113.09,9.627 L110.868,9.412 z M123.945,42.688 L123.944,42.802 L123.941,42.717 L123.945,42.688 z M123.935,42.572 C123.945,42.647 123.945,42.62 123.945,42.652 L123.936,42.597 L123.935,42.572 z M110.972,24.517 C112.284,24.872 113.381,25.933 114.142,27.009 L114.203,27.136 L113.966,27.346 C112.535,28.261 111.481,29.009 109.583,29.255 C109.813,27.623 110.125,25.949 110.972,24.517 z M263.246,10.599 C261.072,10.599 258.954,10.746 256.082,11.047 C255.566,11.101 255.148,11.146 254.254,11.244 C251.897,11.504 250.891,11.605 249.674,11.692 C245.543,11.987 242.433,15.576 242.728,19.707 C243,22.199 244.262,24.377 246.469,25.675 C247.206,26.108 248.088,26.224 248.897,26.498 C248.476,33.848 248.69,30.44 248.27,36.724 C248.113,38.994 248.009,40.43 247.67,45.072 C247.516,47.177 247.425,48.43 247.329,49.775 C247.034,53.907 250.144,57.496 254.276,57.791 C258.408,58.086 261.996,54.976 262.291,50.844 C262.387,49.509 262.477,48.262 262.63,46.165 C262.971,41.502 263.075,40.056 263.234,37.761 C263.704,30.74 263.445,34.817 263.977,25.526 C268.065,25.236 270.367,21.856 270.746,18.099 C270.746,13.957 267.389,10.599 263.246,10.599 z M147.495,11.297 C144.083,11.448 145.503,11.1 143.158,11.935 C135.672,15.481 131.121,26.428 130.806,37.105 C130.643,42.637 131.694,47.642 134.292,51.462 C137.836,56.674 143.745,58.853 150.373,57.307 C161.249,54.769 165.727,45.179 164.332,34.028 C163.223,25.159 158.543,16.177 152.39,12.661 C150.343,11.75 151.505,12.104 148.855,11.783 L147.495,11.297 z M147.464,29.31 C148.43,31.397 149.18,33.596 149.448,35.89 C149.995,40.255 149.084,42.205 146.965,42.699 L146.556,42.775 C145.709,41.252 145.857,39.222 145.799,37.547 C146.016,34.749 146.355,31.919 147.464,29.31 z M285.064,13.5 C274.699,14.596 268.015,23.337 270.808,33.667 C271.314,35.297 271.504,35.751 273.229,39.702 C273.496,40.316 273.697,40.784 273.882,41.227 L274.047,41.636 C270.036,41.469 266.831,44.089 266.098,48.022 C265.513,52.123 268.362,55.922 272.462,56.507 C280.902,57.713 287.241,55.712 289.504,49.054 C290.94,44.826 290.081,41.098 287.726,35.452 C287.504,34.92 287.274,34.383 286.976,33.701 C285.584,30.513 285.394,30.057 285.134,29.221 L285.165,29.056 C288.06,31.605 292.228,31.184 295.038,28.81 C298.074,25.992 298.25,21.246 295.431,18.211 C292.556,15.366 289.206,13.478 285.064,13.5 z" fill="#FF0000"/>
  </g>
</svg>
