<?xml version="1.0" encoding="UTF-8"?>
<!DOCTYPE svg PUBLIC "-//W3C//DTD SVG 1.1//EN" "http://www.w3.org/Graphics/SVG/1.1/DTD/svg11.dtd">
<svg version="1.1" xmlns="http://www.w3.org/2000/svg" xmlns:xlink="http://www.w3.org/1999/xlink" x="0" y="0" width="360" height="72" viewBox="0, 0, 360, 72">
  <g id="Layer_1">
    <path d="M332.022,0 C346.48,0 358.2,13.605 358.2,30.388 L358.2,41.612 C358.2,58.395 346.48,72 332.022,72 L27.978,72 C13.52,72 1.8,58.395 1.8,41.612 L1.8,30.388 C1.8,13.605 13.52,0 27.978,0 L332.022,0 z M243.434,9.279 C237.656,9.369 233.941,10.068 230.981,13.156 C228.18,16.299 227.941,20.712 227.655,24.706 C226.778,21.346 227.331,22.808 226.161,20.262 C223.973,16.115 218.621,12.839 213.521,10.945 C209.902,9.892 212.06,10.334 206.971,10.075 C202.761,11.113 200.874,11.842 198.12,15.355 C195.728,18.55 194.369,22.79 193.65,27.971 C192.612,35.46 193.04,45.377 194.336,51.533 C195.19,55.586 199.167,58.18 203.221,57.327 C206.776,56.196 209.638,53.282 209.102,49.251 C210.18,50.748 211.304,52.23 212.21,53.838 C213.588,57.744 217.872,59.793 221.778,58.415 C225.684,57.036 227.733,52.752 226.355,48.846 C225.523,46.49 224.477,44.904 221.137,40.295 L221.135,40.293 C220.497,39.411 220.776,39.799 220.297,39.131 C222.596,37.587 224.775,35.81 226.159,33.364 C227.268,31.172 226.778,32.389 227.528,29.675 C227.53,33.352 227.516,31.642 227.561,34.804 C227.774,46.825 228.474,53.178 231.823,56.388 C234.938,59.374 238.351,59.728 243.312,59.226 C244.095,59.147 244.86,59.048 245.83,58.906 C248.31,58.545 247.944,58.596 248.164,58.583 C252.299,58.34 255.454,54.791 255.211,50.656 C254.967,46.521 251.418,43.366 247.283,43.609 C246.708,43.643 246.127,43.709 245.376,43.813 C245.001,43.865 243.643,44.067 243.668,44.063 L243.087,44.143 L242.886,41.46 C243.745,41.434 243.203,41.431 244.508,41.554 C248.622,42.038 252.349,39.095 252.833,34.981 C253.317,30.868 250.374,27.14 246.261,26.656 L243.908,26.455 C242.909,26.492 243.328,26.479 242.654,26.499 L242.761,24.615 L242.787,24.303 L243.668,24.277 C244.924,24.258 246.251,24.295 247.935,24.379 C248.001,24.383 249.623,24.469 249.997,24.484 C254.136,24.657 257.63,21.442 257.803,17.303 C257.975,13.165 254.76,9.67 250.621,9.497 C250.349,9.486 248.837,9.406 248.689,9.398 C246.705,9.298 245.084,9.253 243.434,9.279 z M209.538,25.555 C211.151,26.353 210.424,25.959 211.732,26.714 L211.819,26.771 L211.579,26.928 C211.148,27.197 209.406,28.222 209.036,28.45 L208.741,28.638 C209.163,26.663 208.942,27.503 209.346,26.105 L209.538,25.555 z M151.688,10.347 C150.05,10.351 150.85,10.351 149.288,10.348 C146.382,10.499 147.668,10.418 145.427,10.575 C145.343,10.581 145.343,10.581 145.258,10.587 C142.183,10.815 140.902,10.86 139.481,10.746 C135.352,10.416 131.737,13.495 131.407,17.624 L131.424,18.452 C129.53,14.557 125.853,12.991 121.671,12.757 C118.273,12.832 114.766,14.276 112.057,16.624 C105.01,22.731 105.069,32.622 113.242,40.492 C113.98,41.241 114.748,41.991 115.278,42.91 C115.031,42.727 114.827,42.463 114.538,42.359 C111.89,41.401 110.014,41.321 107.501,42.661 C103.93,44.762 102.739,49.359 104.839,52.929 C109.306,60.524 119.803,60.093 126.005,54.499 C134.07,46.406 130.972,37.054 123.658,29.699 C124.933,30.024 124.173,29.912 125.959,29.825 C129.977,29.053 132.48,25.761 132.284,21.708 C133.199,23.871 135.3,25.058 137.522,25.535 C137.417,30.137 137.571,34.739 137.704,39.339 C137.834,43.556 137.88,45.403 137.901,47.695 C137.906,48.226 137.908,48.743 137.908,49.249 C137.908,53.391 141.266,56.749 145.408,56.749 C149.55,56.749 152.908,53.391 152.908,49.249 C152.908,48.697 152.906,48.134 152.9,47.559 C152.878,45.122 152.83,43.204 152.697,38.878 C152.595,34.397 152.372,29.909 152.539,25.427 L152.583,25.43 C156.7,25.888 160.408,22.921 160.865,18.804 C161.323,14.687 158.356,10.979 154.24,10.522 C153.39,10.45 152.541,10.353 151.688,10.347 z M117.371,44.782 C117.57,44.96 117.407,44.807 117.768,45.323 L117.371,44.782 z M173.765,10.2 L172.298,10.594 C163.534,13.919 158.436,24.16 158.426,34.708 C158.415,46.485 164.922,56.07 176.607,56.377 C182.574,56.534 187.432,53.419 190.248,48.303 C192.375,44.441 193.271,39.592 193.038,34.527 C192.536,23.595 187.164,13.495 177.936,10.781 L177.585,10.715 C175.789,9.906 177.006,10.316 173.765,10.2 z M175.466,26.781 C177.403,29.051 177.767,32.369 178.054,35.215 C178.169,37.712 177.771,39.865 177.108,41.069 L176.923,41.371 C173.771,40.899 173.457,37.334 173.426,34.722 C173.573,32.024 173.904,29.089 175.466,26.781 z" fill="#007F7F"/>
  </g>
</svg>
