<?xml version="1.0" encoding="UTF-8"?>
<!DOCTYPE svg PUBLIC "-//W3C//DTD SVG 1.1//EN" "http://www.w3.org/Graphics/SVG/1.1/DTD/svg11.dtd">
<svg version="1.1" xmlns="http://www.w3.org/2000/svg" xmlns:xlink="http://www.w3.org/1999/xlink" x="0" y="0" width="1332" height="1764" viewBox="0, 0, 1332, 1764">
  <g id="Background">
    <rect x="0" y="0" width="1332" height="1764" fill="#9EAAAC"/>
  </g>
  <g id="Layer_1">
    <path d="M52.167,54 L646.167,54 L646.167,864 L52.167,864 z" fill="#EBEDEA"/>
    <path d="M682.167,54 L1276.167,54 L1276.167,864 L682.167,864 z" fill="#95609A"/>
    <path d="M52.167,900 L646.167,900 L646.167,1710 L52.167,1710 z" fill="#CF6B2A"/>
    <path d="M685.843,899.333 L1279.843,899.333 L1279.843,1709.333 L685.843,1709.333 z" fill="#4A7FC0"/>
    <path d="M502.949,1118.355 C615.757,1134.425 646.177,1187.684 646.178,1326.241 C646.179,1372.427 646.178,1506.933 646.178,1506.933 C646.178,1506.933 52.157,1580.888 52.157,1580.888 L52.157,1297.81 C52.157,1297.81 420.267,1106.577 502.949,1118.355 z" fill="#43403E"/>
    <path d="M214.878,179.974 L216.599,180 C235.707,208.086 256.85,255.231 283.778,275.612 C315.278,290.136 392.296,288.132 412.94,275.153 C433.584,262.174 483.44,181.002 483.44,181.002 C483.44,181.002 625.123,192.971 627.94,214.556 C630.757,236.141 622.44,356.873 622.44,356.873 L584.309,384.772 C584.309,384.772 582.107,439.508 571.44,464.401 C570.952,465.043 646.167,434.903 646.167,434.903 L646.167,524.295 C646.167,524.295 537.034,563.621 524.822,579.9 C512.611,596.179 514.421,653.372 514.421,653.372 L646.167,644.07 L646.167,864 C646.167,864 52.168,864 52.168,864 C52.168,864 52.168,644.07 52.168,644.07 L183.914,653.372 C183.914,653.372 183.129,593.007 173.513,579.9 C163.897,566.793 52.168,524.584 52.168,524.584 L52.168,435.855 C52.168,435.855 127.155,464.991 126.895,464.401 C117.59,442.301 114.026,384.772 114.026,384.772 L75.895,356.873 C75.895,356.873 67.752,238.087 70.395,214.556 C76.918,206.833 88.019,203.49 97.264,200.421 C111.223,195.787 125.604,192.387 139.999,189.434 C164.541,184.4 189.766,180.188 214.878,179.974 z" fill="#2E324F"/>
    <path d="M514.83,372.725 C514.83,372.725 513.286,402.408 472.393,406.887 C431.499,411.366 436.643,372.209 436.643,372.209 L514.83,372.725 z" fill="#EBEDEA"/>
    <path d="M183.732,372.725 C183.732,372.725 185.275,402.408 226.169,406.887 C267.063,411.366 261.919,372.209 261.919,372.209 L183.732,372.725 z" fill="#EBEDEA"/>
    <g>
      <path d="M226.62,406.378 C213.871,406.378 203.535,396.436 203.535,384.172 C203.535,371.908 213.871,361.966 226.62,361.966 C239.37,361.966 249.706,371.908 249.706,384.172 C249.706,396.436 239.37,406.378 226.62,406.378 z" fill="#AF9C11"/>
      <path d="M226.62,406.378 C213.871,406.378 203.535,396.436 203.535,384.172 C203.535,371.908 213.871,361.966 226.62,361.966 C239.37,361.966 249.706,371.908 249.706,384.172 C249.706,396.436 239.37,406.378 226.62,406.378 z" fill-opacity="0" stroke="#403907" stroke-width="2"/>
    </g>
    <g>
      <path d="M476.132,406.378 C463.382,406.378 453.047,396.436 453.047,384.172 C453.047,371.908 463.382,361.966 476.132,361.966 C488.882,361.966 499.218,371.908 499.218,384.172 C499.218,396.436 488.882,406.378 476.132,406.378 z" fill="#AF9C11"/>
      <path d="M476.132,406.378 C463.382,406.378 453.047,396.436 453.047,384.172 C453.047,371.908 463.382,361.966 476.132,361.966 C488.882,361.966 499.218,371.908 499.218,384.172 C499.218,396.436 488.882,406.378 476.132,406.378 z" fill-opacity="0" stroke="#403907" stroke-width="2"/>
    </g>
    <path d="M475.632,395.134 C469.466,395.134 464.468,390.002 464.468,383.672 C464.468,377.341 469.466,372.209 475.632,372.209 C481.798,372.209 486.796,377.341 486.796,383.672 C486.796,390.002 481.798,395.134 475.632,395.134 z" fill="#000000"/>
    <path d="M226.12,395.134 C219.955,395.134 214.956,390.002 214.956,383.672 C214.956,377.341 219.955,372.209 226.12,372.209 C232.286,372.209 237.284,377.341 237.284,383.672 C237.284,390.002 232.286,395.134 226.12,395.134 z" fill="#000000"/>
    <path d="M269.765,473.633 C309.987,466.082 297.426,500.767 337.875,533.37 C352.654,606.569 291.207,554.443 283,538.158 C274.793,521.872 259.901,474.385 269.765,473.633 z" fill="#141528"/>
    <path d="M954.569,122.391 C989.721,120.391 1077.601,184.391 1077.601,184.391 C1077.601,184.391 1138.363,187.391 1190.086,199.391 C1241.81,211.391 1277.236,601.391 1277.236,601.391 L1203.023,616.787 L1001.271,349.391 L894.309,394.891 L832.543,534.391 L985.704,864 C985.704,864 683.399,862.891 680.66,864 C680.888,596.391 665.321,265.391 713.529,240.39 C761.737,215.391 805.426,164.391 836.058,172.891 C866.69,181.391 919.418,124.391 954.569,122.391 z" fill="#332024"/>
    <path d="M428.667,474.113 C388.554,466.004 400.634,500.861 359.738,532.899 C343.949,605.887 406.111,554.617 414.542,538.448 C422.973,522.278 438.52,475.001 428.667,474.113 z" fill="#141528"/>
    <path d="M193.976,758.701 C219.924,733.624 301.145,757.308 357.681,755.915 C414.217,754.521 485.016,744.073 514.921,763.577" fill-opacity="0" stroke="#141528" stroke-width="20"/>
    <path d="M109.108,649.535 L52.167,644.07 L52.167,864 L646.165,864 L646.165,644.07 L584.307,648.142 C584.307,648.142 535.57,804.175 505.938,827.162 C476.307,850.149 488.129,758.28 479.089,774.958 C470.048,791.637 238.462,787.536 221.076,774.958 C203.689,762.38 231.94,831.342 193.474,843.184 C155.007,855.025 109.108,649.535 109.108,649.535 z" fill="#141528"/>
    <path d="M878.343,348.287 C878.843,346.287 902.963,280.891 1031.963,283.891 C1160.963,286.891 1174.463,616.391 1167.963,631.891 C1112.463,639.891 1045.209,861.468 906.463,834.01 C835.152,763.992 766.963,587.891 810.944,545.391 C752.944,502.391 809.843,268.787 878.343,348.287 z" fill="#A8757A"/>
    <path d="M1156.963,515.891 C1130.463,516.391 1204.963,359.891 1254.463,465.391 C1303.963,570.891 1169.276,650.891 1169.276,650.891 C1169.276,650.891 1127.963,565.891 1156.963,515.891 z" fill="#A8757A"/>
    <path d="M1279.77,601.835 C1279.997,602.335 1279.77,863.731 1279.77,863.731 C1279.77,863.731 865.997,865.335 865.877,863.731 C895.997,813.335 1179.497,584.835 1279.77,601.835 z" fill="#89A0E3"/>
    <path d="M782.463,482.391 C777.463,467.44 878.963,508.391 869.963,509.891 C860.963,511.391 812.464,485.891 776.964,501.391 C741.464,516.891 787.463,497.341 782.463,482.391 z" fill="#332024"/>
    <path d="M1196.284,1113.896 C1196.284,1113.896 680.445,1350.236 680.838,1357.957 C681.231,1365.678 1212.153,1138.128 1212.153,1138.128 L1196.284,1113.896 z" fill="#BDC0CE"/>
    <path d="M997.304,418.193 C1009.736,427.378 1013.416,430.838 1014.956,432.31 C1008.827,435.896 1015.368,432.282 1000.839,440.93 C986.31,449.578 947.82,473.753 926.463,493.391 C905.105,513.029 972.032,442.615 997.304,418.193 z" fill="#332024"/>
    <path d="M1042.963,387.391 C1070.463,388.391 1105.463,448.391 1105.463,448.391 C1105.463,448.391 1066.963,413.891 1037.963,421.391 C1030.137,423.716 1024.975,425.674 1017.957,429.78 C1008.886,421.781 1005.89,417.125 1002.366,413.985 C1012.387,405.036 1027.889,387.634 1042.963,387.391 z" fill="#332024"/>
    <path d="M1111.974,494.923 L1111.974,494.923 L1111.974,494.923 C1114.46,494.923 1116.474,492.908 1116.474,490.423 C1116.474,487.938 1114.46,485.923 1111.974,485.923 L1111.974,485.923 C1111.974,485.923 1111.974,485.923 1111.974,485.923 C1109.489,485.923 1107.474,487.938 1107.474,490.423 C1107.474,492.908 1109.489,494.923 1111.974,494.923 L1111.974,494.923" fill="#332024"/>
    <path d="M889.113,658.322 C884.18,664.57 905.884,684.959 905.884,684.959 C905.884,684.959 960.143,648.786 946.661,654.376 C933.178,659.967 894.046,652.074 889.113,658.322 z" fill="#332024"/>
    <path d="M1174.312,509.955 C1201.241,427.365 1228.41,453.572 1239.71,468.238 C1251.01,482.904 1236.344,437.463 1208.694,445.637 C1181.045,453.812 1174.312,506.467 1174.312,509.955 z" fill="#332024"/>
    <path d="M1187.777,534.116 C1187.777,534.116 1185.853,494.686 1209.896,504.303 C1233.939,513.92 1202.203,568.738 1201.722,577.153 C1204.607,553.591 1187.777,534.116 1187.777,534.116 z" fill="#332024"/>
    <path d="M919.014,526.966 C965.336,542.508 1066.209,521.785 1111.922,458.701 C1099.732,449.559 1082.056,415.935 1040.915,423.909 C999.773,431.883 909.566,502.281 919.014,526.966 z" fill="#563F57"/>
    <path d="M876.936,537.082 C846.575,550.664 836.794,562.733 805.634,545.555 C783.856,518.306 774.321,490.208 815.462,498.182 C856.604,506.156 865.75,511.116 876.936,537.082 z" fill="#563F57"/>
    <path d="M1192.614,1253.985 C1202.05,1249.821 1205.788,1279.954 1205.788,1279.954 L1260.752,1305.884 L1228.213,1326.77 C1228.213,1326.77 1183.178,1258.15 1192.614,1253.985 z" fill="#BDC0CE"/>
    <path d="M888.384,742.353 C887.683,735.338 880.668,716.397 915.393,703.77 C950.118,691.142 971.514,701.314 991.858,695.351 C1012.202,689.388 924.513,743.756 888.384,742.353 z" fill="#563F57"/>
    <path d="M233.396,1541.472 C233.396,1541.472 188.404,1560.891 117.51,1566.713 C83.315,1569.52 125.395,1710 125.395,1710 C125.395,1710 549.65,1708.985 552.45,1708.952 C507.05,1633.893 487.555,1535.493 487.555,1535.493 L233.396,1541.472 z" fill="#5F554F"/>
    <path d="M888.384,742.353 C895.984,765.952 912.929,774.071 933.2,769.069 C977.542,753.151 994.881,694.894 994.881,694.894 C994.881,694.894 930.424,739.068 888.384,742.353 z" fill="#95609A"/>
    <path d="M1100.463,234.856 C1079.595,242.085 1053.615,289.091 1053.615,289.091 L1075.115,300.091 L1100.463,272.205 C1100.463,272.205 1115.161,283.843 1115.615,284.091 C1110.519,278.631 1137.025,257.747 1137.025,257.747 C1137.025,257.747 1112.125,248.109 1100.463,234.856 z" fill="#89A0E3"/>
    <path d="M1152.31,305.07 C1131.442,312.299 1096.706,349.824 1105.463,359.305 C1114.219,368.787 1126.343,382.464 1126.963,370.305 C1127.582,358.147 1152.31,342.419 1152.31,342.419 C1152.31,342.419 1161.978,354.93 1161.731,356.167 C1161.483,357.404 1168.66,342.309 1178.063,329.937 C1184.002,328.204 1159.999,323.503 1152.31,305.07 z" fill="#89A0E3"/>
    <path d="M1100.463,234.856 C1094.671,223.534 1192.799,216.634 1214.55,234.856 C1185.365,227.372 1137.189,249.508 1137.025,257.747 C1136.86,265.987 1106.254,246.178 1100.463,234.856 z" fill="#95609A"/>
    <path d="M169.609,1001.285 C175.123,984.307 120.024,1195.661 125.823,1231.735 C131.623,1267.808 151.285,1491.661 196.365,1514.117 C231.971,1559.9 216.184,1672.08 378.526,1708.952 C505.318,1731.922 488.878,1369.946 533.093,1338.995 C577.308,1308.045 506.657,1134.912 506.657,1134.912 C506.657,1134.912 423.123,945.453 419.123,973.63 C415.123,1001.807 298.591,1111.213 309.607,1129.76 C320.623,1148.308 164.095,1018.262 169.609,1001.285 z" fill="#997968"/>
    <path d="M1152.31,305.07 C1158.481,300.913 1215.418,289.464 1235.842,313.291 C1198.708,314.838 1178.063,329.937 1178.063,329.937 C1178.063,329.937 1146.14,309.227 1152.31,305.07 z" fill="#95609A"/>
    <path d="M222.089,1385.231 C204.845,1407.044 220.358,1468.443 158.252,1388.404 C96.147,1308.366 141.154,996.268 141.154,996.268 C141.154,996.268 242.286,1158.162 304.734,1143.579 C367.181,1128.996 431.421,970.773 431.421,970.773 C431.421,970.773 628.248,1327.81 526.397,1326.839 C372.403,1321.005 361.011,1307.88 222.089,1385.231 z" fill="#5F554F"/>
    <path d="M553.877,1276.68 C527.05,1326.378 669.949,1134.002 642.69,1162.603 C615.431,1191.203 537.422,1173.081 576.427,1152.95 C615.431,1132.82 514.421,900 514.421,900 L406.411,900 C406.411,900 371.928,915.217 335.917,935.608 C299.906,955.999 304.014,900 304.014,900 C304.014,900 254.076,898.5 176.983,900 C99.889,901.5 104.523,945.425 88.985,1000 C73.447,1054.576 51.382,803.499 52.178,981.435 C52.974,1159.372 52.178,1382.379 52.178,1382.379 C52.178,1382.379 213.639,1544.229 169.328,1416.533 C90.405,1230.768 158.866,1110.625 170.039,1001.004 C155.628,992.41 241.096,1103.243 316.284,1143.084 C309.095,1125.438 416.06,1013.64 426.76,971.325 C434.563,996.753 510.397,1088.985 553.877,1276.68 z" fill="#E3CE96"/>
    <path d="M248.651,1507.696 C234.705,1500.724 286.419,1543.722 393.948,1546.997 C417.737,1540.526 467.812,1516.769 467.812,1516.769 C467.812,1516.769 458.173,1566.233 407.133,1573.79 C287.29,1570.45 285.547,1553.89 248.651,1507.696 z" fill="#443733"/>
    <path d="M413.732,1349.497 C423.991,1359.656 428.047,1400.697 462.68,1400.236 C525.481,1394.694 529.175,1302.802 529.175,1302.802 C529.175,1302.802 552.726,1275.557 535.64,1279.251 C488.539,1291.257 387.411,1319.887 413.732,1349.497 z" fill="#443733"/>
    <path d="M155.73,1347.032 C126.144,1247.485 52.517,1142.011 52.157,1271.295 C52.157,1270.48 53.021,1341.248 52.178,1407.104 C54.33,1448.235 212.626,1513.568 185.216,1445.043 C188.954,1432.169 172.757,1397.699 155.73,1347.032 z" fill="#997968"/>
    <path d="M327.679,1492.357 C327.679,1492.357 382.791,1509.57 395.006,1505.683 C407.221,1501.796 431.841,1481.253 431.841,1481.253 C431.841,1481.253 427.034,1521.229 401.581,1527.337 C376.128,1533.445 327.679,1492.357 327.679,1492.357 z" fill="#443733"/>
    <path d="M303.364,1573.486 C303.364,1573.486 369.055,1593.756 386.973,1591.385 C404.891,1589.014 456.156,1566.713 456.156,1566.713 C456.156,1566.713 424.31,1593.479 386.973,1597.205 C349.636,1600.931 303.364,1573.486 303.364,1573.486 z" fill="#443733"/>
    <path d="M279.737,1530.357 C292.52,1551.643 369.78,1552.711 391.29,1548.995 C412.801,1545.279 456.156,1525.637 456.156,1525.637 C456.156,1525.637 447.692,1563.86 402.869,1569.699 C323.189,1576.143 300.074,1551.643 279.737,1530.357 z" fill="#E3CE96"/>
    <path d="M296.465,1547.908 L297.153,1548.425 L298.603,1549.323 L300.128,1550.098 L301.71,1550.75 L303.331,1551.305 L304.979,1551.784 L306.645,1552.199 L308.323,1552.557 L310.84,1553.027 L314.19,1553.571 L316.668,1553.972 L318.286,1554.257 L319.88,1554.573 L321.445,1554.914 L322.197,1555.099 L322.142,1555.086 L322.589,1555.208 L323.361,1555.47 L324.09,1555.772 L324.818,1556.119 L325.941,1556.713 L327.446,1557.601 L328.99,1558.55 L330.623,1559.502 L331.938,1560.19 L332.879,1560.618 L333.844,1560.998 L334.854,1561.325 L335.417,1561.476 L335.417,1561.476 C335.438,1561.481 335.458,1561.485 335.478,1561.49 L335.478,1561.49 L336.333,1561.69 L338.171,1562.07 L340.113,1562.414 L342.133,1562.713 L344.227,1562.974 L346.389,1563.194 L348.611,1563.378 L350.891,1563.524 L353.22,1563.63 L355.593,1563.689 L358.003,1563.717 L360.445,1563.699 L362.91,1563.651 L365.394,1563.563 L369.134,1563.376 L374.127,1563.022 L377.856,1562.686 L380.319,1562.433 L382.751,1562.158 L385.151,1561.864 L387.511,1561.55 L389.827,1561.22 L392.091,1560.874 L394.297,1560.515 L396.44,1560.142 L398.512,1559.757 L400.507,1559.36 L402.42,1558.954 L404.244,1558.542 L405.972,1558.122 L406.804,1557.907 L406.804,1557.907 C406.808,1557.906 406.812,1557.905 406.817,1557.904 L406.817,1557.904 L408.353,1557.486 L411.455,1556.561 L414.566,1555.537 L417.675,1554.422 L420.778,1553.224 L423.872,1551.951 L426.952,1550.608 L430.017,1549.211 L433.059,1547.758 L436.078,1546.262 L439.068,1544.732 L442.023,1543.168 L444.943,1541.589 L447.821,1539.994 L450.651,1538.39 L453.435,1536.793 L454.805,1535.996 L454.805,1535.996 C454.807,1535.995 454.807,1535.993 454.807,1535.992 C454.806,1535.99 454.804,1535.99 454.802,1535.991 L453.417,1536.762 L450.606,1538.307 L447.737,1539.838 L444.822,1541.357 L441.864,1542.856 L438.864,1544.318 L435.833,1545.746 L432.773,1547.126 L429.689,1548.451 L426.588,1549.719 L423.472,1550.911 L420.35,1552.03 L417.227,1553.064 L414.106,1554.006 L410.996,1554.85 L407.893,1555.587 L406.336,1555.918 L406.349,1555.915 L405.535,1556.076 L403.821,1556.392 L402.01,1556.695 L400.108,1556.981 L398.124,1557.252 L396.063,1557.506 L393.932,1557.745 L391.738,1557.967 L389.487,1558.169 L387.186,1558.353 L384.842,1558.519 L382.462,1558.665 L380.051,1558.791 L377.622,1558.898 L373.947,1559.019 L369.016,1559.112 L365.329,1559.13 L362.894,1559.113 L360.482,1559.083 L358.099,1559.025 L355.752,1558.956 L353.448,1558.858 L351.192,1558.745 L348.993,1558.609 L346.855,1558.445 L344.787,1558.248 L342.796,1558.026 L340.889,1557.769 L339.073,1557.484 L337.337,1557.161 L336.478,1556.981 L336.539,1556.995 L336.205,1556.921 L335.458,1556.71 L334.708,1556.443 L333.969,1556.136 L332.817,1555.588 L331.223,1554.73 L329.563,1553.806 L327.836,1552.892 L326.484,1552.258 L325.527,1551.878 L324.533,1551.544 L323.54,1551.278 L323.086,1551.182 L323.086,1551.182 C323.068,1551.178 323.049,1551.174 323.031,1551.17 L323.031,1551.17 L322.171,1551.013 L320.481,1550.748 L318.789,1550.547 L317.094,1550.383 L314.57,1550.191 L311.221,1549.982 L308.724,1549.824 L307.076,1549.694 L305.438,1549.54 L303.81,1549.348 L302.191,1549.109 L300.574,1548.824 L298.948,1548.496 L297.304,1548.105 L296.468,1547.902 C296.466,1547.901 296.464,1547.902 296.464,1547.904 C296.463,1547.905 296.464,1547.907 296.465,1547.908 L296.465,1547.908" fill="#443733"/>
    <path d="M311.899,408.368 C311.899,408.368 344.44,418.884 383.44,408.868" fill-opacity="0" stroke="#000000" stroke-width="20"/>
    <path d="M556.149,408.368 C556.149,408.368 567.429,406.161 582.469,408.368" fill-opacity="0" stroke="#000000" stroke-width="20"/>
    <path d="M141.665,408.368 C141.665,408.368 124.856,412.712 118,413.194" fill-opacity="0" stroke="#000000" stroke-width="20"/>
    <path d="M892.565,1113.896 C926.145,1135.229 927.477,1159.505 927.477,1159.505 C927.477,1159.505 1030.565,1089.896 1097.819,1180.396 C1332.565,1289.396 1256.34,1710.008 1256.565,1710 C1256.789,1709.992 719.961,1709.551 719.565,1710 C630.662,1476.896 721.065,1225.396 884.945,1170 C879.565,1152.896 872.565,1113.896 892.565,1113.896 z" fill="#483029"/>
    <path d="M1232.269,1068.363 C1208.759,1068.363 1189.7,1089.057 1189.7,1114.584 C1189.7,1140.111 1208.759,1160.805 1232.269,1160.805 C1255.779,1160.805 1274.838,1140.111 1274.838,1114.584 C1274.838,1089.057 1255.779,1068.363 1232.269,1068.363 z" fill="#D82421"/>
    <path d="M164.451,1306.848 C159.66,1312.574 193.486,1349.497 193.486,1349.497 C193.486,1349.497 224.112,1428.925 273.348,1419.346 C322.584,1409.766 339.97,1346.06 318.847,1349.497 C266.562,1345.408 204.04,1328.677 164.451,1306.848 z" fill="#443733"/>
    <path d="M802.183,1710 C802.183,1710 737.671,1533.906 743.468,1475.941 C749.265,1417.977 861.261,1368.021 868.13,1367.598 C874.999,1367.175 830.572,1436.604 808.546,1447.611 C786.519,1458.618 999.464,1355.212 1021.478,1340.026 C1043.492,1324.84 964.326,1404.94 933.421,1421.195 C902.517,1437.451 1102.143,1380.613 1134.627,1340.026 C1167.11,1299.439 1202.175,1710.425 1185.342,1710 C1168.51,1709.574 802.183,1710 802.183,1710 z" fill="#E7B3A5"/>
    <path d="M1191.282,1193.83 C1185.082,1193.83 1180.056,1185.249 1180.056,1174.662 C1180.056,1164.077 1185.082,1155.495 1191.282,1155.495 C1197.483,1155.495 1202.509,1164.077 1202.509,1174.662 C1202.509,1185.249 1197.483,1193.83 1191.282,1193.83 z" fill="#BDC0CE"/>
    <path d="M1191.282,1228.212 C1185.084,1228.212 1180.059,1220.515 1180.059,1211.021 C1180.059,1201.527 1185.084,1193.83 1191.282,1193.83 C1197.481,1193.83 1202.506,1201.527 1202.506,1211.021 C1202.506,1220.515 1197.481,1228.212 1191.282,1228.212 z" fill="#BDC0CE"/>
    <path d="M1192.614,1253.985 C1187.149,1253.985 1182.719,1248.216 1182.719,1241.098 C1182.719,1233.981 1187.149,1228.212 1192.614,1228.212 C1198.079,1228.212 1202.509,1233.981 1202.509,1241.098 C1202.509,1248.216 1198.079,1253.985 1192.614,1253.985 z" fill="#BDC0CE"/>
    <path d="M1190.844,1167.759 C1182.887,1169.67 1173.011,1156.963 1168.786,1139.376 C1164.562,1121.789 1167.587,1105.982 1175.544,1104.071 C1183.501,1102.159 1193.377,1114.866 1197.602,1132.453 C1201.827,1150.04 1198.801,1165.847 1190.844,1167.759 z" fill="#BDC0CE"/>
    <path d="M1001.347,1468.226 C1027.159,1428.848 1160.846,1457.637 1175.737,1496.022 C1116.533,1457.215 1035.002,1475.545 1018.482,1486.449 C1007.232,1490.089 977.853,1478.484 1001.347,1468.226 z" fill="#483029"/>
    <path d="M914.04,1468.566 C936.119,1465.633 928.837,1488.519 906.79,1492.786 C872.193,1486.757 812.352,1500.511 770.411,1536.541 C782.3,1485.165 895.358,1457.063 914.04,1468.566 z" fill="#483029"/>
    <path d="M960.378,1699.706 C966.957,1689.357 954.976,1682.205 947.539,1693.47 C940.101,1704.735 971.582,1710.842 983.445,1709.906 C995.308,1708.97 1030.038,1694.117 1016.621,1682.646 C1003.204,1671.175 995.861,1694.597 1003.365,1698.726 C987.56,1676.275 981.333,1668.602 960.378,1699.706 z" fill="#834645"/>
    <g>
      <path d="M1070.103,477.385 C1049.873,451.937 958.441,455.673 949.313,510.455 C952.817,557.875 1082.079,511.956 1070.103,477.385 z" fill="#FFFFFF"/>
      <path d="M1070.103,477.385 C1049.873,451.937 958.441,455.673 949.313,510.455 C952.817,557.875 1082.079,511.956 1070.103,477.385 z" fill-opacity="0" stroke="#000000" stroke-width="5"/>
    </g>
    <g>
      <path d="M859.074,532.403 C866.102,554.297 819.142,562.284 801.572,544.075 C786.558,506.06 854.921,498.393 859.074,532.403 z" fill="#FFFFFF"/>
      <path d="M859.074,532.403 C866.102,554.297 819.142,562.284 801.572,544.075 C786.558,506.06 854.921,498.393 859.074,532.403 z" fill-opacity="0" stroke="#000000" stroke-width="5"/>
    </g>
    <path d="M1011.56,463.729 C967.309,462.245 967.156,538.727 1016.233,524.048 C1068.814,518.79 1053.636,453.286 1011.56,463.729 z" fill="#000000"/>
    <path d="M1014.328,493.438 C1006.247,493.438 999.696,488.137 999.696,481.598 C999.696,475.059 1006.247,469.759 1014.328,469.758 C1022.408,469.758 1028.959,475.059 1028.959,481.598 C1028.959,488.137 1022.408,493.438 1014.328,493.438 z" fill="#FFFFFF"/>
    <path d="M831.598,510.246 C814.2,510.378 819.853,551.306 834.996,551.306 C878.425,545.662 848.997,510.114 831.598,510.246 z" fill="#000000"/>
    <path d="M842.142,526.004 C838.296,526.004 835.178,523.408 835.178,520.206 C835.178,517.004 838.296,514.409 842.142,514.409 C845.989,514.409 849.107,517.004 849.107,520.206 C849.107,523.408 845.989,526.004 842.142,526.004 z" fill="#FFFFFF"/>
    <g>
      <path d="M432.341,1328.931 C456.916,1399.974 518.209,1370.104 515.341,1292.726 C479.365,1304.173 458.219,1321.765 432.341,1328.931 z" fill="#FFFFFF"/>
      <path d="M432.341,1328.931 C456.916,1399.974 518.209,1370.104 515.341,1292.726 C479.365,1304.173 458.219,1321.765 432.341,1328.931 z" fill-opacity="0" stroke="#997968" stroke-width="2"/>
    </g>
    <g>
      <path d="M219.961,1332.211 C249.232,1334.477 275.513,1346.747 309.369,1349.997 C292.726,1408.919 215.288,1420.297 219.961,1332.211 z" fill="#FFFFFF"/>
      <path d="M219.961,1332.211 C249.232,1334.477 275.513,1346.747 309.369,1349.997 C292.726,1408.919 215.288,1420.297 219.961,1332.211 z" fill-opacity="0" stroke="#997968" stroke-width="2"/>
    </g>
    <g>
      <path d="M256.67,1372.281 C243.654,1372.281 233.103,1362.243 233.103,1349.86 C233.103,1337.478 243.654,1327.44 256.67,1327.44 C269.685,1327.44 280.237,1337.478 280.237,1349.86 C280.237,1362.243 269.685,1372.281 256.67,1372.281 z" fill="#000000"/>
      <path d="M256.67,1372.281 C243.654,1372.281 233.103,1362.243 233.103,1349.86 C233.103,1337.478 243.654,1327.44 256.67,1327.44 C269.685,1327.44 280.237,1337.478 280.237,1349.86 C280.237,1362.243 269.685,1372.281 256.67,1372.281 z" fill-opacity="0" stroke="#CF6B2A" stroke-width="10"/>
    </g>
    <g>
      <path d="M466.566,1345.731 C455.111,1345.731 445.825,1336.649 445.825,1325.444 C445.825,1314.24 455.111,1305.157 466.566,1305.157 C478.021,1305.157 487.307,1314.24 487.307,1325.444 C487.307,1336.649 478.021,1345.731 466.566,1345.731 z" fill="#000000"/>
      <path d="M466.566,1345.731 C455.111,1345.731 445.825,1336.649 445.825,1325.444 C445.825,1314.24 455.111,1305.157 466.566,1305.157 C478.021,1305.157 487.307,1314.24 487.307,1325.444 C487.307,1336.649 478.021,1345.731 466.566,1345.731 z" fill-opacity="0" stroke="#CF6B2A" stroke-width="10"/>
    </g>
    <path d="M332.451,1338.978 C304.951,1310.348 268.951,1186.348 281.951,1256.848 C294.951,1327.348 208.451,1188.348 215.951,1240.348 C223.451,1292.348 118.951,1185.348 150.951,1243.348 C182.951,1301.348 131.451,1282.348 164.451,1306.848 C197.451,1331.348 359.951,1367.608 332.451,1338.978 z" fill="#E3CE96"/>
    <path d="M250.593,1353.427 C246.09,1353.427 242.441,1350.193 242.441,1346.203 C242.441,1342.213 246.09,1338.978 250.593,1338.978 C255.095,1338.978 258.745,1342.213 258.745,1346.203 C258.745,1350.193 255.095,1353.427 250.593,1353.427 z" fill="#FFFFFF"/>
    <path d="M460.709,1329.458 C456.207,1329.458 452.557,1326.224 452.557,1322.234 C452.557,1318.244 456.207,1315.009 460.709,1315.009 C465.212,1315.009 468.861,1318.244 468.861,1322.234 C468.861,1326.224 465.212,1329.458 460.709,1329.458 z" fill="#FFFFFF"/>
    <path d="M412.181,1333.639 C472.992,1315.568 522.949,1290.597 552.45,1266.223 C581.951,1241.848 529.449,1237.744 552.45,1195.796 C575.451,1153.848 463.21,1291.622 488.58,1223.485 C513.951,1155.348 430.906,1329.281 423.928,1263.815 C416.951,1198.348 385.411,1370.93 412.181,1333.639 z" fill="#E3CE96"/>
    <g>
      <path d="M1031.342,1599.1 C1064.465,1623.125 1125.02,1589.151 1153.078,1568.26 C1145.492,1543.82 1023.697,1473.154 1031.342,1599.1 z" fill="#FFFFFF"/>
      <path d="M1031.342,1599.1 C1064.465,1623.125 1125.02,1589.151 1153.078,1568.26 C1145.492,1543.82 1023.697,1473.154 1031.342,1599.1 z" fill-opacity="0" stroke="#000000" stroke-width="10"/>
    </g>
    <g>
      <path d="M1075.722,1593.251 C1060.345,1593.251 1047.879,1580.668 1047.879,1565.146 C1047.879,1549.624 1060.345,1537.041 1075.722,1537.041 C1091.099,1537.041 1103.565,1549.624 1103.565,1565.146 C1103.565,1580.668 1091.099,1593.251 1075.722,1593.251 z" fill="#000000"/>
      <path d="M1075.722,1593.251 C1060.345,1593.251 1047.879,1580.668 1047.879,1565.146 C1047.879,1549.624 1060.345,1537.041 1075.722,1537.041 C1091.099,1537.041 1103.565,1549.624 1103.565,1565.146 C1103.565,1580.668 1091.099,1593.251 1075.722,1593.251 z" fill-opacity="0" stroke="#483029" stroke-width="15"/>
    </g>
    <path d="M1067.917,1558.363 C1060.014,1558.363 1053.607,1553.478 1053.607,1547.452 C1053.607,1541.426 1060.014,1536.541 1067.917,1536.541 C1075.82,1536.541 1082.226,1541.426 1082.226,1547.452 C1082.226,1553.478 1075.82,1558.363 1067.917,1558.363 z" fill="#FFFFFF"/>
    <g>
      <path d="M920.422,1599.1 C920.422,1631.633 850.396,1629.336 809.046,1617.85 C804.123,1567.64 920.422,1501.502 920.422,1599.1 z" fill="#FFFFFF"/>
      <path d="M920.422,1599.1 C920.422,1631.633 850.396,1629.336 809.046,1617.85 C804.123,1567.64 920.422,1501.502 920.422,1599.1 z" fill-opacity="0" stroke="#000000" stroke-width="10"/>
    </g>
    <g>
      <path d="M875.051,1615.348 C859.674,1615.348 847.209,1602.765 847.209,1587.243 C847.209,1571.72 859.674,1559.138 875.051,1559.138 C890.428,1559.137 902.894,1571.72 902.894,1587.243 C902.894,1602.765 890.429,1615.348 875.051,1615.348 z" fill="#000000"/>
      <path d="M875.051,1615.348 C859.674,1615.348 847.209,1602.765 847.209,1587.243 C847.209,1571.72 859.674,1559.138 875.051,1559.138 C890.428,1559.137 902.894,1571.72 902.894,1587.243 C902.894,1602.765 890.429,1615.348 875.051,1615.348 z" fill-opacity="0" stroke="#483029" stroke-width="15"/>
    </g>
    <path d="M879.332,1581.936 C871.429,1581.936 865.023,1577.051 865.023,1571.024 C865.023,1564.998 871.429,1560.113 879.332,1560.113 C887.235,1560.113 893.642,1564.998 893.642,1571.024 C893.642,1577.051 887.235,1581.936 879.332,1581.936 z" fill="#FFFFFF"/>
    <g>
      <path d="M941.942,1546.225 C946.419,1473.677 735.892,1572.624 766.289,1571.989 C769.108,1545.772 773.192,1731.236 907.487,1658.433 C945.553,1644.632 944.239,1574.231 942.307,1551.278 C1001.269,1545.406 942.82,1551.973 941.942,1546.225 z" fill="#FFFFFF" fill-opacity="0.059"/>
      <path d="M941.942,1546.225 C946.419,1473.677 735.892,1572.624 766.289,1571.989 C769.108,1545.772 773.192,1731.236 907.487,1658.433 C945.553,1644.632 944.239,1574.231 942.307,1551.278 C1001.269,1545.406 942.82,1551.973 941.942,1546.225 z" fill-opacity="0" stroke="#322E2A" stroke-width="20"/>
    </g>
    <g>
      <path d="M996.885,1541.772 C981.384,1470.843 1204.416,1534.65 1174.299,1538.92 C1167.511,1513.482 1191.802,1697.307 1048.051,1647.04 C1008.348,1639.542 998.894,1569.801 997.296,1546.821 C938.167,1550.52 996.896,1547.589 996.885,1541.772 z" fill="#FFFFFF" fill-opacity="0.059"/>
      <path d="M996.885,1541.772 C981.384,1470.843 1204.416,1534.65 1174.299,1538.92 C1167.511,1513.482 1191.802,1697.307 1048.051,1647.04 C1008.348,1639.542 998.894,1569.801 997.296,1546.821 C938.167,1550.52 996.896,1547.589 996.885,1541.772 z" fill-opacity="0" stroke="#322E2A" stroke-width="20"/>
    </g>
    <path d="M225.921,378.162 C222.235,378.162 219.248,376.83 219.248,375.186 C219.248,373.542 222.235,372.209 225.921,372.209 C229.606,372.209 232.593,373.542 232.593,375.186 C232.593,376.83 229.606,378.162 225.921,378.162 z" fill="#FFFFFF"/>
    <path d="M475.632,378.162 C471.947,378.162 468.96,376.83 468.96,375.186 C468.96,373.542 471.947,372.209 475.632,372.209 C479.317,372.209 482.305,373.542 482.305,375.186 C482.305,376.83 479.317,378.162 475.632,378.162 z" fill="#FFFFFF"/>
    <g>
      <path d="M143.882,362.416 L309.359,362.416 L309.359,430.292 L143.882,430.292 z" fill="#FFFFFF" fill-opacity="0.059"/>
      <path d="M143.882,362.416 L309.359,362.416 L309.359,430.292 L143.882,430.292 z" fill-opacity="0" stroke="#000000" stroke-width="20"/>
    </g>
    <g>
      <path d="M387.462,362.416 L552.939,362.416 L552.939,430.292 L387.462,430.292 z" fill="#FFFFFF" fill-opacity="0.059"/>
      <path d="M387.462,362.416 L552.939,362.416 L552.939,430.292 L387.462,430.292 z" fill-opacity="0" stroke="#000000" stroke-width="20"/>
    </g>
    <path d="M61.464,1250.457 C83.199,1191.404 158.245,1359.95 163.986,1390.707 C117.646,1416.952 89.35,1332.064 129.684,1338.566 C142.631,1327.515 82.789,1238.154 61.464,1250.457 z" fill="#5F554F"/>
    <path d="M664.167,1026 C584.638,1026 520.167,961.529 520.167,882 C520.167,802.471 584.638,738 664.167,738 C743.696,738 808.167,802.471 808.167,882 C808.167,961.529 743.696,1026 664.167,1026 z" fill="#9EAAAC"/>
    <path d="M666.687,990.501 C607.04,990.501 558.687,942.147 558.687,882.501 C558.51,855.174 569.352,829.03 587.62,808.93" fill-opacity="0" stroke="#3B4648" stroke-width="40"/>
    <path d="M596.994,799.994 C616.421,783.495 641.269,774.662 666.687,774.501 C690.452,774.343 713.406,782.581 732.34,796.74" fill-opacity="0" stroke="#F8A439" stroke-width="40"/>
    <path d="M742.133,805.223 C762.953,825.47 774.503,853.544 774.687,882.501 C774.687,942.148 726.333,990.501 666.687,990.501" fill-opacity="0" stroke="#3B4648" stroke-width="40"/>
    <path d="M590.055,929.201 L641.23,879.92 L661.267,833.619 L661.267,907.268 L612.799,954.924 L590.055,929.201 z" fill="#3B4648"/>
    <path d="M743.089,929.201 L691.913,879.92 L671.876,833.619 L671.876,907.268 L720.344,954.924 L743.089,929.201 z" fill="#3B4648"/>
  </g>
</svg>
