<?xml version="1.0" encoding="UTF-8"?>
<!DOCTYPE svg PUBLIC "-//W3C//DTD SVG 1.1//EN" "http://www.w3.org/Graphics/SVG/1.1/DTD/svg11.dtd">
<svg version="1.1" xmlns="http://www.w3.org/2000/svg" xmlns:xlink="http://www.w3.org/1999/xlink" x="0" y="0" width="300" height="450" viewBox="0, 0, 300, 450">
  <g id="Background">
    <rect x="0" y="0" width="300" height="450" fill="#FFC198"/>
  </g>
  <defs>
    <linearGradient id="Gradient_1" gradientUnits="userSpaceOnUse" x1="28.981" y1="354.118" x2="50.566" y2="334.825" gradientTransform="matrix(1, -0.024, 0.024, 1, 0, 0)">
      <stop offset="0" stop-color="#FFFFFF"/>
      <stop offset="1" stop-color="#FFDD70"/>
    </linearGradient>
    <linearGradient id="Gradient_2" gradientUnits="userSpaceOnUse" x1="-280.616" y1="338.18" x2="-257.116" y2="307.469" gradientTransform="matrix(-0.996, -0.095, -0.095, 0.996, 0, 0)">
      <stop offset="0" stop-color="#FFFFFF"/>
      <stop offset="1" stop-color="#FFDD70"/>
    </linearGradient>
  </defs>
  <g id="Layer_1">
    <path d="M54.628,345.878 C25.364,330.873 0,367.652 0,380.447 C0,395.622 0,450 0,450 C0,450 61.55,359.964 54.628,345.878 z" fill="#333139"/>
    <path d="M232.976,353.706 C216.614,372.691 300.629,432.546 300,450 C299.371,467.454 300.257,418.863 300.52,404.755 C305.308,397.441 265.072,349.112 232.976,353.706 z" fill="#333139"/>
    <path d="M48.174,304.918 C27.091,342.582 50.376,369.659 64.221,391.794 C86.248,425.879 217.463,417.187 228.162,388.214 C236.658,369.02 253.793,343.669 242.007,304.556 C212.743,225.968 97.891,196.633 48.174,304.918 z" fill="#333139"/>
    <g>
      <path d="M126.006,319.535 C128.061,311.537 155.914,310.426 160.709,317.314 C161.524,325.105 143.586,336.865 139.933,336.199 C136.28,335.532 125.554,326.308 126.006,319.535 z" fill="#656071"/>
      <path d="M126.006,319.535 C128.061,311.537 155.914,310.426 160.709,317.314 C161.524,325.105 143.586,336.865 139.933,336.199 C136.28,335.532 125.554,326.308 126.006,319.535 z" fill-opacity="0" stroke="#000000" stroke-width="2"/>
    </g>
    <g>
      <path d="M125.992,320.993 C125.992,320.993 77.525,324.704 91.542,340.45 C105.559,356.197 125.992,320.993 125.992,320.993 z" fill="#83661B"/>
      <path d="M125.992,320.993 C125.992,320.993 77.525,324.704 91.542,340.45 C105.559,356.197 125.992,320.993 125.992,320.993 z" fill-opacity="0" stroke="#000000" stroke-width="2"/>
    </g>
    <g>
      <path d="M160.736,320.993 C160.736,320.993 209.202,324.704 195.185,340.45 C181.169,356.197 160.736,320.993 160.736,320.993 z" fill="#83661B"/>
      <path d="M160.736,320.993 C160.736,320.993 209.202,324.704 195.185,340.45 C181.169,356.197 160.736,320.993 160.736,320.993 z" fill-opacity="0" stroke="#000000" stroke-width="2"/>
    </g>
    <path d="M46.821,306.508 C54.104,311.206 61.972,369.496 59.599,378.623 C57.227,387.75 39.801,359.948 37.669,354.195 C35.537,348.443 39.539,301.81 46.821,306.508 z" fill="url(#Gradient_1)"/>
    <path d="M241.623,302.566 C233.079,307.616 219.416,377.07 221.311,388.242 C223.207,399.414 245.029,367.414 247.895,360.671 C250.76,353.927 250.166,297.516 241.623,302.566 z" fill="url(#Gradient_2)"/>
    <path d="M0,450 C-0.348,419.211 -3.953,424.106 45.395,367.652 C80.923,405.343 195.66,397.975 239.051,375.303 C266.424,416.679 305.482,422.172 300,450 C287.195,452.128 45.979,450.038 0,450 z" fill="#FFFFFF"/>
  </g>
</svg>
