<?xml version="1.0" encoding="UTF-8"?>
<!DOCTYPE svg PUBLIC "-//W3C//DTD SVG 1.1//EN" "http://www.w3.org/Graphics/SVG/1.1/DTD/svg11.dtd">
<svg version="1.1" xmlns="http://www.w3.org/2000/svg" xmlns:xlink="http://www.w3.org/1999/xlink" x="0" y="0" width="550" height="750" viewBox="0, 0, 550, 750">
  <g id="Background">
    <rect x="0" y="0" width="550" height="750" fill="#121733"/>
  </g>
  <g id="Layer_5">
    <path d="M276.862,-0 L551.862,-0 L551.862,750 L276.862,750 z" fill="#C2C2C2"/>
    <path d="M528.344,220.729 C519.508,192.777 488.584,95.879 538.394,175.969 C540.313,198.175 524.019,301.446 492.705,300.025 C497.708,305.887 496.967,313.169 492.335,315.301 C499.932,328.09 526.613,419.214 547.922,431.47 C521.755,475.556 485.591,457.778 485.591,457.778 C485.591,457.778 476.451,486.217 488.349,490.265 C468.615,503.358 464.453,506.816 448.944,503.487 C448.082,490.323 422.937,483.088 422.937,483.088 L400.869,504.998 C400.869,504.998 422.157,532.368 415.45,548.062 C403.668,549.914 399.768,554.125 392.988,565.439 C386.209,576.753 403.23,617.36 382.349,629.658 C361.467,641.957 298.97,585.59 276.664,591.038 L276.664,222.121 C276.664,222.121 384.502,143.65 388.016,119.317 C388.743,135.18 403.41,154.492 426.029,198.876 C406.768,154.831 424.684,126.849 424.684,126.849 C424.684,126.849 441.756,183.799 477.628,216.663 C458.013,188.711 451.922,141.412 451.922,141.412 C451.922,141.412 471.443,177.361 495.476,193.455 C474.801,165.673 481.256,133.879 481.256,133.879 C481.256,133.879 512.793,206.837 528.344,220.729 z" fill="#53597B"/>
    <path d="M29.412,165.97 C18.957,208.911 71.299,297.915 71.299,297.915 C93.884,324.879 47.933,393.201 22.044,424.172 C21.832,437.903 61.526,443.084 79.907,435.802 C82.262,444.811 72.225,479.571 84.06,493.538 C100.964,498.821 111.4,498.814 116.096,497.477 C96.831,506.263 100.71,519.581 119.462,531.399 C138.214,543.217 141.355,542.123 143.778,550.582 C146.201,559.041 132.009,611.125 160.453,619.594 C193.154,631.503 276.664,591.038 276.664,591.038 C276.664,591.038 275.862,225.124 276.664,222.121 C190.792,221.617 146.986,128.212 146.986,128.212 C146.986,128.212 155.739,230.895 165.256,246.196 C174.773,261.497 116.628,212.749 79.839,151.425 C85.186,199.237 81.21,193.001 90.848,216.081 C106.719,236.662 54.596,207.279 29.412,165.97 z" fill="#C2C2C2"/>
    <path d="M446.812,253.119 C453.795,245.58 486.453,309.77 464.198,307.014 C463.433,313.699 485.61,344.573 486.091,347.576 C486.572,350.578 478.441,342.448 474.733,343.047 C471.025,343.646 505.145,412.947 501.037,418.461 C496.929,423.974 471.725,423.974 464.198,424.171 C456.671,424.368 440.348,404.087 437.11,400.149 C433.872,396.211 445.785,311.936 443.731,308.983 C441.677,306.029 429.764,296.893 426.272,297.523 C422.781,298.153 439.828,260.659 446.812,253.119 z" fill="#121733"/>
    <g>
      <path d="M437.437,269.786 C435.375,254.764 402.386,244.091 396.2,247.253 C390.015,250.416 391.664,292.714 395.788,296.667 C399.911,300.621 408.571,312.48 415.581,311.294 C422.592,310.108 439.499,284.808 437.437,269.786 z" fill="#A08A52"/>
      <path d="M437.437,269.786 C435.375,254.764 402.386,244.091 396.2,247.253 C390.015,250.416 391.664,292.714 395.788,296.667 C399.911,300.621 408.571,312.48 415.581,311.294 C422.592,310.108 439.499,284.808 437.437,269.786 z" fill-opacity="0" stroke="#121733" stroke-width="10" stroke-opacity="0.756"/>
    </g>
    <path d="M415.807,485.382 C407.242,501.333 398.68,498.352 397.598,498.069 C396.515,497.786 405.671,481.363 407.049,479.759 C408.427,478.154 384.602,489.575 383.519,490.424 C382.436,491.273 391.412,468.39 392.79,467.069 C394.169,465.748 367.579,451.222 366.093,477.116 C365.109,479.004 396.035,508.951 399.086,507.535 C402.138,506.119 407.916,495.468 408.601,495.036" fill-opacity="0" stroke="#121733" stroke-width="10"/>
    <path d="M367.824,476.849 C367.824,476.849 380.297,467.255 392.114,466.604 C399.126,468.556 415.807,486.335 415.807,486.335" fill-opacity="0" stroke="#121733" stroke-width="10"/>
    <path d="M419.686,261.195 L418.639,263.048 L417.376,266.135 L416.399,268.894 L415.708,271.411 L415.086,273.835 L414.456,276.221 L413.83,278.581 L413.184,280.935 L412.533,283.29 L411.876,285.654 L410.912,289.236 L409.726,294.037 L409.494,298.771 L410.032,301.045 L410.032,301.045 C410.031,301.047 410.032,301.049 410.034,301.049 C410.036,301.049 410.038,301.046 410.038,301.044 L412.061,298.431 L414.919,293.385 L416.864,288.381 L418.189,284.58 L418.997,282.005 L419.741,279.404 L420.403,276.783 L420.98,274.145 L421.43,271.509 L421.747,268.886 L421.837,266.326 L421.464,263.977 L420.612,261.923 L419.693,261.191 C419.693,261.191 419.693,261.191 419.693,261.191 C419.693,261.189 419.691,261.188 419.689,261.189 C419.687,261.19 419.686,261.193 419.686,261.195 L419.686,261.195" fill="#121733"/>
    <path d="M449.834,280.279 L449.749,279.094 L449.349,276.904 L448.791,274.79 L448.086,272.755 L447.272,270.768 L446.353,268.832 L445.352,266.93 L444.269,265.069 L443.08,263.29 L441.841,261.53 L440.532,259.819 L439.165,258.152 L437.739,256.537 L436.27,254.96 L434.749,253.44 L433.191,251.964 L431.592,250.544 L429.957,249.178 L428.292,247.868 L426.594,246.625 L424.871,245.441 L423.124,244.327 L421.353,243.286 L419.563,242.315 L417.757,241.423 L415.934,240.612 L414.095,239.895 L412.239,239.273 L410.375,238.745 L408.501,238.317 L406.622,237.99 L404.737,237.775 L403.767,237.705 L403.767,237.705 C403.754,237.704 403.741,237.703 403.728,237.702 L403.728,237.702 L402.566,237.646 L400.193,237.568 L397.818,237.499 L395.464,237.41 L393.14,237.269 L391.435,237.104 L390.32,236.964 L389.207,236.795 L388.109,236.588 L387.029,236.34 L385.963,236.053 L385.451,235.898 L385.489,235.913 L385.314,235.853 L384.987,235.724 L384.613,235.554 L384.183,235.34 L383.705,235.088 L383.187,234.798 L382.625,234.495 L382.024,234.177 L381.067,233.663 L379.704,232.952 L378.272,232.229 L376.797,231.525 L375.316,230.851 L373.874,230.212 L372.825,229.784 L372.159,229.515 L371.516,229.271 L370.908,229.048 L370.337,228.846 L369.808,228.671 L369.327,228.519 L368.899,228.394 L368.528,228.297 L368.22,228.228 L367.98,228.189 L367.812,228.182 L367.758,228.186 L367.758,228.186 C367.757,228.186 367.754,228.188 367.753,228.19 C367.752,228.193 367.753,228.195 367.754,228.195 L367.794,228.214 L367.902,228.32 L368.052,228.501 L368.242,228.753 L368.469,229.07 L368.733,229.445 L369.031,229.873 L369.361,230.35 L369.722,230.866 L370.113,231.42 L370.529,232.007 L370.974,232.612 L371.677,233.568 L372.693,234.868 L373.76,236.192 L374.869,237.491 L376.004,238.721 L377.135,239.857 L377.968,240.628 L378.509,241.104 L379.04,241.539 L379.561,241.924 L380.06,242.275 L380.537,242.587 L380.995,242.859 L381.417,243.081 L381.584,243.16 L381.584,243.16 C381.596,243.165 381.609,243.17 381.622,243.175 L381.622,243.175 L382.191,243.419 L383.314,243.853 L384.454,244.23 L385.605,244.559 L386.766,244.846 L387.946,245.092 L389.717,245.391 L392.069,245.701 L394.413,245.933 L396.732,246.124 L399.019,246.312 L400.165,246.413 L400.127,246.41 L400.93,246.498 L402.601,246.752 L404.288,247.097 L405.985,247.535 L407.691,248.06 L409.401,248.669 L411.117,249.356 L412.835,250.113 L414.55,250.945 L416.258,251.847 L417.956,252.821 L419.643,253.856 L421.317,254.948 L422.972,256.101 L424.613,257.298 L426.232,258.544 L427.828,259.832 L429.403,261.153 L430.949,262.512 L432.475,263.889 L433.967,265.295 L435.438,266.708 L436.88,268.129 L438.302,269.545 L439.678,270.978 L441.06,272.36 L442.418,273.722 L443.75,275.065 L445.071,276.364 L446.383,277.614 L447.717,278.777 L449.081,279.848 L449.828,280.286 C449.828,280.287 449.83,280.287 449.832,280.285 C449.834,280.283 449.835,280.28 449.834,280.279 L449.834,280.279" fill="#121733"/>
    <path d="M376.046,251.504 L376.979,250.149 L377.974,247.903 L378.555,245.8 L378.706,243.916 L378.645,242.125 L378.449,240.381 L378.112,238.702 L377.664,237.074 L377.094,235.515 L376.407,234.031 L375.579,232.659 L374.646,231.368 L373.849,230.473 L373.272,229.916 L372.663,229.415 L371.95,229.046 L371.099,228.864 L370.112,228.881 L369.065,229.001 L367.889,229.334 L367.269,229.559 L367.269,229.559 C367.268,229.558 367.266,229.56 367.264,229.562 C367.263,229.564 367.263,229.567 367.264,229.568 L367.246,230.285 L367.238,231.632 L367.31,232.809 L367.393,233.921 L367.565,234.874 L367.829,235.673 L368.151,236.377 L368.46,237.055 L368.91,238.071 L369.489,239.425 L370.008,240.794 L370.508,242.135 L370.97,243.47 L371.406,244.791 L371.813,246.102 L372.224,247.373 L372.64,248.61 L373.145,249.752 L373.963,250.658 L375.084,251.391 L376.039,251.509 C376.039,251.511 376.041,251.512 376.043,251.511 C376.045,251.509 376.046,251.507 376.046,251.504 L376.046,251.504" fill="#121733"/>
    <path d="M358.606,232.865 L358.658,234.258 L359.084,236.544 L359.569,238.649 L360.114,240.598 L360.678,242.461 L361.276,244.232 L361.851,245.987 L362.422,247.713 L362.978,249.429 L363.521,251.14 L364.045,252.857 L364.552,254.578 L365.297,257.178 L366.258,260.659 L367.228,264.134 L368.25,267.595 L369.348,271.032 L370.254,273.581 L370.907,275.26 L371.601,276.908 L372.344,278.528 L373.146,280.109 L374.114,281.537 L375.228,282.825 L376.49,283.964 L377.902,284.942 L379.473,285.737 L380.309,286.074 L380.309,286.074 C380.31,286.075 380.312,286.075 380.314,286.073 C380.316,286.07 380.316,286.068 380.316,286.066 L380.176,284.9 L379.896,282.637 L379.579,280.495 L379.227,278.455 L378.833,276.512 L378.39,274.659 L377.867,272.914 L377.363,271.168 L376.878,269.416 L376.413,267.664 L375.731,265.017 L374.833,261.462 L373.93,257.889 L372.973,254.326 L371.929,250.8 L371.076,248.188 L370.455,246.462 L369.789,244.761 L369.073,243.087 L368.292,241.456 L367.436,239.878 L366.487,238.374 L365.453,236.938 L364.269,235.649 L362.941,234.507 L361.418,233.585 L359.693,232.914 L358.612,232.857 C358.611,232.856 358.609,232.856 358.607,232.858 C358.605,232.861 358.605,232.863 358.606,232.865 L358.606,232.865" fill="#121733"/>
    <path d="M390.216,298.027 L390.803,301.602 L393.187,307.108 L396.443,311.414 L399.917,315.392 L402.534,318.324 L404.3,320.222 L406.095,322.07 L407.88,323.911 L409.68,325.708 L411.521,327.43 L413.744,328.639 L416.299,329.418 L417.696,329.662 L417.696,329.662 C417.696,329.663 417.699,329.662 417.7,329.66 C417.702,329.658 417.703,329.655 417.702,329.654 C417.702,329.654 417.702,329.654 417.702,329.654 L417.601,327.769 L417.091,324.336 L416.163,321.386 L414.773,319 L413.271,316.737 L411.689,314.56 L410.06,312.429 L408.353,310.384 L405.684,307.456 L402.009,303.709 L398.053,300.359 L393.224,298.249 L390.222,298.019 C390.222,298.019 390.222,298.019 390.222,298.019 C390.221,298.018 390.219,298.019 390.217,298.021 C390.216,298.023 390.215,298.026 390.216,298.027 L390.216,298.027" fill="#121733"/>
    <path d="M392.429,224.515 L392.491,224.789 L392.672,225.342 L392.949,225.876 L393.278,226.425 L393.873,227.219 L394.823,228.264 L395.918,229.305 L397.14,230.291 L398.435,231.274 L399.804,232.206 L401.916,233.551 L404.792,235.155 L406.838,236.318 L408.115,237.016 L409.297,237.696 L410.359,238.326 L410.793,238.604 L410.748,238.579 L411.388,238.986 L412.647,239.782 L413.886,240.546 L415.096,241.295 L416.28,242.026 L417.442,242.733 L419.137,243.771 L421.31,245.1 L423.379,246.379 L425.351,247.613 L427.226,248.812 L429.007,249.984 L430.699,251.13 L432.313,252.245 L433.844,253.35 L435.302,254.444 L436.686,255.538 L438.007,256.633 L439.265,257.742 L440.469,258.868 L441.627,260.019 L442.74,261.206 L443.823,262.428 L444.876,263.701 L445.902,265.034 L446.92,266.427 L447.923,267.895 L448.927,269.44 L449.932,271.072 L451.042,272.751 L452.263,274.49 L453.575,276.313 L455.018,278.216 L456.596,280.21 L458.326,282.297 L459.261,283.374 L459.261,283.374 C459.262,283.377 459.265,283.378 459.267,283.377 C459.27,283.377 459.271,283.374 459.27,283.371 C459.27,283.371 459.27,283.371 459.27,283.371 L459.321,281.935 L459.287,279.179 L459.1,276.565 L458.77,274.084 L458.291,271.736 L457.699,269.503 L456.963,267.399 L456.084,265.425 L455.158,263.529 L454.177,261.71 L453.15,259.955 L452.061,258.272 L450.924,256.646 L449.733,255.075 L448.48,253.563 L447.173,252.097 L445.807,250.678 L444.38,249.301 L442.895,247.957 L441.344,246.647 L439.73,245.36 L438.046,244.096 L436.294,242.843 L434.46,241.609 L432.548,240.376 L430.558,239.136 L428.482,237.884 L426.314,236.618 L424.054,235.332 L422.29,234.355 L421.081,233.69 L419.841,233.024 L418.573,232.352 L417.277,231.667 L415.947,230.986 L415.271,230.642 L415.271,230.642 C415.256,230.634 415.241,230.625 415.226,230.617 L415.226,230.617 L414.538,230.272 L413.184,229.65 L411.755,229.068 L410.263,228.498 L407.944,227.749 L404.807,226.794 L402.432,226.219 L400.893,225.874 L399.392,225.585 L397.968,225.304 L396.605,225.086 L395.324,224.88 L394.418,224.743 L393.837,224.675 L393.283,224.595 L392.716,224.537 L392.436,224.507 C392.434,224.505 392.431,224.506 392.429,224.508 C392.427,224.51 392.427,224.513 392.429,224.515 L392.429,224.515" fill="#121733"/>
    <path d="M415.476,216.309 L416.071,217.721 L417.516,220.04 L418.968,222.191 L420.456,224.203 L421.951,226.15 L423.474,228.034 L424.974,229.928 L426.472,231.822 L427.959,233.732 L429.431,235.665 L430.883,237.631 L432.318,239.625 L433.74,241.647 L435.142,243.702 L436.537,245.78 L437.914,247.886 L439.987,251.086 L442.755,255.382 L445.558,259.683 L448.388,263.994 L451.308,268.255 L453.584,271.396 L455.29,273.367 L457.139,275.221 L459.127,276.956 L461.251,278.563 L463.52,280.017 L464.694,280.693 L464.694,280.693 C464.696,280.695 464.699,280.696 464.701,280.694 C464.703,280.692 464.704,280.689 464.702,280.687 L464.412,279.378 L463.796,276.804 L463.083,274.307 L462.278,271.872 L461.371,269.496 L460.351,267.186 L458.582,263.825 L456.157,259.308 L453.65,254.769 L451.073,250.213 L448.369,245.704 L446.247,242.369 L444.772,240.168 L443.264,237.984 L441.704,235.833 L440.1,233.711 L438.439,231.631 L436.717,229.6 L434.933,227.621 L433.074,225.712 L431.129,223.887 L429.085,222.17 L426.956,220.559 L424.683,219.133 L422.282,217.903 L419.718,216.95 L417.013,216.311 L415.481,216.301 C415.481,216.301 415.481,216.301 415.481,216.301 C415.479,216.299 415.476,216.3 415.474,216.302 C415.473,216.305 415.474,216.308 415.476,216.309 L415.476,216.309" fill="#121733"/>
    <path d="M503.048,218.356 L502.133,219.377 L501.025,221.435 L499.941,224.521 L499.167,228.599 L498.753,232.617 L498.652,236.553 L498.614,240.412 L498.628,244.198 L498.633,247.916 L498.618,251.577 L498.546,255.19 L498.456,257.857 L498.374,259.618 L498.259,261.399 L498.126,263.182 L497.959,264.969 L497.767,266.764 L497.55,268.573 L497.411,270.425 L497.388,272.349 L497.514,274.373 L497.662,276.479 L497.945,278.726 L498.11,279.899 L498.11,279.899 C498.109,279.902 498.11,279.904 498.112,279.906 C498.115,279.907 498.118,279.905 498.119,279.903 C498.119,279.903 498.119,279.903 498.119,279.903 L499.068,279.154 L500.812,277.572 L502.282,275.866 L503.597,274.093 L504.637,272.232 L505.441,270.312 L506.054,268.357 L506.584,266.397 L507.038,264.434 L507.431,262.472 L507.754,260.509 L508.028,258.527 L508.331,255.576 L508.555,251.684 L508.621,247.807 L508.542,243.942 L508.36,240.083 L508.061,236.223 L507.686,232.35 L507.035,228.453 L506.113,224.497 L505.006,221.472 L503.935,219.41 L503.058,218.357 C503.058,218.354 503.056,218.352 503.053,218.351 C503.05,218.351 503.048,218.354 503.048,218.356 L503.048,218.356" fill="#121733"/>
    <path d="M486.586,241.554 L485.976,242.124 L485.133,243.295 L484.576,244.517 L484.016,245.806 L483.666,247.135 L483.34,248.515 L483.178,249.928 L483.051,251.38 L482.971,253.621 L482.996,256.702 L483.059,259.861 L483.173,263.06 L483.315,266.265 L483.482,269.439 L483.601,271.765 L483.683,273.281 L483.768,274.782 L483.84,276.252 L483.918,277.686 L483.99,279.081 L484.15,280.442 L484.424,281.775 L484.805,283.089 L485.27,284.389 L485.781,285.682 L486.314,286.978 L486.587,287.632 L486.587,287.632 C486.586,287.635 486.587,287.637 486.59,287.638 C486.593,287.639 486.595,287.638 486.596,287.635 C486.596,287.635 486.596,287.635 486.596,287.635 L487.192,287.208 L488.318,286.236 L489.353,285.13 L490.276,283.907 L491.052,282.584 L491.66,281.176 L492.098,279.7 L492.393,278.172 L492.643,276.608 L492.838,275.011 L493.002,273.388 L493.121,271.731 L493.222,269.227 L493.248,265.876 L493.133,262.53 L492.901,259.225 L492.552,256.001 L492.123,252.897 L491.69,250.672 L491.327,249.247 L490.932,247.874 L490.379,246.568 L489.812,245.322 L489.046,244.152 L488.3,243.046 L487.285,242.026 L486.596,241.554 C486.596,241.551 486.594,241.549 486.591,241.549 C486.588,241.549 486.586,241.552 486.586,241.554 L486.586,241.554" fill="#121733"/>
    <path d="M494.823,303.725 L494.308,301.422 L492.634,298.821 L490.478,297.718 L488.177,297.106 L485.809,296.747 L483.385,296.712 L480.928,297.071 L478.426,299.024 L477.209,301.042 L477.209,301.042 C477.206,301.042 477.203,301.044 477.203,301.047 C477.203,301.05 477.206,301.052 477.208,301.052 L478.253,303.094 L480.248,305.239 L482.254,305.969 L484.262,306.476 L486.294,306.817 L488.364,307.053 L490.549,306.933 L493.19,305.439 L494.821,303.735 C494.821,303.735 494.821,303.735 494.821,303.735 C494.823,303.735 494.826,303.734 494.827,303.731 C494.828,303.728 494.826,303.726 494.823,303.725 L494.823,303.725" fill="#121733"/>
    <path d="M490.543,317.138 L490.22,315.682 L489.528,314.029 L488.473,312.522 L486.908,311.517 L485.191,310.867 L483.299,310.357 L481.208,310.098 L479.488,310.139 L478.27,310.337 L477.007,311.29 L475.787,312.918 L475.233,313.982 L475.233,313.982 C475.23,313.982 475.228,313.984 475.228,313.987 C475.228,313.99 475.23,313.992 475.233,313.992 L475.66,315.071 L476.39,316.814 L477.061,317.982 L477.764,318.485 L478.905,319.116 L480.606,319.826 L482.493,320.391 L484.563,320.814 L486.809,320.77 L488.639,319.845 L489.888,318.488 L490.542,317.148 C490.542,317.148 490.542,317.148 490.542,317.148 C490.544,317.149 490.547,317.147 490.547,317.144 C490.547,317.141 490.545,317.139 490.543,317.138 L490.543,317.138" fill="#121733"/>
    <path d="M414.146,177.258 L414.255,177.981 L414.573,179.426 L415.017,180.873 L415.506,182.373 L416.089,183.89 L416.711,185.458 L417.401,187.055 L418.116,188.706 L418.901,190.38 L419.712,192.101 L420.571,193.852 L421.48,195.63 L422.42,197.445 L423.411,199.279 L424.421,201.152 L425.473,203.044 L426.539,204.971 L427.639,206.918 L428.753,208.895 L429.885,210.894 L431.616,213.937 L433.966,218.063 L436.342,222.256 L438.734,226.502 L441.13,230.786 L443.504,235.1 L445.859,239.42 L448.197,243.721 L450.474,248.007 L452.695,252.25 L454.31,255.391 L455.357,257.463 L456.382,259.524 L457.391,261.562 L458.37,263.58 L459.316,265.576 L460.241,267.543 L461.133,269.482 L461.99,271.393 L462.819,273.27 L463.611,275.114 L464.394,276.912 L465.193,278.655 L465.982,280.352 L466.754,282.004 L467.511,283.611 L468.23,285.179 L468.934,286.701 L469.581,288.189 L470.205,289.635 L470.779,291.045 L471.308,292.419 L471.792,293.759 L472.22,295.069 L472.411,295.714 L472.411,295.714 C472.411,295.717 472.413,295.719 472.416,295.719 C472.419,295.719 472.421,295.717 472.421,295.714 L472.595,295.052 L472.9,293.663 L473.14,292.192 L473.307,290.647 L473.405,289.033 L473.441,287.356 L473.393,285.625 L473.297,283.836 L473.115,282.004 L472.872,280.126 L472.551,278.212 L472.154,276.267 L471.678,274.294 L471.101,272.308 L470.451,270.302 L469.759,268.268 L469.02,266.21 L468.243,264.127 L467.429,262.021 L466.571,259.899 L465.682,257.757 L464.765,255.597 L463.807,253.427 L462.818,251.235 L461.287,247.933 L459.156,243.516 L456.926,239.089 L454.629,234.656 L452.245,230.252 L449.803,225.883 L447.331,221.557 L444.83,217.295 L442.312,213.113 L439.792,209.03 L437.904,206.042 L436.645,204.09 L435.388,202.172 L434.141,200.288 L432.888,198.45 L431.652,196.648 L430.407,194.899 L429.18,193.191 L427.941,191.544 L426.715,189.947 L425.487,188.414 L424.26,186.942 L423.059,185.521 L421.845,184.179 L420.666,182.887 L419.48,181.676 L418.322,180.527 L417.139,179.476 L415.984,178.494 L414.778,177.634 L414.154,177.252 C414.153,177.25 414.149,177.25 414.147,177.251 C414.145,177.253 414.144,177.256 414.146,177.258 L414.146,177.258" fill="#121733"/>
    <path d="M469.598,253.623 L469.515,254.43 L469.6,255.665 L469.777,256.689 L470.008,257.568 L470.38,258.751 L470.905,260.081 L471.378,261.216 L471.813,262.203 L472.184,263.091 L472.484,263.905 L472.722,264.658 L472.91,265.364 L473.042,266.045 L473.145,266.708 L473.202,267.374 L473.235,268.054 L473.232,268.76 L473.199,269.5 L473.143,270.281 L473.074,271.11 L472.985,271.989 L472.875,272.919 L472.681,274.428 L472.417,276.59 L472.199,278.941 L472.109,280.852 L472.138,282.204 L472.479,283.614 L472.988,285.057 L473.81,286.525 L474.856,287.982 L475.507,288.698 L475.507,288.698 C475.507,288.701 475.509,288.703 475.512,288.703 C475.515,288.703 475.517,288.701 475.517,288.698 C475.517,288.698 475.517,288.698 475.517,288.698 L476.182,288.03 L477.327,286.775 L478.336,285.604 L479.108,284.479 L479.776,283.388 L480.183,282.3 L480.73,280.658 L481.429,278.453 L482.071,276.234 L482.49,274.553 L482.735,273.396 L482.943,272.213 L483.102,271.002 L483.192,269.762 L483.212,268.494 L483.155,267.202 L483.018,265.89 L482.774,264.566 L482.433,263.237 L481.969,261.92 L481.393,260.619 L480.69,259.35 L479.857,258.123 L478.893,256.949 L477.779,255.848 L476.475,254.865 L474.985,254.044 L473.681,253.587 L472.715,253.361 L471.627,253.27 L470.379,253.377 L469.604,253.616 C469.602,253.614 469.599,253.614 469.597,253.616 C469.595,253.618 469.596,253.622 469.598,253.623 L469.598,253.623" fill="#121733"/>
    <path d="M348.453,304.49 L348.729,305.381 L349.479,306.634 L350.815,308.072 L352.813,309.499 L354.961,310.434 L357.13,311.15 L359.254,311.797 L360.776,312.238 L361.738,312.526 L362.685,312.825 L363.592,313.131 L364.46,313.426 L365.28,313.726 L366.052,314.032 L366.772,314.34 L367.438,314.658 L368.048,314.984 L368.61,315.314 L369.121,315.657 L369.596,316.011 L370.038,316.386 L370.466,316.79 L370.973,317.199 L371.638,317.636 L372.219,317.999 L372.668,318.28 L373.149,318.642 L373.682,319.052 L374.261,319.519 L374.895,320.049 L375.227,320.34 L375.227,320.34 C375.227,320.343 375.229,320.345 375.232,320.345 C375.235,320.345 375.237,320.343 375.237,320.34 C375.237,320.34 375.237,320.34 375.237,320.34 L375.562,320.022 L376.149,319.363 L376.633,318.678 L377.024,317.973 L377.319,317.256 L377.539,316.493 L377.694,315.354 L377.649,313.906 L377.289,312.556 L376.701,311.324 L375.988,310.18 L375.177,309.123 L374.279,308.161 L373.317,307.283 L372.298,306.494 L371.236,305.784 L370.14,305.145 L369.015,304.577 L367.866,304.074 L366.701,303.628 L365.519,303.25 L364.331,302.918 L363.119,302.619 L361.326,302.253 L358.974,301.929 L356.665,301.749 L354.4,301.818 L352.118,302.36 L350.371,303.096 L349.143,303.85 L348.456,304.48 C348.453,304.48 348.45,304.481 348.45,304.484 C348.449,304.487 348.45,304.489 348.453,304.49 L348.453,304.49" fill="#121733"/>
    <path d="M344.909,318.458 L344.995,320.084 L345.461,321.959 L345.948,323.194 L346.455,324.121 L347.026,324.814 L347.576,325.477 L348.134,326.106 L348.688,326.737 L349.258,327.365 L349.851,327.999 L350.458,328.654 L351.103,329.322 L351.788,330.009 L352.566,330.695 L353.964,331.159 L355.926,331.511 L357.113,331.667 L357.113,331.667 C357.114,331.67 357.117,331.671 357.119,331.67 C357.122,331.669 357.123,331.666 357.122,331.664 C357.122,331.664 357.122,331.664 357.122,331.664 L357.919,330.73 L359.035,328.926 L359.5,327.274 L359.257,325.888 L358.828,324.557 L358.266,323.267 L357.569,322.033 L356.761,320.853 L355.828,319.751 L354.777,318.741 L353.625,317.828 L352.359,317.054 L351.002,316.423 L349.471,316.147 L347.806,316.305 L346.003,317.239 L344.912,318.448 C344.909,318.447 344.906,318.449 344.906,318.451 C344.905,318.454 344.906,318.457 344.909,318.458 L344.909,318.458" fill="#121733"/>
    <path d="M478.405,447.931 L478.117,446.368 L477.082,444.433 L475.132,442.525 L472.143,441.103 L469.007,440.173 L464.262,439.246 L459.445,438.951 L455.955,440.285 L453.99,441.891 L453.99,441.891 C453.987,441.891 453.985,441.892 453.984,441.895 C453.983,441.898 453.985,441.9 453.988,441.901 L455.072,444.223 L457.717,446.933 L462.162,448.644 L466.673,449.785 L469.665,450.342 L472.743,450.548 L475.288,449.979 L477.219,449.003 L478.402,447.941 C478.402,447.941 478.402,447.941 478.402,447.941 C478.405,447.942 478.408,447.94 478.408,447.938 C478.409,447.935 478.408,447.932 478.405,447.931 L478.405,447.931" fill="#121733"/>
    <path d="M366.322,508.483 C380.329,516.439 396.639,518.766 404.143,533.153" fill="#121733"/>
    <path d="M358.109,527.172 C358.109,527.172 379.388,550.837 391.614,552.589 C385.69,560.7 384.818,565.384 389.719,573.147 C365.445,581.279 358.109,527.172 358.109,527.172 z" fill="#121733"/>
    <path d="M373.317,461.321 C387.934,462.049 386.894,449.668 395.19,453.635 C403.487,457.602 405.535,459.167 415.307,463.901 C425.078,468.635 431.992,464.848 439.498,468.446 C447.005,472.044 456.305,488.519 464.198,489.276 C472.091,490.034 483.48,490.961 483.775,492.665 C484.07,494.369 460.59,510.113 449.331,507.083 C438.071,504.054 420.821,495.505 415.307,484.882 C407.659,470.149 373.467,464.616 373.317,461.321 z" fill="#121733"/>
    <path d="M165.759,259.928 L165.628,259.482 L165.259,258.674 L164.774,257.941 L164.219,257.248 L163.597,256.606 L162.914,256.024 L162.188,255.48 L161.428,254.963 L160.621,254.52 L159.789,254.108 L158.934,253.724 L158.055,253.385 L156.726,252.962 L154.901,252.508 L153.014,252.185 L151.112,252.001 L149.213,251.944 L147.332,251.974 L145.484,252.103 L143.678,252.298 L141.93,252.563 L140.248,252.882 L139.4,253.065 L139.4,253.065 C139.365,253.074 139.33,253.083 139.295,253.093 L139.295,253.093 L139.186,253.119 L138.765,253.239 L138.308,253.386 L137.852,253.549 L137.376,253.728 L136.872,253.925 L136.336,254.14 L135.767,254.373 L135.163,254.626 L134.527,254.897 L133.856,255.186 L133.155,255.498 L132.425,255.829 L131.663,256.178 L130.874,256.542 L130.057,256.922 L129.215,257.317 L128.351,257.731 L127.017,258.378 L125.167,259.284 L123.248,260.24 L121.277,261.239 L119.263,262.27 L116.199,263.866 L112.104,266.085 L109.071,267.779 L107.092,268.909 L105.165,270.025 L103.302,271.125 L101.513,272.202 L99.808,273.243 L98.594,274.008 L97.815,274.505 L97.067,274.987 L96.347,275.456 L95.658,275.91 L95,276.349 L94.376,276.778 L93.787,277.192 L93.231,277.591 L92.71,277.972 L92.223,278.338 L91.769,278.69 L91.347,279.029 L90.954,279.359 L90.584,279.693 L90.225,280.041 L89.989,280.286 L89.989,280.286 C89.962,280.313 89.936,280.34 89.911,280.368 L89.911,280.368 L89.565,280.788 L88.812,281.73 L88.042,282.747 L87.298,283.831 L86.602,284.987 L85.943,286.196 L85.33,287.45 L84.77,288.744 L84.268,290.068 L83.833,291.415 L83.459,292.768 L83.16,294.121 L82.938,295.463 L82.804,296.784 L82.758,298.068 L82.812,299.302 L82.876,299.894 L82.876,299.894 C82.875,299.897 82.877,299.899 82.879,299.9 C82.882,299.901 82.885,299.899 82.885,299.896 L83.217,299.424 L83.926,298.491 L84.681,297.566 L85.479,296.648 L86.309,295.733 L87.168,294.824 L88.046,293.919 L88.943,293.024 L89.84,292.136 L90.733,291.259 L91.614,290.393 L92.477,289.546 L93.317,288.722 L94.111,287.913 L94.868,287.137 L95.617,286.396 L96.01,286.02 L95.931,286.102 L95.875,286.163 L95.956,286.106 L96.125,285.987 L96.369,285.821 L96.679,285.619 L97.047,285.388 L97.47,285.131 L97.945,284.85 L98.465,284.55 L99.031,284.23 L99.636,283.891 L100.279,283.531 L100.958,283.155 L101.673,282.765 L102.42,282.361 L103.195,281.947 L104.414,281.302 L106.127,280.389 L107.931,279.442 L109.809,278.46 L111.746,277.448 L113.727,276.42 L116.756,274.847 L120.836,272.726 L123.857,271.137 L125.83,270.102 L127.758,269.099 L129.625,268.127 L131.421,267.195 L132.715,266.53 L133.545,266.103 L134.348,265.687 L135.123,265.288 L135.869,264.906 L136.585,264.543 L137.267,264.2 L137.915,263.875 L138.522,263.567 L139.091,263.282 L139.618,263.022 L140.1,262.788 L140.533,262.581 L140.912,262.405 L141.23,262.26 L141.476,262.15 L141.626,262.078 L141.713,262.034 L141.82,261.998 L141.714,262.027 L142.34,261.829 L143.714,261.434 L145.146,261.059 L146.621,260.705 L148.129,260.39 L149.655,260.097 L151.189,259.854 L152.722,259.636 L154.247,259.447 L155.786,259.309 L156.934,259.254 L157.678,259.225 L158.421,259.205 L159.157,259.214 L159.887,259.251 L160.629,259.273 L161.366,259.331 L162.106,259.414 L162.862,259.505 L163.639,259.612 L164.434,259.749 L165.291,259.883 L165.753,259.935 C165.753,259.935 165.753,259.935 165.753,259.935 C165.755,259.937 165.758,259.937 165.76,259.935 C165.761,259.933 165.761,259.93 165.759,259.928 L165.759,259.928" fill="#313131"/>
    <path d="M82.88,492.643 L83.504,493.398 L84.868,494.519 L86.334,495.504 L87.898,496.279 L89.541,496.941 L91.253,497.497 L93.029,497.949 L94.858,498.33 L97.68,498.813 L101.569,499.301 L105.555,499.717 L109.595,500.038 L113.644,500.261 L117.661,500.374 L121.603,500.406 L124.488,500.36 L126.366,500.302 L128.199,500.217 L129.984,500.098 L131.719,499.848 L133.398,499.418 L135.014,498.836 L136.556,498.23 L138.02,497.502 L139.396,496.707 L140.048,496.289 L140.048,496.289 C140.051,496.289 140.053,496.287 140.053,496.284 C140.053,496.281 140.051,496.279 140.048,496.279 C140.048,496.279 140.048,496.279 140.048,496.279 L139.402,495.858 L138.053,495.043 L136.632,494.276 L135.139,493.613 L133.582,492.954 L131.959,492.43 L130.273,492.07 L128.531,491.824 L126.739,491.595 L124.906,491.378 L122.085,491.066 L118.214,490.695 L114.263,490.353 L110.272,490.073 L106.282,489.849 L102.336,489.681 L98.473,489.551 L95.651,489.55 L93.817,489.6 L92.022,489.715 L90.267,489.929 L88.555,490.244 L86.89,490.667 L85.26,491.297 L83.675,492.058 L82.881,492.633 C82.881,492.633 82.881,492.633 82.881,492.633 C82.879,492.633 82.876,492.635 82.876,492.638 C82.875,492.64 82.877,492.643 82.88,492.643 L82.88,492.643" fill="#313131"/>
    <path d="M80.34,427.475 L86.891,432.374 L93.442,427.475 L93.442,427.475 C93.445,427.475 93.447,427.473 93.447,427.47 C93.447,427.467 93.445,427.465 93.442,427.465 L86.891,422.565 L80.34,427.465 C80.34,427.465 80.34,427.465 80.34,427.465 C80.337,427.465 80.335,427.467 80.335,427.47 C80.335,427.473 80.337,427.475 80.34,427.475 L80.34,427.475" fill="#313131"/>
    <path d="M104.074,307.364 L104.656,308.245 L105.993,309.595 L107.454,310.722 L108.999,311.678 L111.404,312.898 L114.73,314.21 L118.118,315.264 L120.666,315.896 L122.348,316.271 L123.999,316.6 L125.62,316.904 L127.207,317.172 L128.753,317.422 L130.254,317.637 L131.703,317.836 L133.094,318.014 L134.423,318.169 L135.683,318.309 L136.869,318.435 L137.975,318.542 L138.997,318.635 L139.929,318.709 L140.766,318.768 L141.501,318.814 L142.13,318.851 L142.646,318.879 L143.046,318.897 L143.322,318.909 L143.469,318.915 L143.5,318.917 L143.5,318.917 C143.695,318.928 143.891,318.928 144.086,318.916 L144.086,318.916 L144.1,318.915 L144.218,318.905 L144.442,318.886 L144.771,318.857 L145.196,318.818 L145.711,318.77 L146.312,318.71 L146.993,318.637 L147.75,318.552 L148.578,318.458 L149.471,318.352 L150.424,318.227 L151.432,318.089 L152.49,317.941 L153.594,317.777 L154.736,317.591 L156.508,317.291 L158.962,316.825 L161.487,316.284 L164.023,315.579 L166.509,314.623 L168.881,313.363 L170.578,312.342 L171.646,311.583 L172.648,310.782 L173.584,309.952 L174.025,309.526 L174.025,309.526 C174.027,309.525 174.029,309.523 174.028,309.52 C174.027,309.517 174.024,309.516 174.022,309.517 L173.429,309.398 L172.231,309.164 L171.014,308.934 L169.789,308.723 L167.932,308.477 L165.401,308.169 L162.873,308.074 L160.365,308.142 L157.897,308.29 L155.492,308.43 L153.755,308.532 L152.642,308.59 L151.57,308.651 L150.541,308.709 L149.562,308.761 L148.637,308.806 L147.772,308.854 L146.972,308.896 L146.241,308.932 L145.585,308.962 L145.009,308.99 L144.518,309.013 L144.118,309.032 L143.813,309.045 L143.604,309.054 L143.501,309.058 L143.487,309.058 L144.073,309.057 L144.07,309.057 L143.952,309.047 L143.708,309.025 L143.343,308.992 L142.862,308.95 L142.271,308.897 L141.576,308.832 L140.781,308.758 L139.892,308.676 L138.914,308.59 L137.853,308.492 L136.715,308.388 L135.504,308.271 L134.227,308.141 L132.888,308.006 L131.493,307.862 L130.048,307.704 L128.557,307.549 L127.026,307.38 L125.459,307.213 L123.862,307.037 L122.249,306.871 L119.788,306.625 L116.431,306.374 L113.014,306.223 L110.418,306.236 L108.675,306.335 L106.898,306.56 L105.058,306.963 L104.077,307.354 C104.077,307.354 104.077,307.354 104.077,307.354 C104.074,307.353 104.072,307.355 104.071,307.357 C104.07,307.36 104.071,307.363 104.074,307.364 L104.074,307.364" fill="#313131"/>
    <path d="M91.835,302.282 L90.955,302.846 L89.821,303.761 L89.137,304.474 L88.537,305.086 L88.17,305.614 L87.828,306.088 L87.576,306.526 L87.366,306.939 L87.171,307.335 L86.982,307.719 L86.691,308.338 L86.298,309.14 L85.889,309.911 L85.463,310.733 L85.031,311.627 L84.316,313.127 L83.377,315.342 L83.383,317.657 L84.032,319.672 L84.556,320.769 L84.556,320.769 C84.555,320.771 84.556,320.774 84.558,320.776 C84.56,320.777 84.563,320.777 84.565,320.774 L85.752,320.835 L87.783,320.806 L89.95,320.102 L91.92,318.299 L93.293,316.732 L94.157,315.527 L94.922,314.19 L95.57,312.729 L96.075,311.211 L96.338,310.023 L96.454,309.167 L96.509,308.292 L96.492,307.403 L96.372,306.505 L96.096,305.608 L95.729,304.728 L95.057,303.891 L94.226,303.116 L92.868,302.498 L91.845,302.28 C91.845,302.28 91.845,302.28 91.845,302.28 C91.845,302.278 91.842,302.276 91.839,302.276 C91.837,302.277 91.835,302.279 91.835,302.282 L91.835,302.282" fill="#313131"/>
    <path d="M143.874,259.168 C151.279,262.343 155.813,318.242 137.817,310.62 C116.945,301.781 107.019,294.615 101.979,284.386 C98.947,278.231 136.469,255.993 143.874,259.168 z" fill="#313131"/>
    <path d="M80.343,274.719 L80.901,274.575 L81.872,274.226 L82.702,273.842 L83.415,273.442 L84.051,273.059 L84.597,272.675 L85.088,272.317 L85.528,271.984 L85.921,271.675 L86.253,271.379 L86.549,271.113 L86.812,270.877 L87.152,270.584 L87.524,270.307 L87.803,270.18 L88.02,270.14 L88.274,270.106 L88.53,270.067 L88.765,270.019 L89.086,269.941 L89.471,269.848 L89.916,269.728 L90.432,269.592 L91.022,269.439 L91.684,269.26 L92.423,269.053 L93.241,268.81 L93.68,268.677 L93.663,268.684 L94.052,268.561 L94.817,268.335 L95.618,268.112 L96.468,267.888 L97.358,267.642 L98.293,267.394 L99.27,267.146 L100.286,266.889 L101.888,266.485 L104.143,265.944 L106.514,265.387 L109,264.827 L111.587,264.264 L114.264,263.701 L117.018,263.15 L119.835,262.607 L122.706,262.087 L125.617,261.586 L128.551,261.091 L131.5,260.622 L134.452,260.179 L137.393,259.765 L140.313,259.387 L143.199,259.053 L146.038,258.753 L148.819,258.511 L151.53,258.306 L153.496,258.192 L154.773,258.129 L156.039,258.082 L157.279,258.032 L158.496,257.945 L159.688,257.852 L160.855,257.756 L161.997,257.658 L163.116,257.551 L164.207,257.464 L165.276,257.372 L166.316,257.31 L167.334,257.252 L168.325,257.218 L169.295,257.202 L170.242,257.209 L171.168,257.243 L172.077,257.306 L172.522,257.354 L172.522,257.354 C172.525,257.355 172.528,257.354 172.529,257.352 C172.53,257.349 172.529,257.346 172.527,257.345 L172.218,257.004 L171.545,256.327 L170.798,255.673 L169.984,255.041 L169.105,254.436 L168.166,253.861 L167.173,253.309 L166.126,252.8 L165.034,252.305 L163.893,251.861 L162.712,251.44 L161.489,251.071 L160.23,250.744 L158.937,250.462 L157.613,250.225 L156.261,250.065 L154.884,249.944 L153.471,249.845 L151.322,249.743 L148.41,249.674 L145.437,249.698 L142.414,249.787 L139.353,249.957 L136.267,250.191 L133.166,250.488 L130.064,250.848 L126.973,251.266 L123.903,251.735 L120.871,252.268 L117.883,252.843 L114.952,253.449 L112.091,254.094 L109.309,254.765 L106.62,255.468 L104.036,256.197 L101.566,256.945 L99.235,257.717 L97.578,258.3 L96.513,258.699 L95.487,259.104 L94.499,259.507 L93.549,259.908 L92.645,260.325 L91.781,260.738 L90.974,261.14 L90.612,261.329 L90.612,261.329 C90.606,261.331 90.6,261.333 90.594,261.336 L90.594,261.336 L90.186,261.559 L89.427,261.981 L88.739,262.378 L88.115,262.75 L87.548,263.099 L87.029,263.423 L86.551,263.726 L86.114,264.024 L85.706,264.313 L85.295,264.611 L84.718,265.067 L84.062,265.675 L83.53,266.299 L83.144,266.904 L82.859,267.472 L82.666,267.914 L82.536,268.228 L82.399,268.564 L82.248,268.93 L82.097,269.348 L81.924,269.814 L81.723,270.33 L81.489,270.903 L81.247,271.563 L80.974,272.301 L80.701,273.153 L80.443,274.146 L80.336,274.713 C80.334,274.715 80.334,274.718 80.336,274.72 C80.338,274.722 80.341,274.721 80.343,274.719 L80.343,274.719" fill="#313131"/>
    <path d="M70.908,264.768 L71.405,265.01 L72.408,265.345 L73.427,265.483 L74.446,265.485 L75.46,265.379 L76.464,265.179 L77.449,264.887 L78.419,264.529 L79.365,264.1 L80.295,263.622 L81.641,262.834 L83.414,261.664 L85.167,260.385 L86.926,259.065 L88.725,257.745 L90.092,256.768 L91.024,256.143 L91.99,255.512 L92.989,254.898 L94.021,254.298 L95.093,253.718 L96.209,253.159 L97.374,252.619 L98.595,252.108 L99.875,251.618 L101.224,251.162 L102.645,250.732 L103.345,250.538 L103.345,250.538 C103.366,250.533 103.387,250.527 103.407,250.521 L103.407,250.521 L103.686,250.433 L104.244,250.262 L105.151,249.993 L106.476,249.61 L107.903,249.19 L109.416,248.751 L110.986,248.286 L113.403,247.571 L115.812,246.853 L117.375,246.382 L118.882,245.931 L120.306,245.499 L121.306,245.196 L121.935,245.006 L122.531,244.825 L123.091,244.654 L123.612,244.494 L124.091,244.346 L124.527,244.211 L124.916,244.089 L125.096,244.032 L124.758,244.086 L125.033,244.038 L125.658,243.928 L126.374,243.802 L127.178,243.662 L128.064,243.51 L129.029,243.346 L130.069,243.173 L131.179,242.991 L132.354,242.806 L133.592,242.62 L134.886,242.432 L136.233,242.243 L137.627,242.054 L139.064,241.87 L140.54,241.698 L142.051,241.53 L144.372,241.301 L147.543,241.043 L150.765,240.855 L154.004,240.742 L157.221,240.729 L159.596,240.781 L161.153,240.857 L162.684,240.958 L164.185,241.086 L165.649,241.25 L167.072,241.448 L167.767,241.559 L167.767,241.559 C167.77,241.559 167.772,241.558 167.773,241.555 C167.773,241.552 167.771,241.55 167.769,241.549 L167.079,241.404 L165.665,241.135 L164.209,240.886 L162.715,240.656 L161.187,240.449 L159.629,240.266 L157.25,240.015 L154.021,239.744 L150.762,239.52 L147.51,239.351 L144.304,239.218 L141.952,239.142 L140.417,239.101 L138.915,239.069 L137.45,239.04 L136.027,239.016 L134.652,239 L133.328,238.99 L132.062,238.987 L130.857,238.983 L129.718,238.983 L128.652,238.986 L127.662,238.991 L126.754,238.998 L125.932,239.006 L125.204,239.013 L124.573,239.019 L124.293,239.022 L124.293,239.022 C124.179,239.032 124.066,239.05 123.955,239.076 L123.955,239.076 L123.785,239.1 L123.398,239.154 L122.959,239.214 L122.47,239.28 L121.936,239.351 L121.36,239.427 L120.745,239.509 L120.095,239.595 L119.057,239.733 L117.577,239.93 L116.009,240.147 L114.373,240.377 L111.853,240.754 L109.325,241.163 L107.669,241.45 L106.065,241.757 L104.534,242.068 L103.104,242.394 L102.108,242.638 L101.486,242.797 L101.204,242.871 L101.266,242.854 L100.328,243.104 L98.595,243.631 L96.948,244.221 L95.381,244.858 L93.897,245.546 L92.49,246.271 L91.159,247.033 L89.901,247.823 L88.714,248.636 L87.595,249.467 L86.538,250.308 L85.533,251.173 L84.137,252.446 L82.481,254.117 L80.986,255.72 L79.625,257.232 L78.358,258.66 L77.437,259.656 L76.845,260.274 L76.255,260.858 L75.662,261.421 L75.053,261.95 L74.422,262.465 L73.753,262.959 L73.034,263.439 L72.25,263.923 L71.377,264.467 L70.908,264.758 C70.905,264.758 70.903,264.761 70.903,264.763 C70.903,264.766 70.905,264.768 70.908,264.768 L70.908,264.768" fill="#313131"/>
    <path d="M59.618,693.128 C87.232,693.128 109.618,703.201 109.618,715.628 C109.618,728.054 87.232,738.128 59.618,738.128 C32.003,738.128 9.618,728.054 9.618,715.628 C9.618,703.201 32.003,693.128 59.618,693.128 z M32.781,706.024 C31.38,706.221 30.375,707.11 30.217,708.764 C30.154,709.688 30.173,710.353 30.272,712.326 C30.321,713.292 30.342,713.814 30.35,714.381 C30.382,716.822 30.061,718.028 29.445,718.45 C29.205,718.602 29.303,718.548 29.156,718.625 C28.967,718.37 28.811,718.086 28.658,717.802 C27.908,716.397 26.287,715.941 25.037,716.784 C23.787,717.628 23.382,719.451 24.132,720.857 C26.122,724.589 28.78,725.85 32.184,723.525 C33.678,722.504 34.644,720.951 35.156,719.03 C35.527,717.636 35.651,716.128 35.627,714.292 C35.618,713.618 35.595,713.033 35.542,711.988 C35.458,710.328 35.442,709.767 35.479,709.22 C35.591,707.585 34.504,706.158 33.051,706.032 L32.781,706.024 z M48.142,705.243 C46.684,705.243 45.503,706.572 45.503,708.211 C45.503,709.015 45.461,709.889 45.378,710.916 L45.375,710.945 C45.06,710.062 45.202,710.451 44.951,709.776 C44.317,708.098 43.834,707.094 43.146,706.365 C41.865,705.009 39.884,704.985 38.706,706.671 C38.211,707.379 37.991,708.161 37.844,709.189 C37.67,710.409 37.618,712.086 37.656,714.151 C37.716,717.444 38.017,721.701 38.273,722.566 C38.734,724.121 40.228,724.962 41.611,724.443 C42.944,723.858 43.691,722.38 43.296,720.768 L43.308,720.793 C43.334,720.89 43.32,720.832 43.347,720.97 C43.347,720.967 43.344,720.946 43.339,720.912 L43.331,720.839 C43.865,721.921 43.603,721.448 44.092,722.273 C44.824,723.423 45.637,724.197 46.829,724.403 C47.596,724.536 48.307,724.288 48.849,723.818 C49.149,723.558 49.354,723.277 49.513,722.977 C49.656,722.709 49.736,722.479 49.8,722.235 C49.852,722.032 49.885,721.847 49.914,721.633 C49.948,721.378 49.977,721.067 50.005,720.678 C50.049,720.077 50.091,719.292 50.137,718.28 C50.139,718.223 50.265,715.257 50.273,715.168 C50.305,714.854 50.316,714.74 50.394,713.977 C50.514,712.808 50.575,712.177 50.634,711.454 C50.73,710.261 50.781,709.215 50.781,708.211 C50.781,706.572 49.599,705.243 48.142,705.243 z M62.656,704.735 C61.457,704.823 61.954,704.674 61.135,705.024 C59.778,705.787 59.038,706.661 57.794,708.539 C57.756,708.598 57.756,708.598 57.717,708.656 C57.536,708.928 57.622,708.801 57.461,709.037 C57.416,708.064 57.446,708.58 57.367,707.489 C57.173,705.949 56.16,704.873 54.77,704.789 L54.5,704.801 C53.049,704.95 51.979,706.394 52.111,708.027 C52.274,710.045 52.296,712.119 52.226,715.199 C52.215,715.664 52.205,716.044 52.183,716.878 C52.121,719.224 52.101,720.26 52.101,721.568 C52.101,723.208 53.282,724.537 54.739,724.537 C56.197,724.537 57.378,723.208 57.378,721.568 C57.379,721.054 57.378,721.266 57.381,720.931 C57.767,721.265 57.567,721.105 57.98,721.409 C58.225,721.58 58.468,721.736 58.748,721.906 C58.893,721.994 59.332,722.255 59.36,722.271 C59.996,722.654 60.176,722.813 60.358,723.142 C61.131,724.532 62.759,724.955 63.995,724.086 C65.23,723.217 65.606,721.385 64.834,719.995 C64.065,718.611 63.222,717.86 61.844,717.033 C61.795,717.003 61.374,716.753 61.257,716.682 C61.062,716.564 60.905,716.463 60.758,716.361 C60.634,716.274 60.478,716.135 60.15,715.814 C60.11,715.775 60.11,715.775 60.069,715.735 C59.654,715.336 59.834,715.499 59.537,715.235 C59.935,714.782 60.338,714.334 60.739,713.884 C61.137,713.405 61.428,712.99 61.949,712.203 C61.988,712.145 61.988,712.145 62.026,712.087 C62.789,710.936 63.118,710.546 63.495,710.334 C64.799,709.601 65.327,707.818 64.676,706.351 C64.224,705.451 63.569,704.922 62.656,704.735 z M87.078,705.704 C86.137,705.752 86.539,705.699 85.867,705.816 C84.109,706.195 82.527,707.476 81.312,709.285 C78.837,712.967 78.252,718.071 80.656,721.521 C83.705,725.898 87.813,726.25 90.637,723.132 C91.708,721.949 92.447,720.37 92.603,718.839 C92.849,716.446 91.607,714.253 89.257,714.05 C87.804,713.924 85.964,714.458 85.852,716.093 C85.835,716.825 86.541,718.27 86.986,718.835 L86.94,718.894 C86.707,719.151 86.505,719.249 86.348,719.235 C86.236,719.225 86.088,719.169 85.888,719.029 C85.569,718.806 85.204,718.424 84.81,717.858 C84.097,716.835 84.352,714.606 85.522,712.866 C86.01,712.139 86.529,711.719 86.861,711.647 C86.916,711.636 86.935,711.638 86.968,711.653 C87.078,711.705 87.237,711.85 87.44,712.146 C88.328,713.446 89.985,713.689 91.14,712.689 C92.295,711.689 92.511,709.825 91.623,708.526 C90.461,706.923 88.96,705.793 87.078,705.704 z M74.373,706.019 C73.094,706.034 73.667,706.018 72.652,706.056 C69.914,706.184 67.826,706.661 66.161,707.832 C64.926,708.701 64.55,710.533 65.322,711.923 C66.095,713.313 67.723,713.736 68.959,712.867 C69.504,712.482 70.143,712.366 70.762,712.227 C70.553,713.704 70.636,715.201 70.715,716.686 C70.719,716.757 70.723,716.814 70.73,716.94 C70.832,718.701 70.845,719.428 70.764,720.161 C70.583,721.788 71.609,723.272 73.055,723.476 C74.501,723.679 75.82,722.525 76.001,720.898 C76.139,719.657 76.121,718.703 75.996,716.554 C75.989,716.428 75.986,716.374 75.982,716.304 C75.85,714 75.902,712.961 76.206,712.209 L76.277,711.973 C76.737,711.977 76.533,711.976 76.89,711.977 C78.347,711.977 79.529,710.648 79.529,709.008 C79.529,707.368 78.347,706.039 76.89,706.039 C76.6,706.039 76.385,706.037 75.749,706.029 C74.949,706.02 75.408,706.025 74.373,706.019 z" fill="#FFFFFF" fill-opacity="0.109"/>
    <text transform="matrix(1, 0, 0, 1, 59.618, 731.113)">
      <tspan x="-14.536" y="2" font-family="HelveticaNeue" font-size="8" kerning="0" fill="#FFFFFF" fill-opacity="0.109">©</tspan>
      <tspan x="-8.136" y="2" font-family="AvenirNext-Bold" font-size="8" fill="#FFFFFF" fill-opacity="0.109"> 2019</tspan>
    </text>
  </g>
</svg>
