<?xml version="1.0" encoding="UTF-8"?>
<!DOCTYPE svg PUBLIC "-//W3C//DTD SVG 1.1//EN" "http://www.w3.org/Graphics/SVG/1.1/DTD/svg11.dtd">
<svg version="1.1" xmlns="http://www.w3.org/2000/svg" xmlns:xlink="http://www.w3.org/1999/xlink" x="0" y="0" width="1332" height="1764" viewBox="0, 0, 1332, 1764">
  <g id="Background">
    <rect x="0" y="0" width="1332" height="1764" fill="#121733"/>
  </g>
  <g id="Layer_5">
    <path d="M666,0 L1332,0 L1332,1764 L666,1764 z" fill="#C2C2C2"/>
    <path d="M1233.47,518.18 C1213.548,452.438 1143.822,224.533 1256.131,412.906 C1260.457,465.134 1223.719,708.026 1153.114,704.684 C1164.394,718.471 1162.723,735.6 1152.278,740.613 C1169.407,770.694 1229.568,985.017 1277.613,1013.844 C1218.613,1117.533 1137.073,1075.719 1137.073,1075.719 C1137.073,1075.719 1116.464,1142.608 1143.293,1152.129 C1098.798,1182.923 1089.413,1191.056 1054.444,1183.227 C1052.5,1152.266 995.803,1135.248 995.803,1135.248 L946.048,1186.781 C946.048,1186.781 994.046,1251.155 978.922,1288.068 C952.358,1292.424 943.563,1302.328 928.278,1328.939 C912.993,1355.549 951.371,1451.056 904.289,1479.982 C857.206,1508.908 716.291,1376.333 665.997,1389.147 L665.997,521.455 C665.997,521.455 909.144,336.892 917.067,279.659 C918.706,316.97 951.776,362.391 1002.776,466.781 C959.346,363.188 999.742,297.375 999.742,297.375 C999.742,297.375 1038.237,431.321 1119.119,508.617 C1074.893,442.875 1061.158,331.626 1061.158,331.626 C1061.158,331.626 1105.174,416.18 1159.361,454.031 C1112.744,388.688 1127.298,313.91 1127.298,313.91 C1127.298,313.91 1198.407,485.508 1233.47,518.18 z" fill="#53597B"/>
    <path d="M108.506,389.387 C84.932,490.386 202.951,699.721 202.951,699.721 C253.874,763.142 150.267,923.834 91.893,996.679 C91.415,1028.973 180.916,1041.158 222.36,1024.031 C227.669,1045.22 205.04,1126.978 231.725,1159.827 C269.839,1172.253 293.367,1172.237 303.956,1169.093 C260.518,1189.756 269.266,1221.081 311.546,1248.876 C353.827,1276.672 360.91,1274.099 366.373,1293.995 C371.836,1313.891 339.836,1436.391 403.97,1456.312 C477.702,1484.32 665.997,1389.147 665.997,1389.147 C665.997,1389.147 664.188,528.517 665.997,521.455 C472.376,520.269 373.606,300.581 373.606,300.581 C373.606,300.581 393.341,542.091 414.8,578.079 C436.258,614.067 305.156,499.412 222.208,355.178 C234.262,467.631 225.298,452.964 247.029,507.249 C282.813,555.655 165.29,486.546 108.506,389.387 z" fill="#C2C2C2"/>
    <path d="M1049.636,594.363 C1065.382,576.63 1139.018,727.605 1088.837,721.122 C1087.112,736.846 1137.117,809.463 1138.201,816.524 C1139.286,823.584 1120.951,804.464 1112.591,805.872 C1104.231,807.28 1181.161,970.278 1171.899,983.245 C1162.636,996.213 1105.809,996.213 1088.837,996.676 C1071.866,997.139 1035.061,949.438 1027.76,940.176 C1020.46,930.913 1047.321,732.7 1042.689,725.753 C1038.058,718.806 1011.198,697.319 1003.325,698.8 C995.452,700.282 1033.89,612.096 1049.636,594.363 z" fill="#121733"/>
    <g>
      <path d="M1027.871,632.887 C1023.222,597.555 948.839,572.451 934.892,579.89 C920.946,587.328 924.665,686.814 933.963,696.112 C943.26,705.41 962.786,733.303 978.592,730.514 C994.398,727.724 1032.52,668.218 1027.871,632.887 z" fill="#A08A52"/>
      <path d="M1027.871,632.887 C1023.222,597.555 948.839,572.451 934.892,579.89 C920.946,587.328 924.665,686.814 933.963,696.112 C943.26,705.41 962.786,733.303 978.592,730.514 C994.398,727.724 1032.52,668.218 1027.871,632.887 z" fill-opacity="0" stroke="#121733" stroke-width="20" stroke-opacity="0.756"/>
    </g>
    <path d="M979.1,1139.969 C959.788,1177.484 940.485,1170.474 938.043,1169.808 C935.601,1169.142 956.246,1130.517 959.353,1126.743 C962.461,1122.969 908.742,1149.829 906.3,1151.827 C903.858,1153.825 924.096,1100.004 927.204,1096.897 C930.312,1093.79 870.36,1059.623 867.009,1120.527 C864.789,1124.968 934.519,1195.402 941.4,1192.072 C948.282,1188.742 961.309,1163.691 962.853,1162.674" fill-opacity="0" stroke="#121733" stroke-width="5"/>
    <path d="M870.913,1119.9 C870.913,1119.9 899.034,1097.333 925.68,1095.803 C941.489,1100.393 979.1,1142.211 979.1,1142.211" fill-opacity="0" stroke="#121733" stroke-width="5"/>
    <path d="M987.847,612.68 L986.631,614.869 L985.025,618.68 L983.693,622.219 L982.613,625.534 L981.675,628.705 L980.895,631.744 L980.139,634.724 L979.434,637.646 L978.746,640.528 L978.071,643.382 L977.386,646.218 L976.689,649.044 L975.623,653.296 L974.151,658.938 L972.664,664.537 L971.155,670.146 L969.687,675.765 L968.207,681.414 L966.133,689.927 L965.172,698.321 L965.572,703.762 L966.081,706.407 L966.081,706.407 C966.079,706.412 966.081,706.415 966.084,706.415 C966.088,706.414 966.092,706.41 966.093,706.405 C966.093,706.405 966.093,706.405 966.093,706.405 L968.26,703.303 L972.066,697.251 L976.356,688.389 L979.585,679.613 L981.601,673.708 L983.554,667.744 L985.348,661.737 L987.007,655.679 L988.484,649.618 L989.476,645.06 L990.07,641.995 L990.602,638.926 L991.068,635.86 L991.44,632.806 L991.707,629.775 L991.833,626.785 L991.837,623.835 L991.58,620.999 L991.075,618.288 L990.207,615.78 L988.948,613.524 L987.86,612.672 C987.861,612.667 987.858,612.666 987.854,612.668 C987.85,612.67 987.847,612.675 987.847,612.68 L987.847,612.68" fill="#121733"/>
    <path d="M1055.822,657.567 L1055.712,656.221 L1055.356,653.634 L1054.856,651.145 L1054.233,648.737 L1053.145,645.208 L1051.473,640.586 L1049.571,636.045 L1047.438,631.616 L1045.127,627.255 L1042.623,623.002 L1040.636,619.86 L1039.24,617.817 L1037.823,615.79 L1036.378,613.776 L1034.881,611.81 L1033.358,609.858 L1031.81,607.922 L1030.229,606.015 L1028.613,604.141 L1026.975,602.286 L1025.314,600.45 L1023.625,598.649 L1021.907,596.879 L1020.168,595.133 L1018.41,593.411 L1016.63,591.717 L1014.824,590.067 L1012.999,588.443 L1011.157,586.848 L1009.3,585.284 L1007.424,583.755 L1005.526,582.267 L1003.615,580.813 L1001.689,579.394 L999.75,578.01 L997.798,576.663 L995.829,575.364 L993.847,574.104 L991.855,572.884 L989.853,571.706 L987.841,570.57 L985.82,569.478 L983.787,568.435 L981.745,567.439 L979.697,566.49 L977.637,565.595 L975.569,564.756 L973.492,563.971 L971.409,563.239 L969.321,562.56 L967.228,561.941 L965.129,561.379 L963.026,560.873 L960.92,560.425 L958.812,560.038 L956.698,559.718 L954.583,559.46 L952.466,559.266 L951.381,559.19 L951.381,559.19 C951.367,559.189 951.354,559.188 951.34,559.187 L951.34,559.187 L950.035,559.112 L947.378,558.983 L943.369,558.839 L938.028,558.651 L934.051,558.479 L931.424,558.34 L928.81,558.159 L926.218,557.926 L923.653,557.633 L921.112,557.281 L918.598,556.859 L916.118,556.348 L913.676,555.74 L911.879,555.226 L910.698,554.854 L910.12,554.661 L910.158,554.676 L909.966,554.608 L909.625,554.477 L909.264,554.325 L908.866,554.144 L908.433,553.933 L907.971,553.696 L907.48,553.433 L906.962,553.148 L906.419,552.841 L905.854,552.512 L904.964,551.976 L903.695,551.232 L902.35,550.451 L900.938,549.626 L899.471,548.765 L897.949,547.888 L896.39,546.989 L893.988,545.631 L890.711,543.851 L888.251,542.551 L886.621,541.718 L885.023,540.898 L883.455,540.115 L881.923,539.381 L880.452,538.679 L879.035,538.037 L877.694,537.444 L876.742,537.035 L876.136,536.781 L875.553,536.544 L874.998,536.321 L874.469,536.114 L873.967,535.925 L873.496,535.752 L873.056,535.597 L872.648,535.46 L872.274,535.341 L871.935,535.242 L871.632,535.162 L871.368,535.101 L871.142,535.061 L870.957,535.042 L870.814,535.044 L870.762,535.046 L870.762,535.046 C870.759,535.045 870.755,535.049 870.753,535.054 C870.751,535.059 870.752,535.063 870.755,535.063 C870.755,535.063 870.755,535.063 870.755,535.063 L870.799,535.074 L870.901,535.143 L871.028,535.258 L871.18,535.415 L871.356,535.614 L871.555,535.853 L871.777,536.13 L872.022,536.444 L872.288,536.795 L872.577,537.178 L872.886,537.593 L873.214,538.041 L873.564,538.516 L873.932,539.018 L874.318,539.549 L874.722,540.101 L875.362,540.974 L876.273,542.209 L877.243,543.519 L878.277,544.875 L879.356,546.291 L880.488,547.732 L881.663,549.195 L882.865,550.687 L884.728,552.92 L887.279,555.851 L889.227,557.956 L890.529,559.301 L891.82,560.599 L893.102,561.827 L894.361,562.989 L895.592,564.078 L896.789,565.069 L897.668,565.738 L898.24,566.161 L898.798,566.563 L899.343,566.944 L899.876,567.3 L900.395,567.634 L900.9,567.943 L901.395,568.229 L901.878,568.489 L902.333,568.715 L902.519,568.803 L902.519,568.803 C902.532,568.808 902.545,568.814 902.558,568.819 L902.558,568.819 L903.196,569.103 L904.463,569.639 L906.374,570.375 L908.939,571.234 L911.53,571.985 L914.143,572.637 L916.777,573.192 L919.427,573.66 L922.084,574.061 L924.742,574.408 L927.404,574.71 L931.376,575.081 L936.617,575.504 L940.499,575.819 L943.066,576.035 L944.359,576.153 L944.318,576.15 L945.23,576.243 L947.117,576.479 L949.011,576.775 L950.914,577.128 L952.826,577.531 L954.743,577.988 L956.666,578.501 L958.593,579.069 L960.525,579.687 L962.46,580.352 L964.397,581.07 L966.335,581.836 L968.275,582.646 L970.216,583.5 L972.16,584.395 L974.1,585.336 L976.037,586.321 L977.973,587.345 L979.904,588.412 L981.83,589.522 L983.748,590.673 L985.658,591.863 L987.562,593.092 L989.462,594.349 L991.352,595.641 L993.232,596.97 L995.102,598.334 L996.958,599.73 L998.809,601.15 L1000.65,602.597 L1002.476,604.073 L1004.286,605.579 L1006.083,607.113 L1007.872,608.658 L1009.647,610.226 L1011.404,611.82 L1013.143,613.437 L1014.871,615.066 L1016.587,616.704 L1018.283,618.364 L1019.957,620.042 L1021.621,621.723 L1023.273,623.409 L1024.901,625.111 L1026.505,626.829 L1028.112,628.524 L1029.694,630.233 L1031.245,631.948 L1033.575,634.481 L1036.629,637.854 L1039.639,641.171 L1042.579,644.454 L1045.493,647.64 L1048.367,650.745 L1050.506,652.999 L1051.945,654.437 L1053.433,655.784 L1054.991,657.02 L1055.809,657.581 C1055.811,657.584 1055.815,657.583 1055.818,657.579 C1055.822,657.575 1055.823,657.57 1055.822,657.567 L1055.822,657.567" fill="#121733"/>
    <path d="M889.45,589.889 L890.55,588.306 L891.92,585.611 L892.958,583.047 L893.662,580.641 L894.147,578.331 L894.399,576.137 L894.556,572.96 L894.454,569.869 L894.266,567.826 L894.014,565.838 L893.695,563.876 L893.304,561.946 L892.862,560.036 L892.351,558.161 L891.793,556.306 L891.169,554.486 L890.464,552.725 L889.691,551.008 L888.854,549.336 L887.959,547.708 L886.987,546.144 L885.955,544.627 L884.85,543.177 L883.677,541.793 L882.431,540.48 L881.1,539.259 L879.55,538.313 L877.726,537.732 L875.631,537.538 L873.421,537.54 L870.955,537.954 L869.66,538.275 L869.66,538.275 C869.658,538.273 869.653,538.276 869.65,538.28 C869.647,538.284 869.647,538.29 869.649,538.292 C869.649,538.292 869.649,538.292 869.649,538.292 L869.711,539.769 L869.878,542.57 L870.19,545.057 L870.509,547.44 L870.992,549.525 L871.644,551.329 L872.414,552.939 L873.166,554.533 L873.891,556.128 L874.587,557.725 L875.26,559.318 L875.899,560.924 L876.521,562.52 L877.111,564.124 L877.675,565.73 L878.22,567.335 L878.76,568.919 L879.281,570.502 L879.768,572.095 L880.242,573.679 L880.688,575.265 L881.128,576.838 L881.561,578.396 L881.984,579.91 L882.663,582.161 L883.444,584.324 L884.029,585.681 L884.78,586.91 L885.687,588.028 L886.866,588.968 L888.318,589.753 L889.436,589.898 C889.436,589.898 889.436,589.898 889.436,589.898 C889.436,589.902 889.439,589.904 889.443,589.901 C889.447,589.899 889.45,589.894 889.45,589.889 L889.45,589.889" fill="#121733"/>
    <path d="M850.128,546.046 L850.234,547.587 L850.62,550.399 L851.237,552.855 L851.814,555.307 L852.467,557.616 L853.117,559.887 L853.807,562.071 L854.478,564.241 L855.158,566.372 L855.856,568.453 L856.543,570.521 L857.242,572.554 L857.92,574.591 L858.605,576.6 L859.602,579.639 L860.897,583.67 L862.148,587.688 L863.349,591.723 L864.511,595.774 L865.648,599.834 L866.75,603.92 L868.384,610.079 L870.575,618.283 L872.86,626.445 L874.667,632.552 L875.962,636.585 L877.317,640.581 L878.758,644.532 L880.291,648.431 L881.929,652.266 L883.244,655.1 L884.194,656.934 L885.22,658.684 L886.347,660.34 L887.555,661.917 L888.847,663.411 L890.205,664.838 L891.653,666.172 L893.159,667.446 L894.744,668.634 L896.414,669.725 L898.159,670.729 L899.064,671.194 L899.064,671.194 C899.065,671.197 899.069,671.196 899.073,671.192 C899.076,671.188 899.078,671.182 899.076,671.179 L898.871,669.881 L898.454,667.329 L898.037,664.824 L897.605,662.379 L897.163,659.982 L896.729,657.612 L896.268,655.302 L895.803,653.026 L895.311,650.802 L894.793,648.627 L894.228,646.519 L893.637,644.468 L892.729,641.425 L891.556,637.346 L890.431,633.245 L889.349,629.125 L888.293,624.988 L887.27,620.837 L885.727,614.596 L883.672,606.215 L881.516,597.865 L879.786,591.652 L878.556,587.531 L877.265,583.43 L875.884,579.375 L874.404,575.372 L872.816,571.429 L871.095,567.588 L869.698,564.786 L868.722,562.935 L867.681,561.14 L866.603,559.37 L865.451,557.666 L864.247,556.007 L862.956,554.432 L861.588,552.931 L860.167,551.479 L858.63,550.152 L857.02,548.902 L855.254,547.835 L853.445,546.813 L851.32,546.191 L850.139,546.031 C850.138,546.028 850.133,546.03 850.13,546.034 C850.127,546.038 850.126,546.043 850.128,546.046 L850.128,546.046" fill="#121733"/>
    <path d="M921.401,699.308 L923.078,707.017 L928.807,719.264 L934.38,726.722 L938.185,731.56 L942.101,736.232 L946.04,740.848 L950.01,745.396 L953.989,749.898 L958.011,754.302 L962.005,758.703 L966.021,763.027 L970.107,767.214 L973.624,769.742 L976.24,771.075 L978.932,772.321 L981.849,773.29 L983.36,773.712 L983.36,773.712 C983.362,773.715 983.366,773.714 983.369,773.71 C983.372,773.705 983.374,773.7 983.372,773.697 L983.201,771.613 L982.715,767.593 L981.952,763.885 L981.064,760.297 L979.233,755.502 L976.035,750.028 L972.605,744.802 L969.007,739.752 L965.31,734.797 L961.457,730.023 L957.502,725.369 L953.439,720.846 L949.292,716.434 L944.992,712.233 L938.362,706.199 L927.827,700.53 L921.413,699.292 C921.411,699.29 921.407,699.292 921.403,699.296 C921.4,699.301 921.399,699.306 921.401,699.308 L921.401,699.308" fill="#121733"/>
    <path d="M926.391,526.407 L926.558,526.999 L927.017,528.191 L927.676,529.349 L928.447,530.537 L929.349,531.703 L930.359,532.854 L931.455,534.006 L932.646,535.125 L933.897,536.26 L935.212,537.385 L936.604,538.461 L938.036,539.546 L940.244,541.164 L943.34,543.224 L946.53,545.242 L949.762,547.194 L953.002,549.044 L956.198,550.795 L959.272,552.513 L961.471,553.723 L962.86,554.51 L964.203,555.293 L965.477,556.06 L966.686,556.789 L967.813,557.497 L968.299,557.818 L968.254,557.791 L969.701,558.734 L972.546,560.587 L975.347,562.367 L978.083,564.112 L980.757,565.821 L983.383,567.474 L985.948,569.096 L988.451,570.69 L990.902,572.246 L993.297,573.77 L995.634,575.27 L997.914,576.749 L1000.141,578.201 L1002.317,579.628 L1004.437,581.038 L1006.503,582.434 L1008.516,583.816 L1010.481,585.181 L1012.397,586.534 L1014.262,587.878 L1016.087,589.202 L1017.868,590.519 L1019.606,591.826 L1021.299,593.132 L1022.952,594.433 L1024.566,595.733 L1026.138,597.036 L1027.672,598.345 L1029.173,599.653 L1030.64,600.969 L1032.073,602.296 L1033.472,603.636 L1034.84,604.991 L1036.188,606.352 L1037.508,607.733 L1038.802,609.135 L1040.072,610.561 L1041.318,612.013 L1042.55,613.486 L1043.768,614.985 L1044.969,616.517 L1046.152,618.083 L1047.319,619.687 L1048.474,621.332 L1049.629,623.006 L1050.776,624.725 L1051.913,626.489 L1053.04,628.302 L1054.174,630.159 L1055.304,632.065 L1056.431,634.025 L1057.566,636.036 L1058.794,638.06 L1060.057,640.13 L1061.385,642.238 L1062.761,644.393 L1064.197,646.595 L1065.68,648.852 L1067.246,651.154 L1068.848,653.521 L1070.534,655.939 L1072.287,658.416 L1074.138,660.944 L1076.073,663.532 L1077.08,664.846 L1077.08,664.846 C1077.081,664.851 1077.087,664.853 1077.092,664.852 C1077.097,664.85 1077.1,664.844 1077.098,664.839 C1077.098,664.839 1077.098,664.839 1077.098,664.839 L1077.108,663.179 L1077.052,659.927 L1076.914,656.76 L1076.68,653.682 L1076.376,650.682 L1075.984,647.764 L1075.55,644.911 L1075.026,642.141 L1074.444,639.437 L1073.789,636.806 L1073.073,634.244 L1072.275,631.756 L1071.423,629.333 L1070.457,627.001 L1069.461,624.72 L1068.442,622.485 L1067.4,620.295 L1066.322,618.154 L1065.222,616.052 L1064.099,613.99 L1062.95,611.964 L1061.76,609.987 L1060.545,608.043 L1059.303,606.133 L1058.034,604.257 L1056.737,602.411 L1055.406,600.6 L1054.038,598.824 L1052.64,597.077 L1051.213,595.356 L1049.755,593.661 L1048.266,591.989 L1046.736,590.351 L1045.174,588.734 L1043.58,587.138 L1041.953,585.559 L1040.292,583.999 L1038.59,582.462 L1036.854,580.939 L1035.083,579.427 L1033.274,577.93 L1031.424,576.445 L1029.537,574.967 L1027.609,573.501 L1025.639,572.041 L1023.62,570.594 L1021.562,569.148 L1019.459,567.703 L1017.31,566.258 L1015.117,564.808 L1012.879,563.35 L1010.595,561.883 L1008.259,560.412 L1005.87,558.935 L1003.431,557.442 L1000.941,555.933 L998.394,554.414 L995.786,552.886 L993.123,551.336 L990.404,549.762 L987.612,548.188 L984.759,546.588 L981.847,544.961 L978.852,543.338 L977.332,542.517 L977.332,542.517 C977.317,542.508 977.302,542.499 977.287,542.49 L977.287,542.49 L976.526,542.079 L975.055,541.32 L973.54,540.575 L971.974,539.863 L970.372,539.162 L968.721,538.462 L966.208,537.434 L962.769,536.155 L959.27,534.902 L955.72,533.742 L952.153,532.682 L948.622,531.692 L945.162,530.749 L942.613,530.122 L940.97,529.713 L939.378,529.299 L937.809,528.938 L936.287,528.592 L934.829,528.234 L933.408,527.916 L932.046,527.602 L930.731,527.31 L929.451,527.046 L928.235,526.76 L927.007,526.516 L926.404,526.393 C926.401,526.389 926.394,526.389 926.391,526.393 C926.387,526.397 926.387,526.403 926.391,526.407 L926.391,526.407" fill="#121733"/>
    <path d="M978.355,507.107 L979.028,508.707 L980.618,511.483 L982.35,513.961 L984.033,516.437 L985.765,518.795 L987.491,521.114 L989.243,523.37 L990.971,525.627 L992.71,527.853 L994.459,530.053 L996.194,532.26 L997.952,534.439 L999.68,536.646 L1001.427,538.838 L1003.146,541.058 L1004.864,543.285 L1006.571,545.528 L1008.254,547.798 L1009.946,550.07 L1011.617,552.369 L1013.27,554.692 L1014.927,557.022 L1016.565,559.376 L1018.186,561.754 L1020.628,565.359 L1023.827,570.23 L1026.993,575.137 L1030.115,580.112 L1033.219,585.132 L1036.339,590.175 L1039.459,595.244 L1042.584,600.336 L1047.296,608 L1053.657,618.184 L1058.525,625.765 L1061.843,630.776 L1065.233,635.719 L1068.975,640.422 L1073.009,644.904 L1077.325,649.147 L1081.917,653.129 L1085.56,655.917 L1088.053,657.689 L1089.329,658.538 L1089.329,658.538 C1089.332,658.543 1089.339,658.544 1089.343,658.541 C1089.347,658.538 1089.348,658.531 1089.345,658.527 L1088.968,657.049 L1088.177,654.13 L1086.952,649.793 L1085.148,644.124 L1083.167,638.558 L1080.986,633.092 L1078.583,627.725 L1075.882,622.496 L1073.149,617.249 L1068.985,609.321 L1063.313,598.693 L1058.943,590.726 L1055.96,585.421 L1052.913,580.133 L1049.792,574.875 L1046.568,569.669 L1043.259,564.511 L1039.877,559.396 L1036.398,554.374 L1033.738,550.654 L1031.909,548.198 L1030.057,545.761 L1028.18,543.344 L1026.256,540.966 L1024.303,538.613 L1022.325,536.285 L1020.287,534.008 L1018.222,531.76 L1016.114,529.552 L1013.953,527.399 L1011.763,525.279 L1009.495,523.24 L1007.198,521.239 L1004.815,519.335 L1002.383,517.495 L999.875,515.754 L997.288,514.12 L994.656,512.563 L991.928,511.15 L989.132,509.857 L986.213,508.767 L983.267,507.766 L980.101,507.152 L978.366,507.091 C978.361,507.088 978.355,507.089 978.352,507.094 C978.349,507.098 978.35,507.104 978.355,507.107 L978.355,507.107" fill="#121733"/>
    <path d="M1175.808,511.924 L1174.017,514.333 L1171.848,519.174 L1170.252,524.018 L1169.209,528.84 L1168.392,533.629 L1167.904,538.377 L1167.599,543.081 L1167.415,547.741 L1167.295,554.646 L1167.284,561.463 L1167.3,565.95 L1167.34,570.402 L1167.365,574.818 L1167.381,579.2 L1167.364,583.552 L1167.327,587.873 L1167.285,592.17 L1167.211,596.447 L1167.091,600.704 L1166.914,604.949 L1166.697,609.186 L1166.405,613.419 L1166.064,617.656 L1165.642,621.9 L1165.155,626.162 L1164.616,630.453 L1164.166,634.819 L1164.034,638.173 L1163.969,640.442 L1163.971,642.788 L1164.031,645.185 L1164.092,647.625 L1164.203,650.126 L1164.354,652.69 L1164.562,655.329 L1164.673,656.673 L1164.673,656.673 C1164.672,656.678 1164.674,656.684 1164.679,656.686 C1164.684,656.688 1164.69,656.685 1164.692,656.68 C1164.692,656.68 1164.692,656.68 1164.692,656.68 L1165.697,655.763 L1167.633,653.889 L1169.43,651.95 L1171.109,649.958 L1172.66,647.914 L1174.134,645.838 L1175.477,643.717 L1176.68,641.529 L1178.32,638.211 L1179.996,633.703 L1181.328,629.143 L1182.468,624.572 L1183.447,619.997 L1184.292,615.424 L1184.987,610.853 L1185.573,606.286 L1186.027,601.724 L1186.382,597.167 L1186.64,592.617 L1186.801,588.071 L1186.854,583.529 L1186.827,578.992 L1186.747,574.456 L1186.605,569.921 L1186.421,565.384 L1186.17,560.84 L1185.709,554.021 L1185.122,547.173 L1184.641,542.59 L1184.068,537.987 L1183.354,533.361 L1182.367,528.704 L1181.226,524.002 L1179.617,519.242 L1177.533,514.394 L1175.827,511.925 C1175.827,511.925 1175.827,511.925 1175.827,511.925 C1175.827,511.919 1175.823,511.915 1175.818,511.915 C1175.812,511.915 1175.808,511.919 1175.808,511.924 L1175.808,511.924" fill="#121733"/>
    <path d="M1138.691,566.486 L1138.061,567.141 L1137.035,568.47 L1136.273,569.827 L1135.571,571.223 L1134.979,572.652 L1134.469,574.114 L1134.008,575.609 L1133.595,577.136 L1133.065,579.48 L1132.525,582.703 L1132.245,586.016 L1132.032,589.425 L1131.94,592.915 L1131.918,596.476 L1131.971,600.099 L1132.058,603.775 L1132.164,607.494 L1132.297,611.245 L1132.439,615.018 L1132.573,618.803 L1132.725,622.587 L1132.886,626.36 L1133.066,630.111 L1133.244,633.831 L1133.409,637.508 L1133.565,641.132 L1133.719,644.693 L1133.84,648.181 L1133.965,651.586 L1134.048,654.061 L1134.098,655.672 L1134.184,657.281 L1134.388,658.875 L1134.65,660.454 L1134.963,662.016 L1135.329,663.568 L1135.711,665.1 L1136.146,666.625 L1136.571,668.134 L1137.021,669.635 L1137.501,671.132 L1137.966,672.621 L1138.451,674.114 L1138.692,674.861 L1138.692,674.861 C1138.69,674.866 1138.693,674.872 1138.698,674.873 C1138.704,674.875 1138.709,674.872 1138.711,674.867 L1139.321,674.353 L1140.515,673.261 L1141.649,672.083 L1142.759,670.835 L1143.799,669.514 L1144.776,668.126 L1145.727,666.684 L1146.589,665.181 L1147.4,663.631 L1148.124,662.029 L1148.762,660.383 L1149.311,658.697 L1149.709,656.97 L1150.041,655.193 L1150.49,652.494 L1151.003,648.845 L1151.403,645.121 L1151.735,641.333 L1151.973,637.495 L1152.134,633.616 L1152.225,629.709 L1152.244,625.785 L1152.176,621.856 L1152.038,617.933 L1151.827,614.027 L1151.578,610.149 L1151.28,606.31 L1150.921,602.52 L1150.515,598.793 L1150.056,595.138 L1149.509,591.571 L1148.884,588.101 L1148.139,584.743 L1147.334,581.504 L1146.283,578.41 L1145.384,576.184 L1144.731,574.75 L1144.038,573.354 L1143.305,572.001 L1142.499,570.69 L1141.592,569.427 L1140.637,568.206 L1139.428,567.043 L1138.711,566.484 C1138.711,566.479 1138.706,566.475 1138.7,566.475 C1138.695,566.476 1138.691,566.48 1138.691,566.486 L1138.691,566.486" fill="#121733"/>
    <path d="M1157.261,712.718 L1156.387,711.219 L1154.305,709.281 L1152.06,707.8 L1149.671,706.783 L1147.221,705.968 L1144.738,705.262 L1142.223,704.673 L1139.686,704.169 L1137.128,703.761 L1134.554,703.442 L1131.959,703.246 L1129.357,703.127 L1126.742,703.13 L1124.118,703.296 L1121.472,704.1 L1118.842,705.496 L1117.545,706.408 L1117.545,706.408 C1117.543,706.408 1117.541,706.41 1117.541,706.412 C1117.541,706.415 1117.543,706.417 1117.545,706.417 L1118.8,707.343 L1121.26,708.853 L1123.684,709.883 L1126.111,710.382 L1128.529,710.823 L1130.94,711.243 L1133.341,711.684 L1135.745,712.097 L1138.147,712.513 L1140.554,712.92 L1142.966,713.328 L1145.394,713.7 L1147.838,714.043 L1150.328,714.257 L1152.947,714.08 L1155.713,713.514 L1157.258,712.726 C1157.258,712.726 1157.258,712.726 1157.258,712.726 C1157.26,712.727 1157.263,712.726 1157.263,712.723 C1157.264,712.721 1157.263,712.719 1157.261,712.718 L1157.261,712.718" fill="#121733"/>
    <path d="M1147.61,744.267 L1146.656,742.944 L1144.714,741.319 L1142.809,740.067 L1140.852,739.19 L1138.857,738.426 L1136.831,737.688 L1133.707,736.666 L1129.431,735.434 L1126.096,734.69 L1123.798,734.304 L1121.474,734.059 L1119.111,734.01 L1116.668,734.656 L1114.841,735.546 L1113.66,736.371 L1113.091,736.843 L1113.091,736.843 C1113.089,736.843 1113.087,736.845 1113.087,736.848 C1113.087,736.85 1113.089,736.852 1113.091,736.852 L1113.63,737.333 L1114.656,738.227 L1116.122,739.344 L1118.04,740.498 L1120.007,741.164 L1121.991,741.808 L1123.98,742.454 L1127.052,743.456 L1131.298,744.753 L1134.573,745.637 L1136.827,746.115 L1139.127,746.485 L1141.487,746.629 L1143.927,746.253 L1146.361,745.325 L1147.609,744.275 C1147.611,744.275 1147.613,744.274 1147.613,744.271 C1147.614,744.269 1147.612,744.267 1147.61,744.267 L1147.61,744.267" fill="#121733"/>
    <path d="M975.361,415.257 L975.654,415.976 L976.274,417.432 L976.956,418.899 L977.658,420.403 L978.402,421.931 L979.181,423.484 L979.979,425.073 L980.811,426.687 L981.669,428.331 L982.544,430.009 L983.434,431.721 L984.368,433.45 L985.317,435.211 L986.281,437.004 L987.26,438.829 L988.267,440.676 L989.297,442.547 L990.341,444.448 L991.398,446.378 L992.48,448.329 L993.578,450.305 L994.689,452.308 L996.393,455.354 L998.729,459.489 L1001.129,463.707 L1003.569,468.016 L1006.071,472.398 L1008.606,476.862 L1011.187,481.394 L1013.799,485.997 L1016.44,490.665 L1019.111,495.391 L1021.797,500.176 L1024.507,505.01 L1027.227,509.893 L1029.954,514.82 L1032.692,519.784 L1035.428,524.783 L1038.159,529.814 L1042.251,537.407 L1047.654,547.599 L1052.984,557.823 L1056.922,565.485 L1059.509,570.583 L1062.062,575.676 L1064.578,580.752 L1067.051,585.809 L1069.476,590.843 L1071.857,595.844 L1074.181,600.814 L1076.445,605.747 L1078.657,610.633 L1080.802,615.474 L1082.874,620.264 L1084.882,624.996 L1086.814,629.667 L1088.207,633.124 L1089.113,635.404 L1090,637.671 L1090.865,639.921 L1091.708,642.151 L1092.531,644.361 L1093.339,646.549 L1094.142,648.709 L1094.931,650.846 L1095.698,652.962 L1096.453,655.051 L1097.181,657.12 L1097.898,659.162 L1098.588,661.181 L1099.264,663.174 L1099.915,665.143 L1100.536,667.089 L1101.141,669.007 L1101.723,670.9 L1102.274,672.768 L1102.794,674.612 L1103.291,676.428 L1103.764,678.217 L1104.204,679.981 L1104.618,681.717 L1105,683.426 L1105.356,685.108 L1105.678,686.763 L1105.97,688.39 L1106.23,689.99 L1106.457,691.562 L1106.652,693.107 L1106.735,693.87 L1106.735,693.87 C1106.735,693.872 1106.737,693.874 1106.739,693.874 C1106.741,693.874 1106.743,693.872 1106.743,693.87 C1106.743,693.87 1106.743,693.87 1106.743,693.87 L1106.816,693.104 L1106.941,691.541 L1107.029,689.939 L1107.081,688.298 L1107.097,686.619 L1107.077,684.903 L1107.024,683.152 L1106.934,681.367 L1106.811,679.548 L1106.651,677.697 L1106.461,675.813 L1106.235,673.899 L1105.971,671.957 L1105.679,669.984 L1105.359,667.982 L1105.005,665.953 L1104.61,663.9 L1104.188,661.82 L1103.738,659.715 L1103.247,657.588 L1102.73,655.436 L1102.173,653.266 L1101.591,651.072 L1100.97,648.86 L1100.322,646.628 L1099.64,644.378 L1098.914,642.114 L1098.157,639.835 L1097.374,637.538 L1096.568,635.223 L1095.741,632.89 L1094.889,630.536 L1093.567,626.981 L1091.735,622.191 L1089.824,617.345 L1087.828,612.45 L1085.763,607.507 L1083.631,602.519 L1081.424,597.497 L1079.157,592.441 L1076.835,587.353 L1074.45,582.245 L1072.016,577.116 L1069.535,571.971 L1067.006,566.816 L1064.436,561.65 L1060.51,553.904 L1055.155,543.61 L1049.7,533.379 L1045.568,525.763 L1042.792,520.722 L1040.009,515.715 L1037.226,510.746 L1034.434,505.825 L1031.647,500.951 L1028.867,496.129 L1026.089,491.369 L1023.327,486.67 L1020.576,482.042 L1017.843,477.486 L1015.134,473.007 L1012.439,468.616 L1009.78,464.307 L1007.136,460.101 L1004.535,455.986 L1001.96,451.981 L1000.044,449.054 L998.774,447.14 L997.518,445.252 L996.274,443.393 L995.033,441.569 L993.808,439.773 L992.6,438.005 L991.4,436.271 L990.203,434.576 L989.026,432.909 L987.867,431.274 L986.728,429.669 L985.581,428.112 L984.455,426.587 L983.35,425.095 L982.258,423.641 L981.171,422.231 L980.105,420.856 L979.046,419.526 L977.987,418.246 L976.95,417.002 L975.896,415.822 L975.368,415.252 C975.368,415.252 975.368,415.252 975.368,415.252 C975.367,415.25 975.364,415.249 975.362,415.251 C975.36,415.252 975.36,415.255 975.361,415.257 L975.361,415.257" fill="#121733"/>
    <path d="M1100.39,594.866 L1100.804,595.963 L1101.807,597.841 L1102.839,599.539 L1103.873,601.109 L1104.866,602.604 L1105.818,604.031 L1106.73,605.398 L1107.602,606.71 L1108.436,607.971 L1109.211,609.204 L1109.943,610.399 L1110.619,611.573 L1111.246,612.721 L1111.825,613.848 L1112.349,614.959 L1112.835,616.05 L1113.272,617.128 L1113.661,618.196 L1114.016,619.252 L1114.328,620.299 L1114.599,621.341 L1114.834,622.38 L1115.038,623.415 L1115.207,624.449 L1115.401,626.039 L1115.554,628.158 L1115.59,630.268 L1115.524,632.415 L1115.372,634.605 L1115.151,636.848 L1114.864,639.148 L1114.519,641.511 L1114.132,643.938 L1113.715,646.434 L1113.279,649.002 L1112.848,651.644 L1112.425,654.361 L1112.042,657.159 L1111.706,660.038 L1111.468,663.002 L1111.526,666.074 L1111.685,668.437 L1111.892,670.04 L1112.161,671.648 L1112.505,673.271 L1112.928,674.905 L1113.434,676.546 L1113.716,677.368 L1113.716,677.368 C1113.716,677.371 1113.718,677.373 1113.72,677.373 C1113.723,677.373 1113.725,677.371 1113.725,677.368 C1113.725,677.368 1113.725,677.368 1113.725,677.368 L1114.014,676.556 L1114.578,674.963 L1115.114,673.407 L1115.621,671.885 L1116.102,670.391 L1116.565,668.934 L1117.183,666.782 L1117.978,663.969 L1118.592,661.195 L1119.198,658.471 L1119.819,655.793 L1120.432,653.153 L1121.046,650.546 L1121.634,647.963 L1122.194,645.398 L1122.709,642.845 L1123.164,640.296 L1123.548,637.747 L1123.84,635.193 L1124.018,632.628 L1124.071,630.052 L1123.987,627.463 L1123.755,624.897 L1123.469,622.977 L1123.22,621.671 L1122.926,620.364 L1122.576,619.057 L1122.175,617.75 L1121.722,616.443 L1121.216,615.137 L1120.646,613.836 L1120.021,612.537 L1119.341,611.24 L1118.588,609.952 L1117.778,608.668 L1116.901,607.391 L1115.953,606.125 L1114.939,604.865 L1113.841,603.625 L1112.673,602.396 L1111.41,601.198 L1110.05,600.034 L1108.591,598.909 L1107.03,597.829 L1105.362,596.799 L1103.544,595.872 L1101.543,595.099 L1100.395,594.86 C1100.394,594.858 1100.391,594.858 1100.389,594.86 C1100.388,594.862 1100.388,594.865 1100.39,594.866 L1100.39,594.866" fill="#121733"/>
    <path d="M827.237,714.503 L828.142,715.448 L830.163,716.879 L832.328,718.126 L834.609,719.172 L836.967,720.092 L839.388,720.881 L843.078,721.956 L848.064,723.232 L851.771,724.192 L854.202,724.833 L856.608,725.491 L858.967,726.181 L861.269,726.908 L863.502,727.68 L865.662,728.488 L867.208,729.12 L868.202,729.549 L869.192,730.003 L870.157,730.472 L871.098,730.954 L872.011,731.454 L872.896,731.972 L873.755,732.503 L874.587,733.054 L875.386,733.625 L876.158,734.214 L876.904,734.82 L877.618,735.45 L878.301,736.104 L878.957,736.779 L879.587,737.478 L880.186,738.205 L880.758,738.96 L881.304,739.744 L881.821,740.562 L882.334,741.406 L882.866,742.271 L883.403,743.172 L883.944,744.119 L884.495,745.114 L885.05,746.168 L885.597,747.289 L886.159,748.477 L886.731,749.741 L887.316,751.086 L887.61,751.79 L887.61,751.79 C887.61,751.793 887.612,751.795 887.614,751.795 C887.616,751.795 887.618,751.793 887.618,751.79 L887.899,751.063 L888.376,749.61 L888.733,748.165 L888.976,746.73 L889.104,745.312 L889.14,743.911 L889.077,742.532 L888.908,741.183 L888.643,739.867 L888.285,738.591 L887.82,737.367 L887.275,736.191 L886.676,735.051 L886.023,733.952 L885.319,732.891 L884.572,731.868 L883.777,730.885 L882.94,729.943 L882.065,729.037 L881.156,728.167 L880.21,727.336 L879.231,726.543 L878.224,725.783 L877.191,725.055 L876.128,724.364 L875.042,723.703 L873.935,723.071 L872.805,722.471 L871.656,721.898 L870.47,721.343 L868.671,720.572 L866.247,719.638 L863.771,718.802 L861.258,718.043 L858.715,717.353 L856.152,716.725 L853.564,716.159 L849.693,715.428 L844.581,714.597 L840.787,714.144 L838.296,713.912 L835.826,713.794 L833.382,713.772 L830.945,713.904 L828.505,714.163 L827.239,714.495 C827.237,714.495 827.234,714.496 827.234,714.498 C827.233,714.5 827.234,714.503 827.237,714.503 L827.237,714.503" fill="#121733"/>
    <path d="M819.245,747.355 L819.659,748.305 L820.617,749.666 L821.563,750.834 L822.514,751.846 L823.472,752.743 L824.413,753.602 L825.353,754.412 L826.278,755.209 L827.187,756.007 L828.084,756.803 L828.96,757.613 L829.816,758.442 L830.659,759.281 L831.479,760.145 L832.283,761.025 L833.064,761.93 L833.831,762.852 L834.593,763.786 L835.342,764.736 L836.078,765.706 L836.799,766.696 L837.515,767.699 L838.215,768.724 L838.911,769.761 L839.597,770.816 L840.278,771.886 L840.963,772.965 L841.736,774.018 L843.177,775.526 L845.469,777.469 L846.767,778.428 L846.767,778.428 C846.768,778.431 846.77,778.432 846.773,778.431 C846.775,778.43 846.776,778.428 846.775,778.426 C846.775,778.426 846.775,778.426 846.775,778.426 L847.193,776.821 L847.578,773.695 L847.461,771.459 L847.133,770.048 L846.666,768.691 L846.143,767.354 L845.574,766.036 L844.963,764.734 L844.302,763.456 L843.602,762.197 L842.854,760.964 L842.066,759.755 L841.235,758.573 L840.36,757.421 L839.433,756.308 L838.463,755.228 L837.458,754.179 L836.41,753.171 L835.324,752.196 L834.193,751.271 L833.021,750.392 L831.808,749.563 L830.544,748.803 L829.235,748.112 L827.877,747.506 L826.456,747.024 L824.988,746.655 L823.448,746.48 L821.837,746.541 L820.172,746.877 L819.248,747.347 C819.248,747.347 819.248,747.347 819.248,747.347 C819.246,747.346 819.244,747.347 819.243,747.35 C819.242,747.352 819.243,747.354 819.245,747.355 L819.245,747.355" fill="#121733"/>
    <path d="M1120.241,1051.892 L1118.978,1050.189 L1116.031,1047.828 L1112.869,1045.936 L1109.53,1044.524 L1106.117,1043.328 L1102.667,1042.249 L1099.186,1041.287 L1095.689,1040.4 L1090.423,1039.226 L1083.377,1037.861 L1076.312,1036.76 L1070.883,1036.658 L1067.12,1037.229 L1065.192,1037.686 L1065.192,1037.686 C1065.19,1037.685 1065.188,1037.686 1065.187,1037.689 C1065.187,1037.691 1065.188,1037.693 1065.19,1037.694 L1066.694,1039 L1069.821,1041.229 L1074.78,1043.54 L1081.627,1045.583 L1088.516,1047.378 L1093.685,1048.644 L1097.122,1049.443 L1100.551,1050.23 L1103.98,1050.974 L1107.407,1051.691 L1110.864,1052.292 L1114.445,1052.528 L1118.184,1052.423 L1120.239,1051.9 C1120.241,1051.901 1120.243,1051.9 1120.244,1051.897 C1120.245,1051.895 1120.244,1051.893 1120.241,1051.892 L1120.241,1051.892" fill="#121733"/>
    <path d="M868.152,1194.978 C899.733,1213.69 936.509,1219.162 953.428,1253.001" fill="#121733"/>
    <path d="M849.634,1238.935 C849.634,1238.935 897.612,1294.594 925.18,1298.716 C911.823,1317.792 909.855,1328.81 920.907,1347.069 C866.176,1366.194 849.634,1238.935 849.634,1238.935 z" fill="#121733"/>
    <path d="M883.924,1084.053 C916.882,1085.766 914.537,1056.645 933.243,1065.976 C951.949,1075.306 956.567,1078.987 978.6,1090.122 C1000.633,1101.256 1016.221,1092.349 1033.146,1100.811 C1050.07,1109.273 1071.04,1148.022 1088.837,1149.803 C1106.634,1151.585 1132.314,1153.766 1132.979,1157.775 C1133.644,1161.783 1080.702,1198.812 1055.315,1191.686 C1029.929,1184.56 991.033,1164.454 978.6,1139.469 C961.356,1104.816 884.261,1091.802 883.924,1084.053 z" fill="#121733"/>
    <path d="M415.306,609.702 L415.143,609.217 L414.739,608.312 L414.029,607.026 L412.888,605.464 L411.601,603.984 L410.177,602.616 L408.629,601.373 L406.992,600.215 L405.281,599.124 L403.476,598.184 L401.616,597.315 L399.707,596.513 L397.748,595.806 L395.747,595.204 L393.715,594.665 L391.657,594.198 L389.577,593.825 L387.481,593.509 L385.375,593.269 L383.263,593.107 L381.15,593.009 L379.041,592.988 L376.941,593.017 L374.852,593.089 L372.777,593.201 L370.724,593.385 L368.693,593.606 L366.687,593.86 L364.708,594.144 L362.764,594.471 L360.857,594.836 L358.988,595.225 L357.16,595.636 L356.229,595.858 L356.229,595.858 C356.194,595.868 356.159,595.877 356.124,595.887 L356.124,595.887 L356.005,595.917 L355.564,596.042 L355.079,596.192 L354.607,596.347 L354.131,596.511 L353.655,596.681 L353.168,596.861 L352.663,597.058 L352.146,597.264 L351.611,597.482 L351.059,597.711 L350.486,597.951 L349.599,598.33 L348.342,598.878 L346.995,599.476 L345.571,600.118 L344.07,600.805 L342.498,601.539 L340.858,602.323 L339.152,603.146 L337.379,604.009 L335.545,604.908 L333.653,605.843 L331.71,606.817 L329.718,607.829 L327.679,608.872 L325.595,609.943 L323.472,611.039 L321.311,612.162 L319.122,613.318 L316.905,614.495 L314.66,615.69 L311.256,617.514 L306.663,620.003 L302.035,622.549 L297.413,625.15 L292.817,627.775 L288.277,630.409 L283.821,633.033 L280.546,634.988 L278.4,636.278 L276.295,637.553 L274.235,638.823 L272.216,640.074 L270.243,641.305 L268.32,642.514 L266.449,643.698 L264.641,644.87 L262.893,646.015 L261.207,647.129 L259.587,648.212 L258.035,649.262 L256.554,650.276 L255.149,651.256 L253.825,652.209 L252.58,653.122 L251.415,653.997 L250.329,654.833 L249.554,655.446 L249.053,655.85 L248.586,656.236 L248.135,656.617 L247.703,656.991 L247.284,657.365 L246.88,657.738 L246.488,658.116 L246.101,658.508 L245.719,658.916 L245.473,659.189 L245.473,659.189 C245.448,659.215 245.424,659.242 245.4,659.269 L245.4,659.269 L245.008,659.752 L244.167,660.801 L243.306,661.902 L242.442,663.034 L241.161,664.777 L239.475,667.225 L237.874,669.853 L236.345,672.593 L234.91,675.437 L233.583,678.367 L232.388,681.37 L231.319,684.414 L230.392,687.481 L229.615,690.546 L229.136,692.844 L228.878,694.369 L228.667,695.867 L228.508,697.349 L228.398,698.81 L228.339,700.246 L228.334,701.654 L228.387,703.029 L228.428,703.702 L228.428,703.702 C228.427,703.706 228.43,703.711 228.435,703.713 C228.44,703.714 228.445,703.711 228.446,703.706 L228.779,703.13 L229.482,701.986 L230.215,700.845 L230.978,699.706 L231.771,698.569 L232.591,697.434 L233.432,696.299 L234.295,695.178 L235.619,693.492 L237.454,691.234 L239.35,688.99 L241.284,686.763 L243.243,684.563 L245.192,682.385 L247.125,680.244 L249.028,678.15 L250.891,676.12 L252.673,674.117 L253.978,672.673 L254.823,671.759 L255.656,670.88 L256.491,670.02 L256.928,669.576 L256.855,669.656 L256.805,669.716 L256.859,669.676 L256.967,669.591 L257.126,669.466 L257.33,669.307 L257.575,669.122 L257.862,668.912 L258.183,668.682 L258.541,668.432 L258.917,668.175 L259.552,667.75 L260.519,667.121 L261.598,666.439 L262.78,665.708 L264.06,664.934 L265.426,664.108 L266.878,663.242 L268.412,662.339 L270.025,661.402 L271.711,660.434 L273.467,659.436 L275.287,658.409 L277.161,657.344 L279.091,656.255 L281.075,655.144 L283.108,654.014 L285.186,652.866 L287.3,651.692 L289.445,650.504 L292.727,648.699 L297.199,646.247 L301.745,643.762 L306.333,641.259 L310.935,638.752 L315.511,636.242 L320.044,633.759 L323.397,631.927 L325.602,630.728 L327.781,629.549 L329.929,628.391 L332.038,627.247 L334.108,626.127 L336.136,625.035 L338.119,623.973 L340.052,622.944 L341.929,621.941 L343.746,620.969 L345.501,620.036 L347.192,619.144 L348.814,618.294 L350.362,617.491 L351.828,616.726 L353.21,616.009 L354.504,615.344 L355.706,614.736 L356.818,614.184 L357.588,613.808 L358.059,613.581 L358.503,613.37 L358.914,613.178 L359.292,613.004 L359.632,612.849 L359.936,612.709 L360.198,612.59 L360.406,612.496 L360.563,612.425 L360.65,612.382 L360.726,612.346 L360.842,612.308 L360.738,612.337 L361.457,612.108 L362.994,611.641 L364.57,611.19 L366.183,610.756 L367.825,610.329 L369.493,609.912 L371.186,609.519 L372.9,609.152 L374.632,608.814 L376.374,608.473 L378.127,608.164 L379.886,607.892 L381.649,607.651 L383.412,607.421 L385.173,607.218 L386.93,607.035 L388.682,606.875 L390.425,606.764 L392.161,606.669 L393.885,606.617 L395.595,606.62 L397.296,606.642 L398.99,606.698 L400.667,606.819 L402.327,607.006 L404.003,607.184 L405.665,607.442 L407.325,607.765 L409.008,608.118 L410.722,608.52 L412.468,609.005 L413.844,609.363 L414.793,609.61 L415.293,609.716 C415.293,609.716 415.293,609.716 415.293,609.716 C415.297,609.72 415.303,609.719 415.306,609.715 C415.31,609.712 415.31,609.706 415.306,609.702 L415.306,609.702" fill="#313131"/>
    <path d="M228.436,1157.045 L229.127,1157.912 L230.597,1159.292 L232.141,1160.505 L233.756,1161.531 L235.42,1162.512 L237.147,1163.337 L239.811,1164.535 L243.516,1165.92 L247.381,1167.091 L251.385,1168.054 L255.51,1168.874 L259.736,1169.589 L264.049,1170.224 L268.435,1170.794 L272.883,1171.288 L277.378,1171.737 L281.908,1172.151 L288.735,1172.685 L297.852,1173.218 L304.662,1173.462 L309.159,1173.585 L313.602,1173.647 L317.982,1173.666 L322.292,1173.615 L326.517,1173.526 L330.646,1173.382 L334.667,1173.166 L337.613,1172.835 L339.54,1172.515 L341.431,1172.1 L343.286,1171.616 L345.106,1171.058 L346.885,1170.455 L348.622,1169.812 L350.315,1169.132 L351.963,1168.416 L353.562,1167.656 L355.111,1166.868 L356.608,1166.041 L357.336,1165.619 L357.336,1165.619 C357.341,1165.619 357.346,1165.615 357.346,1165.609 C357.346,1165.604 357.341,1165.599 357.336,1165.599 L356.612,1165.176 L355.131,1164.338 L353.608,1163.526 L352.043,1162.732 L350.438,1161.969 L348.793,1161.233 L347.108,1160.521 L345.386,1159.84 L343.627,1159.192 L341.83,1158.608 L339.998,1158.083 L338.134,1157.643 L335.271,1157.112 L331.339,1156.597 L327.294,1156.116 L323.152,1155.653 L318.923,1155.194 L314.617,1154.771 L310.25,1154.359 L305.836,1153.977 L299.145,1153.406 L290.133,1152.757 L283.37,1152.338 L278.887,1152.086 L274.436,1151.849 L270.029,1151.635 L265.673,1151.478 L261.381,1151.367 L257.163,1151.32 L253.029,1151.362 L248.983,1151.532 L245.03,1151.899 L241.172,1152.467 L238.347,1153.045 L236.506,1153.455 L234.681,1154.017 L232.887,1154.624 L231.104,1155.414 L229.334,1156.37 L228.439,1157.025 C228.439,1157.025 228.439,1157.025 228.439,1157.025 C228.433,1157.024 228.428,1157.028 228.427,1157.034 C228.427,1157.039 228.43,1157.044 228.436,1157.045 L228.436,1157.045" fill="#313131"/>
    <path d="M222.708,1003.764 L237.479,1008.663 L252.251,1003.764 L252.251,1003.764 C252.254,1003.764 252.256,1003.762 252.256,1003.759 C252.256,1003.756 252.254,1003.754 252.251,1003.754 L237.479,998.854 L222.708,1003.754 C222.708,1003.754 222.708,1003.754 222.708,1003.754 C222.705,1003.754 222.703,1003.756 222.703,1003.759 C222.703,1003.762 222.705,1003.764 222.708,1003.764 L222.708,1003.764" fill="#313131"/>
    <path d="M276.225,721.263 L277.778,722.475 L281.099,724.463 L284.584,726.199 L288.188,727.734 L291.87,729.137 L295.61,730.423 L299.395,731.577 L303.205,732.614 L307.02,733.565 L310.823,734.443 L314.604,735.234 L318.344,735.973 L322.033,736.644 L325.655,737.266 L329.2,737.83 L332.653,738.353 L335.18,738.708 L336.831,738.933 L338.448,739.148 L340.033,739.355 L341.586,739.551 L343.104,739.733 L344.586,739.907 L346.031,740.072 L347.437,740.229 L348.801,740.378 L350.124,740.519 L351.403,740.65 L352.637,740.773 L353.824,740.887 L354.962,740.995 L356.051,741.095 L357.089,741.184 L358.074,741.265 L359.005,741.34 L359.88,741.407 L360.697,741.467 L361.454,741.522 L362.152,741.571 L362.787,741.615 L363.359,741.653 L363.866,741.685 L364.305,741.711 L364.677,741.733 L364.981,741.75 L365.207,741.763 L365.37,741.771 L365.448,741.775 L365.448,741.775 L365.448,741.775 C365.655,741.789 365.861,741.789 366.068,741.776 L366.068,741.776 L366.076,741.776 L366.145,741.771 L366.278,741.761 L366.468,741.746 L366.718,741.727 L367.027,741.703 L367.389,741.675 L367.808,741.641 L368.28,741.602 L368.802,741.559 L369.377,741.51 L369.999,741.457 L370.669,741.397 L371.385,741.331 L372.146,741.259 L372.95,741.182 L373.796,741.099 L374.682,741.011 L375.606,740.918 L376.57,740.819 L377.567,740.714 L378.601,740.601 L380.209,740.418 L382.462,740.154 L384.831,739.865 L387.3,739.549 L389.858,739.198 L392.494,738.822 L395.197,738.421 L397.953,737.979 L400.753,737.51 L403.585,737.007 L406.436,736.469 L410.703,735.515 L414.943,734.412 L417.723,733.523 L420.453,732.602 L423.114,731.591 L425.701,730.529 L428.197,729.402 L430.586,728.215 L432.857,726.983 L433.942,726.349 L433.942,726.349 C433.944,726.348 433.946,726.345 433.945,726.343 C433.944,726.34 433.941,726.338 433.939,726.339 L432.695,726.429 L430.152,726.598 L427.538,726.755 L424.865,726.915 L422.14,727.082 L419.368,727.246 L416.568,727.444 L413.744,727.621 L409.488,728.017 L405.221,728.445 L402.401,728.766 L399.601,729.073 L396.833,729.364 L394.108,729.634 L391.439,729.899 L388.835,730.143 L386.308,730.366 L383.871,730.579 L381.534,730.777 L379.306,730.956 L377.715,731.079 L376.697,731.157 L375.713,731.232 L374.766,731.304 L373.855,731.371 L372.983,731.434 L372.151,731.492 L371.361,731.546 L370.614,731.596 L369.911,731.642 L369.254,731.686 L368.644,731.726 L368.084,731.762 L367.572,731.795 L367.114,731.823 L366.708,731.848 L366.356,731.869 L366.061,731.886 L365.823,731.899 L365.642,731.909 L365.526,731.916 L365.469,731.919 L365.461,731.919 L366.08,731.92 L366.061,731.919 L365.988,731.913 L365.851,731.903 L365.633,731.887 L365.35,731.865 L364.996,731.837 L364.573,731.803 L364.085,731.764 L363.532,731.719 L362.916,731.669 L362.238,731.612 L361.5,731.548 L360.703,731.478 L359.85,731.402 L358.941,731.32 L357.977,731.232 L356.962,731.137 L355.895,731.04 L354.779,730.936 L353.615,730.825 L352.405,730.707 L351.15,730.583 L349.852,730.454 L348.511,730.316 L347.131,730.171 L345.713,730.018 L344.257,729.857 L342.766,729.688 L341.24,729.516 L339.682,729.337 L338.092,729.149 L336.478,728.953 L334.003,728.643 L330.607,728.214 L327.121,727.75 L323.555,727.265 L319.922,726.748 L316.232,726.215 L312.5,725.65 L308.73,725.084 L304.937,724.501 L301.129,723.911 L297.31,723.346 L293.485,722.814 L289.666,722.301 L285.856,721.818 L282.041,721.433 L278.197,721.195 L276.228,721.253 C276.228,721.253 276.228,721.253 276.228,721.253 C276.225,721.252 276.222,721.254 276.221,721.256 C276.221,721.259 276.222,721.262 276.225,721.263 L276.225,721.263" fill="#313131"/>
    <path d="M248.634,709.316 L247.836,710.403 L246.836,712.348 L246.243,714.068 L245.689,715.663 L245.325,717.149 L244.943,718.559 L244.609,719.909 L244.274,721.211 L243.921,722.475 L243.538,723.706 L243.129,724.911 L242.69,726.098 L242.214,727.268 L241.711,728.429 L241.169,729.578 L240.596,730.724 L240.012,731.877 L239.4,733.032 L238.431,734.8 L237.087,737.169 L235.711,739.569 L234.323,742.038 L233.077,744.67 L232.292,747.658 L232.105,751.024 L232.221,752.802 L232.221,752.802 C232.219,752.805 232.22,752.808 232.223,752.809 C232.225,752.811 232.228,752.81 232.229,752.808 L233.841,752.149 L236.768,750.708 L239.215,748.952 L241.259,746.869 L243.159,744.618 L245.008,742.26 L246.768,739.799 L248.012,737.876 L248.807,736.531 L249.565,735.146 L250.264,733.713 L250.915,732.238 L251.519,730.724 L252.056,729.165 L252.53,727.565 L252.925,725.921 L253.23,724.236 L253.442,722.512 L253.542,720.752 L253.505,718.96 L253.274,717.144 L252.908,715.318 L252.191,713.507 L251.268,711.726 L249.763,710.067 L248.644,709.314 C248.643,709.312 248.641,709.31 248.638,709.31 C248.635,709.311 248.633,709.313 248.634,709.316 L248.634,709.316" fill="#313131"/>
    <path d="M366.589,608.588 C383.285,616.056 393.509,747.53 352.933,729.605 C305.872,708.815 283.491,691.961 272.128,667.903 C265.29,653.426 349.893,601.121 366.589,608.588 z" fill="#313131"/>
    <path d="M222.711,644.485 L223.218,644.177 L224.171,643.553 L225.036,642.912 L225.857,642.291 L226.619,641.676 L227.334,641.076 L228.001,640.488 L228.633,639.922 L229.231,639.378 L229.783,638.842 L230.303,638.326 L230.795,637.831 L231.259,637.356 L231.698,636.9 L232.112,636.464 L232.504,636.046 L233.039,635.451 L233.675,634.709 L234.245,634.035 L234.757,633.428 L235.217,632.888 L235.635,632.415 L236.019,632.004 L236.375,631.654 L236.713,631.357 L237.039,631.095 L237.372,630.855 L237.734,630.626 L238.144,630.391 L238.624,630.144 L239.189,629.875 L239.855,629.581 L240.632,629.258 L241.286,628.995 L241.759,628.805 L242.273,628.602 L242.822,628.389 L243.405,628.165 L244.026,627.931 L244.685,627.684 L245.381,627.422 L246.117,627.145 L246.893,626.854 L247.711,626.543 L248.57,626.213 L249.474,625.867 L250.424,625.502 L250.914,625.309 L250.897,625.317 L251.757,624.983 L253.509,624.333 L255.354,623.682 L257.302,623.021 L259.345,622.339 L261.486,621.652 L263.72,620.962 L266.039,620.259 L268.441,619.548 L270.927,618.838 L273.489,618.126 L276.122,617.403 L278.826,616.684 L281.597,615.969 L284.43,615.251 L287.322,614.534 L290.271,613.826 L293.273,613.125 L296.322,612.423 L299.417,611.732 L302.555,611.053 L305.732,610.384 L308.943,609.722 L312.186,609.076 L315.459,608.446 L318.756,607.831 L323.749,606.937 L330.455,605.788 L337.191,604.719 L343.937,603.733 L348.978,603.054 L352.324,602.636 L355.665,602.239 L358.991,601.87 L362.298,601.533 L365.581,601.226 L368.837,600.942 L372.063,600.695 L375.257,600.483 L378.413,600.303 L381.529,600.154 L384.602,600.045 L387.627,599.971 L390.603,599.933 L393.524,599.936 L396.39,599.96 L399.198,599.974 L401.947,600.009 L404.635,600.068 L407.258,600.155 L409.818,600.26 L412.309,600.415 L414.733,600.595 L417.082,600.835 L419.362,601.111 L421.015,601.355 L422.094,601.53 L423.16,601.722 L424.208,601.926 L425.236,602.147 L426.247,602.381 L427.238,602.632 L428.21,602.899 L429.164,603.181 L430.1,603.481 L430.559,603.64 L430.559,603.64 C430.562,603.641 430.565,603.641 430.566,603.638 C430.567,603.636 430.566,603.633 430.564,603.631 L430.179,603.329 L429.385,602.728 L428.557,602.141 L427.694,601.568 L426.799,601.01 L425.872,600.464 L424.914,599.934 L423.927,599.417 L422.909,598.916 L421.858,598.426 L420.229,597.726 L417.975,596.841 L415.618,596.029 L413.17,595.263 L410.628,594.577 L408.002,593.943 L405.295,593.391 L402.512,592.909 L399.658,592.499 L396.738,592.161 L393.756,591.924 L390.718,591.754 L387.629,591.63 L384.492,591.556 L381.311,591.527 L378.088,591.539 L374.827,591.597 L371.532,591.699 L368.206,591.838 L364.853,592.012 L361.475,592.231 L358.077,592.487 L354.661,592.775 L351.23,593.097 L347.781,593.459 L342.598,594.055 L335.695,594.958 L328.811,595.976 L321.98,597.095 L316.907,598.01 L313.548,598.648 L310.215,599.306 L306.911,599.981 L303.641,600.671 L300.407,601.382 L297.214,602.109 L294.063,602.848 L290.958,603.598 L287.905,604.369 L284.904,605.149 L281.96,605.936 L279.075,606.734 L276.256,607.546 L273.502,608.362 L270.816,609.181 L268.207,610.014 L265.674,610.85 L263.219,611.685 L260.847,612.525 L258.564,613.373 L256.368,614.217 L254.262,615.055 L252.256,615.903 L250.346,616.747 L248.552,617.575 L247.72,617.974 L247.72,617.974 C247.714,617.976 247.708,617.979 247.703,617.982 L247.703,617.982 L247.226,618.212 L246.31,618.666 L245.438,619.1 L244.605,619.516 L243.814,619.916 L243.062,620.303 L242.348,620.673 L241.668,621.03 L241.024,621.374 L240.411,621.704 L239.828,622.021 L239.275,622.325 L238.748,622.62 L238.24,622.907 L237.525,623.329 L236.659,623.867 L235.869,624.388 L235.144,624.9 L234.477,625.412 L233.865,625.932 L233.304,626.462 L232.795,627.002 L232.337,627.554 L231.929,628.115 L231.553,628.685 L231.199,629.266 L230.851,629.871 L230.498,630.51 L230.124,631.195 L229.717,631.938 L229.263,632.754 L228.893,633.426 L228.634,633.904 L228.358,634.406 L228.063,634.932 L227.748,635.485 L227.412,636.065 L227.053,636.674 L226.671,637.313 L226.28,637.996 L225.863,638.712 L225.419,639.462 L224.959,640.257 L224.477,641.095 L223.986,641.989 L223.465,642.924 L222.957,643.942 L222.704,644.479 C222.704,644.479 222.704,644.479 222.704,644.479 C222.702,644.481 222.702,644.484 222.704,644.486 C222.706,644.487 222.71,644.487 222.711,644.485 L222.711,644.485" fill="#313131"/>
    <path d="M201.442,621.088 L202.01,621.52 L203.161,622.22 L204.342,622.716 L205.543,623.097 L206.753,623.347 L207.977,623.53 L209.197,623.595 L210.426,623.609 L211.652,623.546 L212.867,623.401 L214.082,623.211 L215.296,622.976 L216.48,622.654 L217.659,622.295 L219.38,621.718 L221.629,620.778 L223.87,619.692 L226.066,618.504 L228.199,617.206 L230.314,615.866 L232.379,614.451 L234.421,612.999 L236.467,611.542 L238.48,610.043 L240.498,608.545 L242.543,607.071 L244.591,605.593 L246.663,604.134 L248.78,602.713 L250.927,601.308 L252.541,600.309 L253.614,599.659 L254.742,598.997 L255.892,598.35 L257.054,597.703 L258.239,597.071 L259.45,596.454 L260.683,595.847 L261.94,595.247 L263.226,594.664 L264.544,594.099 L265.888,593.537 L267.267,592.99 L268.684,592.464 L270.137,591.953 L271.627,591.453 L273.157,590.964 L274.729,590.488 L275.467,590.261 L275.467,590.261 C275.553,590.238 275.638,590.213 275.723,590.188 L275.723,590.188 L276.349,589.977 L277.581,589.571 L278.88,589.154 L280.27,588.721 L281.733,588.26 L283.261,587.759 L284.852,587.245 L286.496,586.722 L289.05,585.895 L292.561,584.74 L296.144,583.556 L299.751,582.345 L303.332,581.14 L305.964,580.242 L307.683,579.658 L309.37,579.088 L311.012,578.523 L312.606,577.976 L314.145,577.447 L315.622,576.94 L317.031,576.456 L318.366,575.995 L319.621,575.56 L320.79,575.154 L321.866,574.778 L322.847,574.434 L323.725,574.123 L324.136,573.978 L323.07,574.156 L323.372,574.093 L324.02,573.957 L324.724,573.81 L325.478,573.652 L326.282,573.484 L327.135,573.307 L328.036,573.12 L328.984,572.924 L329.978,572.72 L331.017,572.508 L332.098,572.289 L333.224,572.062 L334.389,571.829 L335.596,571.591 L336.84,571.346 L338.123,571.097 L340.118,570.724 L342.898,570.223 L345.802,569.713 L348.825,569.197 L351.955,568.68 L355.184,568.178 L358.501,567.703 L361.895,567.239 L365.357,566.798 L368.876,566.403 L372.442,566.031 L376.044,565.69 L379.672,565.418 L383.315,565.182 L386.963,564.984 L390.606,564.865 L394.232,564.801 L397.831,564.787 L401.393,564.843 L404.906,564.985 L408.36,565.187 L411.746,565.453 L414.233,565.709 L415.862,565.913 L417.469,566.134 L419.051,566.373 L419.833,566.5 L419.833,566.5 C419.841,566.502 419.849,566.496 419.851,566.488 C419.853,566.48 419.847,566.472 419.839,566.47 L419.067,566.291 L417.501,565.947 L415.909,565.618 L414.291,565.305 L411.822,564.847 L408.456,564.269 L405.013,563.748 L401.503,563.28 L397.939,562.835 L394.331,562.421 L390.688,562.054 L387.021,561.722 L383.341,561.396 L379.659,561.108 L375.985,560.858 L372.33,560.606 L368.704,560.383 L365.119,560.192 L361.584,560.003 L358.112,559.834 L354.713,559.691 L351.397,559.552 L348.176,559.423 L345.062,559.315 L342.064,559.225 L339.198,559.152 L337.14,559.101 L335.811,559.066 L334.521,559.034 L333.271,559.005 L332.062,558.979 L330.896,558.956 L329.773,558.936 L328.697,558.917 L327.667,558.901 L326.686,558.886 L325.756,558.873 L324.877,558.862 L324.051,558.851 L323.281,558.84 L322.568,558.829 L321.91,558.819 L321.602,558.814 L321.602,558.814 C321.243,558.848 320.886,558.908 320.536,558.992 L320.536,558.992 L320.159,559.036 L319.286,559.139 L318.293,559.255 L317.187,559.381 L315.978,559.518 L314.672,559.664 L313.276,559.821 L311.799,559.989 L310.246,560.165 L308.627,560.349 L306.945,560.541 L305.209,560.741 L303.427,560.956 L301.602,561.179 L298.801,561.525 L294.994,562.026 L291.145,562.561 L287.309,563.143 L283.544,563.757 L280.8,564.248 L279.012,564.595 L277.266,564.942 L275.565,565.288 L273.922,565.662 L272.34,566.047 L270.817,566.429 L269.387,566.8 L268.748,566.97 L269.003,566.896 L267.884,567.185 L265.809,567.779 L263.784,568.417 L261.81,569.096 L259.885,569.816 L258.009,570.569 L256.179,571.348 L254.394,572.155 L252.663,573 L250.975,573.867 L249.332,574.754 L247.737,575.669 L246.19,576.606 L244.684,577.558 L243.221,578.523 L241.808,579.514 L240.435,580.513 L239.064,581.545 L237.118,583.102 L234.702,585.159 L232.45,587.241 L230.33,589.309 L228.344,591.365 L226.495,593.41 L224.742,595.401 L223.089,597.342 L221.557,599.257 L220.089,601.09 L218.697,602.855 L217.388,604.572 L216.113,606.191 L214.9,607.758 L213.711,609.25 L212.494,610.692 L211.579,611.76 L210.98,612.427 L210.367,613.072 L209.762,613.742 L209.134,614.393 L208.481,615.023 L207.81,615.665 L207.112,616.313 L206.372,616.94 L205.601,617.609 L204.778,618.267 L203.908,618.976 L202.975,619.718 L201.969,620.577 L201.441,621.057 C201.433,621.058 201.426,621.065 201.426,621.073 C201.427,621.082 201.434,621.088 201.442,621.088 L201.442,621.088" fill="#313131"/>
  </g>
</svg>
