<?xml version="1.0" encoding="UTF-8"?>
<!DOCTYPE svg PUBLIC "-//W3C//DTD SVG 1.1//EN" "http://www.w3.org/Graphics/SVG/1.1/DTD/svg11.dtd">
<svg version="1.1" xmlns="http://www.w3.org/2000/svg" xmlns:xlink="http://www.w3.org/1999/xlink" x="0" y="0" width="1280" height="768" viewBox="0, 0, 1280, 768">
  <g id="Background">
    <rect x="0" y="0" width="1280" height="768" fill="url(#Gradient_1)"/>
  </g>
  <defs>
    <linearGradient id="Gradient_1" gradientUnits="userSpaceOnUse" x1="640" y1="0" x2="640" y2="768">
      <stop offset="0" stop-color="#E3369A"/>
      <stop offset="1" stop-color="#000000"/>
    </linearGradient>
  </defs>
  <g id="Layer_8">
    <path d="M522.616,369.591 C528.189,340.519 503.923,275.756 545.868,212.237 C587.813,148.719 888.72,107.703 905.437,162.222 C922.154,216.741 909.997,128.647 884.035,67.873 C858.072,7.099 501.441,75.121 496.426,118.611 C491.411,162.1 450.176,354.032 466.893,388.535 C483.61,423.038 517.044,398.662 522.616,369.591 z" fill="#473D92"/>
    <path d="M614.107,88.9 C583.814,113.778 617.724,147.369 643.931,124.231 C670.138,101.093 819.927,60.675 854.597,88.132 C889.268,115.59 850.035,73.301 820.453,57.6 C790.871,41.9 644.4,64.023 614.107,88.9 z" fill="#6B60C7"/>
    <path d="M893.735,68.988 C880.918,30.517 1059.234,267.706 1065.921,277.629 C1072.607,287.551 1056.448,328.703 1046.974,331.823 C1037.502,334.943 988.865,336.508 984.485,331.823 C980.106,327.138 906.551,107.46 893.735,68.988 z" fill="#7665C6"/>
    <path d="M615.339,259.284 C615.339,259.284 600.213,395.754 675.958,448.389 C636.628,431.35 629.753,426.596 629.753,426.596 C629.753,426.596 711.562,519.254 747.238,518.791 C782.914,518.328 895.599,365.581 906.473,330.449 C917.346,295.318 913.838,269.347 912.9,263.914 C877.01,258.819 817.404,189.331 817.404,189.331 C817.404,189.331 815.278,224.776 832.465,261.518 C798.793,243.026 763.892,170.847 763.892,170.847 C763.892,170.847 760.211,265.838 791.74,331.823 C751.793,334.273 710.682,228.214 710.682,228.214 C710.682,228.214 707.83,246.087 729.696,302.414 C678.886,263.308 675.958,150.024 675.958,150.024 C675.958,150.024 658.532,245.674 666.321,288.737 C641.653,264.302 627.19,218.92 627.19,218.92 C627.19,218.92 628.746,273.491 634.387,295.488 C616.831,281.687 615.339,259.284 615.339,259.284 z" fill="#F2CDD5"/>
    <path d="M695.733,274.291 C683.408,248.608 604.535,271.071 621.853,360.411 C626.824,382.581 652.578,398.886 652.578,398.886 C652.578,398.886 690.798,397.572 700.268,388.535 C719.823,365.204 708.058,299.974 695.733,274.291 z" fill="#FFFFFF"/>
    <path d="M794.419,259.284 C812.796,212.572 896.737,257.367 882.394,320.827 C879.032,337.869 864.241,359.844 861.552,364.329 C858.863,368.814 811.897,371.221 808.823,368.336 C805.749,365.45 784.334,308.238 794.419,259.284 z" fill="#FFFFFF"/>
    <path d="M680.281,388.49 C665.831,389.83 647.178,361.209 644.334,330.51 C641.491,299.811 654.112,275.733 668.561,274.393 C683.01,273.053 693.816,294.959 696.659,325.658 C699.503,356.357 694.73,387.15 680.281,388.49 z" fill="#E7429A"/>
    <path d="M833.273,360.37 C818.809,361.532 805.085,337.561 802.62,306.829 C800.155,276.097 809.882,250.243 824.347,249.081 C838.812,247.92 852.536,271.891 855.001,302.623 C857.466,333.354 847.738,359.209 833.273,360.37 z" fill="#E7429A"/>
    <path d="M668.561,274.393 C685.929,271.871 695.173,308.868 695.173,308.868 C695.173,308.868 666.04,311.11 645.369,330.449 C645.872,319.238 651.194,276.916 668.561,274.393 z" fill="#7C2659"/>
    <path d="M656.292,279.922 L656.262,280.242 L656.176,280.814 L656.062,281.348 L655.923,281.868 L655.665,282.645 L655.241,283.639 L654.74,284.584 L654.17,285.515 L653.535,286.44 L652.848,287.368 L651.73,288.791 L650.173,290.739 L648.995,292.293 L648.217,293.414 L647.481,294.587 L646.799,295.838 L646.462,296.552 L646.462,296.552 C646.452,296.578 646.442,296.605 646.433,296.631 L646.433,296.631 L646.177,297.186 L645.663,298.368 L645.168,299.59 L644.698,300.832 L644.041,302.709 L643.24,305.279 L642.542,307.936 L641.931,310.649 L641.407,313.412 L640.979,316.223 L640.648,319.073 L640.401,321.956 L640.249,324.868 L640.184,327.801 L640.209,330.751 L640.506,333.693 L640.904,336.628 L641.404,339.551 L642.017,342.45 L642.734,345.32 L643.535,348.158 L644.439,350.953 L645.424,353.703 L646.49,356.401 L647.648,359.037 L648.868,361.613 L650.165,364.116 L651.53,366.544 L652.956,368.89 L654.447,371.148 L655.996,373.31 L657.601,375.371 L659.262,377.32 L660.964,379.159 L661.844,380.042 L661.844,380.042 C662.338,380.714 663.282,380.859 663.954,380.366 C664.627,379.872 664.772,378.928 664.278,378.256 C664.278,378.256 664.278,378.256 664.278,378.256 L663.76,377.232 L662.734,375.114 L661.766,372.926 L660.843,370.679 L659.967,368.375 L659.139,366.017 L658.357,363.611 L657.625,361.158 L656.94,358.664 L656.296,356.137 L655.711,353.574 L655.157,350.99 L654.649,348.384 L654.189,345.76 L653.759,343.127 L653.379,340.485 L653.034,337.84 L652.715,335.199 L652.439,332.562 L652.207,329.933 L651.854,327.323 L651.562,324.72 L651.338,322.128 L651.176,319.553 L651.092,316.999 L651.074,314.471 L651.126,311.973 L651.261,309.512 L651.481,307.091 L651.772,304.693 L652.051,302.922 L652.261,301.771 L652.492,300.633 L652.749,299.49 L652.896,298.896 L652.867,298.974 L652.965,298.539 L653.273,297.532 L653.66,296.494 L654.112,295.443 L654.91,293.787 L656.079,291.496 L656.946,289.728 L657.498,288.505 L658,287.248 L658.435,285.957 L658.779,284.63 L659.008,283.292 L659.097,282.275 L659.114,281.575 L659.092,280.869 L659.031,280.179 L658.986,279.86 C658.986,279.86 658.986,279.86 658.986,279.86 C658.969,279.116 658.352,278.527 657.608,278.544 C656.864,278.561 656.275,279.178 656.292,279.922 L656.292,279.922" fill="#000000"/>
    <path d="M825.43,249.143 C842.797,246.621 855.383,295.488 855.383,295.488 C855.383,295.488 831.87,276.665 804.304,287.595 C804.807,276.384 808.063,251.666 825.43,249.143 z" fill="#7C2659"/>
    <path d="M675.686,280.675 L676.291,281.214 L677.436,282.295 L678.526,283.393 L679.571,284.518 L680.571,285.668 L681.529,286.842 L682.444,288.041 L683.318,289.262 L684.152,290.507 L684.947,291.773 L685.704,293.06 L686.423,294.368 L687.106,295.695 L687.752,297.043 L688.366,298.407 L688.946,299.789 L689.489,301.19 L689.998,302.608 L690.481,304.039 L690.933,305.486 L691.351,306.947 L691.737,308.423 L692.09,309.913 L692.413,311.415 L692.716,312.925 L692.989,314.447 L693.231,315.979 L693.443,317.52 L693.633,319.068 L693.798,320.624 L693.996,322.995 L694.246,326.156 L694.57,329.291 L694.826,332.447 L695.022,335.616 L695.168,338.795 L695.245,341.977 L695.254,345.155 L695.198,348.323 L695.088,351.475 L694.889,354.599 L694.713,356.908 L694.567,358.431 L694.397,359.958 L694.218,361.475 L694.017,362.978 L693.802,364.469 L693.566,365.946 L693.316,367.408 L693.046,368.854 L692.758,370.283 L692.455,371.695 L692.136,373.09 L691.974,373.774 L691.974,373.774 C691.649,374.542 692.008,375.427 692.776,375.752 C693.544,376.076 694.43,375.717 694.754,374.949 C694.754,374.949 694.754,374.949 694.754,374.949 L695.15,374.312 L695.919,373.024 L696.666,371.701 L697.39,370.343 L698.092,368.953 L698.774,367.532 L699.43,366.081 L700.066,364.602 L700.672,363.095 L701.259,361.564 L701.812,360.006 L702.344,358.411 L703.1,355.984 L703.983,352.695 L704.766,349.337 L705.408,345.916 L705.916,342.443 L706.286,338.929 L706.513,335.385 L706.574,331.821 L706.471,328.25 L706.209,324.684 L705.639,321.184 L705.066,318.598 L704.641,316.87 L704.179,315.155 L703.677,313.456 L703.143,311.772 L702.575,310.104 L701.974,308.453 L701.327,306.825 L700.645,305.218 L699.928,303.632 L699.178,302.069 L698.393,300.531 L697.572,299.018 L696.706,297.538 L695.805,296.085 L694.87,294.662 L693.899,293.272 L692.887,291.917 L691.84,290.596 L690.755,289.314 L689.634,288.069 L688.476,286.864 L687.282,285.702 L686.052,284.581 L684.786,283.505 L683.486,282.475 L682.15,281.492 L680.779,280.558 L679.374,279.675 L677.944,278.851 L677.231,278.468 C676.621,278.041 675.781,278.19 675.354,278.799 C674.928,279.409 675.076,280.249 675.686,280.675 L675.686,280.675" fill="#000000"/>
    <path d="M812.648,259.387 L812.105,260.605 L811.008,263.013 L809.341,266.608 L807.13,271.423 L805.54,275.113 L804.534,277.641 L804.046,278.942 L804.046,278.942 C804.042,278.959 804.037,278.977 804.033,278.994 L804.033,278.994 L803.862,279.471 L803.504,280.571 L803.146,281.768 L802.795,283.034 L802.451,284.363 L802.118,285.753 L801.799,287.201 L801.488,288.699 L801.186,290.244 L800.893,291.83 L800.609,293.453 L800.342,295.107 L799.978,297.623 L799.535,301.039 L799.167,304.493 L798.872,307.928 L798.778,310.481 L798.807,312.16 L798.871,313.795 L798.951,315.394 L799.059,316.952 L799.199,318.463 L799.356,319.926 L799.536,321.334 L799.748,322.682 L799.979,323.97 L800.229,325.197 L800.507,326.36 L800.67,326.969 L800.67,326.969 C800.676,326.998 800.683,327.027 800.689,327.056 L800.689,327.056 L800.846,327.567 L801.203,328.679 L801.787,330.326 L802.671,332.46 L803.646,334.544 L804.716,336.544 L805.847,338.472 L807.026,340.338 L808.271,342.133 L809.547,343.879 L810.852,345.579 L812.854,348.049 L815.576,351.261 L818.309,354.425 L819.664,355.997 L819.664,355.997 C820.097,356.709 821.026,356.935 821.738,356.501 C822.45,356.067 822.676,355.139 822.242,354.427 C822.242,354.427 822.242,354.427 822.242,354.427 L821.439,352.458 L819.762,348.606 L818.053,344.83 L816.794,342.033 L815.987,340.193 L815.217,338.366 L814.501,336.544 L813.817,334.74 L813.201,332.938 L812.656,331.138 L812.165,329.343 L811.746,327.51 L811.471,326.118 L811.314,325.171 L811.233,324.643 L811.252,324.73 L811.216,324.398 L811.125,323.543 L811.043,322.579 L810.978,321.517 L810.931,320.365 L810.886,319.136 L810.854,317.836 L810.84,316.472 L810.826,315.052 L810.818,313.582 L810.826,312.07 L810.831,310.535 L810.759,308.169 L810.599,304.919 L810.483,301.632 L810.403,298.344 L810.38,295.914 L810.373,294.33 L810.375,292.778 L810.392,291.262 L810.423,289.792 L810.469,288.371 L810.53,287.009 L810.598,285.711 L810.677,284.483 L810.77,283.336 L810.876,282.277 L811.001,281.288 L811.079,280.787 L811.066,280.839 L811.267,279.594 L811.728,277.063 L812.511,273.219 L813.637,268.038 L814.471,264.122 L814.987,261.493 L815.223,260.18 C815.223,260.18 815.223,260.18 815.223,260.18 C815.442,259.469 815.043,258.715 814.332,258.496 C813.621,258.277 812.867,258.676 812.648,259.387 L812.648,259.387" fill="#000000"/>
    <path d="M840.797,262.613 L841.236,263.918 L842.086,266.535 L842.895,269.177 L843.672,271.845 L844.4,274.542 L845.089,277.259 L845.735,279.995 L846.336,282.746 L846.883,285.511 L847.389,288.282 L847.839,291.06 L848.225,293.843 L848.571,296.621 L848.851,299.397 L849.077,302.165 L849.241,304.922 L849.428,307.655 L849.713,310.363 L849.953,313.064 L850.158,315.757 L850.328,318.444 L850.442,321.125 L850.496,323.801 L850.498,326.473 L850.439,329.142 L850.294,331.806 L850.087,334.471 L849.785,337.131 L849.404,339.794 L849.066,341.778 L848.812,343.099 L848.528,344.434 L848.221,345.772 L847.889,347.112 L847.532,348.454 L847.349,349.119 L847.349,349.119 C846.981,349.867 847.289,350.772 848.036,351.14 C848.784,351.509 849.689,351.201 850.058,350.453 L850.498,349.853 L851.343,348.647 L852.154,347.416 L852.93,346.163 L853.671,344.886 L854.386,343.575 L855.393,341.576 L856.612,338.866 L857.691,336.089 L858.654,333.257 L859.472,330.372 L860.175,327.444 L860.743,324.48 L861.173,321.484 L861.478,318.466 L861.659,315.432 L861.702,312.388 L861.612,309.342 L861.403,306.299 L860.939,303.284 L860.3,300.302 L859.576,297.345 L858.765,294.418 L857.884,291.52 L856.913,288.66 L855.88,285.836 L854.785,283.049 L853.617,280.309 L852.395,277.612 L851.114,274.964 L849.779,272.368 L848.391,269.828 L846.965,267.342 L845.49,264.919 L843.981,262.565 L843.214,261.422 C843.214,261.422 843.214,261.422 843.214,261.422 C842.885,260.755 842.077,260.481 841.41,260.809 C840.742,261.138 840.468,261.946 840.797,262.613 L840.797,262.613" fill="#000000"/>
    <path d="M675.668,355.598 C668.63,356.251 661.823,344.88 660.463,330.201 C659.104,315.522 663.707,303.094 670.744,302.441 C677.782,301.788 684.589,313.159 685.949,327.838 C687.308,342.517 682.706,354.946 675.668,355.598 z" fill="#000000"/>
    <path d="M653.965,317.144 C648.539,317.144 644.14,310.53 644.14,302.37 C644.14,294.21 648.539,287.595 653.965,287.595 C659.391,287.595 663.79,294.21 663.79,302.37 C663.79,310.53 659.391,317.144 653.965,317.144 z" fill="#FFFFFF"/>
    <path d="M694.03,364.755 C689.698,364.755 686.187,361.292 686.187,357.02 C686.187,352.749 689.698,349.286 694.03,349.286 C698.362,349.286 701.873,352.749 701.873,357.02 C701.873,361.292 698.362,364.755 694.03,364.755 z" fill="#FFFFFF"/>
    <path d="M700.132,283.002 L699.964,282.385 L699.585,281.151 L699.144,279.919 L698.642,278.696 L698.08,277.487 L697.463,276.294 L696.792,275.122 L696.07,273.976 L695.301,272.855 L694.484,271.767 L693.624,270.712 L692.724,269.69 L691.784,268.709 L690.806,267.771 L689.796,266.874 L688.753,266.021 L688.208,265.609 L688.208,265.609 C688.199,265.603 688.19,265.598 688.181,265.592 L688.181,265.592 L687.767,265.293 L686.866,264.7 L685.918,264.145 L684.941,263.636 L683.938,263.171 L682.911,262.75 L681.862,262.371 L680.793,262.038 L679.706,261.756 L678.604,261.514 L677.49,261.31 L676.365,261.145 L675.232,261.017 L674.092,260.925 L672.388,260.854 L670.109,260.9 L668.389,261.028 L667.246,261.155 L666.124,261.313 L665.012,261.504 L663.915,261.735 L662.832,261.995 L661.766,262.286 L660.719,262.605 L659.693,262.954 L658.689,263.331 L657.712,263.745 L656.761,264.19 L655.837,264.664 L654.944,265.166 L654.487,265.443 L654.487,265.443 C654.487,265.443 654.486,265.443 654.485,265.444 L654.485,265.444 L653.866,265.816 L652.656,266.495 L650.782,267.486 L648.187,268.788 L645.526,270.129 L643.509,271.242 L642.154,272.049 L640.822,272.908 L639.508,273.839 L638.221,274.865 L636.968,276 L636.034,276.949 L635.415,277.637 L634.832,278.338 L634.264,279.077 L633.961,279.495 L633.961,279.495 C633.945,279.517 633.93,279.539 633.914,279.562 L633.914,279.562 L633.158,280.655 L631.615,282.972 L630.109,285.388 L628.663,287.874 L627.266,290.408 L625.929,293.003 L624.658,295.657 L623.438,298.353 L622.286,301.104 L621.201,303.905 L620.174,306.744 L619.221,309.63 L618.337,312.558 L617.523,315.52 L616.786,318.523 L616.122,321.557 L615.536,324.625 L615.037,327.722 L614.627,330.85 L614.296,334.001 L614.057,337.176 L613.917,340.372 L613.876,343.585 L613.931,346.811 L614.095,350.046 L614.364,353.288 L614.748,356.528 L615.245,359.764 L615.863,362.99 L616.603,366.195 L617.258,368.645 L617.744,370.288 L618.24,371.863 L618.77,373.43 L619.07,374.268 L619.07,374.268 C621.02,378.892 625.038,380.209 628.044,377.209 C631.049,374.209 631.905,368.028 629.955,363.404 C629.955,363.404 629.955,363.404 629.955,363.404 L629.727,362.987 L629.237,362.025 L628.768,361.045 L628.34,360.11 L627.722,358.65 L626.945,356.569 L626.25,354.43 L625.632,352.231 L625.099,349.974 L624.643,347.664 L624.271,345.302 L623.978,342.891 L623.772,340.437 L623.646,337.944 L623.599,335.414 L623.634,332.853 L623.76,330.27 L623.963,327.665 L624.244,325.046 L624.607,322.419 L625.055,319.792 L625.579,317.165 L626.185,314.551 L626.868,311.951 L627.623,309.367 L628.461,306.818 L629.368,304.297 L630.343,301.809 L631.398,299.375 L632.516,296.983 L633.697,294.642 L634.952,292.37 L636.265,290.156 L637.656,287.977 L638.409,286.875 L638.362,286.942 L638.514,286.725 L638.883,286.231 L639.274,285.748 L639.665,285.298 L640.308,284.623 L641.263,283.732 L642.292,282.875 L643.387,282.049 L644.541,281.256 L645.734,280.498 L647.623,279.387 L650.249,277.891 L652.919,276.369 L654.907,275.158 L656.203,274.295 L656.81,273.867 L656.808,273.868 L657.128,273.637 L657.846,273.156 L658.604,272.688 L659.401,272.235 L660.232,271.797 L661.095,271.368 L661.987,270.959 L662.907,270.571 L663.851,270.206 L664.816,269.865 L665.801,269.548 L666.802,269.247 L667.817,268.971 L668.833,268.725 L670.378,268.407 L672.484,268.081 L674.07,267.905 L675.117,267.829 L676.158,267.787 L677.193,267.78 L678.217,267.808 L679.229,267.873 L680.227,267.975 L681.209,268.104 L682.172,268.267 L683.114,268.469 L684.033,268.711 L684.926,268.993 L685.79,269.315 L686.641,269.687 L687.078,269.904 L687.05,269.887 L687.558,270.149 L688.584,270.712 L689.588,271.321 L690.569,271.973 L691.525,272.662 L692.456,273.388 L693.356,274.152 L694.226,274.951 L695.064,275.781 L695.867,276.646 L696.633,277.541 L697.362,278.467 L698.051,279.424 L698.699,280.409 L699.303,281.425 L699.861,282.475 L700.12,283.012 C700.122,283.017 700.126,283.018 700.129,283.016 C700.132,283.013 700.133,283.007 700.132,283.002 L700.132,283.002" fill="#000000"/>
    <path d="M705.176,382.143 L704.901,382.481 L704.34,383.131 L703.774,383.744 L703.199,384.323 L702.615,384.87 L702.025,385.389 L701.426,385.879 L700.817,386.342 L700.202,386.783 L699.579,387.202 L698.941,387.595 L698.295,387.969 L697.645,388.333 L696.98,388.675 L695.944,389.165 L694.537,389.777 L693.107,390.335 L691.633,390.854 L690.117,391.341 L688.564,391.811 L686.973,392.269 L685.343,392.707 L683.678,393.128 L681.967,393.476 L680.221,393.765 L678.448,393.995 L676.652,394.159 L673.923,394.319 L670.28,394.357 L666.687,394.309 L664.037,394.203 L662.292,394.112 L660.57,394.016 L658.875,393.919 L657.211,393.826 L655.577,393.741 L654.747,393.709 L654.747,393.709 C651.018,394.226 648.415,397.668 648.933,401.397 C649.45,405.126 652.892,407.729 656.621,407.212 L657.271,406.973 L658.692,406.497 L660.196,406.035 L661.774,405.581 L663.416,405.135 L665.115,404.693 L667.758,404.042 L671.398,403.199 L675.105,402.307 L677.91,401.648 L679.794,401.194 L681.678,400.74 L683.556,400.272 L685.424,399.783 L687.282,399.28 L689.108,398.698 L690.893,398.035 L692.626,397.274 L694.295,396.415 L695.893,395.464 L697.41,394.421 L698.814,393.294 L699.79,392.385 L700.419,391.747 L701.022,391.093 L701.587,390.409 L702.117,389.705 L702.617,388.985 L703.079,388.244 L703.501,387.483 L703.882,386.704 L704.222,385.91 L704.517,385.098 L704.768,384.272 L704.973,383.431 L705.127,382.58 L705.188,382.148 C705.19,382.145 705.188,382.141 705.185,382.139 C705.181,382.138 705.177,382.139 705.176,382.143 L705.176,382.143" fill="#000000"/>
    <path d="M832.015,331.805 C825.252,332.348 818.797,320.665 817.598,305.709 C816.398,290.754 820.908,278.19 827.671,277.647 C834.434,277.104 840.89,288.787 842.089,303.742 C843.289,318.698 838.779,331.262 832.015,331.805 z" fill="#000000"/>
    <path d="M811.503,288.737 C806.56,288.737 802.553,282.644 802.553,275.128 C802.553,267.611 806.56,261.518 811.503,261.518 C816.446,261.518 820.453,267.611 820.453,275.128 C820.453,282.644 816.446,288.737 811.503,288.737 z" fill="#FFFFFF"/>
    <path d="M760.043,441.774 L759.604,443.357 L759.199,445.296 L759.079,446.841 L759.292,447.7 L759.553,448.168 L759.821,448.393 L760.057,448.525 L760.364,448.651 L760.665,448.738 L760.902,448.789 L761.221,448.818 L761.655,448.785 L762.227,448.681 L762.78,448.511 L763.225,448.323 L763.742,448.061 L764.371,447.633 L765.413,446.34 L766.898,444.123 L767.876,442.503 L767.876,442.503 C767.879,442.504 767.882,442.501 767.883,442.497 C767.885,442.493 767.884,442.49 767.882,442.49 L768.31,440.811 L768.765,438.483 L768.872,437.088 L768.651,436.568 L768.399,436.221 L768.151,435.956 L767.793,435.684 L767.358,435.467 L766.984,435.342 L766.646,435.299 L766.333,435.291 L765.904,435.307 L765.462,435.372 L765.11,435.462 L764.668,435.639 L764.047,436.049 L763.163,436.837 L762.05,438.316 L760.892,440.205 L760.048,441.761 C760.046,441.761 760.042,441.764 760.041,441.767 C760.039,441.771 760.04,441.774 760.043,441.774 L760.043,441.774" fill="#000000"/>
    <path d="M848.729,342.491 C844.598,342.491 841.249,339.089 841.249,334.892 C841.249,330.696 844.598,327.293 848.729,327.293 C852.861,327.293 856.21,330.696 856.21,334.892 C856.21,339.089 852.861,342.491 848.729,342.491 z" fill="#FFFFFF"/>
    <path d="M793.234,264.095 L793.283,263.529 L793.333,262.962 L793.314,263.055 L793.918,262.017 L795.092,259.908 L796.263,257.805 L797.16,256.263 L797.778,255.271 L798.091,254.791 L798.078,254.814 L798.274,254.52 L798.654,253.998 L799.038,253.52 L799.434,253.07 L799.841,252.647 L800.259,252.248 L800.917,251.677 L801.831,250.995 L802.779,250.398 L803.77,249.862 L804.799,249.373 L805.868,248.931 L806.971,248.529 L808.106,248.158 L809.267,247.809 L811.053,247.293 L813.477,246.577 L814.712,246.188 L814.712,246.188 C814.713,246.187 814.714,246.187 814.715,246.187 L814.715,246.187 L815.423,245.964 L816.798,245.571 L818.151,245.236 L819.494,244.937 L820.827,244.684 L822.152,244.479 L823.468,244.323 L824.773,244.209 L826.069,244.132 L827.356,244.099 L828.634,244.111 L829.902,244.167 L831.16,244.26 L832.409,244.386 L833.648,244.552 L834.876,244.76 L836.095,245.007 L837.303,245.291 L838.502,245.599 L839.69,245.943 L840.868,246.325 L842.035,246.742 L843.19,247.195 L844.335,247.672 L845.47,248.174 L846.593,248.709 L847.704,249.277 L848.803,249.875 L849.889,250.503 L850.965,251.149 L852.029,251.823 L853.079,252.524 L854.117,253.252 L855.14,254.007 L856.149,254.789 L857.14,255.606 L858.115,256.446 L859.075,257.311 L860.019,258.196 L860.948,259.103 L861.858,260.034 L862.747,260.994 L864.061,262.482 L865.746,264.522 L867.338,266.619 L868.847,268.78 L870.276,270.985 L871.616,273.238 L872.866,275.524 L874.028,277.829 L875.091,280.153 L876.058,282.482 L876.93,284.801 L877.299,285.897 L877.246,285.759 L877.517,286.591 L877.923,288.034 L878.247,289.41 L878.521,290.797 L878.751,292.199 L878.94,293.62 L879.082,295.061 L879.188,296.522 L879.262,298.005 L879.307,299.509 L879.328,301.853 L879.264,305.01 L879.131,308.189 L879.044,309.765 L879.044,309.765 C879.044,309.779 879.044,309.792 879.045,309.806 L879.045,309.806 L878.992,310.927 L878.9,313.327 L878.776,315.558 L878.584,317.497 L878.384,318.625 L878.238,319.173 L878.067,319.725 L877.883,320.173 L877.691,320.53 L877.493,320.804 L877.286,321.019 L877.062,321.203 L877.043,321.114 L877.043,321.114 C874.622,325.178 874.801,331.492 877.442,335.216 C880.084,338.94 884.188,338.665 886.609,334.601 L887.176,333.527 L887.996,331.682 L888.673,329.797 L889.21,327.907 L889.617,326.045 L889.911,324.229 L890.111,322.478 L890.238,320.692 L890.299,318.284 L890.24,315.482 L890.103,313.003 L889.954,310.793 L889.889,309.666 L889.889,309.707 L889.795,307.871 L889.574,304.178 L889.273,300.429 L888.98,297.589 L888.735,295.644 L888.446,293.686 L888.108,291.72 L887.717,289.751 L887.275,287.784 L886.768,285.822 L886.192,283.875 L885.544,281.951 L884.849,280.132 L884.518,279.348 L884.518,279.348 C884.501,279.302 884.483,279.256 884.465,279.21 L884.465,279.21 L883.861,277.836 L882.641,275.231 L881.329,272.665 L879.931,270.14 L878.454,267.653 L876.894,265.218 L875.256,262.834 L873.545,260.502 L871.756,258.236 L869.898,256.032 L867.984,253.908 L866.506,252.374 L865.49,251.369 L864.461,250.376 L863.417,249.404 L862.355,248.456 L861.278,247.534 L860.183,246.637 L859.073,245.768 L857.951,244.915 L856.814,244.089 L855.661,243.293 L854.493,242.527 L853.31,241.792 L852.112,241.091 L850.898,240.434 L849.669,239.811 L848.429,239.223 L847.175,238.67 L845.908,238.153 L844.628,237.682 L843.335,237.259 L842.031,236.875 L840.717,236.531 L839.391,236.228 L838.057,235.967 L836.711,235.764 L835.356,235.606 L833.993,235.492 L832.622,235.424 L831.243,235.403 L829.857,235.438 L828.464,235.527 L827.066,235.665 L825.662,235.853 L824.252,236.091 L822.839,236.392 L821.421,236.749 L820.001,237.16 L818.578,237.624 L817.152,238.147 L815.727,238.74 L814.312,239.383 L813.622,239.719 L813.625,239.718 L812.469,240.281 L810.099,241.384 L808.317,242.234 L807.132,242.832 L805.957,243.461 L804.799,244.13 L803.662,244.852 L802.555,245.636 L801.485,246.503 L800.461,247.458 L799.498,248.497 L798.818,249.339 L798.38,249.944 L797.961,250.579 L797.562,251.242 L797.183,251.935 L796.834,252.643 L796.678,252.989 L796.678,252.989 C796.673,252.997 796.669,253.005 796.665,253.012 L796.665,253.012 L796.397,253.634 L795.9,254.869 L795.215,256.712 L794.377,259.171 L793.56,261.635 L793.141,262.87 L793.141,262.87 C793.128,262.897 793.122,262.929 793.122,262.962 L793.122,262.962 L793.172,263.529 L793.221,264.095 C793.221,264.101 793.224,264.105 793.227,264.105 C793.231,264.105 793.234,264.101 793.234,264.095 L793.234,264.095" fill="#000000"/>
    <path d="M812.259,369.137 L813.559,369.845 L816.204,371.052 L818.907,372.04 L821.652,372.756 L824.413,373.311 L827.184,373.604 L829.949,373.738 L832.698,373.673 L835.439,373.652 L838.173,373.642 L842.263,373.774 L847.729,374.117 L853.2,374.667 L855.918,375.035 L855.918,375.035 C859.926,374.582 862.807,370.965 862.354,366.958 C861.901,362.95 858.284,360.068 854.276,360.521 C854.276,360.521 854.276,360.521 854.276,360.521 L851.688,361.49 L846.56,363.256 L841.428,364.74 L837.558,365.608 L834.976,366.004 L832.389,366.307 L829.797,366.465 L827.205,366.711 L824.599,366.987 L821.963,367.385 L819.286,367.786 L816.542,368.288 L813.711,368.824 L812.261,369.122 C812.257,369.122 812.253,369.125 812.253,369.129 C812.252,369.133 812.255,369.137 812.259,369.137 L812.259,369.137" fill="#000000"/>
    <path d="M755.237,403.111 L754.951,403.804 L754.614,405.065 L754.57,406.193 L754.689,407.249 L755.038,408.153 L755.515,408.962 L756.136,409.625 L756.83,410.187 L757.527,410.73 L758.194,411.324 L758.852,411.95 L759.495,412.637 L760.432,413.687 L761.676,415.334 L762.326,416.305 L762.326,416.305 C766.194,417.447 770.256,415.236 771.397,411.367 C772.538,407.499 770.328,403.437 766.459,402.296 L765.626,402.829 L764.085,403.597 L763.079,403.943 L762.488,404.122 L761.958,404.196 L761.479,404.185 L761.07,404.06 L760.692,403.881 L760.274,403.719 L759.741,403.61 L759.103,403.493 L758.257,403.416 L757.266,403.286 L755.997,403.158 L755.249,403.103 C755.249,403.103 755.249,403.103 755.249,403.103 C755.247,403.099 755.243,403.098 755.239,403.1 C755.236,403.102 755.234,403.107 755.237,403.111 L755.237,403.111" fill="#000000"/>
    <path d="M701.873,150.024 C696.803,152.833 751.576,221.747 754.743,239.955 C757.91,258.162 749.694,145.64 744.045,143.585 C738.397,141.53 706.942,147.214 701.873,150.024 z" fill="#FABFF6"/>
    <path d="M663.79,156.512 C667.533,161.307 630.473,170.331 626.847,174.621 C623.221,178.911 657.479,211.588 660.225,249.041 C662.971,286.493 660.048,151.718 663.79,156.512 z" fill="#FABFF6"/>
    <path d="M592.427,192.73 C595.201,186.083 625.26,182.051 626.847,186.023 C628.435,189.995 606.621,219.946 614.107,234.474 C621.593,249.003 589.654,199.377 592.427,192.73 z" fill="#FABFF6"/>
    <path d="M775.727,143.147 L797.975,143.147 C797.975,143.147 797.063,167.706 804.304,186.023 C811.544,204.34 775.727,143.147 775.727,143.147 z" fill="#FABFF6"/>
    <path d="M841.249,156.512 C841.249,156.512 844.126,180.867 876.056,216.728 C851.294,215.424 811.244,153.482 811.244,153.482 L841.249,156.512 z" fill="#FABFF6"/>
    <path d="M776.228,212.741 L777.373,212.654 L779.636,212.332 L781.896,211.887 L784.211,211.431 L786.57,210.93 L788.984,210.42 L791.45,209.9 L793.968,209.38 L796.537,208.871 L799.15,208.369 L801.803,207.874 L804.491,207.392 L807.209,206.926 L809.953,206.478 L812.716,206.052 L815.489,205.615 L818.27,205.198 L821.052,204.779 L823.832,204.375 L826.604,203.989 L829.363,203.634 L832.105,203.315 L834.823,203.035 L837.511,202.798 L840.163,202.609 L842.774,202.471 L845.336,202.382 L847.843,202.354 L850.29,202.379 L852.669,202.457 L854.973,202.601 L857.197,202.8 L858.27,202.923 L858.258,202.921 L859.054,203.026 L860.624,203.263 L862.185,203.535 L863.739,203.845 L866.063,204.369 L869.14,205.15 L872.193,206.001 L875.223,206.886 L878.234,207.773 L881.225,208.629 L882.715,209.035 L882.715,209.035 C882.717,209.036 882.719,209.034 882.72,209.032 C882.72,209.03 882.719,209.028 882.717,209.027 L881.245,208.566 L878.296,207.58 L875.336,206.539 L872.359,205.474 L869.356,204.418 L866.324,203.399 L864.024,202.683 L862.475,202.234 L860.913,201.81 L859.342,201.422 L858.559,201.243 L858.559,201.243 C858.555,201.243 858.551,201.242 858.547,201.241 L858.547,201.241 L857.452,201.007 L855.207,200.57 L852.875,200.179 L850.464,199.822 L847.977,199.511 L845.423,199.245 L842.806,199.013 L840.132,198.827 L837.409,198.682 L834.641,198.581 L831.836,198.526 L828.999,198.52 L826.138,198.564 L823.259,198.663 L820.37,198.828 L817.478,199.059 L814.594,199.373 L811.72,199.746 L808.868,200.208 L806.042,200.723 L803.247,201.295 L800.491,201.924 L797.782,202.611 L795.128,203.36 L792.536,204.172 L790.012,205.038 L787.568,205.97 L785.216,206.976 L782.965,208.053 L780.839,209.236 L778.84,210.489 L777.037,211.922 L776.225,212.734 C776.225,212.734 776.225,212.734 776.225,212.734 C776.223,212.735 776.222,212.737 776.223,212.739 C776.224,212.741 776.226,212.742 776.228,212.741 L776.228,212.741" fill="#000000"/>
    <path d="M691.268,226.4 L689.933,225.539 L687.19,224.204 L684.381,223.231 L681.555,222.407 L678.714,221.736 L675.868,221.185 L673.022,220.731 L670.175,220.379 L667.333,220.102 L664.496,219.913 L661.665,219.808 L658.84,219.798 L656.025,219.879 L653.221,220.073 L650.43,220.355 L647.653,220.718 L644.891,221.154 L642.144,221.657 L639.41,222.221 L636.69,222.842 L633.983,223.52 L631.286,224.25 L628.6,225.033 L625.923,225.868 L623.253,226.755 L620.588,227.686 L617.927,228.669 L615.27,229.704 L612.612,230.783 L609.956,231.919 L607.294,233.099 L604.631,234.335 L603.296,234.97 L603.296,234.97 C603.294,234.971 603.293,234.974 603.294,234.976 C603.295,234.978 603.297,234.979 603.299,234.978 L604.66,234.404 L607.384,233.32 L610.106,232.313 L612.83,231.392 L615.552,230.545 L618.273,229.78 L620.992,229.091 L623.708,228.474 L626.422,227.938 L629.133,227.473 L631.841,227.077 L634.544,226.748 L637.244,226.485 L639.94,226.284 L642.632,226.141 L645.322,226.052 L648.009,226.008 L650.694,226.004 L653.38,226.031 L656.069,226.077 L658.763,226.12 L661.466,226.178 L664.18,226.247 L666.909,226.335 L669.655,226.438 L672.419,226.567 L675.206,226.695 L678.018,226.824 L680.863,226.931 L683.748,226.981 L686.679,226.976 L689.705,226.703 L691.266,226.408 C691.268,226.408 691.27,226.407 691.271,226.404 C691.271,226.402 691.27,226.4 691.268,226.4 L691.268,226.4" fill="#000000"/>
    <path d="M698.367,24.384 C710.037,25.283 664.563,37.087 634.62,37.591 C604.677,38.095 674.002,40.421 684.831,40.719 C695.659,41.017 629.709,50.631 641.567,52.342 C653.425,54.054 684.831,52.342 684.831,52.342 C684.831,52.342 722.565,44.452 736.744,43.746 C750.922,43.04 723.951,32.363 715.983,33.768 C708.015,35.173 731.167,24.159 741.607,24.384 C752.046,24.608 686.697,23.485 698.367,24.384 z" fill="#FABFF6"/>
    <path d="M0,-0 L1280,-0 L1280,768 L0,768 z" fill="#E10E9C" fill-opacity="0.1"/>
    <path d="M609.435,705.197 C660.177,697.491 650.74,675.582 702.684,623.933 C821.408,605.993 824.003,535.928 797.738,525.212 C771.474,514.496 784.503,528.222 681.628,516.785 C592.59,466.22 615.245,275.883 614.85,259.749 C614.455,243.615 531.019,245.785 537.242,265.769 C543.465,285.752 540.044,380.623 541.453,386.762 C542.863,392.901 499.134,421.556 493.926,403.015 C488.718,384.473 476.273,354.739 452.415,328.974 C428.557,303.209 386.633,330.059 386.238,351.246 C385.843,372.434 430.551,442.023 438.578,452.375 C446.606,462.728 400.47,506.432 412.107,496.92 C423.744,487.408 370.991,468.509 348.337,478.259 C325.682,488.01 329.48,531.112 341.117,546.882 C352.754,562.653 386.032,545.559 399.473,560.126 C412.915,574.692 399.869,578.667 397.669,594.437 C395.469,610.207 329.48,614.182 327.28,635.972 C325.081,657.762 340.911,693.641 357.962,688.944 C375.014,684.248 558.693,712.903 609.435,705.197 z" fill="#AD6670"/>
    <path d="M458.543,327.294 C447.18,328.203 440.816,324.11 428.088,344.122 C415.36,364.134 502.181,448.731 504.454,440.089 C506.726,431.447 547.636,384.146 520.363,398.7 C493.09,413.254 479.908,351.399 458.543,327.294 z" fill="#F2CDD5"/>
    <path d="M612.638,254.522 C569,263.619 562.637,284.995 562.637,284.995 C562.637,284.995 596.729,470.562 617.638,481.477 C586.728,506.038 551.273,548.791 559.909,590.634 C563.091,589.27 577.183,578.354 591.728,579.264 C606.274,580.173 662.185,615.195 670.821,613.375 C679.458,611.556 669.458,595.182 682.185,577.899 C713.095,571.987 732.186,572.441 732.186,572.441 C732.186,572.441 878.554,536.965 766.733,522.411 C639.457,516.953 614.911,480.113 612.638,254.522 z" fill="#F2CDD5"/>
    <path d="M440.361,460.556 C440.361,460.556 448.998,502.854 443.543,511.041 C438.088,519.227 361.723,520.137 356.723,517.408 C351.723,514.679 343.995,506.038 361.268,489.664 C423.088,492.393 440.361,460.556 440.361,460.556 z" fill="#F2CDD5"/>
    <path d="M392.633,597.911 C392.178,577.444 408.088,586.086 414.451,595.182 C420.815,604.279 433.269,620.652 426.815,631.113 C420.361,641.574 390.36,648.851 381.269,645.212 C372.178,641.574 364.45,629.749 358.996,617.923 C353.541,606.098 393.087,618.378 392.633,597.911 z" fill="#F2CDD5"/>
    <g>
      <path d="M575.273,271.35 C559.784,273.369 546.848,272.099 546.381,268.512 C545.914,264.926 558.092,260.381 573.582,258.361 C589.071,256.341 602.007,257.612 602.474,261.198 C602.941,264.785 590.763,269.33 575.273,271.35 z" fill="#FFFFFF"/>
      <path d="M575.273,271.35 C559.784,273.369 546.848,272.099 546.381,268.512 C545.914,264.926 558.092,260.381 573.582,258.361 C589.071,256.341 602.007,257.612 602.474,261.198 C602.941,264.785 590.763,269.33 575.273,271.35 z" fill-opacity="0" stroke="#B10B4E" stroke-width="20"/>
    </g>
    <g>
      <path d="M425.395,349.421 C411.707,355.004 398.413,354.136 395.701,347.482 C392.99,340.827 401.888,330.906 415.577,325.322 C429.265,319.739 442.559,320.607 445.271,327.261 C447.982,333.916 439.084,343.837 425.395,349.421 z" fill="#FFFFFF"/>
      <path d="M425.395,349.421 C411.707,355.004 398.413,354.136 395.701,347.482 C392.99,340.827 401.888,330.906 415.577,325.322 C429.265,319.739 442.559,320.607 445.271,327.261 C447.982,333.916 439.084,343.837 425.395,349.421 z" fill-opacity="0" stroke="#B10B4E" stroke-width="20"/>
    </g>
    <path d="M381.583,360.411 C402.809,369.07 414.23,353.639 426.815,331.823 C439.399,310.007 438.306,274.836 426.815,239.302 C403.889,181.654 427.308,117.56 372.985,97.46 C318.661,77.361 332.137,210.054 336.764,239.955 C351.652,293.189 360.357,351.752 381.583,360.411 z" fill="#F2CDD5"/>
    <g>
      <path d="M348.122,543.121 C342.125,543.121 337.264,530.659 337.264,515.285 C337.264,499.912 342.125,487.45 348.122,487.45 C354.118,487.45 358.979,499.912 358.979,515.285 C358.979,530.658 354.118,543.121 348.122,543.121 z" fill="#FFFFFF"/>
      <path d="M348.122,543.121 C342.125,543.121 337.264,530.659 337.264,515.285 C337.264,499.912 342.125,487.45 348.122,487.45 C354.118,487.45 358.979,499.912 358.979,515.285 C358.979,530.658 354.118,543.121 348.122,543.121 z" fill-opacity="0" stroke="#B10B4E" stroke-width="20"/>
    </g>
    <g>
      <path d="M344.902,680.721 C339.223,681.783 332.711,672.426 330.357,659.822 C328.003,647.218 330.699,636.14 336.379,635.078 C342.058,634.016 348.57,643.373 350.924,655.977 C353.277,668.581 350.581,679.66 344.902,680.721 z" fill="#FFFFFF"/>
      <path d="M344.902,680.721 C339.223,681.783 332.711,672.426 330.357,659.822 C328.003,647.218 330.699,636.14 336.379,635.078 C342.058,634.016 348.57,643.373 350.924,655.977 C353.277,668.581 350.581,679.66 344.902,680.721 z" fill-opacity="0" stroke="#B10B4E" stroke-width="20"/>
    </g>
    <path d="M518.051,275.909 C531.787,285.026 568.415,295.148 582.089,283.49 C595.763,271.832 592.777,159.534 590.335,140.919 C587.893,122.304 594.787,53.404 553.275,57.802 C511.764,62.2 515.06,103.735 518.051,126.702 C521.043,149.669 504.316,266.793 518.051,275.909 z" fill="#F2CDD5"/>
    <path d="M208.159,456.372 C221.954,426.664 277.133,422.225 277.133,422.225 C277.133,422.225 372.074,424.957 401.692,425.298 C431.31,425.64 427.253,491.543 416.298,497.348 C405.344,503.153 317.706,505.543 255.224,507.251 C245.486,506.909 194.364,486.08 208.159,456.372 z" fill="#F2CDD5"/>
    <path d="M249.514,547.57 C231.699,564.457 257.953,608.863 266.392,620.121 C274.83,631.379 330.877,671.408 336.764,670.157 C342.652,668.906 387.033,625.75 380.157,620.121 C373.281,614.492 348.903,580.718 329.006,580.419 C320.149,577.904 291.082,544.24 285.769,542.621 C280.456,541.002 267.329,530.683 249.514,547.57 z" fill="#F2CDD5"/>
    <path d="M537.945,287.595 C546.681,300.059 571.262,286.838 581.026,277.629 C590.789,268.419 585.106,159.595 579.022,96.549 C541.593,18.394 528.108,175.747 542.044,206.488 C521.038,249.734 529.209,275.132 537.945,287.595 z" fill="#AD6670"/>
    <path d="M373.421,360.411 C399.986,367.014 415.155,364.061 426.815,331.823 C438.475,299.585 405.289,259.284 405.289,259.284 C405.289,259.284 416.016,169.053 381.968,162.52 C347.921,155.986 365.644,259.284 365.644,259.284 C365.644,259.284 344.309,327.358 373.421,360.411 z" fill="#AD6670"/>
    <path d="M242.337,480.624 C242.338,492.98 259.367,498.921 273.47,502.723 C287.572,506.525 406.514,511.277 417.955,501.297 C429.397,491.317 427.535,458.287 422.213,456.624 C416.891,454.96 397.902,445.218 390.899,446.168 C383.896,447.119 371.922,459.951 365.27,462.802 C358.618,465.654 291.564,456.386 279.856,456.861 C268.148,457.337 242.337,468.267 242.337,480.624 z" fill="#AD6670"/>
    <path d="M373.281,634.496 C370.156,622.31 349.215,610.739 341.714,607.925 C334.213,605.11 299.834,590.412 285.457,599.794 C271.08,609.176 281.394,627.292 289.832,634.496 C298.271,641.699 332.338,671.72 343.59,667.968 C354.841,664.215 376.407,646.681 373.281,634.496 z" fill="#AD6670"/>
    <g>
      <path d="M781.434,572.23 C772.022,572.23 764.392,565.714 764.392,557.676 C764.392,549.637 772.022,543.121 781.434,543.121 C790.846,543.121 798.476,549.637 798.476,557.676 C798.476,565.714 790.846,572.23 781.434,572.23 z" fill="#FFFFFF"/>
      <path d="M781.434,572.23 C772.022,572.23 764.392,565.714 764.392,557.676 C764.392,549.637 772.022,543.121 781.434,543.121 C790.846,543.121 798.476,549.637 798.476,557.676 C798.476,565.714 790.846,572.23 781.434,572.23 z" fill-opacity="0" stroke="#B10B4E" stroke-width="20"/>
    </g>
    <path d="M729.801,495.321 C722.266,504.049 715.937,561.484 732.186,572.441 C748.436,583.398 753.411,592.92 767.379,576.654 C781.346,560.387 828.928,538.963 911.404,502.065 C993.879,465.168 998.241,393.754 965.33,378.649 C856.288,344.557 776.588,460.556 776.588,460.556 C776.588,460.556 737.335,486.592 729.801,495.321 z" fill="#F2CDD5"/>
    <path d="M960.572,445.331 C930.04,352.096 812.987,436.206 804.304,454.456 C795.621,472.706 803.948,484.609 798.397,495.321 C792.846,506.033 734.557,529.838 727.817,541.74 C721.076,553.642 717.798,571.099 722.014,577.447 C726.231,583.795 757.541,579.431 763.893,569.512 C770.244,559.594 884.837,507.62 898.319,496.908 C911.8,486.196 935.591,473.103 960.572,445.331 z" fill="#AD6670"/>
    <path d="M413.769,641.469 L413.533,643.921 L413.785,646.597 L414.286,648.393 L415.114,649.313 L416.078,649.921 L417.108,650.423 L418.822,650.944 L421.263,651.438 L423.916,651.617 L426.87,651.323 L431.147,648.435 L434.118,645.287 L434.118,645.287 C434.121,645.288 434.125,645.284 434.128,645.28 C434.13,645.275 434.129,645.27 434.127,645.27 C434.127,645.27 434.127,645.27 434.127,645.27 L434.606,641.443 L433.883,637.143 L431.815,635.436 L429.42,634.281 L426.783,633.602 L424.666,633.401 L423.131,633.515 L421.521,633.823 L419.765,634.54 L417.671,636.241 L415.318,638.94 L413.776,641.452 C413.776,641.452 413.776,641.452 413.776,641.452 C413.772,641.452 413.768,641.456 413.766,641.461 C413.765,641.466 413.766,641.469 413.769,641.469 L413.769,641.469" fill="#981A34"/>
    <path d="M444.295,599.473 L444.068,601.329 L444.084,603.21 L444.172,604.627 L444.381,605.441 L444.65,605.875 L444.899,606.245 L445.281,606.544 L445.763,606.74 L446.233,606.818 L446.711,606.836 L447.217,606.79 L447.738,606.719 L448.161,606.639 L448.46,606.577 L448.78,606.494 L449.129,606.405 L449.52,606.29 L449.965,606.116 L450.471,605.89 L451.046,605.596 L451.696,605.224 L452.434,604.751 L453.274,604.142 L454.232,603.336 L455.489,601.562 L457.226,598.079 L458.286,595.655 L458.286,595.655 C458.289,595.654 458.293,595.649 458.294,595.645 C458.295,595.64 458.293,595.637 458.29,595.638 L458.263,593.535 L457.967,590.653 L457.37,589.432 L456.642,589.132 L455.954,588.985 L455.312,588.933 L454.72,588.942 L454.179,588.993 L453.687,589.077 L453.24,589.182 L452.835,589.317 L452.474,589.452 L452.16,589.57 L451.89,589.687 L451.559,589.841 L451.208,590.031 L450.917,590.206 L450.591,590.427 L450.168,590.709 L449.585,591.13 L449.005,591.625 L448.517,592.143 L447.96,592.742 L447.242,593.74 L446.294,595.363 L445.153,597.474 L444.3,599.456 C444.296,599.456 444.292,599.461 444.291,599.466 C444.29,599.47 444.291,599.474 444.295,599.473 L444.295,599.473" fill="#981A34"/>
    <path d="M409.802,622.899 L409.799,622.899 L409.799,622.899 C413.069,622.9 417.215,618.962 419.058,614.102 C420.902,609.243 419.745,605.302 416.474,605.3 L416.471,605.3 C413.199,605.302 409.054,609.242 407.213,614.102 C405.371,618.962 406.531,622.9 409.802,622.899 L409.802,622.899" fill="#981A34"/>
    <path d="M479.27,579.748 L479.273,582.29 L480.26,584.957 L481.738,586.427 L483.44,587.21 L486.223,587.422 L488.979,587.44 L490.78,587.32 L492.563,587.14 L494.332,586.916 L496.081,586.702 L497.842,586.47 L499.152,586.299 L500.033,586.18 L500.966,586.047 L502.019,585.723 L503.262,585.094 L504.721,584.161 L506.304,583.127 L508.153,581.772 L509.158,581.02 L509.158,581.02 C509.16,581.021 509.164,581.019 509.167,581.014 C509.17,581.01 509.17,581.005 509.167,581.003 C509.167,581.003 509.167,581.003 509.167,581.003 L509.299,579.767 L509.393,577.524 L509.213,575.708 L508.897,574.092 L508.358,572.875 L507.618,572.051 L506.749,571.504 L505.82,571.049 L504.398,570.51 L502.489,570.017 L500.537,569.764 L498.576,569.682 L496.602,569.782 L494.622,570.042 L491.663,570.722 L488.686,571.585 L486.526,572.726 L484.127,574.444 L481.224,577.208 L479.277,579.73 C479.274,579.73 479.27,579.734 479.268,579.739 C479.266,579.744 479.267,579.748 479.27,579.748 L479.27,579.748" fill="#981A34"/>
    <path d="M533.324,548.569 L532.927,550.663 L532.75,553.239 L532.936,554.761 L533.262,555.756 L533.707,556.279 L534.108,556.731 L534.505,557.021 L534.865,557.241 L535.183,557.404 L535.448,557.543 L535.785,557.701 L536.092,557.879 L536.271,558.027 L536.472,558.183 L536.682,558.335 L536.886,558.473 L537.163,558.649 L537.511,558.828 L537.917,559.032 L538.403,559.236 L538.966,559.446 L539.614,559.656 L540.361,559.85 L541.231,559.996 L542.235,560.086 L543.448,560.006 L545.392,558.881 L548.099,556.658 L549.857,554.932 L549.857,554.932 C549.86,554.933 549.864,554.931 549.867,554.926 C549.87,554.921 549.87,554.916 549.867,554.915 L550.523,552.566 L551.175,549.167 L551.255,546.957 L550.78,545.878 L550.261,545.051 L549.762,544.36 L549.278,543.79 L548.824,543.308 L548.401,542.892 L548.003,542.534 L547.617,542.234 L547.251,541.964 L546.88,541.742 L546.49,541.531 L545.882,541.238 L545.066,540.931 L544.22,540.734 L543.397,540.655 L542.757,540.66 L542.287,540.708 L541.787,540.784 L541.235,540.918 L540.612,541.118 L539.876,541.474 L539.051,541.888 L537.963,542.76 L536.58,544.139 L534.665,546.55 L533.332,548.552 C533.332,548.552 533.332,548.552 533.332,548.552 C533.328,548.551 533.324,548.555 533.322,548.56 C533.32,548.565 533.321,548.569 533.324,548.569 L533.324,548.569" fill="#981A34"/>
    <path d="M425.215,444.852 L424.878,446.109 L424.529,447.996 L424.448,449.338 L424.501,450.378 L424.677,451.654 L425.075,452.871 L425.526,453.784 L426.009,454.45 L426.469,454.983 L426.902,455.404 L427.288,455.763 L427.636,456.061 L428.088,456.454 L428.586,456.89 L429.004,457.287 L429.318,457.6 L429.559,457.842 L429.86,458.121 L430.203,458.447 L430.596,458.82 L431.052,459.233 L431.595,459.664 L432.218,460.134 L432.937,460.63 L433.552,461.014 L433.994,461.284 L434.474,461.545 L434.981,461.818 L435.531,462.08 L436.12,462.342 L436.751,462.601 L437.433,462.84 L438.174,463.057 L439.067,463.108 L440.167,462.913 L441.528,462.396 L443.197,461.48 L445.106,460.274 L446.2,459.486 L446.2,459.486 C446.202,459.488 446.206,459.486 446.209,459.481 C446.212,459.477 446.213,459.472 446.21,459.47 L446.564,458.076 L447.043,455.693 L447.348,453.65 L447.408,452.052 L447.27,450.823 L446.984,449.884 L446.604,449.155 L446.22,448.491 L445.84,447.887 L445.468,447.327 L445.108,446.804 L444.753,446.331 L444.417,445.881 L444.087,445.476 L443.62,444.91 L443.033,444.249 L442.489,443.68 L441.988,443.179 L441.509,442.759 L441.059,442.386 L440.635,442.044 L440.229,441.723 L439.807,441.423 L439.175,441.011 L438.339,440.553 L437.474,440.188 L436.756,439.969 L436.223,439.835 L435.63,439.731 L434.97,439.649 L434.205,439.628 L433.318,439.679 L432.236,439.908 L430.922,440.36 L429.689,441.004 L428.739,441.592 L427.6,442.457 L426.138,443.839 L425.224,444.835 C425.221,444.833 425.217,444.836 425.214,444.841 C425.212,444.846 425.212,444.85 425.215,444.852 L425.215,444.852" fill="#981A34"/>
    <path d="M414.89,429.463 L414.886,429.463 L414.886,429.463 C418.157,429.464 422.302,425.526 424.146,420.666 C425.989,415.807 424.832,411.866 421.562,411.864 L421.558,411.864 C418.287,411.866 414.142,415.806 412.3,420.666 C410.459,425.526 411.618,429.464 414.89,429.463 L414.89,429.463" fill="#981A34"/>
    <path d="M451.925,416.854 L451.165,419.805 L450.65,422.765 L450.653,424.046 L450.821,424.661 L451.051,424.973 L451.31,425.159 L451.721,425.326 L452.213,425.415 L452.573,425.447 L452.958,425.441 L453.425,425.387 L453.879,425.225 L454.238,425.067 L454.657,424.836 L455.145,424.518 L455.715,424.08 L456.39,423.461 L457.438,421.866 L459.109,418.555 L460.193,416.218 L460.193,416.218 C460.196,416.218 460.2,416.214 460.202,416.209 C460.203,416.204 460.202,416.2 460.198,416.201 L460.641,413.928 L461.112,410.739 L461.064,409.259 L460.745,408.745 L460.411,408.405 L460.084,408.177 L459.769,408.03 L459.468,407.947 L459.06,407.887 L458.583,407.947 L458.215,408.032 L457.963,408.136 L457.697,408.299 L457.399,408.51 L457.129,408.711 L456.73,409.031 L456.12,409.649 L455.147,410.928 L453.41,413.886 L451.932,416.837 C451.928,416.837 451.924,416.841 451.922,416.846 C451.921,416.85 451.922,416.854 451.925,416.854 L451.925,416.854" fill="#981A34"/>
    <path d="M430.939,388.221 L430.702,390.096 L430.825,392.078 L431.026,393.608 L431.381,394.511 L431.774,395.118 L432.181,395.514 L432.568,395.804 L432.936,396.02 L433.447,396.244 L434.068,396.452 L434.668,396.589 L435.292,396.683 L435.981,396.764 L436.585,396.794 L437.038,396.816 L437.547,396.82 L438.117,396.818 L438.76,396.806 L439.493,396.76 L440.339,396.639 L441.288,396.491 L442.367,396.266 L443.59,395.953 L444.975,395.514 L446.556,394.887 L448.617,393.308 L450.687,390.935 L452.288,388.873 L453.197,387.585 L453.197,387.585 C453.2,387.584 453.205,387.58 453.206,387.576 C453.208,387.571 453.207,387.567 453.203,387.567 C453.203,387.567 453.203,387.567 453.203,387.567 L453.218,386.311 L453.088,384.311 L452.702,382.028 L451.739,380.561 L450.568,380.039 L449.458,379.697 L448.424,379.473 L447.471,379.33 L446.594,379.257 L445.804,379.206 L445.077,379.222 L444.418,379.267 L443.827,379.317 L443.301,379.366 L442.828,379.429 L442.212,379.512 L441.505,379.647 L440.876,379.781 L440.236,379.945 L439.499,380.17 L438.837,380.401 L438.317,380.62 L437.715,380.912 L437.012,381.308 L436.161,381.915 L435.12,382.817 L433.757,384.347 L432.132,386.328 L430.946,388.203 C430.943,388.203 430.939,388.207 430.937,388.212 C430.935,388.217 430.936,388.221 430.939,388.221 L430.939,388.221" fill="#981A34"/>
    <path d="M433.332,403.374 L433.328,403.374 L433.328,403.374 C436.599,403.376 440.744,399.438 442.588,394.578 C444.431,389.718 443.274,385.778 440.004,385.776 L440,385.776 C436.729,385.777 432.584,389.718 430.742,394.578 C428.901,399.437 430.06,403.376 433.332,403.374 L433.332,403.374" fill="#981A34"/>
    <path d="M474.817,367.222 L473.351,370.026 L472.194,372.915 L471.764,374.611 L471.635,375.755 L471.73,376.474 L471.897,377.003 L472.093,377.41 L472.292,377.739 L472.483,378.021 L472.677,378.247 L472.943,378.544 L473.304,378.836 L473.694,379.079 L474.138,379.306 L474.656,379.504 L475.227,379.64 L475.83,379.691 L476.505,379.61 L477.098,379.456 L477.555,379.285 L478.157,378.896 L479.028,378.079 L480.317,376.57 L482.01,374.411 L483.085,372.949 L483.085,372.949 C483.087,372.951 483.092,372.948 483.094,372.943 C483.097,372.938 483.096,372.933 483.094,372.932 C483.094,372.932 483.094,372.932 483.094,372.932 L483.686,371.279 L484.484,368.765 L484.964,366.939 L485.107,365.839 L485.056,365.197 L484.927,364.799 L484.756,364.345 L484.593,363.919 L484.518,363.66 L484.52,363.491 L484.527,363.357 L484.472,363.195 L484.32,362.96 L484.048,362.656 L483.75,362.411 L483.513,362.222 L483.223,362.041 L482.883,361.857 L482.476,361.697 L481.971,361.599 L481.318,361.63 L480.358,362.019 L479.008,362.89 L476.838,364.881 L474.827,367.206 C474.827,367.206 474.827,367.206 474.827,367.206 C474.825,367.204 474.821,367.206 474.818,367.211 C474.815,367.215 474.814,367.22 474.817,367.222 L474.817,367.222" fill="#981A34"/>
    <path d="M459.405,326.382 L459.401,326.382 L459.401,326.382 C462.672,326.383 466.818,322.445 468.661,317.585 C470.505,312.726 469.348,308.785 466.077,308.784 L466.074,308.784 C462.802,308.785 458.657,312.726 456.815,317.585 C454.974,322.445 456.133,326.383 459.405,326.382 L459.405,326.382" fill="#981A34"/>
    <path d="M441.111,297.228 L439.777,299.06 L438.496,301.108 L437.564,302.69 L437.066,303.736 L436.821,304.467 L436.665,305.081 L436.606,305.785 L436.716,306.572 L437.085,307.36 L437.757,308.138 L438.704,308.721 L439.696,309.007 L440.532,309.107 L441.229,309.117 L441.725,309.087 L442.062,309.031 L442.444,308.923 L442.878,308.77 L443.374,308.559 L443.949,308.271 L444.623,307.878 L445.425,307.317 L446.768,305.586 L448.71,302.612 L450.017,300.411 L450.017,300.411 C450.02,300.411 450.024,300.408 450.026,300.403 C450.028,300.398 450.027,300.394 450.024,300.394 L450.543,298.13 L450.999,295.057 L450.973,293.256 L450.516,292.652 L450.037,292.239 L449.559,291.95 L449.097,291.754 L448.661,291.626 L448.256,291.553 L447.886,291.535 L447.452,291.561 L447.13,291.626 L447.159,291.73 L447.51,291.937 L447.939,292.33 L448.17,292.778 L448.131,293.063 L447.822,293.146 L447.416,293.171 L447.001,293.254 L446.47,293.386 L445.652,293.762 L444.362,294.6 L442.678,295.825 L441.124,297.214 C441.124,297.214 441.124,297.214 441.124,297.214 C441.122,297.211 441.118,297.212 441.115,297.216 C441.111,297.219 441.11,297.225 441.111,297.228 L441.111,297.228" fill="#981A34"/>
    <path d="M474.181,277.503 L473.111,279.389 L471.859,281.848 L471.169,283.446 L470.854,284.45 L470.688,285.187 L470.638,285.704 L470.651,286.273 L470.739,286.799 L470.852,287.179 L471.043,287.609 L471.278,287.99 L471.483,288.251 L471.741,288.552 L472.015,288.768 L472.244,288.907 L472.52,289.034 L472.85,289.143 L473.246,289.223 L473.725,289.261 L474.302,289.233 L475.025,289.083 L476.55,287.888 L478.893,285.629 L480.54,283.866 L480.54,283.866 C480.542,283.869 480.546,283.867 480.549,283.862 C480.552,283.858 480.553,283.853 480.551,283.851 L481.731,281.621 L483.203,278.489 L483.933,276.5 L483.934,275.628 L483.858,274.946 L483.746,274.394 L483.612,273.942 L483.465,273.574 L483.313,273.273 L483.159,273.029 L482.933,272.745 L482.638,272.493 L482.386,272.296 L482.032,272.089 L481.641,271.936 L481.307,271.868 L480.857,271.856 L480.384,271.938 L479.962,272.084 L479.382,272.405 L478.603,272.946 L477.397,274.027 L475.571,275.913 L474.192,277.488 C474.192,277.488 474.192,277.488 474.192,277.488 C474.19,277.486 474.185,277.487 474.182,277.492 C474.179,277.496 474.178,277.501 474.181,277.503 L474.181,277.503" fill="#981A34"/>
    <path d="M560.667,348.132 L559.526,349.829 L558.222,352.115 L557.578,353.613 L557.073,354.894 L556.829,355.852 L556.725,356.642 L556.715,357.331 L556.803,357.951 L556.961,358.556 L557.216,359.139 L557.581,359.691 L558.05,360.197 L558.611,360.618 L559.238,360.913 L559.87,361.11 L560.468,361.233 L561.03,361.293 L561.55,361.323 L562.042,361.345 L562.535,361.337 L563.034,361.333 L563.567,361.305 L564.142,361.278 L564.786,361.216 L565.509,361.116 L566.341,360.933 L567.264,360.74 L568.321,360.453 L569.524,360.061 L570.905,359.51 L572.785,358.024 L575.505,354.842 L577.204,352.588 L577.204,352.588 C577.207,352.588 577.211,352.585 577.213,352.58 C577.215,352.575 577.214,352.571 577.211,352.57 L577.401,350.198 L577.268,346.828 L576.509,345.217 L575.456,344.596 L574.42,344.183 L573.423,343.916 L572.467,343.777 L571.588,343.677 L570.758,343.679 L569.995,343.734 L569.303,343.83 L568.698,343.925 L568.178,344.036 L567.763,344.13 L567.448,344.233 L567.253,344.315 L567.181,344.393 L567.22,344.492 L567.354,344.615 L567.538,344.782 L567.701,345.012 L567.807,345.256 L567.835,345.47 L567.77,345.632 L567.614,345.725 L567.387,345.736 L567.05,345.711 L566.596,345.675 L565.974,345.69 L565.05,345.902 L563.939,346.199 L562.108,347.146 L560.68,348.118 C560.678,348.115 560.674,348.116 560.671,348.119 C560.667,348.123 560.665,348.129 560.667,348.132 L560.667,348.132" fill="#981A34"/>
    <path d="M572.117,321.409 L574.251,330.031 L582.927,321.409 L582.927,321.409 C582.931,321.409 582.935,321.405 582.937,321.4 C582.939,321.396 582.937,321.392 582.934,321.392 C582.934,321.392 582.934,321.392 582.934,321.392 L580.799,312.769 L572.123,321.392 C572.123,321.392 572.123,321.392 572.123,321.392 C572.12,321.392 572.116,321.396 572.114,321.4 C572.112,321.405 572.113,321.409 572.117,321.409 L572.117,321.409" fill="#981A34"/>
    <path d="M593.102,301.684 L592.732,303.557 L592.605,305.537 L592.583,307.068 L592.741,307.97 L592.958,308.578 L593.211,308.974 L593.589,309.374 L594.075,309.698 L594.553,309.897 L595.048,310.015 L595.571,310.083 L596.123,310.129 L596.585,310.128 L596.916,310.128 L597.279,310.109 L597.684,310.082 L598.136,310.043 L598.653,309.967 L599.255,309.813 L599.931,309.628 L600.706,309.364 L601.589,309.007 L602.597,308.523 L603.759,307.845 L605.332,306.214 L607.592,302.822 L609.001,300.411 L609.001,300.411 C609.005,300.411 609.009,300.407 609.01,300.402 C609.012,300.397 609.01,300.393 609.007,300.394 C609.007,300.394 609.007,300.394 609.007,300.394 L609.153,298.11 L609.048,294.959 L608.462,293.553 L607.659,293.085 L606.886,292.793 L606.158,292.616 L605.482,292.516 L604.856,292.482 L604.291,292.466 L603.767,292.516 L603.29,292.59 L602.866,292.665 L602.491,292.738 L602.162,292.82 L601.753,292.923 L601.309,293.079 L600.939,293.226 L600.548,293.399 L600.055,293.631 L599.393,293.973 L598.736,294.379 L598.195,294.776 L597.521,295.383 L596.679,296.284 L595.537,297.814 L594.159,299.794 L593.109,301.666 C593.106,301.666 593.102,301.67 593.1,301.675 C593.098,301.68 593.099,301.684 593.102,301.684 L593.102,301.684" fill="#981A34"/>
    <path d="M561.304,325.863 L560.341,327.981 L559.318,330.628 L558.856,332.239 L558.7,333.254 L558.655,334.01 L558.727,334.516 L558.849,334.891 L558.989,335.2 L559.222,335.571 L559.602,335.943 L560.101,336.261 L560.734,336.526 L561.47,336.684 L562.194,336.749 L562.858,336.721 L563.519,336.566 L564.051,336.385 L564.443,336.21 L564.89,335.985 L565.409,335.667 L566.011,335.251 L566.748,334.616 L567.972,332.829 L569.703,329.888 L570.845,327.772 L570.845,327.772 C570.848,327.772 570.852,327.768 570.854,327.763 C570.856,327.759 570.855,327.755 570.851,327.755 L571.296,325.641 L571.724,322.711 L571.76,320.946 L571.416,320.341 L571.038,319.961 L570.671,319.682 L570.319,319.5 L569.993,319.368 L569.582,319.249 L569.204,319.158 L569.026,319.164 L569.051,319.214 L569.177,319.294 L569.233,319.404 L569.135,319.475 L568.84,319.49 L568.485,319.513 L568.18,319.549 L567.807,319.614 L567.328,319.773 L566.669,320.144 L565.828,320.732 L564.603,321.872 L562.734,324.004 L561.314,325.846 C561.312,325.845 561.307,325.847 561.305,325.852 C561.302,325.856 561.302,325.861 561.304,325.863 L561.304,325.863" fill="#981A34"/>
    <path d="M610.909,260.324 L610.449,262.611 L610.193,265.263 L610.298,266.75 L610.596,267.554 L610.932,268.109 L611.3,268.446 L611.667,268.679 L612.021,268.85 L612.379,268.956 L612.729,269.043 L613.252,269.102 L614.016,269.105 L615.03,268.949 L616.317,268.545 L617.716,267.844 L618.748,267.148 L619.327,266.688 L619.756,266.308 L620.138,265.924 L620.493,265.539 L620.84,265.119 L621.193,264.646 L621.573,264.1 L621.984,263.435 L622.427,262.46 L622.879,260.627 L623.364,257.735 L623.631,255.869 L623.631,255.869 C623.635,255.866 623.638,255.861 623.637,255.857 C623.637,255.852 623.634,255.851 623.63,255.854 C623.63,255.854 623.63,255.854 623.63,255.854 L623.156,254.509 L622.263,252.601 L621.469,251.676 L620.788,251.536 L620.188,251.635 L619.66,251.786 L619.198,251.946 L618.816,252.096 L618.515,252.224 L618.308,252.298 L618.204,252.322 L618.296,252.217 L618.666,251.967 L619.256,251.715 L619.753,251.616 L619.92,251.644 L619.703,251.733 L619.359,251.807 L619.049,251.886 L618.672,251.973 L618.207,252.117 L617.659,252.319 L617.009,252.622 L616.214,253.143 L615.258,253.918 L613.978,255.382 L612.194,258.022 L610.915,260.307 C610.912,260.307 610.908,260.311 610.906,260.315 C610.904,260.32 610.905,260.324 610.909,260.324 L610.909,260.324" fill="#981A34"/>
    <path d="M614.088,437.852 L614.634,446.475 L621.719,437.852 L621.719,437.852 C621.723,437.852 621.727,437.849 621.729,437.844 C621.73,437.839 621.729,437.835 621.726,437.835 C621.726,437.835 621.726,437.835 621.726,437.835 L621.18,429.213 L614.095,437.835 C614.095,437.835 614.095,437.835 614.095,437.835 C614.092,437.835 614.087,437.839 614.086,437.844 C614.084,437.849 614.085,437.852 614.088,437.852 L614.088,437.852" fill="#981A34"/>
    <path d="M682.133,511.664 L683.315,520.286 L691.036,511.664 L691.036,511.664 C691.04,511.664 691.044,511.66 691.046,511.655 C691.048,511.65 691.046,511.646 691.043,511.646 C691.043,511.646 691.043,511.646 691.043,511.646 L689.861,503.024 L682.14,511.646 C682.14,511.646 682.14,511.646 682.14,511.646 C682.137,511.646 682.133,511.65 682.131,511.655 C682.129,511.66 682.13,511.664 682.133,511.664 L682.133,511.664" fill="#981A34"/>
    <path d="M746.996,587.383 L745.843,589.54 L744.612,592.247 L744.038,593.924 L743.829,594.997 L743.748,595.812 L743.789,596.389 L743.878,596.847 L743.999,597.212 L744.199,597.669 L744.506,598.165 L744.899,598.598 L745.373,599.004 L745.917,599.353 L746.486,599.637 L747.082,599.819 L747.573,599.903 L747.928,599.931 L748.32,599.93 L748.765,599.897 L749.272,599.832 L749.86,599.707 L750.552,599.496 L751.478,598.962 L752.924,597.584 L755.101,594.99 L756.536,593.11 L756.536,593.11 C756.539,593.111 756.543,593.108 756.546,593.104 C756.548,593.099 756.548,593.094 756.545,593.093 C756.545,593.093 756.545,593.093 756.545,593.093 L757.27,590.93 L758.115,587.814 L758.347,585.969 L758.167,585.018 L757.855,584.437 L757.535,583.983 L757.222,583.626 L756.929,583.334 L756.659,583.102 L756.419,582.923 L756.132,582.73 L755.866,582.586 L755.724,582.557 L755.654,582.571 L755.555,582.584 L755.363,582.531 L755.019,582.412 L754.653,582.301 L754.349,582.229 L753.965,582.196 L753.479,582.226 L752.809,582.432 L751.945,582.831 L750.641,583.762 L748.599,585.649 L747.007,587.367 C747.007,587.367 747.007,587.367 747.007,587.367 C747.005,587.365 747.001,587.367 746.998,587.371 C746.995,587.375 746.994,587.381 746.996,587.383 L746.996,587.383" fill="#981A34"/>
    <path d="M783.881,586.747 L783.099,588.84 L782.529,591.067 L782.181,592.76 L782.115,593.816 L782.203,594.501 L782.33,595.047 L782.511,595.435 L782.719,595.74 L783.046,596.106 L783.571,596.449 L784.265,596.696 L785.098,596.829 L785.973,596.819 L786.768,596.739 L787.33,596.644 L787.681,596.579 L788.039,596.495 L788.434,596.36 L788.875,596.18 L789.377,595.948 L789.948,595.65 L790.606,595.264 L791.366,594.761 L792.257,594.071 L793.583,592.221 L795.411,589.07 L796.602,586.747 L796.602,586.747 C796.605,586.747 796.609,586.742 796.611,586.737 C796.612,586.733 796.611,586.729 796.607,586.73 C796.607,586.73 796.607,586.73 796.607,586.73 L796.819,584.539 L796.815,581.65 L796.468,580.056 L795.835,579.615 L795.213,579.351 L794.623,579.195 L794.066,579.116 L793.555,579.092 L793.087,579.107 L792.668,579.151 L792.298,579.232 L791.999,579.316 L791.709,579.41 L791.551,579.514 L791.617,579.601 L791.708,579.735 L791.657,579.88 L791.359,580.005 L790.973,580.127 L790.643,580.23 L790.227,580.382 L789.685,580.656 L789.026,581.035 L788.125,581.747 L786.844,583.057 L785.235,584.863 L783.89,586.73 C783.888,586.729 783.883,586.732 783.881,586.736 C783.878,586.741 783.878,586.746 783.881,586.747 L783.881,586.747" fill="#981A34"/>
    <path d="M824.582,558.75 L824.127,561.029 L823.971,563.815 L824.238,565.48 L824.709,566.492 L825.212,567.236 L825.746,567.73 L826.256,568.104 L826.738,568.381 L827.176,568.619 L827.582,568.799 L828.122,569.034 L828.755,569.27 L829.317,569.473 L829.88,569.669 L830.341,569.826 L830.688,569.939 L831.097,570.034 L831.553,570.14 L832.073,570.235 L832.663,570.33 L833.334,570.414 L834.102,570.475 L834.971,570.514 L835.965,570.507 L837.121,570.391 L838.505,570.056 L839.911,569.242 L841.125,568.231 L842.463,567.042 L844.044,565.443 L844.931,564.477 L844.931,564.477 C844.934,564.477 844.938,564.474 844.941,564.469 C844.943,564.465 844.943,564.46 844.94,564.459 C844.94,564.459 844.94,564.459 844.94,564.459 L845.143,563.276 L845.399,561.258 L845.474,559.668 L845.485,558.274 L845.19,556.917 L844.494,555.916 L843.771,555.195 L843.071,554.64 L842.419,554.184 L841.82,553.801 L841.265,553.486 L840.756,553.222 L840.287,552.996 L839.852,552.814 L839.449,552.649 L839.051,552.528 L838.487,552.372 L837.777,552.198 L837.061,552.058 L836.293,551.945 L835.629,551.894 L835.133,551.864 L834.57,551.872 L833.939,551.895 L833.207,551.988 L832.356,552.168 L831.317,552.561 L830.074,553.183 L828.438,554.412 L826.178,556.714 L824.59,558.732 C824.59,558.732 824.59,558.732 824.59,558.732 C824.587,558.732 824.583,558.735 824.58,558.74 C824.578,558.745 824.579,558.749 824.582,558.75 L824.582,558.75" fill="#981A34"/>
    <path d="M713.29,587.379 L711.969,588.531 L710.339,590.128 L709.325,591.275 L708.691,592.153 L708.168,592.958 L707.885,593.642 L707.673,594.34 L707.552,595.074 L707.539,595.839 L707.621,596.656 L707.838,597.451 L708.162,598.175 L708.561,598.79 L708.99,599.274 L709.421,599.638 L709.821,599.931 L710.192,600.18 L710.552,600.382 L710.9,600.58 L711.263,600.76 L711.645,600.942 L712.062,601.122 L712.521,601.31 L713.031,601.505 L713.629,601.657 L714.311,601.791 L715.089,601.894 L715.979,601.955 L717.029,601.902 L718.208,601.808 L720.01,600.821 L722.876,598.224 L724.739,596.292 L724.739,596.292 C724.742,596.293 724.746,596.29 724.749,596.286 C724.751,596.281 724.751,596.276 724.749,596.275 C724.749,596.275 724.749,596.275 724.749,596.275 L725.488,593.724 L726.218,589.987 L726.027,587.983 L725.352,586.986 L724.683,586.136 L723.983,585.497 L723.294,584.989 L722.628,584.592 L721.993,584.283 L721.379,584.081 L720.817,583.927 L720.312,583.811 L719.867,583.734 L719.491,583.685 L719.184,583.673 L718.968,583.678 L718.837,583.733 L718.803,583.827 L718.865,583.979 L718.985,584.228 L719.126,584.578 L719.243,584.997 L719.297,585.44 L719.254,585.849 L719.15,586.141 L718.966,586.33 L718.716,586.4 L718.414,586.366 L717.886,586.354 L717.255,586.309 L716.248,586.416 L714.625,586.849 L713.304,587.37 C713.304,587.366 713.301,587.365 713.297,587.367 C713.293,587.369 713.29,587.375 713.29,587.379 L713.29,587.379" fill="#981A34"/>
    <path d="M0,-0 L1280,-0 L1280,768 L0,768 z" fill="#E10E9C" fill-opacity="0.1"/>
    <path d="M1225.297,714.781 C1252.911,714.781 1275.297,724.855 1275.297,737.281 C1275.297,749.707 1252.911,759.781 1225.297,759.781 C1197.682,759.781 1175.297,749.707 1175.297,737.281 C1175.297,724.855 1197.682,714.781 1225.297,714.781 z M1198.46,727.677 C1197.059,727.874 1196.054,728.764 1195.896,730.418 C1195.833,731.341 1195.851,732.006 1195.951,733.979 C1196,734.945 1196.021,735.467 1196.029,736.034 C1196.061,738.476 1195.74,739.682 1195.124,740.103 C1194.884,740.256 1194.982,740.201 1194.835,740.279 C1194.646,740.024 1194.49,739.739 1194.337,739.456 C1193.587,738.05 1191.966,737.594 1190.716,738.438 C1189.466,739.281 1189.061,741.105 1189.811,742.511 C1191.801,746.242 1194.458,747.503 1197.863,745.178 C1199.357,744.158 1200.323,742.604 1200.835,740.683 C1201.206,739.29 1201.33,737.782 1201.306,735.945 C1201.297,735.271 1201.273,734.687 1201.221,733.641 C1201.137,731.982 1201.121,731.42 1201.158,730.873 C1201.27,729.238 1200.183,727.811 1198.73,727.685 L1198.46,727.677 z M1213.821,726.896 C1212.363,726.896 1211.182,728.225 1211.182,729.865 C1211.182,730.669 1211.14,731.542 1211.057,732.57 L1211.054,732.598 C1210.739,731.715 1210.881,732.104 1210.63,731.429 C1209.996,729.752 1209.513,728.747 1208.825,728.018 C1207.544,726.662 1205.563,726.638 1204.385,728.324 C1203.89,729.032 1203.67,729.814 1203.523,730.843 C1203.349,732.062 1203.297,733.739 1203.335,735.804 C1203.395,739.098 1203.696,743.355 1203.952,744.219 C1204.413,745.775 1205.907,746.615 1207.29,746.097 C1208.623,745.511 1209.37,744.034 1208.975,742.422 L1208.987,742.446 C1209.013,742.544 1208.999,742.485 1209.026,742.623 C1209.026,742.621 1209.023,742.6 1209.018,742.565 L1209.01,742.492 C1209.544,743.575 1209.282,743.102 1209.771,743.926 C1210.503,745.076 1211.316,745.851 1212.508,746.057 C1213.275,746.19 1213.986,745.941 1214.528,745.472 C1214.828,745.212 1215.033,744.931 1215.192,744.631 C1215.335,744.362 1215.415,744.133 1215.479,743.888 C1215.531,743.686 1215.564,743.5 1215.593,743.286 C1215.627,743.032 1215.656,742.721 1215.684,742.332 C1215.728,741.73 1215.77,740.945 1215.816,739.934 C1215.818,739.876 1215.944,736.911 1215.952,736.821 C1215.984,736.507 1215.995,736.394 1216.073,735.631 C1216.193,734.461 1216.254,733.831 1216.313,733.107 C1216.409,731.914 1216.46,730.869 1216.46,729.865 C1216.46,728.225 1215.278,726.896 1213.821,726.896 z M1228.335,726.388 C1227.136,726.477 1227.633,726.327 1226.814,726.677 C1225.457,727.441 1224.717,728.315 1223.473,730.193 C1223.435,730.251 1223.435,730.251 1223.396,730.309 C1223.215,730.581 1223.301,730.454 1223.14,730.691 C1223.095,729.717 1223.125,730.233 1223.046,729.142 C1222.852,727.602 1221.839,726.526 1220.449,726.443 L1220.179,726.455 C1218.728,726.603 1217.658,728.047 1217.79,729.68 C1217.953,731.699 1217.975,733.772 1217.905,736.852 C1217.894,737.318 1217.884,737.697 1217.862,738.532 C1217.8,740.878 1217.78,741.913 1217.78,743.221 C1217.78,744.861 1218.961,746.19 1220.418,746.19 C1221.876,746.19 1223.057,744.861 1223.057,743.221 C1223.058,742.707 1223.057,742.919 1223.06,742.584 C1223.446,742.919 1223.246,742.759 1223.659,743.063 C1223.904,743.233 1224.147,743.39 1224.427,743.559 C1224.572,743.648 1225.011,743.908 1225.039,743.925 C1225.675,744.307 1225.855,744.467 1226.037,744.795 C1226.81,746.185 1228.438,746.608 1229.673,745.739 C1230.909,744.87 1231.285,743.038 1230.513,741.648 C1229.744,740.264 1228.901,739.513 1227.523,738.686 C1227.474,738.657 1227.052,738.407 1226.936,738.336 C1226.741,738.217 1226.584,738.116 1226.437,738.014 C1226.313,737.928 1226.157,737.788 1225.829,737.468 C1225.789,737.429 1225.789,737.429 1225.748,737.388 C1225.333,736.989 1225.513,737.153 1225.216,736.889 C1225.614,736.436 1226.017,735.988 1226.418,735.538 C1226.816,735.058 1227.107,734.643 1227.628,733.857 C1227.667,733.798 1227.667,733.798 1227.705,733.74 C1228.467,732.59 1228.797,732.2 1229.174,731.988 C1230.478,731.254 1231.006,729.471 1230.355,728.005 C1229.903,727.104 1229.248,726.576 1228.335,726.388 z M1252.757,727.357 C1251.816,727.405 1252.218,727.352 1251.546,727.469 C1249.788,727.849 1248.206,729.13 1246.99,730.939 C1244.516,734.621 1243.931,739.724 1246.335,743.174 C1249.384,747.551 1253.492,747.903 1256.316,744.785 C1257.387,743.602 1258.125,742.023 1258.282,740.492 C1258.527,738.099 1257.286,735.907 1254.936,735.703 C1253.483,735.578 1251.643,736.111 1251.531,737.746 C1251.514,738.478 1252.22,739.923 1252.665,740.489 L1252.619,740.548 C1252.386,740.805 1252.184,740.902 1252.027,740.889 C1251.915,740.879 1251.767,740.823 1251.567,740.683 C1251.248,740.459 1250.883,740.077 1250.489,739.511 C1249.776,738.488 1250.031,736.26 1251.201,734.519 C1251.689,733.793 1252.208,733.372 1252.539,733.301 C1252.595,733.289 1252.614,733.291 1252.647,733.306 C1252.757,733.359 1252.916,733.504 1253.119,733.799 C1254.007,735.099 1255.664,735.342 1256.819,734.342 C1257.974,733.343 1258.19,731.479 1257.302,730.179 C1256.14,728.577 1254.639,727.446 1252.757,727.357 z M1240.052,727.672 C1238.773,727.688 1239.346,727.672 1238.331,727.709 C1235.593,727.837 1233.505,728.315 1231.84,729.486 C1230.604,730.354 1230.229,732.186 1231.001,733.576 C1231.774,734.967 1233.402,735.39 1234.638,734.521 C1235.183,734.135 1235.822,734.02 1236.441,733.88 C1236.232,735.357 1236.315,736.854 1236.394,738.339 C1236.398,738.411 1236.401,738.467 1236.409,738.593 C1236.511,740.354 1236.524,741.081 1236.443,741.815 C1236.262,743.442 1237.288,744.926 1238.734,745.129 C1240.18,745.332 1241.499,744.178 1241.68,742.551 C1241.818,741.311 1241.8,740.357 1241.675,738.207 C1241.668,738.082 1241.665,738.027 1241.661,737.958 C1241.529,735.653 1241.581,734.614 1241.885,733.863 L1241.956,733.626 C1242.416,733.63 1242.212,733.629 1242.569,733.63 C1244.026,733.63 1245.208,732.301 1245.208,730.661 C1245.208,729.022 1244.026,727.693 1242.569,727.693 C1242.279,727.693 1242.063,727.691 1241.427,727.683 C1240.628,727.674 1241.087,727.678 1240.052,727.672 z" fill="#FFFFFF" fill-opacity="0.109"/>
    <text transform="matrix(1, 0, 0, 1, 1225.297, 752.767)">
      <tspan x="-14.536" y="2" font-family="HelveticaNeue" font-size="8" kerning="0" fill="#FFFFFF" fill-opacity="0.109"></tspan>
      <tspan x="-8.136" y="2" font-family="AvenirNext-Bold" font-size="8" fill="#FFFFFF" fill-opacity="0.109"> 2019</tspan>
    </text>
  </g>
</svg>
