<?xml version="1.0" encoding="UTF-8"?>
<!DOCTYPE svg PUBLIC "-//W3C//DTD SVG 1.1//EN" "http://www.w3.org/Graphics/SVG/1.1/DTD/svg11.dtd">
<svg version="1.1" xmlns="http://www.w3.org/2000/svg" xmlns:xlink="http://www.w3.org/1999/xlink" x="0" y="0" width="550" height="750" viewBox="0, 0, 550, 750">
  <g id="Background">
    <rect x="0" y="0" width="550" height="750" fill="#9EAAAC"/>
  </g>
  <g id="Layer_1">
    <path d="M26.083,27 L266.957,27 L266.957,367.435 L26.083,367.435 z" fill="#EBEDEA"/>
    <path d="M281.556,27 L522.43,27 L522.43,367.435 L281.556,367.435 z" fill="#95609A"/>
    <path d="M26.083,382.565 L266.957,382.565 L266.957,723 L26.083,723 z" fill="#CF6B2A"/>
    <path d="M283.047,382.285 L523.921,382.285 L523.921,722.72 L283.047,722.72 z" fill="#4A7FC0"/>
    <path d="M208.881,474.338 C254.626,481.092 266.962,503.476 266.962,561.71 C266.962,581.122 266.962,637.653 266.962,637.653 C266.962,637.653 26.079,668.735 26.079,668.735 L26.079,549.761 C26.079,549.761 175.353,469.387 208.881,474.338 z" fill="#43403E"/>
    <path d="M92.065,79.946 L92.762,79.957 C100.511,91.761 109.085,111.575 120.004,120.141 C132.778,126.245 164.01,125.403 172.381,119.949 C180.753,114.494 200.97,80.377 200.97,80.377 C200.97,80.377 258.424,85.408 259.566,94.48 C260.708,103.552 257.336,154.295 257.336,154.295 L241.873,166.02 C241.873,166.02 240.981,189.025 236.655,199.487 C236.457,199.757 266.957,187.09 266.957,187.09 L266.957,224.66 C266.957,224.66 222.703,241.188 217.751,248.03 C212.799,254.872 213.533,278.91 213.533,278.91 L266.957,275.001 L266.957,367.435 C266.957,367.435 26.084,367.435 26.084,367.435 C26.084,367.435 26.084,275.001 26.084,275.001 L79.508,278.91 C79.508,278.91 79.19,253.539 75.291,248.03 C71.391,242.522 26.084,224.782 26.084,224.782 L26.084,187.49 C26.084,187.49 56.492,199.736 56.387,199.487 C52.613,190.199 51.168,166.02 51.168,166.02 L35.706,154.295 C35.706,154.295 32.403,104.37 33.475,94.48 C36.12,91.234 40.622,89.829 44.371,88.539 C50.031,86.592 55.863,85.163 61.7,83.922 C71.653,81.806 81.882,80.036 92.065,79.946 z" fill="#2E324F"/>
    <path d="M213.699,160.957 C213.699,160.957 213.073,173.432 196.49,175.315 C179.907,177.197 181.993,160.74 181.993,160.74 L213.699,160.957 z" fill="#EBEDEA"/>
    <path d="M79.435,160.957 C79.435,160.957 80.061,173.432 96.643,175.315 C113.226,177.197 111.14,160.74 111.14,160.74 L79.435,160.957 z" fill="#EBEDEA"/>
    <g>
      <path d="M97.124,175.391 C91.953,175.391 87.762,171.212 87.762,166.058 C87.762,160.903 91.953,156.725 97.124,156.725 C102.294,156.725 106.485,160.903 106.485,166.058 C106.485,171.212 102.294,175.391 97.124,175.391 z" fill="#AF9C11"/>
      <path d="M97.124,175.391 C91.953,175.391 87.762,171.212 87.762,166.058 C87.762,160.903 91.953,156.725 97.124,156.725 C102.294,156.725 106.485,160.903 106.485,166.058 C106.485,171.212 102.294,175.391 97.124,175.391 z" fill-opacity="0" stroke="#403907" stroke-width="2"/>
    </g>
    <g>
      <path d="M198.304,175.391 C193.133,175.391 188.942,171.212 188.942,166.058 C188.942,160.903 193.133,156.725 198.304,156.725 C203.474,156.725 207.665,160.903 207.665,166.058 C207.665,171.212 203.474,175.391 198.304,175.391 z" fill="#AF9C11"/>
      <path d="M198.304,175.391 C193.133,175.391 188.942,171.212 188.942,166.058 C188.942,160.903 193.133,156.725 198.304,156.725 C203.474,156.725 207.665,160.903 207.665,166.058 C207.665,171.212 203.474,175.391 198.304,175.391 z" fill-opacity="0" stroke="#403907" stroke-width="2"/>
    </g>
    <path d="M197.804,170.375 C195.303,170.375 193.276,168.218 193.276,165.558 C193.276,162.897 195.303,160.74 197.804,160.74 C200.304,160.74 202.331,162.897 202.331,165.558 C202.331,168.218 200.304,170.375 197.804,170.375 z" fill="#000000"/>
    <path d="M96.624,170.375 C94.123,170.375 92.097,168.218 92.097,165.558 C92.097,162.897 94.123,160.74 96.624,160.74 C99.124,160.74 101.151,162.897 101.151,165.558 C101.151,168.218 99.124,170.375 96.624,170.375 z" fill="#000000"/>
    <path d="M114.322,203.368 C130.632,200.194 125.539,214.772 141.942,228.474 C147.934,259.239 123.017,237.331 119.689,230.487 C116.361,223.642 110.322,203.683 114.322,203.368 z" fill="#141528"/>
    <path d="M392.018,55.744 C406.273,54.903 441.909,81.802 441.909,81.802 C441.909,81.802 466.549,83.063 487.523,88.106 C508.498,93.15 522.863,257.063 522.863,257.063 L492.769,263.534 L410.956,151.15 L367.582,170.273 L342.535,228.903 L404.644,367.435 C404.644,367.435 282.055,366.969 280.945,367.435 C281.037,254.961 274.725,115.845 294.273,105.338 C313.822,94.831 331.539,73.396 343.96,76.968 C356.382,80.541 377.764,56.584 392.018,55.744 z" fill="#332024"/>
    <path d="M178.759,203.569 C162.492,200.161 167.391,214.811 150.807,228.276 C144.405,258.952 169.612,237.404 173.031,230.608 C176.45,223.812 182.754,203.942 178.759,203.569 z" fill="#141528"/>
    <path d="M83.886,323.468 C94.408,312.929 127.344,322.883 150.27,322.297 C173.196,321.712 201.906,317.32 214.033,325.518" fill-opacity="0" stroke="#141528" stroke-width="5"/>
    <path d="M49.174,277.297 L26.083,275.001 L26.083,367.435 L266.957,367.435 L266.957,275.001 L241.873,276.712 C241.873,276.712 222.109,342.291 210.093,351.952 C198.077,361.613 202.871,323.002 199.205,330.012 C195.539,337.021 101.628,335.298 94.578,330.012 C87.528,324.725 98.984,353.709 83.385,358.686 C67.787,363.663 49.174,277.297 49.174,277.297 z" fill="#141528"/>
    <path d="M361.108,150.686 C361.31,149.845 371.091,122.36 423.402,123.621 C475.713,124.882 481.188,263.367 478.552,269.882 C456.046,273.244 428.774,366.371 372.511,354.83 C343.593,325.402 315.942,251.389 333.776,233.526 C310.257,215.454 333.33,117.273 361.108,150.686 z" fill="#A8757A"/>
    <path d="M474.091,221.128 C463.345,221.338 493.556,155.563 513.628,199.903 C533.701,244.244 479.084,277.867 479.084,277.867 C479.084,277.867 462.331,242.142 474.091,221.128 z" fill="#A8757A"/>
    <path d="M523.891,257.249 C523.983,257.46 523.891,367.322 523.891,367.322 C523.891,367.322 356.101,367.996 356.053,367.322 C368.267,346.141 483.229,250.105 523.891,257.249 z" fill="#89A0E3"/>
    <path d="M322.227,207.048 C320.2,200.765 361.359,217.976 357.709,218.606 C354.06,219.237 334.393,208.519 319.997,215.034 C305.602,221.548 324.255,213.332 322.227,207.048 z" fill="#332024"/>
    <path d="M490.036,472.463 C490.036,472.463 280.857,571.795 281.017,575.04 C281.176,578.285 496.471,482.648 496.471,482.648 L490.036,472.463 z" fill="#BDC0CE"/>
    <path d="M409.348,180.067 C414.389,183.927 415.881,185.381 416.506,186 C414.02,187.507 416.673,185.988 410.781,189.623 C404.889,193.257 389.281,203.418 380.621,211.671 C371.96,219.925 399.1,190.331 409.348,180.067 z" fill="#332024"/>
    <path d="M427.863,167.121 C439.014,167.541 453.207,192.758 453.207,192.758 C453.207,192.758 437.595,178.258 425.835,181.411 C422.662,182.388 420.569,183.211 417.723,184.936 C414.044,181.575 412.83,179.618 411.4,178.298 C415.464,174.537 421.75,167.223 427.863,167.121 z" fill="#332024"/>
    <path d="M456.145,213.214 L456.145,213.214 L456.145,213.214 C457.526,213.214 458.645,212.095 458.645,210.714 C458.645,209.333 457.526,208.214 456.145,208.214 L456.145,208.214 C456.145,208.214 456.145,208.214 456.145,208.214 C454.764,208.214 453.645,209.333 453.645,210.714 C453.645,212.095 454.764,213.214 456.145,213.214 L456.145,213.214" fill="#332024"/>
    <path d="M365.475,280.991 C363.475,283.617 372.276,292.186 372.276,292.186 C372.276,292.186 394.279,276.983 388.811,279.332 C383.344,281.682 367.475,278.365 365.475,280.991 z" fill="#332024"/>
    <path d="M481.127,218.633 C492.046,183.921 503.064,194.936 507.646,201.1 C512.228,207.264 506.281,188.165 495.069,191.601 C483.857,195.037 481.127,217.167 481.127,218.633 z" fill="#332024"/>
    <path d="M486.587,228.788 C486.587,228.788 485.807,212.216 495.556,216.258 C505.306,220.3 492.436,243.339 492.241,246.876 C493.411,236.973 486.587,228.788 486.587,228.788 z" fill="#332024"/>
    <path d="M377.6,225.783 C396.384,232.315 437.289,223.605 455.827,197.092 C450.883,193.249 443.716,179.117 427.032,182.469 C410.349,185.82 373.769,215.408 377.6,225.783 z" fill="#563F57"/>
    <path d="M360.537,230.034 C348.225,235.743 344.259,240.815 331.623,233.596 C322.792,222.143 318.925,210.334 335.609,213.685 C352.292,217.037 356.001,219.121 360.537,230.034 z" fill="#563F57"/>
    <path d="M488.548,531.342 C492.375,529.591 493.89,542.256 493.89,542.256 L516.179,553.154 L502.984,561.932 C502.984,561.932 484.722,533.092 488.548,531.342 z" fill="#BDC0CE"/>
    <path d="M365.179,316.308 C364.895,313.359 362.05,305.399 376.132,300.092 C390.213,294.784 398.89,299.06 407.139,296.553 C415.389,294.047 379.83,316.897 365.179,316.308 z" fill="#563F57"/>
    <path d="M99.574,652.169 C99.574,652.169 81.329,660.331 52.581,662.778 C38.714,663.958 55.778,723 55.778,723 C55.778,723 227.819,722.574 228.954,722.559 C210.544,691.013 202.638,649.656 202.638,649.656 L99.574,652.169 z" fill="#5F554F"/>
    <path d="M365.179,316.308 C368.261,326.226 375.133,329.639 383.353,327.536 C401.334,320.846 408.365,296.361 408.365,296.361 C408.365,296.361 382.227,314.927 365.179,316.308 z" fill="#95609A"/>
    <path d="M451.18,103.012 C442.718,106.05 432.182,125.807 432.182,125.807 L440.901,130.43 L451.18,118.709 C451.18,118.709 457.14,123.601 457.324,123.705 C455.258,121.41 466.006,112.633 466.006,112.633 C466.006,112.633 455.909,108.582 451.18,103.012 z" fill="#89A0E3"/>
    <path d="M472.204,132.522 C463.742,135.56 449.656,151.332 453.207,155.317 C456.758,159.302 461.674,165.05 461.926,159.94 C462.177,154.83 472.204,148.22 472.204,148.22 C472.204,148.22 476.125,153.478 476.025,153.998 C475.924,154.518 478.834,148.174 482.647,142.973 C485.056,142.245 475.322,140.269 472.204,132.522 z" fill="#89A0E3"/>
    <path d="M451.18,103.012 C448.831,98.254 488.623,95.353 497.444,103.012 C485.608,99.866 466.073,109.17 466.006,112.633 C465.939,116.096 453.528,107.77 451.18,103.012 z" fill="#95609A"/>
    <path d="M73.708,425.134 C75.943,417.999 53.6,506.829 55.952,521.99 C58.304,537.151 66.277,631.234 84.557,640.672 C98.996,659.914 92.594,707.063 158.426,722.56 C209.842,732.213 203.175,580.079 221.105,567.07 C239.034,554.062 210.385,481.296 210.385,481.296 C210.385,481.296 176.51,401.669 174.888,413.511 C173.266,425.354 126.011,471.336 130.478,479.131 C134.945,486.927 71.472,432.269 73.708,425.134 z" fill="#997968"/>
    <path d="M472.205,132.522 C474.707,130.775 497.796,125.963 506.078,135.977 C491.02,136.628 482.648,142.973 482.648,142.973 C482.648,142.973 469.702,134.269 472.205,132.522 z" fill="#95609A"/>
    <path d="M94.989,586.503 C87.996,595.671 94.287,621.476 69.102,587.837 C43.918,554.197 62.169,423.026 62.169,423.026 C62.169,423.026 103.179,491.068 128.502,484.939 C153.826,478.81 179.876,412.31 179.876,412.31 C179.876,412.31 259.691,562.37 218.389,561.961 C155.943,559.509 151.323,553.993 94.989,586.503 z" fill="#5F554F"/>
    <path d="M229.533,540.88 C218.654,561.768 276.602,480.914 265.548,492.934 C254.494,504.955 222.86,497.339 238.677,488.878 C254.494,480.417 213.533,382.565 213.533,382.565 L169.733,382.565 C169.733,382.565 155.75,388.961 141.148,397.531 C126.545,406.101 128.21,382.565 128.21,382.565 C128.21,382.565 107.96,381.935 76.698,382.565 C45.436,383.195 47.315,401.657 41.014,424.594 C34.713,447.532 25.765,342.007 26.088,416.792 C26.411,491.576 26.088,585.304 26.088,585.304 C26.088,585.304 91.562,653.328 73.594,599.659 C41.589,521.584 69.351,471.089 73.882,425.016 C68.038,421.404 102.696,467.986 133.186,484.731 C130.271,477.315 173.646,430.327 177.985,412.543 C181.15,423.229 211.901,461.994 229.533,540.88 z" fill="#E3CE96"/>
    <path d="M105.76,637.974 C100.105,635.043 121.075,653.115 164.68,654.492 C174.327,651.772 194.632,641.787 194.632,641.787 C194.632,641.787 190.724,662.576 170.027,665.752 C121.429,664.349 120.722,657.389 105.76,637.974 z" fill="#443733"/>
    <path d="M172.702,571.484 C176.863,575.754 178.507,593.003 192.551,592.809 C218.018,590.48 219.516,551.859 219.516,551.859 C219.516,551.859 229.066,540.408 222.138,541.961 C203.038,547.007 162.029,559.039 172.702,571.484 z" fill="#443733"/>
    <path d="M68.08,570.448 C56.082,528.61 26.226,484.28 26.079,538.617 C26.079,538.274 26.43,568.017 26.088,595.696 C26.96,612.983 91.152,640.442 80.037,611.641 C81.552,606.23 74.984,591.743 68.08,570.448 z" fill="#997968"/>
    <path d="M137.807,631.527 C137.807,631.527 160.155,638.761 165.109,637.128 C170.062,635.494 180.046,626.86 180.046,626.86 C180.046,626.86 178.097,643.662 167.775,646.229 C157.453,648.795 137.807,631.527 137.807,631.527 z" fill="#443733"/>
    <path d="M127.947,665.625 C127.947,665.625 154.585,674.144 161.851,673.147 C169.117,672.151 189.906,662.778 189.906,662.778 C189.906,662.778 176.992,674.028 161.851,675.593 C146.711,677.159 127.947,665.625 127.947,665.625 z" fill="#443733"/>
    <path d="M118.366,647.498 C123.549,656.444 154.879,656.893 163.602,655.331 C172.325,653.769 189.906,645.514 189.906,645.514 C189.906,645.514 186.473,661.579 168.297,664.033 C135.986,666.741 126.613,656.444 118.366,647.498 z" fill="#E3CE96"/>
    <path d="M125.446,655.165 L125.691,655.447 L126.235,655.929 L126.83,656.347 L127.464,656.697 L128.446,657.131 L129.806,657.568 L131.183,657.943 L132.547,658.241 L133.87,658.524 L135.13,658.834 L135.705,658.998 L135.613,658.976 L135.97,659.095 L136.492,659.351 L136.988,659.65 L137.533,660.008 L138.133,660.411 L138.803,660.831 L139.557,661.244 L140.415,661.609 L140.952,661.779 L140.952,661.779 C140.981,661.787 141.009,661.794 141.038,661.801 L141.038,661.801 L141.384,661.889 L142.153,662.061 L142.968,662.218 L143.814,662.353 L144.686,662.472 L145.584,662.569 L146.965,662.684 L148.882,662.761 L150.867,662.768 L152.892,662.692 L154.937,662.548 L156.981,662.345 L159.004,662.093 L160.987,661.802 L162.909,661.478 L164.751,661.129 L166.493,660.76 L167.725,660.472 L168.507,660.276 L169.249,660.08 L169.954,659.882 L170.295,659.781 L170.295,659.781 C170.299,659.78 170.302,659.779 170.306,659.778 L170.306,659.778 L170.924,659.584 L172.182,659.156 L173.444,658.689 L174.702,658.184 L176.577,657.367 L179.059,656.18 L181.508,654.907 L183.915,653.578 L186.265,652.214 L188.545,650.84 L189.656,650.159 L189.656,650.159 C189.657,650.158 189.658,650.156 189.657,650.155 C189.656,650.154 189.655,650.154 189.654,650.154 L188.518,650.792 L186.177,652.052 L183.761,653.274 L181.285,654.431 L178.766,655.49 L176.224,656.433 L174.313,657.049 L173.046,657.409 L171.785,657.727 L170.526,657.998 L169.89,658.119 L169.901,658.116 L169.575,658.173 L168.883,658.283 L168.152,658.388 L167.387,658.483 L166.174,658.611 L164.452,658.756 L162.634,658.868 L160.742,658.947 L158.798,658.992 L156.825,659.005 L154.844,658.991 L152.879,658.951 L150.949,658.888 L149.077,658.814 L147.277,658.707 L145.987,658.613 L145.17,658.535 L144.386,658.45 L143.639,658.352 L142.931,658.244 L142.25,658.121 L141.901,658.049 L141.987,658.071 L141.802,658.04 L141.269,657.864 L140.682,657.598 L140.044,657.258 L139.345,656.873 L138.579,656.473 L137.732,656.099 L136.856,655.823 L136.487,655.746 L136.487,655.746 C136.456,655.738 136.426,655.731 136.395,655.724 L136.395,655.724 L135.658,655.612 L134.254,655.484 L132.875,655.427 L131.523,655.409 L130.191,655.421 L128.872,655.377 L127.878,655.331 L127.214,655.287 L126.532,655.241 L125.821,655.182 L125.448,655.161 C125.447,655.16 125.445,655.161 125.445,655.162 C125.444,655.163 125.445,655.165 125.446,655.165 L125.446,655.165" fill="#443733"/>
    <path d="M131.705,176.227 C131.705,176.227 144.901,180.647 160.716,176.437" fill-opacity="0" stroke="#000000" stroke-width="6"/>
    <path d="M230.751,176.227 C230.751,176.227 235.326,175.299 241.424,176.227" fill-opacity="0" stroke="#000000" stroke-width="6"/>
    <path d="M62.673,176.227 C62.673,176.227 55.857,178.053 53.077,178.255" fill-opacity="0" stroke="#000000" stroke-width="6"/>
    <path d="M366.875,472.464 C380.492,481.43 381.032,491.633 381.032,491.633 C381.032,491.633 422.835,462.377 450.108,500.413 C545.3,546.224 514.39,723.003 514.481,723 C514.572,722.996 296.882,722.811 296.721,723 C260.67,625.029 297.329,519.326 363.785,496.043 C361.603,488.855 358.764,472.464 366.875,472.464 z" fill="#483029"/>
    <path d="M504.629,453.326 C495.095,453.326 487.366,462.024 487.366,472.753 C487.366,483.482 495.095,492.179 504.629,492.179 C514.162,492.179 521.891,483.482 521.891,472.753 C521.891,462.024 514.162,453.326 504.629,453.326 z" fill="#D82421"/>
    <path d="M71.616,553.559 C69.673,555.966 83.39,571.484 83.39,571.484 C83.39,571.484 95.809,604.867 115.775,600.841 C135.741,596.815 142.791,570.04 134.225,571.484 C113.023,569.766 87.67,562.734 71.616,553.559 z" fill="#443733"/>
    <path d="M330.224,723 C330.224,723 304.063,648.989 306.414,624.627 C308.765,600.266 354.181,579.27 356.966,579.092 C359.752,578.914 341.736,608.094 332.804,612.72 C323.872,617.347 410.223,573.886 419.15,567.504 C428.078,561.121 395.975,594.786 383.443,601.618 C370.91,608.45 451.861,584.562 465.034,567.504 C478.206,550.445 492.425,723.179 485.599,723 C478.774,722.821 330.224,723 330.224,723 z" fill="#E7B3A5"/>
    <path d="M488.008,506.059 C485.494,506.059 483.456,502.452 483.456,498.003 C483.456,493.554 485.494,489.947 488.008,489.947 C490.522,489.947 492.561,493.554 492.561,498.003 C492.561,502.452 490.522,506.059 488.008,506.059 z" fill="#BDC0CE"/>
    <path d="M488.008,520.509 C485.495,520.509 483.457,517.274 483.457,513.284 C483.457,509.294 485.495,506.059 488.008,506.059 C490.522,506.059 492.56,509.294 492.56,513.284 C492.56,517.274 490.522,520.509 488.008,520.509 z" fill="#BDC0CE"/>
    <path d="M488.548,531.342 C486.332,531.342 484.536,528.917 484.536,525.925 C484.536,522.934 486.332,520.509 488.548,520.509 C490.764,520.509 492.561,522.934 492.561,525.925 C492.561,528.917 490.764,531.342 488.548,531.342 z" fill="#BDC0CE"/>
    <path d="M487.83,495.101 C484.604,495.905 480.599,490.564 478.886,483.172 C477.173,475.781 478.399,469.137 481.626,468.334 C484.853,467.531 488.857,472.871 490.571,480.263 C492.284,487.655 491.057,494.298 487.83,495.101 z" fill="#BDC0CE"/>
    <path d="M410.987,621.385 C421.454,604.834 475.666,616.934 481.704,633.067 C457.697,616.757 424.635,624.461 417.936,629.044 C413.373,630.573 401.46,625.696 410.987,621.385 z" fill="#483029"/>
    <path d="M375.583,621.528 C384.536,620.295 381.583,629.914 372.643,631.707 C358.614,629.173 334.347,634.954 317.34,650.097 C322.161,628.504 368.007,616.693 375.583,621.528 z" fill="#483029"/>
    <path d="M394.374,718.674 C397.042,714.324 392.183,711.318 389.167,716.052 C386.151,720.787 398.917,723.354 403.728,722.96 C408.538,722.567 422.622,716.324 417.181,711.503 C411.74,706.682 408.762,716.526 411.806,718.262 C405.396,708.826 402.871,705.601 394.374,718.674 z" fill="#834645"/>
    <g>
      <path d="M439.166,205.234 C430.962,194.539 393.885,196.109 390.184,219.133 C391.605,239.063 444.022,219.764 439.166,205.234 z" fill="#FFFFFF"/>
      <path d="M439.166,205.234 C430.962,194.539 393.885,196.109 390.184,219.133 C391.605,239.063 444.022,219.764 439.166,205.234 z" fill-opacity="0" stroke="#000000" stroke-width="3"/>
    </g>
    <g>
      <path d="M353.591,228.358 C356.441,237.56 337.398,240.916 330.273,233.263 C324.185,217.286 351.907,214.064 353.591,228.358 z" fill="#FFFFFF"/>
      <path d="M353.591,228.358 C356.441,237.56 337.398,240.916 330.273,233.263 C324.185,217.286 351.907,214.064 353.591,228.358 z" fill-opacity="0" stroke="#000000" stroke-width="3"/>
    </g>
    <path d="M415.129,199.205 C397.184,198.581 397.122,230.726 417.023,224.556 C438.346,222.347 432.191,194.816 415.129,199.205 z" fill="#000000"/>
    <path d="M416.251,211.691 C412.974,211.691 410.318,209.463 410.318,206.715 C410.318,203.967 412.974,201.739 416.251,201.739 C419.528,201.739 422.184,203.967 422.184,206.715 C422.184,209.463 419.528,211.691 416.251,211.691 z" fill="#FFFFFF"/>
    <path d="M342.152,218.756 C335.097,218.811 337.389,236.013 343.53,236.013 C361.141,233.64 349.207,218.7 342.152,218.756 z" fill="#000000"/>
    <path d="M346.428,225.379 C344.868,225.379 343.604,224.288 343.604,222.942 C343.604,221.596 344.868,220.505 346.428,220.505 C347.988,220.505 349.252,221.596 349.252,222.942 C349.252,224.288 347.988,225.379 346.428,225.379 z" fill="#FFFFFF"/>
    <g>
      <path d="M180.546,563.13 C190.511,592.989 215.366,580.435 214.203,547.914 C199.614,552.725 191.04,560.118 180.546,563.13 z" fill="#FFFFFF"/>
      <path d="M180.546,563.13 C190.511,592.989 215.366,580.435 214.203,547.914 C199.614,552.725 191.04,560.118 180.546,563.13 z" fill-opacity="0" stroke="#997968" stroke-width="0.5"/>
    </g>
    <g>
      <path d="M94.423,564.509 C106.293,565.461 116.95,570.618 130.679,571.984 C123.93,596.749 92.528,601.53 94.423,564.509 z" fill="#FFFFFF"/>
      <path d="M94.423,564.509 C106.293,565.461 116.95,570.618 130.679,571.984 C123.93,596.749 92.528,601.53 94.423,564.509 z" fill-opacity="0" stroke="#997968" stroke-width="0.5"/>
    </g>
    <g>
      <path d="M109.309,581.35 C104.031,581.35 99.753,577.131 99.753,571.927 C99.753,566.723 104.031,562.504 109.309,562.504 C114.587,562.504 118.866,566.723 118.866,571.927 C118.866,577.131 114.587,581.35 109.309,581.35 z" fill="#000000"/>
      <path d="M109.309,581.35 C104.031,581.35 99.753,577.131 99.753,571.927 C99.753,566.723 104.031,562.504 109.309,562.504 C114.587,562.504 118.866,566.723 118.866,571.927 C118.866,577.131 114.587,581.35 109.309,581.35 z" fill-opacity="0" stroke="#CF6B2A" stroke-width="5"/>
    </g>
    <g>
      <path d="M194.425,570.191 C189.779,570.191 186.014,566.374 186.014,561.665 C186.014,556.956 189.779,553.138 194.425,553.138 C199.07,553.138 202.835,556.956 202.835,561.665 C202.835,566.374 199.07,570.191 194.425,570.191 z" fill="#000000"/>
      <path d="M194.425,570.191 C189.779,570.191 186.014,566.374 186.014,561.665 C186.014,556.956 189.779,553.138 194.425,553.138 C199.07,553.138 202.835,556.956 202.835,561.665 C202.835,566.374 199.07,570.191 194.425,570.191 z" fill-opacity="0" stroke="#CF6B2A" stroke-width="5"/>
    </g>
    <path d="M139.742,567.063 C128.59,555.03 113.992,502.914 119.264,532.545 C124.535,562.175 89.459,503.755 92.5,525.61 C95.541,547.465 53.165,502.494 66.142,526.871 C79.118,551.248 58.234,543.262 71.616,553.559 C84.998,563.857 150.894,579.096 139.742,567.063 z" fill="#E3CE96"/>
    <path d="M106.547,573.136 C104.722,573.136 103.242,571.776 103.242,570.1 C103.242,568.423 104.722,567.063 106.547,567.063 C108.373,567.063 109.853,568.423 109.853,570.1 C109.853,571.777 108.373,573.136 106.547,573.136 z" fill="#FFFFFF"/>
    <path d="M191.752,563.062 C189.927,563.062 188.447,561.703 188.447,560.026 C188.447,558.349 189.927,556.99 191.752,556.99 C193.578,556.99 195.058,558.349 195.058,560.026 C195.058,561.703 193.578,563.062 191.752,563.062 z" fill="#FFFFFF"/>
    <path d="M172.073,564.819 C196.733,557.224 216.991,546.729 228.954,536.485 C240.917,526.241 219.627,524.516 228.954,506.885 C238.281,489.255 192.766,547.16 203.054,518.523 C213.342,489.885 179.667,562.988 176.837,535.473 C174.008,507.958 161.218,580.492 172.073,564.819 z" fill="#E3CE96"/>
    <g>
      <path d="M423.448,676.68 C436.88,686.777 461.435,672.498 472.813,663.718 C469.737,653.446 420.348,623.746 423.448,676.68 z" fill="#FFFFFF"/>
      <path d="M423.448,676.68 C436.88,686.777 461.435,672.498 472.813,663.718 C469.737,653.446 420.348,623.746 423.448,676.68 z" fill-opacity="0" stroke="#000000" stroke-width="5"/>
    </g>
    <g>
      <path d="M441.444,674.221 C435.209,674.221 430.154,668.933 430.154,662.409 C430.154,655.885 435.209,650.597 441.444,650.597 C447.68,650.597 452.735,655.885 452.735,662.409 C452.735,668.933 447.68,674.221 441.444,674.221 z" fill="#000000"/>
      <path d="M441.444,674.221 C435.209,674.221 430.154,668.933 430.154,662.409 C430.154,655.885 435.209,650.597 441.444,650.597 C447.68,650.597 452.735,655.885 452.735,662.409 C452.735,668.933 447.68,674.221 441.444,674.221 z" fill-opacity="0" stroke="#483029" stroke-width="5"/>
    </g>
    <path d="M437.982,659.269 C434.777,659.269 432.179,657.215 432.179,654.683 C432.179,652.15 434.777,650.097 437.982,650.097 C441.187,650.097 443.785,652.15 443.785,654.683 C443.785,657.215 441.187,659.269 437.982,659.269 z" fill="#FFFFFF"/>
    <g>
      <path d="M378.468,676.68 C378.468,690.353 350.072,689.388 333.304,684.56 C331.308,663.457 378.468,635.66 378.468,676.68 z" fill="#FFFFFF"/>
      <path d="M378.468,676.68 C378.468,690.353 350.072,689.388 333.304,684.56 C331.308,663.457 378.468,635.66 378.468,676.68 z" fill-opacity="0" stroke="#000000" stroke-width="5"/>
    </g>
    <g>
      <path d="M360.07,683.508 C353.834,683.508 348.779,678.22 348.779,671.696 C348.779,665.172 353.834,659.884 360.07,659.884 C366.306,659.884 371.361,665.172 371.361,671.696 C371.361,678.22 366.306,683.508 360.07,683.508 z" fill="#000000"/>
      <path d="M360.07,683.508 C353.834,683.508 348.779,678.22 348.779,671.696 C348.779,665.172 353.834,659.884 360.07,659.884 C366.306,659.884 371.361,665.172 371.361,671.696 C371.361,678.22 366.306,683.508 360.07,683.508 z" fill-opacity="0" stroke="#483029" stroke-width="5"/>
    </g>
    <path d="M361.509,669.176 C358.304,669.176 355.706,667.123 355.706,664.59 C355.706,662.057 358.304,660.004 361.509,660.004 C364.713,660.004 367.311,662.057 367.311,664.59 C367.311,667.123 364.713,669.176 361.509,669.176 z" fill="#FFFFFF"/>
    <g>
      <path d="M387.195,654.457 C389.01,623.966 303.639,665.552 315.965,665.285 C317.109,654.267 318.765,732.215 373.223,701.617 C388.659,695.816 388.126,666.228 387.343,656.581 C411.253,654.112 387.551,656.873 387.195,654.457 z" fill="#FFFFFF" fill-opacity="0.059"/>
      <path d="M387.195,654.457 C389.01,623.966 303.639,665.552 315.965,665.285 C317.109,654.267 318.765,732.215 373.223,701.617 C388.659,695.816 388.126,666.228 387.343,656.581 C411.253,654.112 387.551,656.873 387.195,654.457 z" fill-opacity="0" stroke="#322E2A" stroke-width="7"/>
    </g>
    <g>
      <path d="M409.475,652.585 C403.189,622.775 493.631,649.592 481.418,651.386 C478.666,640.695 488.516,717.955 430.223,696.828 C414.124,693.677 410.29,664.366 409.642,654.707 C385.664,656.262 409.479,655.03 409.475,652.585 z" fill="#FFFFFF" fill-opacity="0.059"/>
      <path d="M409.475,652.585 C403.189,622.775 493.631,649.592 481.418,651.386 C478.666,640.695 488.516,717.955 430.223,696.828 C414.124,693.677 410.29,664.366 409.642,654.707 C385.664,656.262 409.479,655.03 409.475,652.585 z" fill-opacity="0" stroke="#322E2A" stroke-width="7"/>
    </g>
    <path d="M96.543,163.242 C95.048,163.242 93.837,162.682 93.837,161.991 C93.837,161.3 95.048,160.74 96.543,160.74 C98.037,160.74 99.248,161.3 99.248,161.991 C99.248,162.682 98.037,163.242 96.543,163.242 z" fill="#FFFFFF"/>
    <path d="M197.804,163.242 C196.309,163.242 195.098,162.682 195.098,161.991 C195.098,161.3 196.309,160.74 197.804,160.74 C199.298,160.74 200.509,161.3 200.509,161.991 C200.509,162.682 199.298,163.242 197.804,163.242 z" fill="#FFFFFF"/>
    <g>
      <path d="M62.673,157.881 L129.776,157.881 L129.776,186.409 L62.673,186.409 z" fill="#FFFFFF" fill-opacity="0.059"/>
      <path d="M62.673,157.881 L129.776,157.881 L129.776,186.409 L62.673,186.409 z" fill-opacity="0" stroke="#000000" stroke-width="6"/>
    </g>
    <g>
      <path d="M160.403,157.881 L227.505,157.881 L227.505,186.409 L160.403,186.409 z" fill="#FFFFFF" fill-opacity="0.059"/>
      <path d="M160.403,157.881 L227.505,157.881 L227.505,186.409 L160.403,186.409 z" fill-opacity="0" stroke="#000000" stroke-width="6"/>
    </g>
    <path d="M29.854,529.859 C38.667,505.039 69.099,575.878 71.428,588.804 C52.636,599.835 41.162,564.157 57.517,566.89 C62.768,562.245 38.501,524.688 29.854,529.859 z" fill="#5F554F"/>
    <path d="M274.257,435.522 C242.007,435.522 215.863,408.425 215.863,375 C215.863,341.575 242.007,314.478 274.257,314.478 C306.507,314.478 332.65,341.575 332.65,375 C332.65,408.425 306.507,435.522 274.257,435.522 z" fill="#9EAAAC"/>
    <path d="M275.576,420.892 C251.388,420.892 231.78,400.569 231.78,375.5 C231.709,364.015 236.105,353.027 243.513,344.579" fill-opacity="0" stroke="#3B4648" stroke-width="17.5"/>
    <path d="M247.314,340.824 C255.192,333.889 265.269,330.177 275.576,330.109 C285.213,330.043 294.521,333.505 302.199,339.456" fill-opacity="0" stroke="#F8A439" stroke-width="17.5"/>
    <path d="M306.17,343.021 C314.613,351.531 319.297,363.33 319.371,375.5 C319.371,400.569 299.763,420.892 275.576,420.892" fill-opacity="0" stroke="#3B4648" stroke-width="17.5"/>
    <path d="M244.203,394.838 L264.956,374.126 L273.081,354.666 L273.081,385.62 L253.427,405.649 L244.203,394.838 z" fill="#3B4648"/>
    <path d="M306.26,394.838 L285.508,374.126 L277.383,354.666 L277.383,385.62 L297.037,405.649 L306.26,394.838 z" fill="#3B4648"/>
    <path d="M473.911,322.621 C501.526,322.621 523.911,332.695 523.911,345.121 C523.911,357.548 501.526,367.621 473.911,367.621 C446.297,367.621 423.911,357.548 423.911,345.121 C423.911,332.695 446.297,322.621 473.911,322.621 z M447.074,335.517 C445.674,335.714 444.669,336.604 444.511,338.258 C444.448,339.181 444.466,339.846 444.566,341.819 C444.615,342.785 444.636,343.307 444.644,343.874 C444.676,346.316 444.355,347.522 443.738,347.943 C443.499,348.096 443.597,348.041 443.45,348.119 C443.261,347.864 443.105,347.579 442.951,347.296 C442.202,345.89 440.581,345.434 439.331,346.278 C438.081,347.121 437.676,348.945 438.426,350.351 C440.416,354.082 443.073,355.343 446.477,353.018 C447.972,351.998 448.938,350.444 449.45,348.523 C449.82,347.13 449.945,345.622 449.921,343.785 C449.912,343.111 449.888,342.527 449.835,341.481 C449.751,339.822 449.736,339.26 449.773,338.713 C449.885,337.078 448.798,335.651 447.344,335.525 L447.074,335.517 z M462.436,334.736 C460.978,334.736 459.797,336.065 459.797,337.705 C459.797,338.509 459.755,339.382 459.671,340.41 L459.669,340.438 C459.353,339.555 459.496,339.944 459.245,339.269 C458.611,337.592 458.128,336.587 457.44,335.859 C456.159,334.502 454.178,334.478 453,336.164 C452.504,336.872 452.284,337.654 452.138,338.683 C451.964,339.903 451.912,341.579 451.949,343.644 C452.009,346.938 452.31,351.195 452.567,352.059 C453.027,353.615 454.522,354.455 455.905,353.937 C457.238,353.351 457.984,351.874 457.59,350.262 L457.602,350.286 C457.628,350.384 457.614,350.325 457.641,350.463 C457.641,350.461 457.638,350.44 457.633,350.406 L457.624,350.332 C458.159,351.415 457.897,350.942 458.386,351.766 C459.118,352.916 459.931,353.691 461.122,353.897 C461.89,354.03 462.6,353.781 463.143,353.312 C463.443,353.052 463.647,352.771 463.807,352.471 C463.95,352.202 464.03,351.973 464.093,351.728 C464.146,351.526 464.179,351.34 464.207,351.126 C464.241,350.872 464.27,350.561 464.299,350.172 C464.343,349.57 464.385,348.785 464.431,347.774 C464.433,347.716 464.558,344.751 464.567,344.662 C464.598,344.347 464.61,344.234 464.688,343.471 C464.808,342.301 464.869,341.671 464.928,340.947 C465.024,339.754 465.074,338.709 465.074,337.705 C465.074,336.065 463.893,334.736 462.436,334.736 z M476.95,334.228 C475.751,334.317 476.248,334.167 475.429,334.517 C474.071,335.281 473.332,336.155 472.088,338.033 C472.049,338.091 472.049,338.091 472.011,338.149 C471.83,338.421 471.915,338.294 471.755,338.531 C471.71,337.557 471.74,338.073 471.661,336.983 C471.467,335.443 470.454,334.367 469.064,334.283 L468.794,334.295 C467.343,334.443 466.273,335.887 466.405,337.52 C466.568,339.539 466.59,341.612 466.52,344.693 C466.509,345.158 466.499,345.537 466.477,346.372 C466.415,348.718 466.394,349.753 466.394,351.062 C466.394,352.701 467.576,354.03 469.033,354.03 C470.491,354.03 471.672,352.701 471.672,351.062 C471.673,350.547 471.672,350.759 471.675,350.424 C472.061,350.759 471.861,350.599 472.274,350.903 C472.519,351.073 472.762,351.23 473.042,351.4 C473.187,351.488 473.626,351.748 473.654,351.765 C474.29,352.147 474.47,352.307 474.652,352.635 C475.424,354.025 477.052,354.448 478.288,353.579 C479.524,352.71 479.9,350.879 479.127,349.488 C478.359,348.105 477.516,347.354 476.138,346.526 C476.089,346.497 475.667,346.247 475.551,346.176 C475.356,346.057 475.199,345.956 475.052,345.854 C474.928,345.768 474.772,345.628 474.444,345.308 C474.404,345.269 474.404,345.269 474.363,345.229 C473.948,344.829 474.128,344.993 473.831,344.729 C474.229,344.276 474.632,343.828 475.033,343.378 C475.43,342.898 475.722,342.484 476.243,341.697 C476.282,341.638 476.282,341.638 476.32,341.58 C477.082,340.43 477.412,340.04 477.789,339.828 C479.093,339.095 479.621,337.311 478.969,335.845 C478.517,334.944 477.863,334.416 476.95,334.228 z M501.371,335.197 C500.431,335.246 500.833,335.192 500.161,335.309 C498.402,335.689 496.821,336.97 495.605,338.779 C493.131,342.461 492.546,347.564 494.95,351.014 C497.999,355.391 502.107,355.743 504.931,352.625 C506.002,351.442 506.74,349.863 506.897,348.333 C507.142,345.939 505.901,343.747 503.551,343.543 C502.098,343.418 500.257,343.951 500.146,345.586 C500.128,346.318 500.835,347.763 501.28,348.329 L501.234,348.388 C501.001,348.645 500.799,348.742 500.642,348.729 C500.529,348.719 500.382,348.663 500.182,348.523 C499.863,348.299 499.498,347.918 499.103,347.351 C498.391,346.328 498.646,344.1 499.815,342.359 C500.304,341.633 500.823,341.212 501.154,341.141 C501.21,341.129 501.229,341.131 501.262,341.146 C501.372,341.199 501.531,341.344 501.733,341.639 C502.622,342.939 504.279,343.182 505.434,342.182 C506.589,341.183 506.805,339.319 505.917,338.019 C504.755,336.417 503.253,335.286 501.371,335.197 z M488.666,335.512 C487.388,335.528 487.961,335.512 486.946,335.55 C484.208,335.678 482.12,336.155 480.455,337.326 C479.219,338.195 478.844,340.026 479.616,341.417 C480.388,342.807 482.017,343.23 483.252,342.361 C483.798,341.975 484.437,341.86 485.056,341.72 C484.847,343.198 484.93,344.694 485.009,346.179 C485.013,346.251 485.016,346.307 485.024,346.434 C485.126,348.194 485.139,348.921 485.058,349.655 C484.877,351.282 485.903,352.766 487.349,352.969 C488.795,353.172 490.114,352.018 490.295,350.391 C490.432,349.151 490.415,348.197 490.29,346.048 C490.283,345.922 490.28,345.867 490.276,345.798 C490.144,343.493 490.196,342.454 490.499,341.703 L490.57,341.466 C491.031,341.47 490.827,341.47 491.183,341.47 C492.641,341.47 493.822,340.141 493.822,338.502 C493.822,336.862 492.641,335.533 491.183,335.533 C490.893,335.533 490.678,335.531 490.042,335.523 C489.243,335.514 489.702,335.518 488.666,335.512 z" fill="#FFFFFF" fill-opacity="0.109"/>
    <text transform="matrix(1, 0, 0, 1, 473.911, 360.607)">
      <tspan x="-14.536" y="2" font-family="HelveticaNeue" font-size="8" kerning="0" fill="#FFFFFF" fill-opacity="0.254">©</tspan>
      <tspan x="-8.136" y="2" font-family="AvenirNext-Bold" font-size="8" fill="#FFFFFF" fill-opacity="0.254"> 2019</tspan>
    </text>
  </g>
</svg>
