<?xml version="1.0" encoding="UTF-8"?>
<!DOCTYPE svg PUBLIC "-//W3C//DTD SVG 1.1//EN" "http://www.w3.org/Graphics/SVG/1.1/DTD/svg11.dtd">
<svg version="1.1" xmlns="http://www.w3.org/2000/svg" xmlns:xlink="http://www.w3.org/1999/xlink" x="0" y="0" width="300" height="450" viewBox="0, 0, 300, 450">
  <g id="Background">
    <rect x="0" y="0" width="300" height="450" fill="#FFC8C8"/>
  </g>
  <g id="Layer_1">
    <path d="M156.225,396.178 C89.236,396.178 23.648,371.733 34.931,310.656 C45.743,252.125 71.722,156.337 156.225,171.315 C232.182,174.487 274.666,226.347 281.084,294.582 C281.084,356.677 223.214,396.178 156.225,396.178 z" fill="#FFFFFF"/>
    <path d="M55.625,233.676 C74.149,228.499 94.499,195.362 94.238,186.302 C20.925,113.816 6.576,231.864 55.625,233.676 z" fill="#000000"/>
    <path d="M208.772,184.231 C245.037,114.334 297.478,193.55 257.56,229.017 C240.341,228.24 219.991,219.697 208.772,184.231 z" fill="#000000"/>
    <path d="M122.154,261.117 C114.849,244.808 70.757,284.157 86.411,311.08 C102.065,338.004 129.459,277.426 122.154,261.117 z" fill="#000000"/>
    <path d="M173.29,260.858 C190.51,249.726 226.513,284.157 212.686,308.233 C198.858,332.308 156.071,271.99 173.29,260.858 z" fill="#000000"/>
    <path d="M121.111,324.801 C125.285,318.07 162.114,318.329 169.268,323.765 C176.421,329.202 149.258,327.851 151.017,338.445 C148.756,339.068 145.867,340.065 143.103,338.445 C136.823,324.361 116.936,331.532 121.111,324.801 z" fill="#000000"/>
    <path d="M47.481,351.081 C21.22,371.034 -7.271,396.771 0,450 C53.232,453.898 260.706,450 300,450 C300.435,417.545 314.407,329.792 276.79,319.716 C245.975,400.848 86.754,418.454 47.481,351.081 z" fill="#000000"/>
    <path d="M91.561,183.694 L93.896,183.074 L98.589,181.763 L103.303,180.415 L108.033,179.101 L111.584,178.175 L113.951,177.603 L116.323,177.072 L118.698,176.593 L121.075,176.176 L123.452,175.821 L125.831,175.542 L128.212,175.346 L129.383,175.283 L129.343,175.286 L130.181,175.256 L131.808,175.238 L134.273,175.283 L137.608,175.414 L140.149,175.505 L141.874,175.533 L142.755,175.532 L142.755,175.532 C142.764,175.532 142.774,175.532 142.784,175.531 L142.784,175.531 L145.935,175.494 L152.227,175.215 L158.478,174.851 L163.145,174.6 L166.253,174.47 L167.802,174.418 L167.802,174.418 C167.804,174.418 167.806,174.418 167.808,174.418 L167.808,174.418 L168.943,174.378 L171.281,174.253 L173.635,174.093 L175.976,173.934 L178.294,173.802 L180.579,173.735 L182.254,173.742 L183.348,173.775 L184.439,173.842 L185.513,173.943 L186.029,174.006 L185.99,173.998 L186.146,174.022 L186.445,174.075 L186.799,174.151 L187.217,174.252 L187.689,174.374 L188.208,174.515 L188.767,174.674 L189.362,174.849 L190.312,175.137 L191.656,175.558 L193.056,176.006 L194.482,176.469 L195.898,176.932 L197.272,177.382 L198.255,177.703 L198.879,177.907 L199.475,178.099 L200.037,178.279 L200.561,178.446 L201.045,178.597 L201.483,178.731 L201.872,178.846 L202.208,178.942 L202.491,179.017 L202.718,179.071 L202.902,179.105 L203.032,179.119 L203.032,179.119 C203.397,179.153 203.72,178.884 203.754,178.519 C203.788,178.154 203.519,177.83 203.154,177.797 L203.197,177.803 L203.105,177.775 L202.927,177.707 L202.68,177.606 L202.374,177.475 L202.013,177.316 L201.603,177.132 L201.147,176.925 L200.651,176.698 L200.117,176.453 L199.551,176.192 L198.956,175.917 L198.016,175.484 L196.698,174.879 L195.334,174.259 L193.954,173.64 L192.589,173.039 L191.271,172.473 L190.33,172.081 L189.731,171.839 L189.159,171.613 L188.616,171.406 L188.104,171.221 L187.625,171.059 L187.176,170.921 L186.773,170.812 L186.62,170.774 L186.62,170.774 C186.607,170.772 186.594,170.769 186.581,170.767 L186.581,170.767 L185.982,170.64 L184.807,170.422 L183.623,170.243 L182.421,170.099 L180.619,169.946 L178.225,169.83 L175.842,169.779 L173.486,169.771 L171.175,169.772 L168.91,169.756 L167.774,169.732 L167.78,169.732 L166.169,169.695 L162.978,169.675 L158.238,169.743 L151.978,169.968 L145.736,170.285 L142.592,170.487 L142.621,170.486 L141.824,170.53 L140.183,170.591 L137.652,170.646 L134.214,170.716 L131.613,170.825 L129.881,170.957 L129.047,171.043 L129.047,171.043 C129.033,171.044 129.019,171.045 129.006,171.047 L129.006,171.047 L127.726,171.202 L125.227,171.579 L122.753,172.04 L120.304,172.578 L117.879,173.189 L115.476,173.859 L113.094,174.581 L110.727,175.35 L107.215,176.567 L102.591,178.272 L98.015,180.012 L93.471,181.73 L91.204,182.563 C91.204,182.563 91.204,182.563 91.204,182.563 C90.892,182.662 90.719,182.995 90.817,183.307 C90.916,183.619 91.249,183.792 91.561,183.694 L91.561,183.694" fill="#000000"/>
    <path d="M57.62,234.146 L57.332,234.362 L56.75,234.849 L56.185,235.389 L55.646,235.973 L55.132,236.596 L54.64,237.255 L54.171,237.948 L53.722,238.672 L53.293,239.424 L52.882,240.201 L52.299,241.402 L51.573,243.071 L50.895,244.799 L50.259,246.559 L49.656,248.331 L49.078,250.094 L48.517,251.825 L47.964,253.503 L47.412,255.106 L46.854,256.609 L46.429,257.65 L46.144,258.294 L46.003,258.595 L46.004,258.593 L45.64,259.377 L44.901,261.043 L44.16,262.805 L43.423,264.651 L42.692,266.576 L41.973,268.573 L41.262,270.636 L40.562,272.759 L39.876,274.936 L39.205,277.161 L38.558,279.431 L37.93,281.737 L37.323,284.074 L36.741,286.435 L35.924,290.005 L35.172,293.603 L34.722,296.015 L34.353,298.421 L34.031,300.817 L33.746,303.194 L33.51,305.547 L33.32,307.871 L33.173,310.158 L33.083,312.403 L33.038,314.6 L33.047,316.743 L33.111,318.826 L33.226,320.843 L33.401,322.789 L33.635,324.658 L33.85,326.017 L34.014,326.901 L34.104,327.342 L34.104,327.342 C34.106,327.349 34.107,327.356 34.108,327.363 L34.108,327.363 L34.396,328.666 L35.021,331.317 L35.71,333.989 L36.474,336.657 L37.308,339.311 L38.215,341.939 L39.203,344.525 L40.271,347.059 L40.839,348.312 L40.839,348.312 C40.843,348.323 40.848,348.333 40.852,348.343 L40.852,348.343 L40.977,348.598 L41.289,349.177 L41.649,349.778 L42.038,350.383 L42.659,351.298 L43.521,352.537 L44.354,353.773 L44.915,354.675 L45.24,355.254 L45.522,355.819 L45.748,356.36 L45.912,356.87 L46.008,357.343 L46.028,357.54 L46.028,357.54 C46.042,357.906 46.35,358.192 46.717,358.178 C47.084,358.163 47.369,357.855 47.355,357.488 C47.355,357.488 47.355,357.488 47.355,357.488 L47.354,357.151 L47.291,356.513 L47.155,355.864 L46.958,355.203 L46.709,354.534 L46.416,353.852 L45.922,352.831 L45.205,351.487 L44.483,350.185 L43.979,349.257 L43.682,348.679 L43.426,348.14 L43.211,347.634 L43.111,347.369 L43.124,347.399 L42.696,346.162 L41.891,343.629 L41.158,341.053 L40.491,338.446 L39.89,335.819 L39.352,333.182 L38.864,330.549 L38.434,327.92 L38.237,326.6 L38.241,326.622 L38.19,326.246 L38.092,325.464 L37.97,324.238 L37.855,322.508 L37.793,320.691 L37.779,318.796 L37.816,316.827 L37.899,314.793 L38.024,312.698 L38.197,310.551 L38.402,308.357 L38.648,306.122 L38.929,303.853 L39.239,301.555 L39.586,299.236 L39.955,296.9 L40.31,294.556 L40.881,291.017 L41.514,287.484 L41.963,285.151 L42.435,282.839 L42.93,280.556 L43.445,278.307 L43.972,276.097 L44.516,273.935 L45.075,271.826 L45.648,269.778 L46.233,267.796 L46.823,265.886 L47.421,264.055 L48.025,262.311 L48.636,260.651 L48.949,259.844 L48.949,259.844 C48.949,259.844 48.949,259.843 48.95,259.842 L48.95,259.842 L49.093,259.471 L49.363,258.725 L49.743,257.569 L50.217,255.964 L50.668,254.29 L51.105,252.564 L51.541,250.804 L51.983,249.03 L52.444,247.259 L52.931,245.512 L53.455,243.807 L54.026,242.16 L54.491,240.975 L54.817,240.218 L55.16,239.488 L55.52,238.787 L55.898,238.117 L56.294,237.481 L56.711,236.88 L57.149,236.317 L57.609,235.793 L58.101,235.304 L58.369,235.065 C58.369,235.065 58.369,235.065 58.369,235.065 C58.623,234.858 58.661,234.485 58.454,234.231 C58.247,233.977 57.874,233.94 57.62,234.146 L57.62,234.146" fill="#000000"/>
    <path d="M256.516,227.203 L256.706,227.733 L257.128,228.795 L257.595,229.844 L258.099,230.875 L258.908,232.385 L260.064,234.355 L261.268,236.292 L262.474,238.207 L263.637,240.114 L264.452,241.543 L264.958,242.494 L265.195,242.966 L265.183,242.945 L265.4,243.39 L265.797,244.261 L266.348,245.591 L267.016,247.409 L267.621,249.265 L268.463,252.119 L269.273,254.995 L269.826,256.917 L270.117,257.884 L270.117,257.884 C270.117,257.886 270.118,257.887 270.118,257.889 L270.118,257.889 L270.32,258.556 L270.7,259.846 L271.057,261.096 L271.388,262.315 L271.696,263.505 L271.981,264.668 L272.244,265.807 L272.489,266.923 L272.823,268.571 L273.201,270.712 L273.513,272.8 L273.823,274.857 L274.1,276.912 L274.332,278.99 L274.54,281.108 L274.718,283.287 L274.886,285.545 L275.039,287.9 L275.197,290.37 L275.36,292.971 L275.448,294.325 L275.448,294.325 C275.448,294.33 275.448,294.334 275.448,294.339 L275.448,294.339 L275.571,296.065 L275.878,299.508 L276.175,302.879 L276.352,305.349 L276.424,306.968 L276.457,308.579 L276.434,310.178 L276.352,311.768 L276.196,313.35 L275.96,314.928 L275.634,316.506 L275.207,318.086 L274.67,319.674 L274.362,320.462 L274.362,320.462 C274.202,320.792 274.341,321.189 274.671,321.349 C275.001,321.508 275.398,321.37 275.558,321.039 L276.015,320.242 L276.821,318.647 L277.505,317.027 L278.075,315.388 L278.543,313.732 L278.916,312.062 L279.209,310.381 L279.426,308.691 L279.583,306.996 L279.685,305.288 L279.77,302.733 L279.793,299.335 L279.798,295.928 L279.809,294.198 L279.81,294.212 L279.827,292.85 L279.848,290.225 L279.852,287.717 L279.823,285.304 L279.767,282.97 L279.665,280.695 L279.522,278.463 L279.319,276.257 L279.062,274.06 L278.724,271.859 L278.261,269.65 L277.721,267.416 L277.264,265.71 L276.93,264.548 L276.57,263.37 L276.187,262.172 L275.78,260.952 L275.348,259.708 L274.889,258.438 L274.402,257.147 L274.149,256.498 L274.151,256.503 L273.804,255.606 L273.112,253.751 L272.063,250.891 L270.952,248.014 L270.141,246.101 L269.263,244.224 L268.545,242.85 L268.036,241.957 L267.781,241.533 L267.781,241.533 C267.777,241.526 267.773,241.519 267.769,241.512 L267.769,241.512 L267.457,241.01 L266.82,240.038 L265.832,238.628 L264.473,236.81 L263.097,235.028 L261.739,233.258 L260.43,231.467 L259.502,230.097 L258.92,229.169 L258.37,228.223 L257.855,227.249 L257.609,226.743 C257.609,226.743 257.609,226.743 257.609,226.743 C257.482,226.441 257.134,226.299 256.832,226.426 C256.531,226.553 256.389,226.901 256.516,227.203 L256.516,227.203" fill="#000000"/>
    <path d="M100.287,342.12 L100.742,342.89 L101.613,344.421 L102.452,345.942 L103.278,347.448 L104.11,348.926 L104.963,350.369 L105.857,351.763 L106.808,353.099 L107.579,354.062 L108.126,354.683 L108.693,355.275 L109.287,355.843 L109.913,356.383 L110.572,356.895 L111.266,357.376 L111.997,357.822 L112.765,358.232 L113.574,358.602 L114.423,358.931 L115.313,359.216 L116.245,359.455 L117.221,359.646 L118.239,359.787 L119.303,359.877 L119.872,359.903 L119.872,359.903 C119.88,359.904 119.887,359.904 119.894,359.904 L119.894,359.904 L120.192,359.914 L120.863,359.933 L121.614,359.942 L122.417,359.929 L123.247,359.883 L124.083,359.792 L124.91,359.637 L125.547,359.455 L125.989,359.282 L126.236,359.165 L126.236,359.165 C126.251,359.157 126.266,359.149 126.281,359.141 L126.281,359.141 L126.53,359.013 L127.062,358.738 L127.625,358.445 L128.214,358.138 L129.146,357.652 L130.469,356.97 L131.867,356.266 L133.325,355.556 L134.825,354.859 L136.347,354.186 L137.877,353.56 L139.394,352.999 L140.88,352.52 L141.943,352.231 L142.62,352.073 L143.291,351.938 L143.937,351.835 L144.553,351.764 L145.137,351.726 L145.683,351.721 L146.189,351.75 L146.65,351.81 L147.063,351.899 L147.196,351.942 L147.1,351.919 L147.26,351.965 L147.498,352.05 L147.753,352.155 L148.056,352.289 L148.398,352.451 L148.776,352.635 L149.413,352.945 L150.338,353.424 L151.331,353.958 L152.383,354.536 L153.477,355.148 L155.162,356.097 L156.861,357.027 L157.985,357.625 L159.08,358.186 L160.141,358.699 L160.92,359.046 L161.433,359.26 L161.926,359.451 L162.409,359.622 L162.671,359.707 L162.671,359.707 C162.686,359.713 162.702,359.718 162.718,359.723 L162.718,359.723 L163.22,359.871 L164.299,360.158 L165.404,360.405 L166.514,360.602 L167.624,360.756 L168.734,360.866 L169.842,360.933 L170.948,360.957 L172.05,360.937 L173.147,360.877 L174.239,360.779 L175.323,360.642 L176.4,360.465 L177.467,360.249 L178.524,359.998 L179.571,359.712 L180.606,359.393 L181.628,359.041 L182.637,358.657 L183.631,358.238 L184.609,357.787 L185.571,357.307 L186.516,356.798 L187.443,356.261 L188.352,355.697 L189.24,355.105 L190.107,354.485 L190.952,353.841 L191.776,353.173 L192.575,352.48 L193.35,351.764 L194.101,351.027 L194.473,350.643 L194.473,350.643 C194.48,350.637 194.486,350.631 194.493,350.624 L194.493,350.624 L194.702,350.397 L195.128,349.896 L195.704,349.122 L196.364,348.072 L196.938,347.017 L197.457,345.985 L197.961,344.987 L198.489,344.033 L198.917,343.357 L199.225,342.926 L199.385,342.719 L199.385,342.719 C199.629,342.445 199.604,342.026 199.33,341.782 C199.056,341.538 198.637,341.562 198.393,341.836 L198.169,342.06 L197.753,342.511 L197.187,343.204 L196.51,344.141 L195.885,345.08 L195.281,346.001 L194.665,346.883 L194.002,347.725 L193.452,348.322 L193.049,348.704 L192.817,348.908 L192.837,348.889 L192.47,349.194 L191.71,349.801 L190.93,350.385 L190.134,350.944 L189.322,351.482 L188.495,351.994 L187.653,352.48 L186.798,352.941 L185.931,353.379 L185.053,353.789 L184.164,354.171 L183.266,354.525 L182.358,354.851 L181.444,355.148 L180.524,355.42 L179.598,355.662 L178.668,355.874 L177.733,356.055 L176.795,356.204 L175.856,356.321 L174.916,356.408 L173.976,356.466 L173.037,356.491 L172.099,356.483 L171.164,356.44 L170.231,356.367 L169.302,356.261 L168.378,356.119 L167.459,355.943 L166.546,355.73 L165.639,355.485 L164.714,355.197 L164.219,355.027 L164.266,355.042 L164.135,354.994 L163.801,354.86 L163.432,354.699 L163.044,354.518 L162.404,354.199 L161.463,353.705 L160.456,353.149 L159.404,352.546 L157.757,351.577 L156.077,350.593 L154.96,349.944 L153.859,349.314 L152.781,348.721 L151.744,348.18 L150.998,347.814 L150.502,347.595 L150.012,347.396 L149.528,347.216 L149.045,347.055 L148.595,346.927 L148.433,346.889 L148.433,346.889 C148.401,346.88 148.369,346.872 148.337,346.865 L148.337,346.865 L147.878,346.775 L147.068,346.669 L146.255,346.626 L145.441,346.637 L144.625,346.698 L143.808,346.803 L142.989,346.947 L142.169,347.128 L141.348,347.342 L140.509,347.591 L139.266,348.015 L137.631,348.653 L136.008,349.367 L134.408,350.136 L132.841,350.942 L131.324,351.773 L129.868,352.604 L128.487,353.417 L127.197,354.193 L126.297,354.74 L125.733,355.083 L125.201,355.405 L124.701,355.707 L124.46,355.851 L124.505,355.826 L124.496,355.841 L124.385,355.909 L124.1,356.028 L123.56,356.181 L122.926,356.302 L122.238,356.393 L121.532,356.456 L120.84,356.498 L120.19,356.526 L119.892,356.537 L119.913,356.537 L119.468,356.551 L118.572,356.544 L117.72,356.493 L116.909,356.402 L116.137,356.27 L115.4,356.1 L114.695,355.893 L114.019,355.649 L113.37,355.37 L112.744,355.057 L112.14,354.71 L111.555,354.329 L110.987,353.916 L110.435,353.472 L109.897,352.996 L109.379,352.5 L108.617,351.696 L107.624,350.525 L106.659,349.267 L105.709,347.935 L104.763,346.546 L103.805,345.115 L102.822,343.657 L101.803,342.194 L101.279,341.47 C101.279,341.47 101.279,341.47 101.279,341.47 C101.099,341.196 100.732,341.12 100.458,341.299 C100.184,341.478 100.108,341.846 100.287,342.12 L100.287,342.12" fill="#000000"/>
    <path d="M22.82,450.763 C24.959,438.94 291.651,424.828 300,450 C216.491,451.372 67.984,453.601 22.82,450.763 z" fill="#FFFFFF"/>
    <path d="M250,385.379 C277.614,385.379 300,395.452 300,407.879 C300,420.305 277.614,430.379 250,430.379 C222.386,430.379 200,420.305 200,407.879 C200,395.452 222.386,385.379 250,385.379 z M223.163,398.275 C221.763,398.472 220.757,399.361 220.6,401.015 C220.536,401.939 220.555,402.604 220.655,404.576 C220.704,405.543 220.725,406.064 220.732,406.631 C220.765,409.073 220.444,410.279 219.827,410.7 C219.587,410.853 219.685,410.799 219.539,410.876 C219.349,410.621 219.193,410.337 219.04,410.053 C218.29,408.647 216.669,408.192 215.419,409.035 C214.17,409.879 213.764,411.702 214.514,413.108 C216.504,416.84 219.162,418.101 222.566,415.776 C224.06,414.755 225.027,413.202 225.538,411.28 C225.909,409.887 226.034,408.379 226.009,406.543 C226,405.869 225.977,405.284 225.924,404.239 C225.84,402.579 225.824,402.018 225.862,401.471 C225.974,399.836 224.886,398.409 223.433,398.283 L223.163,398.275 z M238.524,397.493 C237.067,397.493 235.885,398.823 235.885,400.462 C235.885,401.266 235.843,402.14 235.76,403.167 L235.758,403.196 C235.442,402.313 235.585,402.702 235.333,402.027 C234.699,400.349 234.217,399.345 233.528,398.616 C232.247,397.259 230.267,397.235 229.088,398.921 C228.593,399.63 228.373,400.412 228.226,401.44 C228.052,402.66 228,404.337 228.038,406.402 C228.098,409.695 228.399,413.952 228.655,414.817 C229.116,416.372 230.61,417.213 231.993,416.694 C233.326,416.109 234.073,414.631 233.678,413.019 L233.69,413.044 C233.716,413.141 233.702,413.083 233.73,413.221 C233.729,413.218 233.726,413.197 233.722,413.163 L233.713,413.09 C234.247,414.172 233.986,413.699 234.475,414.524 C235.206,415.673 236.02,416.448 237.211,416.654 C237.978,416.787 238.689,416.539 239.231,416.069 C239.532,415.809 239.736,415.528 239.895,415.228 C240.038,414.96 240.118,414.73 240.182,414.486 C240.235,414.283 240.267,414.098 240.296,413.884 C240.33,413.629 240.359,413.318 240.387,412.929 C240.431,412.327 240.473,411.543 240.519,410.531 C240.522,410.474 240.647,407.508 240.656,407.419 C240.687,407.105 240.698,406.991 240.777,406.228 C240.897,405.059 240.958,404.428 241.016,403.705 C241.113,402.512 241.163,401.466 241.163,400.462 C241.163,398.823 239.982,397.493 238.524,397.493 z M253.039,396.986 C251.839,397.074 252.336,396.925 251.517,397.275 C250.16,398.038 249.42,398.912 248.177,400.79 C248.138,400.849 248.138,400.849 248.1,400.906 C247.918,401.179 248.004,401.052 247.844,401.288 C247.799,400.315 247.828,400.831 247.75,399.74 C247.555,398.2 246.542,397.124 245.153,397.04 L244.883,397.052 C243.431,397.201 242.362,398.645 242.494,400.278 C242.657,402.296 242.679,404.37 242.608,407.45 C242.597,407.915 242.588,408.295 242.566,409.129 C242.503,411.475 242.483,412.511 242.483,413.819 C242.483,415.459 243.664,416.788 245.122,416.788 C246.579,416.788 247.761,415.459 247.761,413.819 C247.762,413.304 247.76,413.517 247.763,413.182 C248.149,413.516 247.95,413.356 248.362,413.66 C248.607,413.831 248.851,413.987 249.13,414.157 C249.275,414.245 249.714,414.506 249.742,414.522 C250.379,414.904 250.558,415.064 250.74,415.392 C251.513,416.783 253.141,417.206 254.377,416.337 C255.613,415.468 255.988,413.636 255.216,412.246 C254.447,410.862 253.605,410.111 252.226,409.284 C252.177,409.254 251.756,409.004 251.639,408.933 C251.444,408.815 251.287,408.714 251.14,408.612 C251.017,408.525 250.86,408.386 250.533,408.065 C250.493,408.026 250.493,408.026 250.452,407.986 C250.037,407.586 250.216,407.75 249.919,407.486 C250.318,407.033 250.72,406.585 251.122,406.135 C251.519,405.655 251.811,405.241 252.332,404.454 C252.371,404.396 252.371,404.396 252.409,404.338 C253.171,403.187 253.501,402.797 253.878,402.585 C255.181,401.852 255.71,400.069 255.058,398.602 C254.606,397.702 253.951,397.173 253.039,396.986 z M277.46,397.955 C276.519,398.003 276.921,397.95 276.25,398.067 C274.491,398.446 272.909,399.727 271.694,401.536 C269.219,405.218 268.634,410.322 271.038,413.771 C274.088,418.149 278.196,418.501 281.019,415.383 C282.09,414.2 282.829,412.621 282.986,411.09 C283.231,408.697 281.989,406.504 279.64,406.301 C278.186,406.175 276.346,406.709 276.234,408.343 C276.217,409.075 276.924,410.521 277.368,411.086 L277.322,411.145 C277.09,411.402 276.887,411.499 276.731,411.486 C276.618,411.476 276.471,411.42 276.27,411.28 C275.951,411.057 275.586,410.675 275.192,410.109 C274.479,409.086 274.734,406.857 275.904,405.117 C276.392,404.39 276.911,403.97 277.243,403.898 C277.298,403.886 277.318,403.889 277.35,403.904 C277.46,403.956 277.62,404.101 277.822,404.397 C278.71,405.696 280.367,405.94 281.522,404.94 C282.678,403.94 282.894,402.076 282.005,400.777 C280.843,399.174 279.342,398.044 277.46,397.955 z M264.755,398.27 C263.476,398.285 264.049,398.269 263.034,398.307 C260.296,398.435 258.209,398.912 256.544,400.083 C255.308,400.952 254.932,402.784 255.705,404.174 C256.477,405.564 258.105,405.987 259.341,405.118 C259.887,404.733 260.526,404.617 261.144,404.478 C260.935,405.955 261.018,407.452 261.097,408.936 C261.102,409.008 261.105,409.064 261.112,409.191 C261.214,410.952 261.228,411.678 261.146,412.412 C260.965,414.039 261.991,415.523 263.437,415.727 C264.883,415.93 266.202,414.776 266.383,413.149 C266.521,411.908 266.503,410.954 266.379,408.805 C266.371,408.679 266.368,408.625 266.364,408.555 C266.232,406.251 266.284,405.212 266.588,404.46 L266.659,404.224 C267.119,404.228 266.915,404.227 267.272,404.228 C268.729,404.228 269.911,402.899 269.911,401.259 C269.911,399.619 268.729,398.29 267.272,398.29 C266.982,398.29 266.767,398.288 266.131,398.28 C265.332,398.271 265.79,398.275 264.755,398.27 z" fill="#FFFFFF" fill-opacity="0.109"/>
    <text transform="matrix(1, 0, 0, 1, 250, 423.364)">
      <tspan x="-14.536" y="2" font-family="HelveticaNeue" font-size="8" kerning="0" fill="#FFFFFF" fill-opacity="0.109">©</tspan>
      <tspan x="-8.136" y="2" font-family="AvenirNext-Bold" font-size="8" fill="#FFFFFF" fill-opacity="0.109"> 2019</tspan>
    </text>
  </g>
</svg>
