<?xml version="1.0" encoding="UTF-8"?>
<!DOCTYPE svg PUBLIC "-//W3C//DTD SVG 1.1//EN" "http://www.w3.org/Graphics/SVG/1.1/DTD/svg11.dtd">
<svg version="1.1" xmlns="http://www.w3.org/2000/svg" xmlns:xlink="http://www.w3.org/1999/xlink" x="0" y="0" width="300" height="450" viewBox="0, 0, 300, 450">
  <g id="Background">
    <rect x="0" y="0" width="300" height="450" fill="#FFC198"/>
  </g>
  <defs>
    <linearGradient id="Gradient_1" gradientUnits="userSpaceOnUse" x1="28.981" y1="354.118" x2="50.566" y2="334.825" gradientTransform="matrix(1, -0.024, 0.024, 1, 0, 0)">
      <stop offset="0" stop-color="#FFFFFF"/>
      <stop offset="1" stop-color="#FFDD70"/>
    </linearGradient>
    <linearGradient id="Gradient_2" gradientUnits="userSpaceOnUse" x1="-280.616" y1="338.18" x2="-257.116" y2="307.469" gradientTransform="matrix(-0.996, -0.095, -0.095, 0.996, 0, 0)">
      <stop offset="0" stop-color="#FFFFFF"/>
      <stop offset="1" stop-color="#FFDD70"/>
    </linearGradient>
  </defs>
  <g id="Layer_1">
    <path d="M54.628,345.878 C25.364,330.873 0,367.652 0,380.447 C0,395.622 0,450 0,450 C0,450 61.55,359.964 54.628,345.878 z" fill="#333139"/>
    <path d="M232.976,353.706 C216.614,372.691 300.629,432.546 300,450 C299.371,467.454 300.257,418.863 300.52,404.755 C305.308,397.441 265.072,349.112 232.976,353.706 z" fill="#333139"/>
    <path d="M48.174,304.918 C27.091,342.582 50.376,369.659 64.221,391.794 C86.248,425.879 217.463,417.187 228.162,388.214 C236.658,369.02 253.793,343.669 242.007,304.556 C212.743,225.968 97.891,196.633 48.174,304.918 z" fill="#333139"/>
    <g>
      <path d="M126.006,319.535 C128.061,311.537 155.914,310.426 160.709,317.314 C161.524,325.105 143.586,336.865 139.933,336.199 C136.28,335.532 125.554,326.308 126.006,319.535 z" fill="#656071"/>
      <path d="M126.006,319.535 C128.061,311.537 155.914,310.426 160.709,317.314 C161.524,325.105 143.586,336.865 139.933,336.199 C136.28,335.532 125.554,326.308 126.006,319.535 z" fill-opacity="0" stroke="#000000" stroke-width="2"/>
    </g>
    <g>
      <path d="M125.992,320.993 C125.992,320.993 77.525,324.704 91.542,340.45 C105.559,356.197 125.992,320.993 125.992,320.993 z" fill="#83661B"/>
      <path d="M125.992,320.993 C125.992,320.993 77.525,324.704 91.542,340.45 C105.559,356.197 125.992,320.993 125.992,320.993 z" fill-opacity="0" stroke="#000000" stroke-width="2"/>
    </g>
    <g>
      <path d="M160.736,320.993 C160.736,320.993 209.202,324.704 195.185,340.45 C181.169,356.197 160.736,320.993 160.736,320.993 z" fill="#83661B"/>
      <path d="M160.736,320.993 C160.736,320.993 209.202,324.704 195.185,340.45 C181.169,356.197 160.736,320.993 160.736,320.993 z" fill-opacity="0" stroke="#000000" stroke-width="2"/>
    </g>
    <path d="M46.821,306.508 C54.104,311.206 61.972,369.496 59.599,378.623 C57.227,387.75 39.801,359.948 37.669,354.195 C35.537,348.443 39.539,301.81 46.821,306.508 z" fill="url(#Gradient_1)"/>
    <path d="M241.623,302.566 C233.079,307.616 219.416,377.07 221.311,388.242 C223.207,399.414 245.029,367.414 247.895,360.671 C250.76,353.927 250.166,297.516 241.623,302.566 z" fill="url(#Gradient_2)"/>
    <path d="M0,450 C-0.348,419.211 -3.953,424.106 45.395,367.652 C80.923,405.343 195.66,397.975 239.051,375.303 C266.424,416.679 305.482,422.172 300,450 C287.195,452.128 45.979,450.038 0,450 z" fill="#FFFFFF"/>
    <path d="M247.23,9 C274.844,9 297.23,19.074 297.23,31.5 C297.23,43.926 274.844,54 247.23,54 C219.616,54 197.23,43.926 197.23,31.5 C197.23,19.074 219.616,9 247.23,9 z M220.393,21.896 C218.993,22.093 217.987,22.983 217.829,24.637 C217.766,25.56 217.785,26.225 217.885,28.198 C217.933,29.164 217.954,29.686 217.962,30.253 C217.994,32.695 217.674,33.901 217.057,34.322 C216.817,34.475 216.915,34.42 216.769,34.498 C216.579,34.243 216.423,33.958 216.27,33.675 C215.52,32.269 213.899,31.813 212.649,32.657 C211.4,33.5 210.994,35.324 211.744,36.73 C213.734,40.461 216.392,41.722 219.796,39.397 C221.29,38.377 222.257,36.823 222.768,34.902 C223.139,33.509 223.264,32.001 223.239,30.164 C223.23,29.49 223.207,28.906 223.154,27.86 C223.07,26.201 223.054,25.639 223.092,25.092 C223.203,23.457 222.116,22.03 220.663,21.904 L220.393,21.896 z M235.754,21.115 C234.297,21.115 233.115,22.444 233.115,24.084 C233.115,24.888 233.073,25.761 232.99,26.789 L232.987,26.817 C232.672,25.934 232.814,26.323 232.563,25.648 C231.929,23.971 231.447,22.966 230.758,22.237 C229.477,20.881 227.496,20.857 226.318,22.543 C225.823,23.251 225.603,24.033 225.456,25.062 C225.282,26.281 225.23,27.958 225.268,30.023 C225.328,33.317 225.629,37.574 225.885,38.438 C226.346,39.994 227.84,40.834 229.223,40.316 C230.556,39.73 231.303,38.253 230.908,36.641 L230.92,36.665 C230.946,36.763 230.932,36.704 230.959,36.842 C230.959,36.84 230.956,36.819 230.952,36.784 L230.943,36.711 C231.477,37.794 231.216,37.321 231.705,38.145 C232.436,39.295 233.25,40.07 234.441,40.276 C235.208,40.409 235.919,40.16 236.461,39.691 C236.762,39.431 236.966,39.15 237.125,38.85 C237.268,38.581 237.348,38.352 237.412,38.107 C237.465,37.905 237.497,37.719 237.526,37.505 C237.56,37.251 237.589,36.939 237.617,36.551 C237.661,35.949 237.703,35.164 237.749,34.153 C237.752,34.095 237.877,31.13 237.886,31.04 C237.917,30.726 237.928,30.613 238.007,29.85 C238.127,28.68 238.188,28.05 238.246,27.326 C238.342,26.133 238.393,25.088 238.393,24.084 C238.393,22.444 237.211,21.115 235.754,21.115 z M250.269,20.607 C249.069,20.695 249.566,20.546 248.747,20.896 C247.39,21.66 246.65,22.534 245.406,24.412 C245.368,24.47 245.368,24.47 245.33,24.528 C245.148,24.8 245.234,24.673 245.074,24.91 C245.029,23.936 245.058,24.452 244.98,23.361 C244.785,21.821 243.772,20.745 242.383,20.661 L242.113,20.674 C240.661,20.822 239.592,22.266 239.724,23.899 C239.887,25.918 239.909,27.991 239.838,31.071 C239.827,31.537 239.818,31.916 239.796,32.751 C239.733,35.097 239.713,36.132 239.713,37.441 C239.713,39.08 240.894,40.409 242.352,40.409 C243.809,40.409 244.99,39.08 244.99,37.441 C244.992,36.926 244.99,37.138 244.993,36.803 C245.379,37.138 245.18,36.978 245.592,37.282 C245.837,37.452 246.081,37.609 246.36,37.778 C246.505,37.867 246.944,38.127 246.972,38.144 C247.609,38.526 247.788,38.686 247.97,39.014 C248.743,40.404 250.371,40.827 251.607,39.958 C252.843,39.089 253.218,37.257 252.446,35.867 C251.677,34.483 250.835,33.732 249.456,32.905 C249.407,32.876 248.986,32.626 248.869,32.555 C248.674,32.436 248.517,32.335 248.37,32.233 C248.246,32.147 248.09,32.007 247.762,31.687 C247.723,31.648 247.723,31.648 247.681,31.607 C247.267,31.208 247.446,31.372 247.149,31.108 C247.548,30.655 247.95,30.207 248.352,29.757 C248.749,29.277 249.04,28.862 249.562,28.076 C249.6,28.017 249.6,28.017 249.639,27.959 C250.401,26.809 250.731,26.419 251.108,26.207 C252.411,25.473 252.94,23.69 252.288,22.224 C251.836,21.323 251.181,20.794 250.269,20.607 z M274.69,21.576 C273.749,21.624 274.151,21.571 273.48,21.688 C271.721,22.068 270.139,23.349 268.924,25.158 C266.449,28.84 265.864,33.943 268.268,37.393 C271.317,41.77 275.426,42.122 278.249,39.004 C279.32,37.821 280.059,36.242 280.216,34.711 C280.461,32.318 279.219,30.126 276.869,29.922 C275.416,29.797 273.576,30.33 273.464,31.965 C273.447,32.697 274.154,34.142 274.598,34.708 L274.552,34.767 C274.319,35.024 274.117,35.121 273.961,35.108 C273.848,35.098 273.701,35.042 273.5,34.902 C273.181,34.678 272.816,34.296 272.422,33.73 C271.709,32.707 271.964,30.479 273.134,28.738 C273.622,28.012 274.141,27.591 274.473,27.52 C274.528,27.508 274.548,27.51 274.58,27.525 C274.69,27.578 274.85,27.723 275.052,28.018 C275.94,29.318 277.597,29.561 278.752,28.561 C279.908,27.562 280.124,25.698 279.235,24.398 C278.073,22.796 276.572,21.665 274.69,21.576 z M261.985,21.891 C260.706,21.907 261.279,21.891 260.264,21.928 C257.526,22.056 255.439,22.534 253.774,23.705 C252.538,24.574 252.162,26.405 252.934,27.795 C253.707,29.186 255.335,29.608 256.571,28.739 C257.117,28.354 257.756,28.239 258.374,28.099 C258.165,29.576 258.248,31.073 258.327,32.558 C258.331,32.63 258.335,32.686 258.342,32.812 C258.444,34.573 258.458,35.3 258.376,36.034 C258.195,37.661 259.221,39.145 260.667,39.348 C262.113,39.551 263.432,38.397 263.613,36.77 C263.751,35.53 263.733,34.575 263.609,32.426 C263.601,32.301 263.598,32.246 263.594,32.176 C263.462,29.872 263.514,28.833 263.818,28.082 L263.889,27.845 C264.349,27.849 264.145,27.848 264.502,27.849 C265.959,27.849 267.141,26.52 267.141,24.88 C267.141,23.241 265.959,21.912 264.502,21.912 C264.212,21.912 263.997,21.91 263.361,21.902 C262.562,21.893 263.02,21.897 261.985,21.891 z" fill="#FFFFFF" fill-opacity="0.109"/>
    <text transform="matrix(1, 0, 0, 1, 247.23, 46.986)">
      <tspan x="-14.536" y="2" font-family="HelveticaNeue" font-size="8" kerning="0" fill="#FFFFFF" fill-opacity="0.25">©</tspan>
      <tspan x="-8.136" y="2" font-family="AvenirNext-Bold" font-size="8" fill="#FFFFFF" fill-opacity="0.25"> 2019</tspan>
    </text>
  </g>
</svg>
