<?xml version="1.0" encoding="UTF-8"?>
<!DOCTYPE svg PUBLIC "-//W3C//DTD SVG 1.1//EN" "http://www.w3.org/Graphics/SVG/1.1/DTD/svg11.dtd">
<svg version="1.1" xmlns="http://www.w3.org/2000/svg" xmlns:xlink="http://www.w3.org/1999/xlink" x="0" y="0" width="512" height="512" viewBox="0, 0, 512, 512">
  <g id="Layer_1">
    <g>
      <text transform="matrix(1, 0, 0, 1, 256, 256)">
        <tspan x="-151.968" y="-22.5" font-family="Cochin-BoldItalic" font-size="96" fill="#626262" fill-opacity="0">Coming </tspan>
        <tspan x="-107.088" y="87.5" font-family="Cochin-BoldItalic" font-size="96" fill="#626262" fill-opacity="0">Soon.</tspan>
      </text>
      <path d="M160.672,194.716 L158.56,194.716 Q158.56,190.204 157.984,186.172 Q157.408,182.14 155.968,179.116 Q154.528,176.092 152.08,174.268 Q149.632,172.444 145.888,172.444 Q140.896,172.444 136.384,176.044 Q131.872,179.644 128.416,185.404 Q124.96,191.164 122.944,198.22 Q120.928,205.276 120.928,212.188 Q120.928,215.548 121.744,218.524 Q122.56,221.5 124.24,223.756 Q125.92,226.012 128.56,227.356 Q131.2,228.7 134.848,228.7 Q138.976,228.7 142.192,227.212 Q145.408,225.724 148.048,223.42 Q150.688,221.116 153.088,218.236 Q155.488,215.356 157.888,212.572 L159.712,214.396 Q155.68,220.156 151.792,224.14 Q147.904,228.124 143.92,230.62 Q139.936,233.116 135.856,234.268 Q131.776,235.42 127.264,235.42 Q117.664,235.42 112.384,229.804 Q107.104,224.188 107.104,214.012 Q107.104,205.564 110.608,197.5 Q114.112,189.436 120.016,183.148 Q125.92,176.86 133.744,173.02 Q141.568,169.18 150.208,169.18 Q155.392,169.18 159.52,170.14 Q163.648,171.1 166.336,172.732 z M164.128,225.82 Q164.128,220.54 166.816,215.212 Q169.504,209.884 173.776,205.564 Q178.048,201.244 183.376,198.556 Q188.704,195.868 193.984,195.868 Q199.168,195.868 202.192,198.268 Q205.216,200.668 205.216,206.14 Q205.216,209.692 203.824,213.196 Q202.432,216.7 200.128,219.868 Q197.824,223.036 194.848,225.724 Q191.872,228.412 188.704,230.428 Q185.536,232.444 182.416,233.548 Q179.296,234.652 176.608,234.652 Q171.04,234.652 167.584,232.636 Q164.128,230.62 164.128,225.82 z M193.312,205.756 Q193.312,204.7 193.12,203.548 Q192.928,202.396 192.448,201.34 Q191.968,200.284 191.152,199.612 Q190.336,198.94 189.088,198.94 Q187.552,198.94 185.968,200.38 Q184.384,201.82 182.944,204.172 Q181.504,206.524 180.256,209.404 Q179.008,212.284 178.048,215.212 Q177.088,218.14 176.56,220.78 Q176.032,223.42 176.032,225.148 Q176.032,226.012 176.224,227.164 Q176.416,228.316 176.848,229.276 Q177.28,230.236 178.048,230.908 Q178.816,231.58 180.064,231.58 Q181.888,231.58 183.568,230.044 Q185.248,228.508 186.688,226.156 Q188.128,223.804 189.376,220.828 Q190.624,217.852 191.488,215.02 Q192.352,212.188 192.832,209.692 Q193.312,207.196 193.312,205.756 z M229.312,197.02 L222.496,212.572 L222.784,212.572 Q224.416,209.884 226.48,206.956 Q228.544,204.028 231.136,201.58 Q233.728,199.132 236.752,197.5 Q239.776,195.868 243.232,195.868 Q244.576,195.868 245.92,196.108 Q247.264,196.348 248.32,196.972 Q249.376,197.596 250.096,198.652 Q250.816,199.708 250.816,201.244 Q250.816,202.492 250.384,203.98 Q249.952,205.468 249.328,207.052 Q248.704,208.636 248.08,210.172 Q247.456,211.708 247.072,212.956 L247.264,213.148 Q248.992,210.556 251.2,207.532 Q253.408,204.508 256.048,201.916 Q258.688,199.324 261.76,197.596 Q264.832,195.868 268.288,195.868 Q269.632,195.868 270.928,196.156 Q272.224,196.444 273.328,197.116 Q274.432,197.788 275.104,198.892 Q275.776,199.996 275.776,201.532 Q275.776,202.78 275.2,204.7 Q274.624,206.62 273.712,208.876 Q272.8,211.132 271.792,213.532 Q270.784,215.932 269.872,218.092 Q268.96,220.252 268.384,222.076 Q267.808,223.9 267.808,224.956 Q267.808,226.876 268.864,227.692 Q269.92,228.508 271.84,228.508 Q273.952,228.508 275.344,227.788 Q276.736,227.068 277.648,226.204 Q278.56,225.34 279.136,224.62 Q279.712,223.9 280.288,223.9 Q280.864,223.9 280.864,224.572 Q280.864,225.244 279.52,226.924 Q278.176,228.604 275.92,230.332 Q273.664,232.06 270.736,233.356 Q267.808,234.652 264.736,234.652 Q263.2,234.652 261.616,234.268 Q260.032,233.884 258.784,233.068 Q257.536,232.252 256.72,230.956 Q255.904,229.66 255.904,227.932 Q255.904,227.164 256.432,225.436 Q256.96,223.708 257.728,221.452 Q258.496,219.196 259.408,216.7 Q260.32,214.204 261.088,211.996 Q261.856,209.788 262.384,208.012 Q262.912,206.236 262.912,205.468 Q262.912,204.028 262.096,203.5 Q261.28,202.972 259.936,202.972 Q258.592,202.972 257.296,203.74 Q256,204.508 254.896,205.66 Q253.792,206.812 252.832,208.06 Q251.872,209.308 251.2,210.364 Q249.376,213.148 247.984,215.884 Q246.592,218.62 245.44,221.452 Q244.288,224.284 243.328,227.26 Q242.368,230.236 241.312,233.5 L230.08,233.5 Q230.656,231.292 232.096,227.116 Q233.536,222.94 235.072,218.476 Q236.608,214.012 237.76,210.124 Q238.912,206.236 238.912,204.508 Q238.912,203.068 237.952,202.54 Q236.992,202.012 235.744,202.012 Q233.344,202.012 231.088,204.124 Q228.832,206.236 226.96,209.164 Q225.088,212.092 223.696,215.212 Q222.304,218.332 221.632,220.444 L217.312,233.5 L206.176,233.5 L218.08,197.02 z M305.056,197.02 L296.704,219.196 Q296.032,220.828 295.456,222.364 Q294.88,223.9 294.88,224.956 Q294.88,226.876 296.128,227.788 Q297.376,228.7 299.008,228.7 Q301.216,228.7 302.704,227.98 Q304.192,227.26 305.2,226.348 Q306.208,225.436 306.832,224.716 Q307.456,223.996 307.936,223.996 Q308.512,223.996 308.512,224.764 Q308.512,225.052 307.072,226.636 Q305.632,228.22 303.328,229.996 Q301.024,231.772 298.144,233.212 Q295.264,234.652 292.48,234.652 Q290.944,234.652 289.312,234.268 Q287.68,233.884 286.288,233.116 Q284.896,232.348 284.032,231.004 Q283.168,229.66 283.168,227.836 Q283.168,226.972 283.456,225.82 Q283.744,224.668 284.128,223.324 Q284.512,221.98 284.992,220.684 Q285.472,219.388 285.856,218.236 L293.44,197.02 z M299.776,177.916 Q299.776,176.476 300.352,175.036 Q300.928,173.596 301.936,172.54 Q302.944,171.484 304.336,170.812 Q305.728,170.14 307.456,170.14 Q310.048,170.14 311.536,171.58 Q313.024,173.02 313.024,175.516 Q313.024,177.052 312.448,178.444 Q311.872,179.836 310.864,180.94 Q309.856,182.044 308.464,182.716 Q307.072,183.388 305.344,183.388 Q302.752,183.388 301.264,181.948 Q299.776,180.508 299.776,177.916 z M322.144,197.02 L333.664,197.02 L326.752,214.396 L326.944,214.492 Q328.672,211.9 330.976,208.636 Q333.28,205.372 336.064,202.54 Q338.848,199.708 342.064,197.788 Q345.28,195.868 348.832,195.868 Q351.904,195.868 354.256,197.5 Q356.608,199.132 356.608,202.492 Q356.608,204.124 355.264,207.628 Q353.92,211.132 352.288,214.828 Q350.656,218.524 349.312,221.692 Q347.968,224.86 347.968,225.82 Q347.968,227.74 349.024,228.508 Q350.08,229.276 351.904,229.276 Q353.344,229.276 354.544,228.652 Q355.744,228.028 356.704,227.308 Q357.664,226.588 358.384,226.012 Q359.104,225.436 359.584,225.436 Q359.968,225.436 359.968,226.012 Q359.968,226.396 358.672,227.788 Q357.376,229.18 355.216,230.716 Q353.056,232.252 350.128,233.452 Q347.2,234.652 344.032,234.652 Q342.592,234.652 341.104,234.412 Q339.616,234.172 338.368,233.596 Q337.12,233.02 336.304,231.964 Q335.488,230.908 335.488,229.18 Q335.488,228.124 336.112,226.252 Q336.736,224.38 337.696,222.076 Q338.656,219.772 339.712,217.276 Q340.768,214.78 341.728,212.572 Q342.688,210.364 343.312,208.588 Q343.936,206.812 343.936,206.044 Q343.936,203.164 340.96,203.164 Q339.136,203.164 337.264,204.508 Q335.392,205.852 333.712,207.82 Q332.032,209.788 330.592,211.948 Q329.152,214.108 328.096,215.74 Q326.08,218.908 324.16,223.804 Q322.24,228.7 320.512,233.5 L309.664,233.5 z M406.72,195.292 Q405.184,199.708 403.552,204.556 Q401.92,209.404 400.336,214.156 Q398.752,218.908 397.264,223.228 Q395.776,227.548 394.432,230.812 Q392.32,235.9 389.344,240.46 Q386.368,245.02 382.48,248.476 Q378.592,251.932 373.744,253.948 Q368.896,255.964 363.136,255.964 Q360.064,255.964 358,255.532 Q355.936,255.1 354.736,254.236 Q353.536,253.372 353.056,252.124 Q352.576,250.876 352.576,249.148 Q352.576,247.228 353.968,245.644 Q355.36,244.06 357.28,244.06 Q358.912,244.06 359.872,244.444 Q360.832,244.828 361.312,245.404 Q361.792,245.98 361.936,246.748 Q362.08,247.516 362.176,248.284 Q362.368,250.492 362.944,252.076 Q363.52,253.66 366.112,253.66 Q368.224,253.66 370.336,251.74 Q372.448,249.82 374.512,246.844 Q376.576,243.868 378.496,240.22 Q380.416,236.572 382.048,233.068 Q383.68,229.564 385.072,226.588 Q386.464,223.612 387.424,222.076 L387.136,221.98 Q385.696,223.9 383.632,226.156 Q381.568,228.412 379.12,230.284 Q376.672,232.156 374.032,233.404 Q371.392,234.652 368.8,234.652 Q365.344,234.652 363.088,233.068 Q360.832,231.484 360.832,227.644 Q360.832,223.612 362.56,219.724 Q364.288,215.836 366.976,212.284 Q369.664,208.732 372.976,205.756 Q376.288,202.78 379.456,200.572 Q382.624,198.364 385.216,197.116 Q387.808,195.868 389.152,195.868 Q390.496,195.868 391.696,196.3 Q392.896,196.732 393.856,197.212 Q394.816,197.692 395.488,198.124 Q396.16,198.556 396.544,198.556 Q396.928,198.556 397.888,198.268 Q398.848,197.98 400.192,197.5 z M373.312,224.572 Q373.312,226.78 373.888,227.644 Q374.464,228.508 376.096,228.508 Q378.304,228.508 380.224,227.212 Q382.144,225.916 383.824,223.852 Q385.504,221.788 386.896,219.244 Q388.288,216.7 389.344,214.156 Q390.4,211.612 391.168,209.308 Q391.936,207.004 392.416,205.564 Q391.36,203.356 389.248,202.108 Q387.136,200.86 384.736,200.86 Q383.392,200.86 382,202.156 Q380.608,203.452 379.36,205.564 Q378.112,207.676 377.008,210.316 Q375.904,212.956 375.088,215.596 Q374.272,218.236 373.792,220.588 Q373.312,222.94 373.312,224.572 z M153.424,318.348 Q153.328,319.692 153.232,320.844 Q153.136,321.996 153.136,323.148 Q153.136,327.564 154.288,331.02 Q155.44,334.476 157.504,336.924 Q159.568,339.372 162.4,340.668 Q165.232,341.964 168.592,341.964 Q171.28,341.964 173.68,341.148 Q176.08,340.332 177.952,338.748 Q179.824,337.164 180.928,334.956 Q182.032,332.748 182.032,329.868 Q182.032,326.316 180.448,323.628 Q178.864,320.94 176.464,318.78 Q174.064,316.62 171.232,314.604 Q168.4,312.588 166,310.332 Q163.6,308.076 162.016,305.244 Q160.432,302.412 160.432,298.572 Q160.432,294.252 162.688,290.7 Q164.944,287.148 168.4,284.604 Q171.856,282.06 176.08,280.62 Q180.304,279.18 184.144,279.18 Q189.04,279.18 193.696,280.572 Q198.352,281.964 202.672,284.172 Q200.752,288.684 199.648,293.244 Q198.544,297.804 197.68,302.508 L195.952,302.028 Q195.664,297.42 195.04,293.772 Q194.416,290.124 193.072,287.676 Q191.728,285.228 189.28,283.932 Q186.832,282.636 182.896,282.636 Q180.784,282.636 178.864,283.452 Q176.944,284.268 175.456,285.612 Q173.968,286.956 173.056,288.828 Q172.144,290.7 172.144,292.812 Q172.144,296.364 173.728,298.956 Q175.312,301.548 177.712,303.756 Q180.112,305.964 182.944,307.932 Q185.776,309.9 188.176,312.252 Q190.576,314.604 192.16,317.532 Q193.744,320.46 193.744,324.492 Q193.744,329.58 191.44,333.468 Q189.136,337.356 185.488,340.044 Q181.84,342.732 177.232,344.076 Q172.624,345.42 168.112,345.42 Q165.232,345.42 162.448,344.748 Q159.664,344.076 156.976,343.116 Q154.288,342.156 151.6,341.244 Q148.912,340.332 146.128,339.756 Q147.76,334.284 148.96,328.764 Q150.16,323.244 151.408,317.676 z M200.176,335.82 Q200.176,330.54 202.864,325.212 Q205.552,319.884 209.824,315.564 Q214.096,311.244 219.424,308.556 Q224.752,305.868 230.032,305.868 Q235.216,305.868 238.24,308.268 Q241.264,310.668 241.264,316.14 Q241.264,319.692 239.872,323.196 Q238.48,326.7 236.176,329.868 Q233.872,333.036 230.896,335.724 Q227.92,338.412 224.752,340.428 Q221.584,342.444 218.464,343.548 Q215.344,344.652 212.656,344.652 Q207.088,344.652 203.632,342.636 Q200.176,340.62 200.176,335.82 z M229.36,315.756 Q229.36,314.7 229.168,313.548 Q228.976,312.396 228.496,311.34 Q228.016,310.284 227.2,309.612 Q226.384,308.94 225.136,308.94 Q223.6,308.94 222.016,310.38 Q220.432,311.82 218.992,314.172 Q217.552,316.524 216.304,319.404 Q215.056,322.284 214.096,325.212 Q213.136,328.14 212.608,330.78 Q212.08,333.42 212.08,335.148 Q212.08,336.012 212.272,337.164 Q212.464,338.316 212.896,339.276 Q213.328,340.236 214.096,340.908 Q214.864,341.58 216.112,341.58 Q217.936,341.58 219.616,340.044 Q221.296,338.508 222.736,336.156 Q224.176,333.804 225.424,330.828 Q226.672,327.852 227.536,325.02 Q228.4,322.188 228.88,319.692 Q229.36,317.196 229.36,315.756 z M242.8,335.82 Q242.8,330.54 245.488,325.212 Q248.176,319.884 252.448,315.564 Q256.72,311.244 262.048,308.556 Q267.376,305.868 272.656,305.868 Q277.84,305.868 280.864,308.268 Q283.888,310.668 283.888,316.14 Q283.888,319.692 282.496,323.196 Q281.104,326.7 278.8,329.868 Q276.496,333.036 273.52,335.724 Q270.544,338.412 267.376,340.428 Q264.208,342.444 261.088,343.548 Q257.968,344.652 255.28,344.652 Q249.712,344.652 246.256,342.636 Q242.8,340.62 242.8,335.82 z M271.984,315.756 Q271.984,314.7 271.792,313.548 Q271.6,312.396 271.12,311.34 Q270.64,310.284 269.824,309.612 Q269.008,308.94 267.76,308.94 Q266.224,308.94 264.64,310.38 Q263.056,311.82 261.616,314.172 Q260.176,316.524 258.928,319.404 Q257.68,322.284 256.72,325.212 Q255.76,328.14 255.232,330.78 Q254.704,333.42 254.704,335.148 Q254.704,336.012 254.896,337.164 Q255.088,338.316 255.52,339.276 Q255.952,340.236 256.72,340.908 Q257.488,341.58 258.736,341.58 Q260.56,341.58 262.24,340.044 Q263.92,338.508 265.36,336.156 Q266.8,333.804 268.048,330.828 Q269.296,327.852 270.16,325.02 Q271.024,322.188 271.504,319.692 Q271.984,317.196 271.984,315.756 z M297.712,307.02 L309.232,307.02 L302.32,324.396 L302.512,324.492 Q304.24,321.9 306.544,318.636 Q308.848,315.372 311.632,312.54 Q314.416,309.708 317.632,307.788 Q320.848,305.868 324.4,305.868 Q327.472,305.868 329.824,307.5 Q332.176,309.132 332.176,312.492 Q332.176,314.124 330.832,317.628 Q329.488,321.132 327.856,324.828 Q326.224,328.524 324.88,331.692 Q323.536,334.86 323.536,335.82 Q323.536,337.74 324.592,338.508 Q325.648,339.276 327.472,339.276 Q328.912,339.276 330.112,338.652 Q331.312,338.028 332.272,337.308 Q333.232,336.588 333.952,336.012 Q334.672,335.436 335.152,335.436 Q335.536,335.436 335.536,336.012 Q335.536,336.396 334.24,337.788 Q332.944,339.18 330.784,340.716 Q328.624,342.252 325.696,343.452 Q322.768,344.652 319.6,344.652 Q318.16,344.652 316.672,344.412 Q315.184,344.172 313.936,343.596 Q312.688,343.02 311.872,341.964 Q311.056,340.908 311.056,339.18 Q311.056,338.124 311.68,336.252 Q312.304,334.38 313.264,332.076 Q314.224,329.772 315.28,327.276 Q316.336,324.78 317.296,322.572 Q318.256,320.364 318.88,318.588 Q319.504,316.812 319.504,316.044 Q319.504,313.164 316.528,313.164 Q314.704,313.164 312.832,314.508 Q310.96,315.852 309.28,317.82 Q307.6,319.788 306.16,321.948 Q304.72,324.108 303.664,325.74 Q301.648,328.908 299.728,333.804 Q297.808,338.7 296.08,343.5 L285.232,343.5 z M345.04,343.884 Q342.256,343.884 340.432,342.492 Q338.608,341.1 338.608,338.028 Q338.608,336.3 339.088,334.764 Q339.568,333.228 340.48,331.98 Q341.392,330.732 342.784,330.012 Q344.176,329.292 346,329.292 Q348.976,329.292 350.608,330.972 Q352.24,332.652 352.24,335.628 Q352.24,337.068 351.712,338.556 Q351.184,340.044 350.272,341.244 Q349.36,342.444 348.016,343.164 Q346.672,343.884 345.04,343.884 z" fill-opacity="0" stroke="#007F7F" stroke-width="5"/>
    </g>
    <path d="M256.5,496.5 C123.952,496.5 16.5,389.048 16.5,256.5 C16.5,123.952 123.952,16.5 256.5,16.5 C389.048,16.5 496.5,123.952 496.5,256.5 C496.5,389.048 389.048,496.5 256.5,496.5 z" fill-opacity="0" stroke="#007F7F" stroke-width="32"/>
    <path d="M256.5,416.5 C168.134,416.5 96.5,344.865 96.5,256.5 C96.5,168.134 168.134,96.5 256.5,96.5 C344.866,96.5 416.5,168.134 416.5,256.5 C416.5,344.865 344.866,416.5 256.5,416.5 z" fill-opacity="0" stroke="#007F7F" stroke-width="16"/>
    <path d="M256.5,340.98 C209.843,340.98 172.02,303.157 172.02,256.5 C172.02,209.843 209.843,172.02 256.5,172.02 C303.157,172.02 340.98,209.843 340.98,256.5 C340.98,303.157 303.157,340.98 256.5,340.98 z" fill-opacity="0" stroke="#007F7F" stroke-width="8"/>
    <path d="M256.5,276.66 C245.366,276.66 236.34,267.634 236.34,256.5 C236.34,245.366 245.366,236.34 256.5,236.34 C267.634,236.34 276.66,245.366 276.66,256.5 C276.66,267.634 267.634,276.66 256.5,276.66 z" fill-opacity="0" stroke="#007F7F" stroke-width="4"/>
  </g>
</svg>
