<?xml version="1.0" encoding="UTF-8"?>
<!DOCTYPE svg PUBLIC "-//W3C//DTD SVG 1.1//EN" "http://www.w3.org/Graphics/SVG/1.1/DTD/svg11.dtd">
<svg version="1.1" xmlns="http://www.w3.org/2000/svg" xmlns:xlink="http://www.w3.org/1999/xlink" x="0" y="0" width="792" height="612" viewBox="0, 0, 792, 612">
  <g id="Background">
    <rect x="0" y="0" width="792" height="612" fill="#3A332E"/>
  </g>
  <defs>
    <radialGradient id="Gradient_1" gradientUnits="userSpaceOnUse" cx="396" cy="306" r="396">
      <stop offset="0" stop-color="#D1AB4F"/>
      <stop offset="1" stop-color="#803F3F"/>
    </radialGradient>
  </defs>
  <g id="Layer_9">
    <path d="M0,-0.515 L792,-0.515 L792,612.515 L0,612.515 z" fill="url(#Gradient_1)"/>
    <g>
      <path d="M388.496,732.592 C88.668,732.592 -154.389,652.19 -154.389,553.009 C-154.389,453.829 88.669,373.427 388.496,373.427 C688.323,373.427 931.381,453.829 931.381,553.009 C931.381,652.19 688.323,732.592 388.496,732.592 z" fill="#002300"/>
      <path d="M388.496,732.592 C88.668,732.592 -154.389,652.19 -154.389,553.009 C-154.389,453.829 88.669,373.427 388.496,373.427 C688.323,373.427 931.381,453.829 931.381,553.009 C931.381,652.19 688.323,732.592 388.496,732.592 z" fill-opacity="0" stroke="#000000" stroke-width="3"/>
    </g>
    <g>
      <path d="M669.549,160.698 C674.507,162.292 676.781,180.575 680.5,184.743 C684.219,188.911 682.86,171.893 686.912,176.92 C690.965,181.947 697.556,206.929 698.069,218.214 C698.582,229.5 703.693,225.968 713.096,224.367 C722.499,222.767 722.479,197.901 724.253,208.602 C726.026,219.304 732.609,205.748 735.409,210.058 C738.209,214.367 740.828,223.573 739.775,226.793 C738.722,230.013 729.686,219.196 725.577,224.69 C721.468,230.185 710.587,229.089 714.42,233.667 C718.253,238.245 714.534,248.013 714.534,248.013 C714.534,248.013 690.112,255.921 673.598,256.691 C657.083,257.46 632.086,244.24 624.571,238.919 C617.056,233.598 631.154,228.133 632.817,225.337 C634.481,222.542 625.934,215.984 620.691,206.177 C615.447,196.37 625.977,193.233 629.179,192.353 C632.381,191.472 640.014,198.934 638.609,204.418 C637.205,209.902 633.776,217.188 637.839,223.102 C641.903,229.015 650.079,216.446 649.803,206.968 C649.526,197.49 630.803,171.526 636.246,167.329 C641.688,163.131 664.59,159.104 669.549,160.698 z" fill="#290000"/>
      <path d="M669.549,160.698 C674.507,162.292 676.781,180.575 680.5,184.743 C684.219,188.911 682.86,171.893 686.912,176.92 C690.965,181.947 697.556,206.929 698.069,218.214 C698.582,229.5 703.693,225.968 713.096,224.367 C722.499,222.767 722.479,197.901 724.253,208.602 C726.026,219.304 732.609,205.748 735.409,210.058 C738.209,214.367 740.828,223.573 739.775,226.793 C738.722,230.013 729.686,219.196 725.577,224.69 C721.468,230.185 710.587,229.089 714.42,233.667 C718.253,238.245 714.534,248.013 714.534,248.013 C714.534,248.013 690.112,255.921 673.598,256.691 C657.083,257.46 632.086,244.24 624.571,238.919 C617.056,233.598 631.154,228.133 632.817,225.337 C634.481,222.542 625.934,215.984 620.691,206.177 C615.447,196.37 625.977,193.233 629.179,192.353 C632.381,191.472 640.014,198.934 638.609,204.418 C637.205,209.902 633.776,217.188 637.839,223.102 C641.903,229.015 650.079,216.446 649.803,206.968 C649.526,197.49 630.803,171.526 636.246,167.329 C641.688,163.131 664.59,159.104 669.549,160.698 z" fill-opacity="0" stroke="#000000" stroke-width="3"/>
    </g>
    <g>
      <path d="M649.598,221.728 C653.986,220.297 655.322,217.912 659.423,211.044 C663.525,204.176 669.058,183.667 673.255,176.608 C677.452,169.549 670.489,185.098 674.877,185.861 C679.265,186.624 680.5,184.743 680.5,184.743" fill="#000000"/>
      <path d="M649.598,221.728 C653.986,220.297 655.322,217.912 659.423,211.044 C663.525,204.176 669.058,183.667 673.255,176.608 C677.452,169.549 670.489,185.098 674.877,185.861 C679.265,186.624 680.5,184.743 680.5,184.743" fill-opacity="0" stroke="#000000" stroke-width="3"/>
    </g>
    <g>
      <path d="M678.788,220.011 C673.546,220.011 669.153,209.951 669.153,202.918 C669.153,195.885 673.403,190.183 678.645,190.183 C683.887,190.183 688.136,195.885 688.136,202.918 C688.136,209.951 684.03,220.011 678.788,220.011 z" fill="#FFFFFF"/>
      <path d="M678.788,220.011 C673.546,220.011 669.153,209.951 669.153,202.918 C669.153,195.885 673.403,190.183 678.645,190.183 C683.887,190.183 688.136,195.885 688.136,202.918 C688.136,209.951 684.03,220.011 678.788,220.011 z" fill-opacity="0" stroke="#000000" stroke-width="3"/>
    </g>
    <path d="M197.963,-36.626 C182.463,-50.626 75.463,97.374 175.463,146.374 C275.463,195.374 284.963,110.874 346.963,75.374 C408.963,39.874 458.463,111.874 530.963,73.374 C603.463,34.874 645.462,34.84 656.463,88.107 C667.463,141.374 837.58,126.374 735.022,65.374 C632.463,4.374 665.222,160.341 665.222,160.341" fill-opacity="0" stroke="#000000" stroke-width="1"/>
    <g>
      <path d="M365.786,136.421 C365.786,136.421 351.703,135.902 335.963,151.374 C320.224,166.846 320.117,176.581 320.395,193.117 C320.673,209.653 331.174,217.496 331.174,217.496 C331.174,217.496 330.63,223.14 304.189,225.87 C277.747,228.599 243.505,258.323 226.156,269.887 C208.807,281.452 183.452,292.524 176.23,294.129 C169.009,295.734 112.849,217.73 105.463,196.874 C98.078,176.018 99.463,176.874 99.463,176.874 C99.463,176.874 128.278,147.834 128.486,142.585 C128.694,137.335 122.935,127.225 116.463,126.874 C109.992,126.523 95.427,145.006 88.463,143.874 C81.5,142.741 83.147,101.062 74.798,98.962 C66.45,96.862 57.317,101.56 54.286,105.129 C51.254,108.697 75.766,145.153 65.19,135.473 C54.615,125.792 47.291,111.536 41.721,111.293 C36.152,111.049 29.99,118.632 28.92,122.909 C27.85,127.185 52.926,150.758 51.204,152.067 C49.481,153.377 28.51,145.117 25.783,147.551 C23.056,149.986 20.775,157.705 21.097,162.498 C21.419,167.291 41.059,167.054 49.012,171.207 C56.965,175.359 87.428,238.481 97.102,261.797 C106.777,285.114 125.87,347.153 135.915,355.102 C145.96,363.051 223.675,343.862 254.666,335.053 C285.656,326.243 314.549,315.696 314.549,315.696 L327.856,344.799 C327.856,344.799 298.389,338.527 279.969,341.426 C261.549,344.324 260.901,348.88 258.642,360.916 C256.383,372.952 254.08,380.834 258.783,398.203 C263.486,415.571 282.652,425.744 282.652,425.744 C282.652,425.744 277.245,426.07 266.598,425.448 C255.952,424.827 235.395,430.208 228.238,433.76 C221.082,437.311 216.758,453.935 223.333,454.556 C229.907,455.177 250.298,453.828 267.116,453.426 C283.935,453.025 330.714,458.833 339.181,454.422 C347.648,450.011 350.688,438.675 347.339,424.755 C343.989,410.836 335.616,401.31 335.616,401.31 C335.616,401.31 359.093,397.804 371.236,396.678 C383.379,395.553 421.453,391.169 449.448,394.76 C477.443,398.351 504.431,398.639 508.48,397.957 C512.529,397.275 492.646,438.118 495.054,447.186 C497.461,456.253 578.078,464.438 584.586,460.669 C591.094,456.899 595.683,449.759 590.913,440.845 C586.144,431.93 581.281,431.176 573.057,426.925 C564.834,422.674 541.704,417.786 541.704,417.786 C541.704,417.786 576.152,367.124 570.708,348.728 C565.265,330.333 559.039,329.197 550.421,325.675 C541.802,322.153 495.05,333.036 495.05,333.036 L467.95,339.56 C467.95,339.56 459.265,316.371 463.08,318.724 C466.896,321.077 547.649,322.185 590.011,329.279 C632.372,336.373 706.223,337.81 709.656,344.679 C713.09,351.548 727.606,359.026 738.823,373.542 C745.627,382.348 753.758,367.193 755.538,361.226 C757.317,355.259 731.504,336.966 729.995,331.501 C728.485,326.035 763.018,350.989 765.546,345.11 C768.074,339.232 770.581,332.951 769.328,327.844 C768.074,322.736 737.522,319.841 733.883,316.78 C730.245,313.719 765.692,313.525 767.213,309.003 C768.734,304.482 767.894,293.115 761.936,289.561 C755.978,286.007 731.046,303.97 720.551,303.17 C710.056,302.371 714.096,279.205 710.011,272.81 C705.925,266.416 692.231,270.556 694.099,277.123 C696.814,286.666 695.014,292.704 695.804,300.352 C696.594,308.001 677.501,303.726 677.501,303.726 C677.501,303.726 627.094,291.285 605.76,285.787 C584.426,280.288 559.114,269.719 525.803,258.508 C492.491,247.297 442.564,218.318 442.564,218.318 C442.564,218.318 451.245,200.962 449.282,183.294 C448.264,174.139 441.143,151.419 422.68,142.348 C394.18,128.345 365.786,136.421 365.786,136.421 z" fill="#B19B8B"/>
      <path d="M365.786,136.421 C365.786,136.421 351.703,135.902 335.963,151.374 C320.224,166.846 320.117,176.581 320.395,193.117 C320.673,209.653 331.174,217.496 331.174,217.496 C331.174,217.496 330.63,223.14 304.189,225.87 C277.747,228.599 243.505,258.323 226.156,269.887 C208.807,281.452 183.452,292.524 176.23,294.129 C169.009,295.734 112.849,217.73 105.463,196.874 C98.078,176.018 99.463,176.874 99.463,176.874 C99.463,176.874 128.278,147.834 128.486,142.585 C128.694,137.335 122.935,127.225 116.463,126.874 C109.992,126.523 95.427,145.006 88.463,143.874 C81.5,142.741 83.147,101.062 74.798,98.962 C66.45,96.862 57.317,101.56 54.286,105.129 C51.254,108.697 75.766,145.153 65.19,135.473 C54.615,125.792 47.291,111.536 41.721,111.293 C36.152,111.049 29.99,118.632 28.92,122.909 C27.85,127.185 52.926,150.758 51.204,152.067 C49.481,153.377 28.51,145.117 25.783,147.551 C23.056,149.986 20.775,157.705 21.097,162.498 C21.419,167.291 41.059,167.054 49.012,171.207 C56.965,175.359 87.428,238.481 97.102,261.797 C106.777,285.114 125.87,347.153 135.915,355.102 C145.96,363.051 223.675,343.862 254.666,335.053 C285.656,326.243 314.549,315.696 314.549,315.696 L327.856,344.799 C327.856,344.799 298.389,338.527 279.969,341.426 C261.549,344.324 260.901,348.88 258.642,360.916 C256.383,372.952 254.08,380.834 258.783,398.203 C263.486,415.571 282.652,425.744 282.652,425.744 C282.652,425.744 277.245,426.07 266.598,425.448 C255.952,424.827 235.395,430.208 228.238,433.76 C221.082,437.311 216.758,453.935 223.333,454.556 C229.907,455.177 250.298,453.828 267.116,453.426 C283.935,453.025 330.714,458.833 339.181,454.422 C347.648,450.011 350.688,438.675 347.339,424.755 C343.989,410.836 335.616,401.31 335.616,401.31 C335.616,401.31 359.093,397.804 371.236,396.678 C383.379,395.553 421.453,391.169 449.448,394.76 C477.443,398.351 504.431,398.639 508.48,397.957 C512.529,397.275 492.646,438.118 495.054,447.186 C497.461,456.253 578.078,464.438 584.586,460.669 C591.094,456.899 595.683,449.759 590.913,440.845 C586.144,431.93 581.281,431.176 573.057,426.925 C564.834,422.674 541.704,417.786 541.704,417.786 C541.704,417.786 576.152,367.124 570.708,348.728 C565.265,330.333 559.039,329.197 550.421,325.675 C541.802,322.153 495.05,333.036 495.05,333.036 L467.95,339.56 C467.95,339.56 459.265,316.371 463.08,318.724 C466.896,321.077 547.649,322.185 590.011,329.279 C632.372,336.373 706.223,337.81 709.656,344.679 C713.09,351.548 727.606,359.026 738.823,373.542 C745.627,382.348 753.758,367.193 755.538,361.226 C757.317,355.259 731.504,336.966 729.995,331.501 C728.485,326.035 763.018,350.989 765.546,345.11 C768.074,339.232 770.581,332.951 769.328,327.844 C768.074,322.736 737.522,319.841 733.883,316.78 C730.245,313.719 765.692,313.525 767.213,309.003 C768.734,304.482 767.894,293.115 761.936,289.561 C755.978,286.007 731.046,303.97 720.551,303.17 C710.056,302.371 714.096,279.205 710.011,272.81 C705.925,266.416 692.231,270.556 694.099,277.123 C696.814,286.666 695.014,292.704 695.804,300.352 C696.594,308.001 677.501,303.726 677.501,303.726 C677.501,303.726 627.094,291.285 605.76,285.787 C584.426,280.288 559.114,269.719 525.803,258.508 C492.491,247.297 442.564,218.318 442.564,218.318 C442.564,218.318 451.245,200.962 449.282,183.294 C448.264,174.139 441.143,151.419 422.68,142.348 C394.18,128.345 365.786,136.421 365.786,136.421 z" fill-opacity="0" stroke="#000000" stroke-width="3"/>
    </g>
    <path d="M35.154,167.893 C36.999,161.28 32.285,162.769 38.228,149.038" fill-opacity="0" stroke="#000000" stroke-width="1"/>
    <path d="M45.811,170.147 C43.147,171.992 48.066,170.352 48.271,152.727" fill-opacity="0" stroke="#000000" stroke-width="1"/>
    <path d="M38.228,130.388 C40.688,126.289 41.712,123.829 52.165,122.6" fill-opacity="0" stroke="#000000" stroke-width="1"/>
    <path d="M49.91,145.759 C49.91,145.759 56.673,147.808 64.052,133.667" fill-opacity="0" stroke="#000000" stroke-width="1"/>
    <path d="M64.052,115.222 C64.052,115.222 68.355,108.049 77.783,110.508" fill-opacity="0" stroke="#000000" stroke-width="1"/>
    <path d="M69.79,133.667 C62.002,130.388 77.168,138.995 81.677,133.667" fill-opacity="0" stroke="#000000" stroke-width="1"/>
    <path d="M94.179,145.862 C95.408,135.454 88.235,160.053 103.401,170.736" fill-opacity="0" stroke="#000000" stroke-width="1"/>
    <path d="M107.09,135.454 C107.09,135.454 106.27,149.093 117.952,155.186" fill-opacity="0" stroke="#000000" stroke-width="1"/>
    <path d="M77.783,196.175 C67.603,195.356 85.571,201.094 99.097,182.649" fill-opacity="0" stroke="#000000" stroke-width="1"/>
    <path d="M298.084,229.703 C324.354,244.032 339.346,274.78 320.082,316.573" fill-opacity="0" stroke="#000000" stroke-width="1"/>
    <path d="M336.133,217.21 C384.012,249.302 428.477,230.762 442.5,222.917" fill-opacity="0" stroke="#000000" stroke-width="1"/>
    <path d="M380.604,174.775 C380.604,174.775 376.475,198.493 380.234,201.641 C383.994,204.789 397.554,205.061 399.859,202.213 C402.164,199.366 399.994,174.775 399.994,174.775" fill-opacity="0" stroke="#000000" stroke-width="1"/>
    <path d="M378.654,190.183 C378.654,190.183 368.129,190.416 370.434,195.026 C372.739,199.637 371.163,209.129 374.909,208.315 C378.654,207.501 403.384,208.797 405.961,204.187 C408.537,199.576 410.164,190.145 407.045,191.365 L400.92,190.183" fill-opacity="0" stroke="#000000" stroke-width="1"/>
    <path d="M368.264,209.807 C371.79,213.197 396.604,214.417 411.656,206.959 C415.702,204.954 415.046,211.219 416.944,218.371 C418.842,225.523 367.993,227.84 363.383,224.112 C358.772,220.383 364.306,206.001 368.264,209.807 z" fill-opacity="0" stroke="#000000" stroke-width="1"/>
    <g>
      <path d="M374.095,217.265 C374.095,217.265 371.67,220.987 374.366,221.728 C383.045,224.112 412.469,222.325 412.198,218.371 C411.927,214.417 413.208,213.448 408.754,214.553 C398.91,216.993 374.095,217.265 374.095,217.265 z" fill="#FFFFFF"/>
      <path d="M374.095,217.265 C374.095,217.265 371.67,220.987 374.366,221.728 C383.045,224.112 412.469,222.325 412.198,218.371 C411.927,214.417 413.208,213.448 408.754,214.553 C398.91,216.993 374.095,217.265 374.095,217.265 z" fill-opacity="0" stroke="#000000" stroke-width="1"/>
    </g>
    <g>
      <path d="M356.266,167.893 C356.266,167.893 351.22,178.082 355.878,182.649 C360.536,187.216 375.48,185.069 376.256,182.649 C377.032,180.229 376.644,170.736 376.644,170.736 L356.266,167.893 z" fill="#FFFFFF"/>
      <path d="M356.266,167.893 C356.266,167.893 351.22,178.082 355.878,182.649 C360.536,187.216 375.48,185.069 376.256,182.649 C377.032,180.229 376.644,170.736 376.644,170.736 L356.266,167.893 z" fill-opacity="0" stroke="#000000" stroke-width="1"/>
    </g>
    <g>
      <path d="M408.754,174.775 C408.754,174.775 404.378,181.976 408.754,186.827 C413.13,191.679 421.087,190.127 424.775,186.439 C428.462,182.752 425.357,172.466 425.357,172.466 L408.754,174.775 z" fill="#FFFFFF"/>
      <path d="M408.754,174.775 C408.754,174.775 404.378,181.976 408.754,186.827 C413.13,191.679 421.087,190.127 424.775,186.439 C428.462,182.752 425.357,172.466 425.357,172.466 L408.754,174.775 z" fill-opacity="0" stroke="#000000" stroke-width="1"/>
    </g>
    <g>
      <path d="M359.177,152.727 C350.056,152.727 344.816,160.407 348.503,164.204 C352.191,168.001 372.957,171.335 376.644,170.736 C380.332,170.137 381.371,163.937 378.654,160.341 C375.937,156.746 368.299,152.727 359.177,152.727 z" fill="#290000"/>
      <path d="M359.177,152.727 C350.056,152.727 344.816,160.407 348.503,164.204 C352.191,168.001 372.957,171.335 376.644,170.736 C380.332,170.137 381.371,163.937 378.654,160.341 C375.937,156.746 368.299,152.727 359.177,152.727 z" fill-opacity="0" stroke="#000000" stroke-width="2"/>
    </g>
    <g>
      <path d="M400.92,160.341 C397.41,164.703 402.068,174.558 405.95,175.744 C409.831,176.93 431.568,173.841 433.12,172.466 C434.673,171.09 432.402,159.068 426.58,157.522 C420.757,155.976 404.429,155.98 400.92,160.341 z" fill="#290000"/>
      <path d="M400.92,160.341 C397.41,164.703 402.068,174.558 405.95,175.744 C409.831,176.93 431.568,173.841 433.12,172.466 C434.673,171.09 432.402,159.068 426.58,157.522 C420.757,155.976 404.429,155.98 400.92,160.341 z" fill-opacity="0" stroke="#000000" stroke-width="2"/>
    </g>
    <g>
      <path d="M368.105,204.187 C363.835,205.07 361.895,211.151 363.835,214.127 C365.776,217.103 382.661,222.337 386.736,220.011 C390.812,217.685 390.035,209.523 385.96,208.364 C381.884,207.205 372.375,203.303 368.105,204.187 z" fill="#290000"/>
      <path d="M368.105,204.187 C363.835,205.07 361.895,211.151 363.835,214.127 C365.776,217.103 382.661,222.337 386.736,220.011 C390.812,217.685 390.035,209.523 385.96,208.364 C381.884,207.205 372.375,203.303 368.105,204.187 z" fill-opacity="0" stroke="#000000" stroke-width="2"/>
    </g>
    <g>
      <path d="M396.828,208.364 C395.664,208.758 393.173,219.626 400.92,216.715 C408.667,213.804 412.354,214.192 414.489,212.057 C416.624,209.922 417.092,200.995 412.2,201.383 C407.308,201.771 397.993,207.97 396.828,208.364 z" fill="#290000"/>
      <path d="M396.828,208.364 C395.664,208.758 393.173,219.626 400.92,216.715 C408.667,213.804 412.354,214.192 414.489,212.057 C416.624,209.922 417.092,200.995 412.2,201.383 C407.308,201.771 397.993,207.97 396.828,208.364 z" fill-opacity="0" stroke="#000000" stroke-width="2"/>
    </g>
    <g>
      <path d="M385.184,225.873 C385.572,224.09 382.078,237.481 385.184,239.616 C388.289,241.751 398.607,240.392 400.92,238.451 C403.233,236.511 401.712,221.61 400.92,224.112 C400.127,226.613 384.795,227.657 385.184,225.873 z" fill="#290000"/>
      <path d="M385.184,225.873 C385.572,224.09 382.078,237.481 385.184,239.616 C388.289,241.751 398.607,240.392 400.92,238.451 C403.233,236.511 401.712,221.61 400.92,224.112 C400.127,226.613 384.795,227.657 385.184,225.873 z" fill-opacity="0" stroke="#000000" stroke-width="2"/>
    </g>
    <path d="M389.432,256.723 C389.432,256.723 392.392,328.08 402.147,373.427" fill-opacity="0" stroke="#000000" stroke-width="1"/>
    <path d="M342.785,301.542 C342.785,301.542 394.189,287.031 433.595,296.578" fill-opacity="0" stroke="#000000" stroke-width="1"/>
    <path d="M383.886,327.891 C383.886,327.891 384.73,321.399 416.996,324.454" fill-opacity="0" stroke="#000000" stroke-width="1"/>
    <path d="M383.886,346.984 C383.886,346.984 406.766,337.819 421.831,343.547" fill-opacity="0" stroke="#000000" stroke-width="1"/>
    <path d="M389.432,367.223 C406.809,367.604 400.397,366.077 416.996,361.113" fill-opacity="0" stroke="#000000" stroke-width="1"/>
    <path d="M172.473,305.742 C172.473,305.742 149.072,304.597 141.16,346.984" fill-opacity="0" stroke="#000000" stroke-width="1"/>
    <path d="M336.133,407.318 C336.133,407.318 330.947,382.687 304.217,373.427" fill-opacity="0" stroke="#000000" stroke-width="1"/>
    <path d="M336.133,346.984 C336.133,346.984 356.754,345.838 373.093,382.497" fill-opacity="0" stroke="#000000" stroke-width="1"/>
    <path d="M592.906,286.649 C592.906,286.649 582.214,298.765 591.379,316.573" fill-opacity="0" stroke="#000000" stroke-width="1"/>
    <path d="M696.124,309.836 C696.124,309.836 693.031,306.888 696.124,334" fill-opacity="0" stroke="#000000" stroke-width="1"/>
    <path d="M696.124,305.739 C696.124,305.739 697.406,311.791 715.006,305.739" fill-opacity="0" stroke="#000000" stroke-width="1"/>
    <path d="M699.218,293.325 C703.128,294.203 694.865,282.7 712.465,289.376" fill-opacity="0" stroke="#000000" stroke-width="1"/>
    <path d="M738.485,301.542 C738.485,301.542 741.541,307.365 740.013,312.85" fill-opacity="0" stroke="#000000" stroke-width="1"/>
    <path d="M740.441,323.636 C740.441,323.636 740.868,328.606 740.441,334" fill-opacity="0" stroke="#000000" stroke-width="1"/>
    <path d="M732.606,341.664 C732.606,341.664 727.938,340.492 723.083,350.802" fill-opacity="0" stroke="#000000" stroke-width="1"/>
    <path d="M732.606,361.113 C732.606,361.113 738.168,350.802 744.928,350.802" fill-opacity="0" stroke="#000000" stroke-width="1"/>
    <path d="M753.663,338.517 C753.663,338.517 749.56,330.839 756.767,325.574" fill-opacity="0" stroke="#000000" stroke-width="1"/>
    <path d="M756.767,308.429 C756.767,308.429 748.233,302.855 752.5,293.374" fill-opacity="0" stroke="#000000" stroke-width="1"/>
    <g>
      <path d="M381.863,95.988 C385.667,94.758 394.728,97.778 396.183,100.799 C397.637,103.819 391.149,108.406 395.064,105.609 C398.979,102.812 402.671,109.748 406.922,112.097 C411.173,114.447 439.028,106.616 439.923,110.084 C440.818,113.552 443.391,147.671 447.754,156.397 C452.117,165.123 446.076,180.784 441.489,183.805 C436.903,186.825 444.733,164.564 442.608,161.767 C440.482,158.97 435.113,165.458 434.441,160.76 C433.77,156.062 436.903,158.187 439.364,156.062 C441.825,153.936 437.014,118.25 435.225,115.453 C433.435,112.657 410.837,117.131 407.817,120.935 C404.796,124.739 397.861,132.122 394.84,134.807 C391.82,137.491 389.918,142.749 383.989,142.637 C378.06,142.526 368.999,134.247 368.663,130.667 C368.327,127.088 370.005,124.291 368.887,121.606 C367.768,118.921 346.961,117.915 342.598,118.809 C338.235,119.704 332.865,147.783 335.55,147.671 C338.235,147.56 345.283,143.532 349.086,146.329 C352.89,149.126 335.886,154.048 332.194,160.424 C328.502,166.801 333.984,182.239 331.747,185.483 C329.509,188.727 320.895,192.642 321.902,188.168 C322.909,183.693 322.014,167.136 324.699,160.648 C327.384,154.16 330.852,155.726 330.069,148.678 C329.285,141.631 334.431,109.748 339.13,109.301 C343.828,108.853 370.565,116.796 369.782,112.769 C368.999,108.741 376.718,102.365 379.067,102.141 C381.416,101.917 378.06,97.219 381.863,95.988 z" fill="#78BE0C"/>
      <path d="M381.863,95.988 C385.667,94.758 394.728,97.778 396.183,100.799 C397.637,103.819 391.149,108.406 395.064,105.609 C398.979,102.812 402.671,109.748 406.922,112.097 C411.173,114.447 439.028,106.616 439.923,110.084 C440.818,113.552 443.391,147.671 447.754,156.397 C452.117,165.123 446.076,180.784 441.489,183.805 C436.903,186.825 444.733,164.564 442.608,161.767 C440.482,158.97 435.113,165.458 434.441,160.76 C433.77,156.062 436.903,158.187 439.364,156.062 C441.825,153.936 437.014,118.25 435.225,115.453 C433.435,112.657 410.837,117.131 407.817,120.935 C404.796,124.739 397.861,132.122 394.84,134.807 C391.82,137.491 389.918,142.749 383.989,142.637 C378.06,142.526 368.999,134.247 368.663,130.667 C368.327,127.088 370.005,124.291 368.887,121.606 C367.768,118.921 346.961,117.915 342.598,118.809 C338.235,119.704 332.865,147.783 335.55,147.671 C338.235,147.56 345.283,143.532 349.086,146.329 C352.89,149.126 335.886,154.048 332.194,160.424 C328.502,166.801 333.984,182.239 331.747,185.483 C329.509,188.727 320.895,192.642 321.902,188.168 C322.909,183.693 322.014,167.136 324.699,160.648 C327.384,154.16 330.852,155.726 330.069,148.678 C329.285,141.631 334.431,109.748 339.13,109.301 C343.828,108.853 370.565,116.796 369.782,112.769 C368.999,108.741 376.718,102.365 379.067,102.141 C381.416,101.917 378.06,97.219 381.863,95.988 z" fill-opacity="0" stroke="#000000" stroke-width="3"/>
    </g>
    <path d="M383.886,101.754 C383.886,101.754 387.975,95.258 391.029,102.626" fill-opacity="0" stroke="#000000" stroke-width="1"/>
    <path d="M386.302,101.972 C387.393,106.626 387.181,97.535 389.432,102.626" fill-opacity="0" stroke="#000000" stroke-width="1"/>
    <g>
      <path d="M374.666,115.222 C374.666,115.222 377.793,107.281 386.302,106.044 C394.811,104.808 400.92,113.099 400.92,113.099 C400.92,113.099 395.465,121.509 388.775,121.535 C382.084,121.561 374.666,115.222 374.666,115.222 z" fill="#FFFFFF"/>
      <path d="M374.666,115.222 C374.666,115.222 377.793,107.281 386.302,106.044 C394.811,104.808 400.92,113.099 400.92,113.099 C400.92,113.099 395.465,121.509 388.775,121.535 C382.084,121.561 374.666,115.222 374.666,115.222 z" fill-opacity="0" stroke="#000000" stroke-width="1"/>
    </g>
    <g>
      <path d="M386.302,110.699 C382.738,112.372 383.399,120.59 389.432,120.008 C395.465,119.426 392.556,108.59 388.266,109.994" fill="#FFAC00"/>
      <path d="M386.302,110.699 C382.738,112.372 383.399,120.59 389.432,120.008 C395.465,119.426 392.556,108.59 388.266,109.994" fill-opacity="0" stroke="#000000" stroke-width="1"/>
    </g>
    <g>
      <path d="M387.718,114.535 C386.721,117.132 390.456,117.421 389.512,114.535" fill="#FFFFFF"/>
      <path d="M387.718,114.535 C386.721,117.132 390.456,117.421 389.512,114.535" fill-opacity="0" stroke="#000000" stroke-width="1"/>
    </g>
    <path d="M371.508,114.362 C371.508,114.362 374.497,116.679 371.508,121.362" fill-opacity="0" stroke="#000000" stroke-width="1"/>
    <path d="M403.764,112.933 C403.764,112.933 407.399,114.491 405.322,119.401" fill-opacity="0" stroke="#000000" stroke-width="1"/>
    <path d="M369.155,130.388 C369.155,130.388 376.662,127.635 377.843,130.388 C379.023,133.14 378.268,126.153 383.32,123.981 C388.372,121.809 392.164,123.556 392.865,126.2 C393.565,128.844 391.63,133.14 394.038,134.179" fill-opacity="0" stroke="#000000" stroke-width="1"/>
    <path d="M377.843,130.388 C377.843,130.388 379.967,130.699 379.495,133.667" fill-opacity="0" stroke="#000000" stroke-width="1"/>
    <path d="M392.865,131.083 C392.865,131.083 395.126,127.381 397.616,132.898" fill-opacity="0" stroke="#000000" stroke-width="1"/>
    <g>
      <path d="M162.57,182.368 C162.57,182.368 174.45,169.44 200.306,185.163 C226.162,200.887 223.018,207.176 228.608,229.189 C234.199,251.202 204.848,269.021 217.078,278.805 C229.307,288.588 293.947,293.829 312.466,306.757 C330.984,319.686 298.14,483.208 312.815,486.702 C327.49,490.196 366.974,491.594 348.106,495.787 C329.237,499.98 303.032,490.546 315.611,505.92 C328.189,521.294 308.972,534.921 301.984,534.222 C294.996,533.523 310.719,529.68 298.14,505.92 C285.562,482.16 287.658,519.547 269.489,519.547 C251.32,519.547 269.489,510.113 286.61,500.679 C303.731,491.245 237.693,509.414 267.392,496.835 C297.092,484.257 294.297,487.052 294.297,487.052 C294.297,487.052 296.044,354.277 285.212,330.168 C274.38,306.059 220.921,321.433 220.921,321.433 L212.186,367.205 L232.452,330.168 L242.584,352.18 L253.765,325.975 L255.862,351.831 C255.862,351.831 257.057,460.332 267.116,453.426 C277.176,446.521 307.924,461.609 290.104,461.609 C272.284,461.609 260.055,451.54 270.886,461.609 C281.718,471.678 288.357,493.341 278.224,484.257 C268.091,475.172 267.742,460.147 254.814,465.389 C241.886,470.63 239.09,469.931 224.765,476.919 C210.439,483.907 237.693,457.352 244.331,465.389 C250.97,473.425 203.8,461.609 220.222,461.609 C236.644,461.609 253.765,466.087 254.115,453.858 C254.464,441.629 237.693,388.519 237.693,388.519 L206.246,456.653 L189.125,436.388 L200.306,467.834 L183.884,454.207 L174.799,434.641 L170.606,455.256 L150.69,455.605 L136.364,394.109 C136.364,394.109 100.375,450.364 113.653,446.87 C126.93,443.376 133.22,460.147 137.063,465.389 C140.907,470.63 98.279,445.6 115.051,461.609 C131.822,477.618 88.656,461.268 100.026,473.774 C124.485,500.679 83.953,454.208 84.652,477.967 C85.351,501.727 99.327,455.192 67.531,458.4 C35.735,461.609 93.737,460.497 94.435,444.424 C95.134,428.351 95.134,404.941 95.134,404.941 C95.134,404.941 78.363,331.216 59.145,306.757 C39.928,282.299 32.241,291.034 32.241,291.034 C32.241,291.034 29.446,277.058 56.35,274.961 C83.254,272.865 39.928,271.678 60.543,256.723 C81.158,241.768 63.688,287.191 81.507,287.889 C99.327,288.588 72.073,266.576 86.748,253.298 C101.424,240.02 92.339,308.155 92.339,308.155 L107.364,341.698 L116.099,324.228 L121.942,337.418 C121.942,337.418 121.254,314.257 127.28,292.082 C136.015,259.937 111.556,277.407 126.232,196.344 C128.973,181.201 144.051,166.994 162.57,182.368 z" fill="#492C10"/>
      <path d="M162.57,182.368 C162.57,182.368 174.45,169.44 200.306,185.163 C226.162,200.887 223.018,207.176 228.608,229.189 C234.199,251.202 204.848,269.021 217.078,278.805 C229.307,288.588 293.947,293.829 312.466,306.757 C330.984,319.686 298.14,483.208 312.815,486.702 C327.49,490.196 366.974,491.594 348.106,495.787 C329.237,499.98 303.032,490.546 315.611,505.92 C328.189,521.294 308.972,534.921 301.984,534.222 C294.996,533.523 310.719,529.68 298.14,505.92 C285.562,482.16 287.658,519.547 269.489,519.547 C251.32,519.547 269.489,510.113 286.61,500.679 C303.731,491.245 237.693,509.414 267.392,496.835 C297.092,484.257 294.297,487.052 294.297,487.052 C294.297,487.052 296.044,354.277 285.212,330.168 C274.38,306.059 220.921,321.433 220.921,321.433 L212.186,367.205 L232.452,330.168 L242.584,352.18 L253.765,325.975 L255.862,351.831 C255.862,351.831 257.057,460.332 267.116,453.426 C277.176,446.521 307.924,461.609 290.104,461.609 C272.284,461.609 260.055,451.54 270.886,461.609 C281.718,471.678 288.357,493.341 278.224,484.257 C268.091,475.172 267.742,460.147 254.814,465.389 C241.886,470.63 239.09,469.931 224.765,476.919 C210.439,483.907 237.693,457.352 244.331,465.389 C250.97,473.425 203.8,461.609 220.222,461.609 C236.644,461.609 253.765,466.087 254.115,453.858 C254.464,441.629 237.693,388.519 237.693,388.519 L206.246,456.653 L189.125,436.388 L200.306,467.834 L183.884,454.207 L174.799,434.641 L170.606,455.256 L150.69,455.605 L136.364,394.109 C136.364,394.109 100.375,450.364 113.653,446.87 C126.93,443.376 133.22,460.147 137.063,465.389 C140.907,470.63 98.279,445.6 115.051,461.609 C131.822,477.618 88.656,461.268 100.026,473.774 C124.485,500.679 83.953,454.208 84.652,477.967 C85.351,501.727 99.327,455.192 67.531,458.4 C35.735,461.609 93.737,460.497 94.435,444.424 C95.134,428.351 95.134,404.941 95.134,404.941 C95.134,404.941 78.363,331.216 59.145,306.757 C39.928,282.299 32.241,291.034 32.241,291.034 C32.241,291.034 29.446,277.058 56.35,274.961 C83.254,272.865 39.928,271.678 60.543,256.723 C81.158,241.768 63.688,287.191 81.507,287.889 C99.327,288.588 72.073,266.576 86.748,253.298 C101.424,240.02 92.339,308.155 92.339,308.155 L107.364,341.698 L116.099,324.228 L121.942,337.418 C121.942,337.418 121.254,314.257 127.28,292.082 C136.015,259.937 111.556,277.407 126.232,196.344 C128.973,181.201 144.051,166.994 162.57,182.368 z" fill-opacity="0" stroke="#000000" stroke-width="3"/>
    </g>
    <path d="M235.698,345.975 L210.44,409.325" fill-opacity="0" stroke="#000000" stroke-width="1"/>
    <path d="M145.924,326.504 L122.458,385.888" fill-opacity="0" stroke="#000000" stroke-width="1"/>
    <g>
      <path d="M179.347,211.838 L182.733,277.984" fill="#003700"/>
      <path d="M179.347,211.838 L182.733,277.984" fill-opacity="0" stroke="#000000" stroke-width="1"/>
    </g>
    <g>
      <path d="M141.806,220.053 L149.299,282.879" fill="#003700"/>
      <path d="M141.806,220.053 L149.299,282.879" fill-opacity="0" stroke="#000000" stroke-width="1"/>
    </g>
    <g>
      <path d="M187.172,220.011 L191.057,291.907" fill="#003700"/>
      <path d="M187.172,220.011 L191.057,291.907" fill-opacity="0" stroke="#000000" stroke-width="1"/>
    </g>
    <g>
      <path d="M165.768,213.993 L172.234,285.41" fill="#003700"/>
      <path d="M165.768,213.993 L172.234,285.41" fill-opacity="0" stroke="#000000" stroke-width="1"/>
    </g>
    <g>
      <path d="M153.306,340.554 L161.322,457.473 C161.322,457.473 181.011,460.261 177.526,469.496 C174.042,478.731 185.367,454.615 185.367,454.615 C185.367,454.615 192.163,463.223 190.595,472.109 C189.027,480.996 206.8,454.664 206.8,454.664 C206.8,454.664 201.921,437.26 204.36,387.949 C206.8,338.637 213.769,300.826 208.542,289.849 C203.315,278.871 196.693,273.296 196.693,273.296 L188.155,304.137 L178.223,281.659 L173.693,311.455 L164.807,283.402 L161.322,312.85 L149.299,282.879 L142.503,295.773" fill="#492C10"/>
      <path d="M153.306,340.554 L161.322,457.473 C161.322,457.473 181.011,460.261 177.526,469.496 C174.042,478.731 185.367,454.615 185.367,454.615 C185.367,454.615 192.163,463.223 190.595,472.109 C189.027,480.996 206.8,454.664 206.8,454.664 C206.8,454.664 201.921,437.26 204.36,387.949 C206.8,338.637 213.769,300.826 208.542,289.849 C203.315,278.871 196.693,273.296 196.693,273.296 L188.155,304.137 L178.223,281.659 L173.693,311.455 L164.807,283.402 L161.322,312.85 L149.299,282.879 L142.503,295.773" fill-opacity="0" stroke="#000000" stroke-width="2"/>
    </g>
    <g>
      <path d="M145.924,213.993 L159.626,285.41" fill="#003700"/>
      <path d="M145.924,213.993 L159.626,285.41" fill-opacity="0" stroke="#000000" stroke-width="1"/>
    </g>
    <g>
      <path d="M150.844,175.744 C109.171,162.053 119.852,269.706 128.896,273.296 C137.94,276.885 115.064,307.79 121.138,339.635 C127.212,371.481 129.191,410.365 135.759,415.547 C142.328,420.729 127.166,332.97 128.896,326.504 C130.626,320.038 135.251,302.348 138.546,276.817 C141.84,251.286 116.904,234.843 141.806,208.322 C166.708,181.801 115.04,195.711 169.765,204.725 C224.49,213.74 184.417,183.039 198.115,213.993 C211.812,244.947 188.359,370.549 203.255,341.149 C218.151,311.749 215.406,303.861 210.44,295.736 C205.473,287.612 203.707,388.099 212.148,415.507 C220.589,442.915 210.106,286.881 223.027,260.794 C235.949,234.707 232.029,210.7 210.44,192.285 C183.287,169.124 192.518,189.434 150.844,175.744 z" fill="#003700"/>
      <path d="M150.844,175.744 C109.171,162.053 119.852,269.706 128.896,273.296 C137.94,276.885 115.064,307.79 121.138,339.635 C127.212,371.481 129.191,410.365 135.759,415.547 C142.328,420.729 127.166,332.97 128.896,326.504 C130.626,320.038 135.251,302.348 138.546,276.817 C141.84,251.286 116.904,234.843 141.806,208.322 C166.708,181.801 115.04,195.711 169.765,204.725 C224.49,213.74 184.417,183.039 198.115,213.993 C211.812,244.947 188.359,370.549 203.255,341.149 C218.151,311.749 215.406,303.861 210.44,295.736 C205.473,287.612 203.707,388.099 212.148,415.507 C220.589,442.915 210.106,286.881 223.027,260.794 C235.949,234.707 232.029,210.7 210.44,192.285 C183.287,169.124 192.518,189.434 150.844,175.744 z" fill-opacity="0" stroke="#000000" stroke-width="1"/>
    </g>
    <path d="M96.328,409.381 L103.401,426.98 L107.078,414.608 L111.488,425.76 L113.578,413.389 L122.117,424.192 L124.904,414.957 L133.248,421.23 L93.534,312.85" fill-opacity="0" stroke="#000000" stroke-width="2"/>
    <path d="M116.192,376.971 L142.503,289.849" fill-opacity="0" stroke="#000000" stroke-width="2"/>
    <path d="M136.927,391.259 L153.306,339.16 L142.503,289.849" fill-opacity="0" stroke="#000000" stroke-width="2"/>
    <path d="M239.209,391.259 L256.634,330.971" fill-opacity="0" stroke="#000000" stroke-width="2"/>
    <path d="M282.532,326.504 L281.63,312.85 L294.618,324.159 L293.536,309.727 L303.639,321.994 L303.639,309.907 L312.478,321.453 L314.463,308.103" fill-opacity="0" stroke="#000000" stroke-width="2"/>
    <path d="M119.434,338.12 C134.382,368.204 125.491,388.261 133.248,409.831 C141.005,431.401 135.139,347.959 128.895,334.903 C122.651,321.848 141.194,288.546 138.923,275.112 C136.653,261.678 128.895,249.947 128.517,238.973 C128.138,227.999 131.703,212.105 142.503,204.536 C153.303,196.968 169.765,204.726 169.765,204.726 C169.765,204.726 196.444,197.535 201.742,216.457 C207.039,235.378 196.254,336.985 200.039,339.444 C203.823,341.904 209.11,306.9 210.44,295.736 C211.77,284.573 209.878,413.048 212.148,415.507 C214.419,417.967 221.42,305.954 218.96,280.41 C216.5,254.867 232.55,220.661 200.306,185.163" fill-opacity="0" stroke="#000000" stroke-width="2"/>
    <g>
      <path d="M210.44,289.849 C214.986,273.296 214.986,236.135 203.255,201.698" fill="#003700"/>
      <path d="M210.44,289.849 C214.986,273.296 214.986,236.135 203.255,201.698" fill-opacity="0" stroke="#000000" stroke-width="2"/>
    </g>
    <g>
      <path d="M145.924,256.723 C158.791,280.6 183.577,272.391 193.416,256.723 C156.709,259.408 185.659,261.3 145.924,256.723 z" fill="#622D2D"/>
      <path d="M145.924,256.723 C158.791,280.6 183.577,272.391 193.416,256.723 C156.709,259.408 185.659,261.3 145.924,256.723 z" fill-opacity="0" stroke="#000000" stroke-width="2"/>
    </g>
    <g>
      <path d="M142.503,228.377 C146.492,235.946 157.277,222.701 159.926,228.188 C162.575,233.675 153.688,252.407 153.306,245.217 C152.925,238.027 138.515,220.809 142.503,228.377 z" fill="#000000"/>
      <path d="M142.503,228.377 C146.492,235.946 157.277,222.701 159.926,228.188 C162.575,233.675 153.688,252.407 153.306,245.217 C152.925,238.027 138.515,220.809 142.503,228.377 z" fill-opacity="0" stroke="#000000" stroke-width="2"/>
    </g>
    <g>
      <path d="M194.93,225.907 C186.605,241.234 184.902,224.961 177.901,227.799 C170.9,230.638 179.793,241.612 184.334,241.99 C188.875,242.369 203.255,210.581 194.93,225.907 z" fill="#000000"/>
      <path d="M194.93,225.907 C186.605,241.234 184.902,224.961 177.901,227.799 C170.9,230.638 179.793,241.612 184.334,241.99 C188.875,242.369 203.255,210.581 194.93,225.907 z" fill-opacity="0" stroke="#000000" stroke-width="2"/>
    </g>
    <path d="M159.926,217.971 C168.63,229.891 169.576,239.352 167.305,245.217 C165.035,251.083 158.791,250.515 161.629,254.488 C164.467,258.462 172.035,255.813 176.387,255.056 C180.739,254.299 172.603,248.055 172.225,245.217 C171.846,242.379 173.171,222.701 176.387,217.782" fill-opacity="0" stroke="#000000" stroke-width="2"/>
    <g>
      <path d="M175.307,190.183 C181.496,185.994 183.956,192.616 183.956,192.616 C183.956,192.616 190.389,182.588 193.416,187.318 C196.444,192.049 191.713,197.347 191.713,197.347 C191.713,197.347 201.931,198.103 203.255,204.915 C204.58,211.727 193.416,208.699 193.416,208.699 C193.416,208.699 202.12,213.241 193.416,217.782 C184.713,222.322 183.956,212.105 183.956,212.105 C183.956,212.105 183.498,220.727 175.307,220.011 C167.116,219.295 175.307,208.888 175.307,208.888 C175.307,208.888 165.224,208.321 165.791,201.698 C166.359,195.076 175.307,198.86 175.307,198.86 C175.307,198.86 169.118,194.372 175.307,190.183 z" fill="#A75858"/>
      <path d="M175.307,190.183 C181.496,185.994 183.956,192.616 183.956,192.616 C183.956,192.616 190.389,182.588 193.416,187.318 C196.444,192.049 191.713,197.347 191.713,197.347 C191.713,197.347 201.931,198.103 203.255,204.915 C204.58,211.727 193.416,208.699 193.416,208.699 C193.416,208.699 202.12,213.241 193.416,217.782 C184.713,222.322 183.956,212.105 183.956,212.105 C183.956,212.105 183.498,220.727 175.307,220.011 C167.116,219.295 175.307,208.888 175.307,208.888 C175.307,208.888 165.224,208.321 165.791,201.698 C166.359,195.076 175.307,198.86 175.307,198.86 C175.307,198.86 169.118,194.372 175.307,190.183 z" fill-opacity="0" stroke="#000000" stroke-width="2"/>
    </g>
    <g>
      <path d="M136.927,217.782 C130.977,220.809 149.33,212.105 156.709,214.376 C164.089,216.646 155.391,217.16 153.306,221.728 C151.222,226.296 142.878,214.754 136.927,217.782 z" fill="#003700"/>
      <path d="M136.927,217.782 C130.977,220.809 149.33,212.105 156.709,214.376 C164.089,216.646 155.391,217.16 153.306,221.728 C151.222,226.296 142.878,214.754 136.927,217.782 z" fill-opacity="0" stroke="#000000" stroke-width="2"/>
    </g>
    <g>
      <path d="M181.874,220.053 C172.603,221.376 190.2,219.842 194.93,225.907 C199.66,231.972 199.093,219.863 193.416,217.782 C187.74,215.7 191.146,218.73 181.874,220.053 z" fill="#003700"/>
      <path d="M181.874,220.053 C172.603,221.376 190.2,219.842 194.93,225.907 C199.66,231.972 199.093,219.863 193.416,217.782 C187.74,215.7 191.146,218.73 181.874,220.053 z" fill-opacity="0" stroke="#000000" stroke-width="2"/>
    </g>
    <g>
      <path d="M183.195,204.158 C180.998,204.158 179.217,202.506 179.217,200.468 C179.217,198.431 180.998,196.779 183.195,196.779 C185.392,196.779 187.172,198.431 187.172,200.468 C187.172,202.506 185.392,204.158 183.195,204.158 z" fill="#FFFF00"/>
      <path d="M183.195,204.158 C180.998,204.158 179.217,202.506 179.217,200.468 C179.217,198.431 180.998,196.779 183.195,196.779 C185.392,196.779 187.172,198.431 187.172,200.468 C187.172,202.506 185.392,204.158 183.195,204.158 z" fill-opacity="0" stroke="#000000" stroke-width="1"/>
    </g>
    <path d="M150.844,258.653 C158.224,265.843 161.795,260.545 169.576,264.518 C177.358,268.492 180.362,262.929 191.714,256.723" fill-opacity="0" stroke="#000000" stroke-width="1"/>
    <path d="M155.953,196.779 C155.953,196.779 128.896,193.881 128.896,227.591" fill-opacity="0" stroke="#000000" stroke-width="1"/>
    <path d="M155.953,186.05 C155.953,186.05 128.896,181.148 128.896,213.993" fill-opacity="0" stroke="#000000" stroke-width="1"/>
    <g>
      <path d="M172.234,203.172 C172.234,203.172 177.509,201.389 178.279,202.7" fill="#A75858"/>
      <path d="M172.234,203.172 C172.234,203.172 177.509,201.389 178.279,202.7" fill-opacity="0" stroke="#000000" stroke-width="1"/>
    </g>
    <g>
      <path d="M179.347,211.838 C179.347,211.838 178.199,207.776 182.733,205.226" fill="#A75858"/>
      <path d="M179.347,211.838 C179.347,211.838 178.199,207.776 182.733,205.226" fill-opacity="0" stroke="#000000" stroke-width="1"/>
    </g>
    <g>
      <path d="M189.865,209.353 C189.865,209.353 186.293,204.158 185.425,204.158" fill="#A75858"/>
      <path d="M189.865,209.353 C189.865,209.353 186.293,204.158 185.425,204.158" fill-opacity="0" stroke="#000000" stroke-width="1"/>
    </g>
    <g>
      <path d="M194.823,203.693 C194.823,203.693 189.723,199.832 187.172,202.854" fill="#A75858"/>
      <path d="M194.823,203.693 C194.823,203.693 189.723,199.832 187.172,202.854" fill-opacity="0" stroke="#000000" stroke-width="1"/>
    </g>
    <g>
      <path d="M186.617,197.843 C186.617,197.843 184.445,193.189 191.057,190.183" fill="#A75858"/>
      <path d="M186.617,197.843 C186.617,197.843 184.445,193.189 191.057,190.183" fill-opacity="0" stroke="#000000" stroke-width="1"/>
    </g>
    <g>
      <path d="M177.664,194.701 C177.664,194.701 181.18,193.851 181.18,196.779" fill="#A75858"/>
      <path d="M177.664,194.701 C177.664,194.701 181.18,193.851 181.18,196.779" fill-opacity="0" stroke="#000000" stroke-width="1"/>
    </g>
    <g>
      <path d="M144.257,246.838 C141.806,236.386 138.271,222.036 135.759,240.09 C133.248,258.143 145.924,276.969 145.924,262.927 C145.924,249.502 136.927,238.547 138.394,245.027 C141.4,258.313 142.503,275.395 139.783,256.623" fill="#492C10" fill-opacity="0.297"/>
      <path d="M144.257,246.838 C141.806,236.386 138.271,222.036 135.759,240.09 C133.248,258.143 145.924,276.969 145.924,262.927 C145.924,249.502 136.927,238.547 138.394,245.027 C141.4,258.313 142.503,275.395 139.783,256.623" fill-opacity="0" stroke="#000000" stroke-width="1"/>
    </g>
    <g>
      <path d="M197.475,241.994 C200.732,232.838 191.485,255.678 198.115,260.766 C204.744,265.855 197.46,250.83 201.349,250.274 C205.707,249.651 198.115,226.494 197.475,255.327" fill="#492C10" fill-opacity="0.297"/>
      <path d="M197.475,241.994 C200.732,232.838 191.485,255.678 198.115,260.766 C204.744,265.855 197.46,250.83 201.349,250.274 C205.707,249.651 198.115,226.494 197.475,255.327" fill-opacity="0" stroke="#000000" stroke-width="1"/>
    </g>
    <g>
      <path d="M160.418,318.825 L170.028,437.403" fill="#003700"/>
      <path d="M160.418,318.825 L170.028,437.403" fill-opacity="0" stroke="#000000" stroke-width="1"/>
    </g>
    <g>
      <path d="M179.347,316.041 L178.279,426.98" fill="#003700"/>
      <path d="M179.347,316.041 L178.279,426.98" fill-opacity="0" stroke="#000000" stroke-width="1"/>
    </g>
    <path d="M194.823,308.103 C194.823,308.103 196.968,422.358 193.416,426.98" fill-opacity="0" stroke="#000000" stroke-width="1"/>
    <path d="M170.028,318.825 L172.234,418.724" fill-opacity="0" stroke="#000000" stroke-width="1"/>
    <path d="M243.124,359.666 L213.259,437.403 L233.378,373.427" fill-opacity="0" stroke="#000000" stroke-width="1"/>
    <path d="M250.55,379.158 L259.135,457.359" fill-opacity="0" stroke="#000000" stroke-width="1"/>
    <path d="M107.375,430.673 L100.645,454.664" fill-opacity="0" stroke="#000000" stroke-width="1"/>
    <path d="M52.147,282.879 C67.23,289.849 102.734,407.004 102.734,407.004" fill-opacity="0" stroke="#000000" stroke-width="1"/>
    <path d="M71.871,277.984 C64.445,305.366 116.192,391.259 116.192,391.259" fill-opacity="0" stroke="#000000" stroke-width="1"/>
    <path d="M88.811,293.996 L107.375,395.634" fill-opacity="0" stroke="#000000" stroke-width="1"/>
    <path d="M226.416,293.996 L300.818,302.118" fill-opacity="0" stroke="#000000" stroke-width="1"/>
    <g>
      <path d="M226.416,305.83 C246.837,305.366 289.07,312.85 289.07,312.85" fill="#492C10" fill-opacity="0.297"/>
      <path d="M226.416,305.83 C246.837,305.366 289.07,312.85 289.07,312.85" fill-opacity="0" stroke="#000000" stroke-width="1"/>
    </g>
    <g>
      <path d="M296.96,333.444 C296.96,333.444 308.158,481.082 300.818,491.033" fill="#492C10" fill-opacity="0.297"/>
      <path d="M296.96,333.444 C296.96,333.444 308.158,481.082 300.818,491.033" fill-opacity="0" stroke="#000000" stroke-width="1"/>
    </g>
    <g>
      <path d="M311.115,335.765 C311.115,335.765 297.97,496.731 309.026,507.676" fill="#492C10" fill-opacity="0.297"/>
      <path d="M311.115,335.765 C311.115,335.765 297.97,496.731 309.026,507.676" fill-opacity="0" stroke="#000000" stroke-width="1"/>
    </g>
    <g>
      <path d="M125.458,395.634 C84.164,388.571 70.716,363.919 81.196,357.326" fill="#492C10" fill-opacity="0.297"/>
      <path d="M125.458,395.634 C84.164,388.571 70.716,363.919 81.196,357.326" fill-opacity="0" stroke="#003700" stroke-width="6"/>
    </g>
    <path d="M100.645,326.504 C92.806,300.278 8.91,290.29 38.934,289.849 C68.957,289.408 92.016,519.887 58.904,499.147 C25.792,478.408 79.335,489.886 93.534,500.852 C107.733,511.819 90.022,525.431 116.192,522.771 C142.363,520.111 132.547,505.971 153.306,507.676 C174.066,509.38 172.234,534.248 172.234,534.248" fill-opacity="0" stroke="#003700" stroke-width="6"/>
    <path d="M220.824,305.81 C248.56,303.434 251.921,328.701 250.55,312.85" fill-opacity="0" stroke="#003700" stroke-width="6"/>
    <path d="M270.883,291.907 C305.413,286.983 285.881,335.765 285.881,335.765" fill-opacity="0" stroke="#003700" stroke-width="6"/>
    <path d="M320.082,345.975 C337.223,362.06 271.997,383.927 291.384,373.427" fill-opacity="0" stroke="#003700" stroke-width="6"/>
    <path d="M314.463,407.004 C339.519,412.302 254.928,447.492 293.563,437.403" fill-opacity="0" stroke="#003700" stroke-width="6"/>
    <path d="M314.463,480.603 C300.976,498.162 316.627,556.362 323.873,537.626 C331.119,518.891 257.99,525.381 230.417,512.503 C202.843,499.625 214.1,506.036 185.425,495.514 C156.751,484.993 210.027,477.131 245.21,488.988 C280.394,500.845 240.584,514.407 218.421,512.503 C196.258,510.6 177.664,526.13 177.664,526.13" fill-opacity="0" stroke="#003700" stroke-width="6"/>
    <g>
      <path d="M142.503,385.888 L159.626,437.403" fill="#492C10"/>
      <path d="M142.503,385.888 L159.626,437.403" fill-opacity="0" stroke="#000000" stroke-width="1"/>
    </g>
    <g>
      <path d="M116.192,342.93 L116.192,359.666" fill="#492C10"/>
      <path d="M116.192,342.93 L116.192,359.666" fill-opacity="0" stroke="#000000" stroke-width="1"/>
    </g>
    <g>
      <path d="M601.886,342.558 C622.243,358.189 626.919,330.425 637.034,345.329 C647.15,360.233 633.729,398.413 641.663,411.863 C649.598,425.313 642.971,444.782 654.45,434.26 C658.897,430.184 652.013,458.07 635.248,444.873 C628.147,439.284 632.168,477.912 631.661,492.806 C631.472,498.371 619.251,490.768 613.875,491.88 C604.629,493.792 626.246,430.963 616.781,423.656 C606.22,415.504 595.904,475.576 603.131,484.566 C612.559,496.294 592.013,482.801 584.231,490.398 C581.418,493.144 596.202,426.98 596.202,426.98 C592.203,414.257 572.374,434.63 572.374,434.63 C572.374,434.63 567.927,509.295 572.374,510.407 C576.821,511.519 547.547,515.224 553.661,508.925 C559.775,502.626 560.516,440.003 556.811,429.258 C553.106,418.512 540.322,423.143 537.913,426.849 C535.505,430.554 534.208,501.143 536.987,506.887 C533.467,512.26 512.16,507.443 518.83,504.664 C525.5,501.885 528.464,441.485 524.203,424.07 C519.942,406.654 513.422,377.557 519.757,360.707 C533.993,322.836 535.311,293.251 533.016,296.808 C530.722,300.364 520.876,284.833 524.897,281.584 C528.918,278.335 534.063,267.548 534.063,267.548 C534.063,267.548 529.968,227.769 535.384,218.321 C540.801,208.873 524.208,203.974 524.559,194.471 C524.91,184.968 542.868,205.764 539.782,195.147 C536.696,184.531 539.725,176.823 533.336,168.308 C526.947,159.794 486.796,163.944 508.254,160.341 C529.712,156.738 517.922,149.075 517.705,137.41 C517.489,125.744 532.303,163.309 534.063,155.222 C535.823,147.135 533.263,140.032 528.402,134.766 C523.541,129.5 522.582,131.565 518.216,126.472 C513.851,121.379 516.616,90.676 521.709,88.202 C526.802,85.728 518.216,132.438 527.82,124.289 C537.424,116.14 530.876,117.741 533.204,107.701 C535.532,97.66 543.972,113.667 546.009,124.289 C548.046,134.911 539.461,161.54 544.554,167.361 C549.647,173.181 546.737,164.014 557.214,158.776 C567.69,153.537 546.155,172.408 547.173,190.183 C548.192,207.959 543.057,212.056 547.225,210.371 C551.393,208.686 561.085,209.35 562.787,209.018 C564.489,208.686 568.817,202.498 576.567,194.572 C584.316,186.645 589.874,175.646 584.279,169.107 C578.684,162.568 567.22,113.898 575.385,127.024 C583.551,140.15 583.438,161.649 588.951,152.573 C594.465,143.497 583.2,120.204 593.925,134.033 C604.651,147.862 585.644,160.895 599.804,150.086 C613.963,139.277 607.128,109.946 615.857,101.475 C624.586,93.004 605.755,154.464 614.952,141.268 C624.149,128.072 626.963,123.482 631.231,114.136 C635.499,104.79 632.61,129.622 625.895,142.187 C619.181,154.752 611.344,148.956 604.36,160.341 C597.375,171.726 581.514,193.553 591.7,184.24 C601.886,174.927 601.158,176.382 609.161,170.562 C617.165,164.741 597.812,187.005 583.406,196.318 C569,205.631 572.936,214.262 572.936,214.262 C572.936,214.262 614.545,214.507 613.09,225.711 C611.635,236.916 580.458,252.53 580.04,267.714 C579.622,282.898 574.728,296.928 573.579,305.81 C569.512,337.266 573.579,337.598 602.517,342.041 C611.738,343.457 601.886,342.558 601.886,342.558 z" fill="#4E341C"/>
      <path d="M601.886,342.558 C622.243,358.189 626.919,330.425 637.034,345.329 C647.15,360.233 633.729,398.413 641.663,411.863 C649.598,425.313 642.971,444.782 654.45,434.26 C658.897,430.184 652.013,458.07 635.248,444.873 C628.147,439.284 632.168,477.912 631.661,492.806 C631.472,498.371 619.251,490.768 613.875,491.88 C604.629,493.792 626.246,430.963 616.781,423.656 C606.22,415.504 595.904,475.576 603.131,484.566 C612.559,496.294 592.013,482.801 584.231,490.398 C581.418,493.144 596.202,426.98 596.202,426.98 C592.203,414.257 572.374,434.63 572.374,434.63 C572.374,434.63 567.927,509.295 572.374,510.407 C576.821,511.519 547.547,515.224 553.661,508.925 C559.775,502.626 560.516,440.003 556.811,429.258 C553.106,418.512 540.322,423.143 537.913,426.849 C535.505,430.554 534.208,501.143 536.987,506.887 C533.467,512.26 512.16,507.443 518.83,504.664 C525.5,501.885 528.464,441.485 524.203,424.07 C519.942,406.654 513.422,377.557 519.757,360.707 C533.993,322.836 535.311,293.251 533.016,296.808 C530.722,300.364 520.876,284.833 524.897,281.584 C528.918,278.335 534.063,267.548 534.063,267.548 C534.063,267.548 529.968,227.769 535.384,218.321 C540.801,208.873 524.208,203.974 524.559,194.471 C524.91,184.968 542.868,205.764 539.782,195.147 C536.696,184.531 539.725,176.823 533.336,168.308 C526.947,159.794 486.796,163.944 508.254,160.341 C529.712,156.738 517.922,149.075 517.705,137.41 C517.489,125.744 532.303,163.309 534.063,155.222 C535.823,147.135 533.263,140.032 528.402,134.766 C523.541,129.5 522.582,131.565 518.216,126.472 C513.851,121.379 516.616,90.676 521.709,88.202 C526.802,85.728 518.216,132.438 527.82,124.289 C537.424,116.14 530.876,117.741 533.204,107.701 C535.532,97.66 543.972,113.667 546.009,124.289 C548.046,134.911 539.461,161.54 544.554,167.361 C549.647,173.181 546.737,164.014 557.214,158.776 C567.69,153.537 546.155,172.408 547.173,190.183 C548.192,207.959 543.057,212.056 547.225,210.371 C551.393,208.686 561.085,209.35 562.787,209.018 C564.489,208.686 568.817,202.498 576.567,194.572 C584.316,186.645 589.874,175.646 584.279,169.107 C578.684,162.568 567.22,113.898 575.385,127.024 C583.551,140.15 583.438,161.649 588.951,152.573 C594.465,143.497 583.2,120.204 593.925,134.033 C604.651,147.862 585.644,160.895 599.804,150.086 C613.963,139.277 607.128,109.946 615.857,101.475 C624.586,93.004 605.755,154.464 614.952,141.268 C624.149,128.072 626.963,123.482 631.231,114.136 C635.499,104.79 632.61,129.622 625.895,142.187 C619.181,154.752 611.344,148.956 604.36,160.341 C597.375,171.726 581.514,193.553 591.7,184.24 C601.886,174.927 601.158,176.382 609.161,170.562 C617.165,164.741 597.812,187.005 583.406,196.318 C569,205.631 572.936,214.262 572.936,214.262 C572.936,214.262 614.545,214.507 613.09,225.711 C611.635,236.916 580.458,252.53 580.04,267.714 C579.622,282.898 574.728,296.928 573.579,305.81 C569.512,337.266 573.579,337.598 602.517,342.041 C611.738,343.457 601.886,342.558 601.886,342.558 z" fill-opacity="0" stroke="#000000" stroke-width="3"/>
    </g>
    <g>
      <path d="M534.063,267.548 C534.063,267.548 525.412,221.172 540.605,211.838 C555.799,202.504 567.253,210.288 573.579,213.993 C579.906,217.698 580.311,234.282 577.88,241.994 C575.449,249.705 569.574,277.984 569.574,277.984 L534.063,267.548 z" fill="#231508"/>
      <path d="M534.063,267.548 C534.063,267.548 525.412,221.172 540.605,211.838 C555.799,202.504 567.253,210.288 573.579,213.993 C579.906,217.698 580.311,234.282 577.88,241.994 C575.449,249.705 569.574,277.984 569.574,277.984 L534.063,267.548 z" fill-opacity="0" stroke="#000000" stroke-width="1"/>
    </g>
    <g>
      <path d="M544.247,222.812 C527.69,220.033 563.462,228.778 559.568,234.724 C555.673,240.671 573.163,227.962 574.679,229.944 C576.195,231.926 568.849,244.752 566.517,245.218 C564.185,245.685 567.916,259.132 569.316,256.723 C570.715,254.313 588.321,230.76 594.151,229.011 C599.981,227.262 585.409,225.178 579.259,226.494 C577.129,218.698 577.579,220.678 573.544,211.838 C582.056,211.255 608.468,217.813 611.745,224.112 C615.023,230.41 585.816,249.032 580.248,261.817 C578.76,274.135 564.832,328.727 577.79,337.598 C587.914,352.349 562.807,403.777 562.807,403.777 C562.807,403.777 508.087,373.829 517.312,368.588 C526.537,363.348 534.959,297.842 534.959,297.842 C534.959,297.842 523.988,295.256 524.897,281.584 C538.159,267.912 565.226,248.764 551.932,253.497 C533.629,260.013 541.709,246.144 537.913,246.838 C534.086,247.538 537.956,239.911 537.93,227.591 C537.913,220.053 560.804,225.591 544.247,222.812 z" fill="#D6A5A5"/>
      <path d="M544.247,222.812 C527.69,220.033 563.462,228.778 559.568,234.724 C555.673,240.671 573.163,227.962 574.679,229.944 C576.195,231.926 568.849,244.752 566.517,245.218 C564.185,245.685 567.916,259.132 569.316,256.723 C570.715,254.313 588.321,230.76 594.151,229.011 C599.981,227.262 585.409,225.178 579.259,226.494 C577.129,218.698 577.579,220.678 573.544,211.838 C582.056,211.255 608.468,217.813 611.745,224.112 C615.023,230.41 585.816,249.032 580.248,261.817 C578.76,274.135 564.832,328.727 577.79,337.598 C587.914,352.349 562.807,403.777 562.807,403.777 C562.807,403.777 508.087,373.829 517.312,368.588 C526.537,363.348 534.959,297.842 534.959,297.842 C534.959,297.842 523.988,295.256 524.897,281.584 C538.159,267.912 565.226,248.764 551.932,253.497 C533.629,260.013 541.709,246.144 537.913,246.838 C534.086,247.538 537.956,239.911 537.93,227.591 C537.913,220.053 560.804,225.591 544.247,222.812 z" fill-opacity="0" stroke="#000000" stroke-width="1"/>
    </g>
    <path d="M626.855,349.482 C645.851,327.661 643.305,400.706 641.522,423.667 C639.739,446.628 654.729,437.403 654.729,437.403" fill-opacity="0" stroke="#000000" stroke-width="3"/>
    <g>
      <path d="M527.462,295.973 C527.462,295.973 517.805,360.246 521.135,352.273 C524.466,344.3 534.607,313.564 532.875,298.39" fill="#BB8787"/>
      <path d="M527.462,295.973 C527.462,295.973 517.805,360.246 521.135,352.273 C524.466,344.3 534.607,313.564 532.875,298.39" fill-opacity="0" stroke="#000000" stroke-width="1"/>
    </g>
    <path d="M624.192,351.164 C624.192,351.164 633.489,330.942 641.522,345.975 C649.556,361.009 627.557,426.47 633.884,439.211 C640.211,451.952 651.392,439.211 651.392,439.211" fill-opacity="0" stroke="#000000" stroke-width="3"/>
    <path d="M615.682,348.994 C615.682,348.994 615.876,335.144 633.884,337.981 C651.892,340.818 643.382,385.038 638.543,400.556 C633.703,416.075 638.042,456.675 654.729,435.624" fill-opacity="0" stroke="#000000" stroke-width="3"/>
    <g>
      <path d="M597.847,426.98 C600.456,411.247 615.24,415.754 609.007,426.98 C602.775,438.206 604.369,484.549 603.355,488.988 C602.34,493.427 580.744,493.749 583.498,487.139 C586.252,480.528 595.238,442.712 597.847,426.98 z" fill="#000000"/>
      <path d="M597.847,426.98 C600.456,411.247 615.24,415.754 609.007,426.98 C602.775,438.206 604.369,484.549 603.355,488.988 C602.34,493.427 580.744,493.749 583.498,487.139 C586.252,480.528 595.238,442.712 597.847,426.98 z" fill-opacity="0" stroke="#000000" stroke-width="1"/>
    </g>
    <g>
      <path d="M519.756,360.707 C519.756,360.707 523.786,370.194 528.92,345.975 C534.054,321.757 539.187,341.873 534.396,373.427 C529.604,404.981 546.032,356.294 550.139,335.765 C554.246,315.236 554.246,351.114 553.562,373.427 C552.877,395.741 566.91,362.697 569.99,342.93 C573.07,323.164 574.781,362.994 572.044,376.971 C569.305,390.949 577.177,335.504 578.889,339.269 C580.6,343.034 614.141,344.403 629.2,353.301 C644.259,362.2 643.574,390.737 637.414,409.325 C631.253,427.912 632.622,480.603 632.622,480.603 C632.622,480.603 619.251,475.141 612.772,477.156 C606.292,479.171 630.911,427.716 612.429,426.98 C593.948,426.243 589.353,424.607 577.374,430.673 C565.395,436.74 570.675,495.514 570.675,495.514 L557.669,494.79 C557.669,494.79 560.749,426.59 555.958,430.673 C551.166,434.757 536.243,426.797 524.709,415.547 C513.176,404.297 519.756,360.707 519.756,360.707 z" fill="#231508"/>
      <path d="M519.756,360.707 C519.756,360.707 523.786,370.194 528.92,345.975 C534.054,321.757 539.187,341.873 534.396,373.427 C529.604,404.981 546.032,356.294 550.139,335.765 C554.246,315.236 554.246,351.114 553.562,373.427 C552.877,395.741 566.91,362.697 569.99,342.93 C573.07,323.164 574.781,362.994 572.044,376.971 C569.305,390.949 577.177,335.504 578.889,339.269 C580.6,343.034 614.141,344.403 629.2,353.301 C644.259,362.2 643.574,390.737 637.414,409.325 C631.253,427.912 632.622,480.603 632.622,480.603 C632.622,480.603 619.251,475.141 612.772,477.156 C606.292,479.171 630.911,427.716 612.429,426.98 C593.948,426.243 589.353,424.607 577.374,430.673 C565.395,436.74 570.675,495.514 570.675,495.514 L557.669,494.79 C557.669,494.79 560.749,426.59 555.958,430.673 C551.166,434.757 536.243,426.797 524.709,415.547 C513.176,404.297 519.756,360.707 519.756,360.707 z" fill-opacity="0" stroke="#000000" stroke-width="1"/>
    </g>
    <g>
      <path d="M523.08,413.44 C518.677,400.596 537.913,426.849 537.913,426.849 L535.778,495.514 C535.778,495.514 517.558,496.062 521.766,495.514 C525.975,494.966 527.483,426.283 523.08,413.44 z" fill="#231508"/>
      <path d="M523.08,413.44 C518.677,400.596 537.913,426.849 537.913,426.849 L535.778,495.514 C535.778,495.514 517.558,496.062 521.766,495.514 C525.975,494.966 527.483,426.283 523.08,413.44 z" fill-opacity="0" stroke="#000000" stroke-width="1"/>
    </g>
    <g>
      <path d="M559.568,430.673 C550.081,419.57 552.124,409.901 552.124,409.901" fill="#231508"/>
      <path d="M559.568,430.673 C550.081,419.57 552.124,409.901 552.124,409.901" fill-opacity="0" stroke="#000000" stroke-width="1"/>
    </g>
    <g>
      <path d="M573.579,435.624 C573.579,435.624 587.007,404.931 585.839,373.427" fill="#231508"/>
      <path d="M573.579,435.624 C573.579,435.624 587.007,404.931 585.839,373.427" fill-opacity="0" stroke="#000000" stroke-width="1"/>
    </g>
    <g>
      <path d="M522.624,493.823 C522.624,493.823 535.379,497.263 535.669,493.823 C535.958,490.384 539.61,502.954 536.987,506.887 C534.364,510.82 520.542,512.793 517.887,507.676 C515.232,502.559 522.624,493.823 522.624,493.823 z" fill="#000000"/>
      <path d="M522.624,493.823 C522.624,493.823 535.379,497.263 535.669,493.823 C535.958,490.384 539.61,502.954 536.987,506.887 C534.364,510.82 520.542,512.793 517.887,507.676 C515.232,502.559 522.624,493.823 522.624,493.823 z" fill-opacity="0" stroke="#000000" stroke-width="1"/>
    </g>
    <g>
      <path d="M556.685,495.758 C560.598,492.268 570.599,494.668 570.019,491.033 C569.439,487.398 576.178,508.255 572.374,510.407 C568.569,512.559 551.542,517.931 551.939,510.752 C552.336,503.573 552.771,499.248 556.685,495.758 z" fill="#000000"/>
      <path d="M556.685,495.758 C560.598,492.268 570.599,494.668 570.019,491.033 C569.439,487.398 576.178,508.255 572.374,510.407 C568.569,512.559 551.542,517.931 551.939,510.752 C552.336,503.573 552.771,499.248 556.685,495.758 z" fill-opacity="0" stroke="#000000" stroke-width="1"/>
    </g>
    <g>
      <path d="M615.51,474.092 C616.918,464.935 605.402,491.252 612.015,490.609 C618.628,489.966 624.769,494.258 630.437,493.234 C636.106,492.21 633.213,485.163 632.622,480.603" fill="#000000"/>
      <path d="M615.51,474.092 C616.918,464.935 605.402,491.252 612.015,490.609 C618.628,489.966 624.769,494.258 630.437,493.234 C636.106,492.21 633.213,485.163 632.622,480.603" fill-opacity="0" stroke="#000000" stroke-width="1"/>
    </g>
    <path d="M624.192,349.514 C655.563,347.512 628.698,438.936 638.209,450.45 C647.72,461.964 654.729,432.428 654.729,432.428" fill-opacity="0" stroke="#000000" stroke-width="3"/>
    <path d="M615.682,426.98 C588.377,420.451 603.098,379.158 603.098,379.158" fill-opacity="0" stroke="#000000" stroke-width="1"/>
    <path d="M533.016,296.808 C533.016,296.808 546.401,304.638 551.939,271.709" fill-opacity="0" stroke="#000000" stroke-width="1"/>
    <path d="M557.68,272.908 C529.044,299.696 570.615,313.46 576.276,285.41" fill-opacity="0" stroke="#000000" stroke-width="1"/>
    <path d="M573.544,261.817 C573.544,261.817 571.699,263.483 573.579,271.709" fill-opacity="0" stroke="#000000" stroke-width="1"/>
    <path d="M540.672,322.773 C540.672,322.773 541.764,319.673 546.372,321.935" fill-opacity="0" stroke="#000000" stroke-width="1"/>
    <path d="M541.595,323.025 C541.595,323.025 542.517,326.543 545.449,322.773" fill-opacity="0" stroke="#000000" stroke-width="1"/>
    <path d="M531.61,324.821 C531.61,324.821 538.298,328.207 537.082,338.733" fill-opacity="0" stroke="#000000" stroke-width="1"/>
    <path d="M565.738,326.504 C565.738,326.504 560.469,328.675 561.482,340.416" fill-opacity="0" stroke="#000000" stroke-width="1"/>
    <path d="M537.23,232.164 C537.23,232.164 537.22,234.683 539.408,234.645" fill-opacity="0" stroke="#000000" stroke-width="1"/>
    <path d="M540.009,230.886 C540.009,230.886 539.37,234.232 541.212,234.269" fill-opacity="0" stroke="#000000" stroke-width="1"/>
    <path d="M543.844,230.585 C543.844,230.585 541.137,232.691 544.295,234.646" fill-opacity="0" stroke="#000000" stroke-width="1"/>
    <path d="M546.372,232.164 C546.381,234.833 545.036,234.646 544.295,234.646" fill-opacity="0" stroke="#000000" stroke-width="1"/>
    <path d="M545.799,235.924 C545.799,235.924 547.566,236.638 548.28,234.269" fill-opacity="0" stroke="#000000" stroke-width="1"/>
    <g>
      <path d="M539.902,235.059 C542.453,233.405 546.043,235.096 546.372,237.202 C546.701,239.307 544.128,240.397 542.764,240.924 C541.4,241.45 537.351,236.713 539.902,235.059 z" fill="#000000"/>
      <path d="M539.902,235.059 C542.453,233.405 546.043,235.096 546.372,237.202 C546.701,239.307 544.128,240.397 542.764,240.924 C541.4,241.45 537.351,236.713 539.902,235.059 z" fill-opacity="0" stroke="#000000" stroke-width="1"/>
    </g>
    <path d="M540.057,237.416 C539.695,237.416 539.402,236.993 539.402,236.47 C539.402,235.948 539.695,235.525 540.057,235.525 C540.419,235.525 540.712,235.948 540.712,236.47 C540.712,236.993 540.419,237.416 540.057,237.416 z" fill="#FFFFFF"/>
    <path d="M539.076,249.571 C539.076,249.571 542.002,249.383 544.295,247.992" fill-opacity="0" stroke="#000000" stroke-width="1"/>
    <g>
      <path d="M570.615,233.747 C570.615,233.747 560.934,237.773 560.256,238.452 C559.577,239.13 560.12,243.925 561.794,242.749 C563.468,241.573 570.615,233.747 570.615,233.747 z" fill="#000000"/>
      <path d="M570.615,233.747 C570.615,233.747 560.934,237.773 560.256,238.452 C559.577,239.13 560.12,243.925 561.794,242.749 C563.468,241.573 570.615,233.747 570.615,233.747 z" fill-opacity="0" stroke="#000000" stroke-width="1"/>
    </g>
    <g>
      <path d="M524.71,280.436 C532.713,274.696 551.939,287.283 573.579,284.537 C596.414,281.64 539.075,304.93 539.902,302.118 C533.045,285.711 516.706,286.176 524.71,280.436 z" fill="#246B24"/>
      <path d="M524.71,280.436 C532.713,274.696 551.939,287.283 573.579,284.537 C596.414,281.64 539.075,304.93 539.902,302.118 C533.045,285.711 516.706,286.176 524.71,280.436 z" fill-opacity="0" stroke="#000000" stroke-width="1"/>
    </g>
    <path d="M533.072,291.908 C541.024,295.193 566.032,288.109 563.479,284.756" fill-opacity="0" stroke="#000000" stroke-width="1"/>
    <path d="M517.312,213.993 C543.539,222.274 519.867,281.523 557.409,313.246 C594.952,344.968 597.257,344.679 602.733,359.666" fill-opacity="0" stroke="#401440" stroke-width="5"/>
    <g>
      <path d="M425.749,234.423 C435.195,227.415 449.261,227.415 449.261,227.415 C449.261,227.415 455.306,218.883 466.58,229.243 C477.854,239.603 493.242,242.041 502.002,238.08 C510.762,234.119 496.898,262.152 502.002,268.855 C507.106,275.559 513.657,303.287 502.002,300.545 C490.347,297.803 479.073,302.678 476.635,310.6 C474.197,318.523 507.411,311.514 512.591,324.922 C517.771,338.329 518.076,379.16 511.677,394.7 C505.278,410.24 493.394,399.575 495.527,405.06 C497.66,410.545 503.9,494.185 518.83,504.664 C533.761,515.142 516.552,522.373 508.02,522.677 C499.488,522.982 490.652,501.652 490.652,501.652 C490.652,501.652 491.566,453.813 485.776,450.461 C479.987,447.11 472.979,446.196 465.666,450.766 C458.353,455.337 457.134,487.636 459.876,498.301 C462.619,508.965 454.696,525.115 445.86,525.724 C437.023,526.334 433.976,527.857 435.5,515.669 C437.023,503.481 445.25,510.794 445.86,501.348 C446.469,491.902 447.688,481.846 444.945,458.993 C442.203,436.14 445.35,423.038 449.261,401.403 C453.173,379.769 443.117,379.769 442.813,363.01 C442.508,346.251 432.148,400.185 426.968,405.974 C421.788,411.763 376.691,350.822 375.472,355.392 C374.253,359.963 358.713,362.401 362.065,358.44 C365.417,354.478 371.511,346.251 371.511,346.251 L306.913,276.168 L300.818,256.723 L318.492,262.761 L383.394,334.977 C383.394,334.977 390.403,335.586 395.887,331.625 C401.372,327.664 379.738,348.689 390.098,347.165 C400.458,345.642 401.372,362.096 401.372,362.096 L416.608,375.808 C416.608,375.808 419.959,327.664 429.101,322.789 C438.242,317.913 452.258,317.609 452.258,317.609 C452.258,317.609 455.001,302.678 446.774,306.03 C438.547,309.382 442.508,309.686 427.882,302.373 C413.256,295.06 415.998,290.185 410.209,281.348 C404.419,272.512 417.827,260.323 422.702,261.238 C427.577,262.152 416.303,241.432 425.749,234.423 z" fill="#52381F"/>
      <path d="M425.749,234.423 C435.195,227.415 449.261,227.415 449.261,227.415 C449.261,227.415 455.306,218.883 466.58,229.243 C477.854,239.603 493.242,242.041 502.002,238.08 C510.762,234.119 496.898,262.152 502.002,268.855 C507.106,275.559 513.657,303.287 502.002,300.545 C490.347,297.803 479.073,302.678 476.635,310.6 C474.197,318.523 507.411,311.514 512.591,324.922 C517.771,338.329 518.076,379.16 511.677,394.7 C505.278,410.24 493.394,399.575 495.527,405.06 C497.66,410.545 503.9,494.185 518.83,504.664 C533.761,515.142 516.552,522.373 508.02,522.677 C499.488,522.982 490.652,501.652 490.652,501.652 C490.652,501.652 491.566,453.813 485.776,450.461 C479.987,447.11 472.979,446.196 465.666,450.766 C458.353,455.337 457.134,487.636 459.876,498.301 C462.619,508.965 454.696,525.115 445.86,525.724 C437.023,526.334 433.976,527.857 435.5,515.669 C437.023,503.481 445.25,510.794 445.86,501.348 C446.469,491.902 447.688,481.846 444.945,458.993 C442.203,436.14 445.35,423.038 449.261,401.403 C453.173,379.769 443.117,379.769 442.813,363.01 C442.508,346.251 432.148,400.185 426.968,405.974 C421.788,411.763 376.691,350.822 375.472,355.392 C374.253,359.963 358.713,362.401 362.065,358.44 C365.417,354.478 371.511,346.251 371.511,346.251 L306.913,276.168 L300.818,256.723 L318.492,262.761 L383.394,334.977 C383.394,334.977 390.403,335.586 395.887,331.625 C401.372,327.664 379.738,348.689 390.098,347.165 C400.458,345.642 401.372,362.096 401.372,362.096 L416.608,375.808 C416.608,375.808 419.959,327.664 429.101,322.789 C438.242,317.913 452.258,317.609 452.258,317.609 C452.258,317.609 455.001,302.678 446.774,306.03 C438.547,309.382 442.508,309.686 427.882,302.373 C413.256,295.06 415.998,290.185 410.209,281.348 C404.419,272.512 417.827,260.323 422.702,261.238 C427.577,262.152 416.303,241.432 425.749,234.423 z" fill-opacity="0" stroke="#000000" stroke-width="3"/>
    </g>
    <path d="M464.284,310 C446.463,309.782 443.653,298.569 442.636,288.571 C441.324,275.669 447.775,260.034 462.207,259.706 C474.776,259.421 483.309,272.908 482.762,286.493 C482.314,297.632 481.466,310.211 464.284,310 z" fill-opacity="0" stroke="#000000" stroke-width="3"/>
    <path d="M449.261,276.435 C452.06,271.624 456.412,272.562 460.13,273.296 C456.631,280.371 461.564,286.03 459.911,286.603 C454.226,288.571 461.332,292.266 464.722,291.907 C468.111,291.549 470.079,284.087 465.815,285.41 C467.346,281.353 465.815,276.435 463.956,275.341 C465.706,269.984 473.578,272.061 476.421,276.325" fill-opacity="0" stroke="#000000" stroke-width="1"/>
    <g>
      <path d="M448.37,407.004 C441.972,412.271 440.398,460.776 445.165,452.221 C449.933,443.665 501.935,444.335 502.753,447.757 C503.571,451.179 491.37,404.683 494.867,405.724 C498.364,406.766 454.768,401.738 448.37,407.004 z" fill="#968371"/>
      <path d="M448.37,407.004 C441.972,412.271 440.398,460.776 445.165,452.221 C449.933,443.665 501.935,444.335 502.753,447.757 C503.571,451.179 491.37,404.683 494.867,405.724 C498.364,406.766 454.768,401.738 448.37,407.004 z" fill-opacity="0" stroke="#000000" stroke-width="1"/>
    </g>
    <path d="M453.773,268.729 C453.773,268.729 462.629,271.078 469.408,266.46" fill-opacity="0" stroke="#000000" stroke-width="1"/>
    <g>
      <path d="M453.367,283.152 C452.671,283.152 452.107,281.946 452.107,280.46 C452.107,278.973 452.671,277.768 453.367,277.768 C454.063,277.768 454.627,278.973 454.627,280.46 C454.627,281.946 454.063,283.152 453.367,283.152 z" fill="#000000"/>
      <path d="M453.367,283.152 C452.671,283.152 452.107,281.946 452.107,280.46 C452.107,278.973 452.671,277.768 453.367,277.768 C454.063,277.768 454.627,278.973 454.627,280.46 C454.627,281.946 454.063,283.152 453.367,283.152 z" fill-opacity="0" stroke="#000000" stroke-width="1"/>
    </g>
    <g>
      <path d="M470.6,282.396 C469.942,282.396 469.408,281.233 469.408,279.798 C469.408,278.363 469.942,277.2 470.6,277.2 C471.259,277.2 471.793,278.363 471.793,279.798 C471.793,281.233 471.259,282.396 470.6,282.396 z" fill="#000000"/>
      <path d="M470.6,282.396 C469.942,282.396 469.408,281.233 469.408,279.798 C469.408,278.363 469.942,277.2 470.6,277.2 C471.259,277.2 471.793,278.363 471.793,279.798 C471.793,281.233 471.259,282.396 470.6,282.396 z" fill-opacity="0" stroke="#000000" stroke-width="1"/>
    </g>
    <path d="M447.057,289.848 C447.057,289.848 453.825,281.365 454.627,298.637" fill-opacity="0" stroke="#000000" stroke-width="1"/>
    <path d="M477.787,285.41 C477.787,285.41 468.802,282.392 476.421,297.621" fill-opacity="0" stroke="#000000" stroke-width="1"/>
    <path d="M459.137,303.405 C459.137,303.405 464.103,300.015 471.793,303.511" fill-opacity="0" stroke="#000000" stroke-width="1"/>
    <path d="M459.137,298.637 C459.137,298.637 463.029,291.731 469.408,297.621 C468.834,301.454 460.345,301.301 459.137,298.637 z" fill-opacity="0" stroke="#000000" stroke-width="1"/>
    <g>
      <path d="M459.904,298.197 C463.33,298.74 469.763,297.484 469.199,297.621 C468.635,297.758 468.427,294.938 463.81,295.648 C461.826,295.941 460.552,296.63 459.904,298.197 z" fill="#341111"/>
      <path d="M459.904,298.197 C463.33,298.74 469.763,297.484 469.199,297.621 C468.635,297.758 468.427,294.938 463.81,295.648 C461.826,295.941 460.552,296.63 459.904,298.197 z" fill-opacity="0" stroke="#000000" stroke-width="1"/>
    </g>
    <g>
      <path d="M444.784,305.651 C444.784,305.651 417.667,298.361 422.164,291.558 C426.661,284.756 434.867,284.936 436.896,292.756 C438.924,300.576 418.212,290.745 418.076,283.152 C417.94,275.558 430.869,266.54 433.883,274.468 C436.896,282.396 435.245,289.608 426.524,280.872 C417.804,272.136 422.982,253.549 431.975,259.702 C440.968,265.855 445.874,273.132 438.924,275.558 C431.975,277.984 413.579,274.741 413.579,274.741 C413.579,274.741 422.322,251.946 447.057,250.758 C471.793,249.571 465.076,250.591 453.773,258.525 C442.471,266.46 422.709,249.843 433.883,242.934 C445.056,236.025 458.108,228.994 464.95,237.916 C471.793,246.838 451.644,253.773 447.057,244.899 C442.471,236.025 419.575,235.277 457.047,230.886 C494.519,226.494 494.9,277.748 486.344,252.121 C477.787,226.494 478.499,268.347 471.793,256.623 C465.087,244.899 473.535,263.431 484.3,263.976 C495.064,264.521 509.372,242.5 498.607,247.992 C487.842,253.484 462.011,231.049 471.793,241.994 C481.574,252.939 495.201,266.635 490.159,277.2 C485.117,287.765 505.965,276.824 499.834,285.41 C493.702,293.996 475.306,297.951 489.341,295.973 C503.376,293.996 510.746,306.594 506.374,292.756 C502.002,278.918 478.54,281.601 497.926,271.709 C517.312,261.817 476.124,264.851 486.889,253.892 C497.653,242.934 452.919,262.759 453.773,244.627 C454.627,226.494 445.768,246.016 436.896,242.934 C428.023,239.851 422.615,257.778 434.836,261.817 C447.057,265.855 445.192,278.201 438.515,277.984" fill="#1B0E05"/>
      <path d="M444.784,305.651 C444.784,305.651 417.667,298.361 422.164,291.558 C426.661,284.756 434.867,284.936 436.896,292.756 C438.924,300.576 418.212,290.745 418.076,283.152 C417.94,275.558 430.869,266.54 433.883,274.468 C436.896,282.396 435.245,289.608 426.524,280.872 C417.804,272.136 422.982,253.549 431.975,259.702 C440.968,265.855 445.874,273.132 438.924,275.558 C431.975,277.984 413.579,274.741 413.579,274.741 C413.579,274.741 422.322,251.946 447.057,250.758 C471.793,249.571 465.076,250.591 453.773,258.525 C442.471,266.46 422.709,249.843 433.883,242.934 C445.056,236.025 458.108,228.994 464.95,237.916 C471.793,246.838 451.644,253.773 447.057,244.899 C442.471,236.025 419.575,235.277 457.047,230.886 C494.519,226.494 494.9,277.748 486.344,252.121 C477.787,226.494 478.499,268.347 471.793,256.623 C465.087,244.899 473.535,263.431 484.3,263.976 C495.064,264.521 509.372,242.5 498.607,247.992 C487.842,253.484 462.011,231.049 471.793,241.994 C481.574,252.939 495.201,266.635 490.159,277.2 C485.117,287.765 505.965,276.824 499.834,285.41 C493.702,293.996 475.306,297.951 489.341,295.973 C503.376,293.996 510.746,306.594 506.374,292.756 C502.002,278.918 478.54,281.601 497.926,271.709 C517.312,261.817 476.124,264.851 486.889,253.892 C497.653,242.934 452.919,262.759 453.773,244.627 C454.627,226.494 445.768,246.016 436.896,242.934 C428.023,239.851 422.615,257.778 434.836,261.817 C447.057,265.855 445.192,278.201 438.515,277.984" fill-opacity="0" stroke="#000000" stroke-width="3"/>
    </g>
    <g>
      <path d="M371.511,346.251 L307.588,274.664 L300.818,256.723 L318.492,262.761 L383.394,334.977 L371.511,346.251 z" fill="#DEF0FF"/>
      <path d="M371.511,346.251 L307.588,274.664 L300.818,256.723 L318.492,262.761 L383.394,334.977 L371.511,346.251 z" fill-opacity="0" stroke="#000000" stroke-width="3"/>
    </g>
    <path d="M307.588,274.664 L320.082,278.918 L376.622,340.416" fill-opacity="0" stroke="#000000" stroke-width="1"/>
    <g>
      <path d="M320.082,278.918 L318.492,262.761" fill="#DEF0FF"/>
      <path d="M320.082,278.918 L318.492,262.761" fill-opacity="0" stroke="#000000" stroke-width="1"/>
    </g>
    <g>
      <path d="M371.511,346.251 C371.511,346.251 354.003,366.092 365.666,359.666 C377.329,353.241 394.89,337.341 395.888,331.625 C396.885,325.91 384.127,334.392 384.127,334.392 L371.511,346.251 z" fill="#343535"/>
      <path d="M371.511,346.251 C371.511,346.251 354.003,366.092 365.666,359.666 C377.329,353.241 394.89,337.341 395.888,331.625 C396.885,325.91 384.127,334.392 384.127,334.392 L371.511,346.251 z" fill-opacity="0" stroke="#000000" stroke-width="1"/>
    </g>
    <g>
      <path d="M389.667,362.429 L399.712,373.427 L403.764,368.084 L392.865,355.479 L389.667,362.429 z" fill="#343535"/>
      <path d="M389.667,362.429 L399.712,373.427 L403.764,368.084 L392.865,355.479 L389.667,362.429 z" fill-opacity="0" stroke="#000000" stroke-width="1"/>
    </g>
    <g>
      <path d="M399.712,373.427 L403.764,380.218 L411.846,373.427 L403.764,368.084" fill="#DEF0FF"/>
      <path d="M399.712,373.427 L403.764,380.218 L411.846,373.427 L403.764,368.084" fill-opacity="0" stroke="#000000" stroke-width="1"/>
    </g>
    <g>
      <path d="M378.894,357.326 C378.894,357.326 382.57,349.29 388.232,348.481" fill="#52381F" fill-opacity="0.105"/>
      <path d="M378.894,357.326 C378.894,357.326 382.57,349.29 388.232,348.481" fill-opacity="0" stroke="#000000" stroke-width="1"/>
    </g>
    <g>
      <path d="M382.497,359.666 C382.497,359.666 386.179,353.849 391.029,352.231" fill="#52381F" fill-opacity="0.105"/>
      <path d="M382.497,359.666 C382.497,359.666 386.179,353.849 391.029,352.231" fill-opacity="0" stroke="#000000" stroke-width="1"/>
    </g>
    <g>
      <path d="M386.302,363.629 C386.302,363.629 387.57,357.109 392.129,355.479" fill="#52381F" fill-opacity="0.105"/>
      <path d="M386.302,363.629 C386.302,363.629 387.57,357.109 392.129,355.479" fill-opacity="0" stroke="#000000" stroke-width="1"/>
    </g>
    <g>
      <path d="M392.865,355.479 C393.821,353.065 389.667,348.481 389.667,348.481" fill="#52381F" fill-opacity="0.105"/>
      <path d="M392.865,355.479 C393.821,353.065 389.667,348.481 389.667,348.481" fill-opacity="0" stroke="#000000" stroke-width="1"/>
    </g>
    <path d="M445.165,453.114 C464.713,444.727 487.211,446.233 502.002,449.23" fill-opacity="0" stroke="#000000" stroke-width="1"/>
    <g>
      <path d="M473.356,322.773 C473.356,322.773 479.578,332.523 505.759,326.504 C522.42,348.683 499.712,403.253 498.352,403.777 C496.991,404.302 437.668,391.419 444.593,342.93 C465.924,336.406 473.356,322.773 473.356,322.773 z" fill="#343535"/>
      <path d="M473.356,322.773 C473.356,322.773 479.578,332.523 505.759,326.504 C522.42,348.683 499.712,403.253 498.352,403.777 C496.991,404.302 437.668,391.419 444.593,342.93 C465.924,336.406 473.356,322.773 473.356,322.773 z" fill-opacity="0" stroke="#000000" stroke-width="3"/>
    </g>
    <path d="M449.582,519.612 C448.188,519.612 447.057,518.322 447.057,516.73 C447.057,515.138 448.188,513.847 449.582,513.847 C450.976,513.847 452.107,515.138 452.107,516.73 C452.107,518.322 450.976,519.612 449.582,519.612 z" fill-opacity="0" stroke="#000000" stroke-width="1"/>
    <path d="M444.764,519.094 C443.497,519.094 442.471,518.035 442.471,516.73 C442.47,515.424 443.497,514.365 444.764,514.365 C446.031,514.365 447.058,515.424 447.057,516.73 C447.057,518.035 446.031,519.094 444.764,519.094 z" fill-opacity="0" stroke="#000000" stroke-width="1"/>
    <path d="M440.732,518.824 C439.772,518.824 438.994,517.886 438.994,516.73 C438.994,515.573 439.772,514.635 440.732,514.635 C441.692,514.635 442.47,515.573 442.47,516.73 C442.47,517.886 441.692,518.824 440.732,518.824 z" fill-opacity="0" stroke="#000000" stroke-width="1"/>
    <path d="M437.77,518.596 C437.094,518.596 436.547,517.76 436.547,516.73 C436.547,515.699 437.094,514.863 437.77,514.863 C438.446,514.863 438.994,515.699 438.994,516.73 C438.994,517.76 438.446,518.596 437.77,518.596 z" fill-opacity="0" stroke="#000000" stroke-width="1"/>
    <path d="M438.123,511.317 C438.123,511.317 448.492,506.671 455.128,518.078" fill-opacity="0" stroke="#000000" stroke-width="1"/>
    <path d="M444.593,506.63 C444.593,506.63 450.026,505.22 457.824,514.863" fill-opacity="0" stroke="#000000" stroke-width="1"/>
    <path d="M436.547,519.094 C436.547,519.094 438.745,522.868 452.515,520.981" fill-opacity="0" stroke="#000000" stroke-width="1"/>
    <path d="M498.351,513.109 C498.351,513.109 501.384,505.924 515.286,504.012" fill-opacity="0" stroke="#000000" stroke-width="1"/>
    <path d="M450.254,345.883 L459.928,343.255 L462.764,353.694 L453.091,356.322 z" fill="#000000"/>
    <path d="M462.764,353.694 L472.437,351.066 L475.274,361.506 L465.6,364.134 z" fill="#000000"/>
    <path d="M469.601,340.627 L479.275,337.999 L482.111,348.438 L472.437,351.066 z" fill="#000000"/>
    <path d="M482.111,348.438 L491.784,345.81 L494.62,356.249 L484.947,358.877 z" fill="#000000"/>
    <path d="M455.927,366.762 L465.6,364.134 L468.436,374.573 L458.763,377.201 z" fill="#000000"/>
    <path d="M468.436,374.573 L478.11,371.945 L480.946,382.384 L471.273,385.012 z" fill="#000000"/>
    <path d="M475.274,361.505 L484.947,358.877 L487.783,369.317 L478.11,371.945 z" fill="#000000"/>
    <path d="M487.783,369.317 L497.457,366.689 L500.293,377.128 L490.619,379.756 z" fill="#000000"/>
    <path d="M488.948,335.371 L498.621,332.743 L501.458,343.182 L491.784,345.81 z" fill="#000000"/>
    <path d="M494.62,356.249 L504.294,353.621 L507.13,364.06 L497.457,366.688 z" fill="#000000"/>
    <path d="M480.946,382.384 L490.619,379.756 L493.456,390.195 L483.782,392.823 z" fill="#000000"/>
    <path d="M501.244,517.214 C501.244,517.214 503.508,507.675 517.887,507.676" fill-opacity="0" stroke="#000000" stroke-width="1"/>
    <path d="M507.628,518.824 C505.805,518.824 504.326,517.826 504.326,516.595 C504.326,515.363 505.805,514.365 507.628,514.365 C509.451,514.365 510.929,515.363 510.929,516.595 C510.929,517.826 509.451,518.824 507.628,518.824 z" fill-opacity="0" stroke="#000000" stroke-width="1"/>
    <path d="M512.651,515.741 C511.195,515.741 510.015,514.741 510.015,513.506 C510.015,512.272 511.195,511.272 512.651,511.272 C514.106,511.272 515.286,512.272 515.286,513.506 C515.286,514.741 514.106,515.741 512.651,515.741 z" fill-opacity="0" stroke="#000000" stroke-width="1"/>
    <path d="M516.618,514.366 C515.328,514.366 514.282,513.557 514.282,512.559 C514.282,511.561 515.328,510.752 516.618,510.752 C517.908,510.752 518.954,511.561 518.954,512.559 C518.954,513.557 517.908,514.366 516.618,514.366 z" fill-opacity="0" stroke="#000000" stroke-width="1"/>
    <path d="M519.945,512.503 C518.808,512.503 517.887,511.422 517.887,510.089 C517.887,508.756 518.808,507.676 519.945,507.676 C521.081,507.676 522.002,508.756 522.002,510.089 C522.002,511.422 521.081,512.503 519.945,512.503 z" fill-opacity="0" stroke="#000000" stroke-width="1"/>
    <path d="M449.261,407.004 C449.261,407.004 457.982,403.115 495.527,405.06 C472.366,395.561 449.261,395.634 449.261,395.634" fill-opacity="0" stroke="#000000" stroke-width="1"/>
    <path d="M457.824,449.316 C457.824,449.316 462.162,425.617 474.825,422.087 C487.488,418.557 492.743,446.855 492.743,446.855" fill-opacity="0" stroke="#000000" stroke-width="1"/>
    <path d="M459.904,407.004 C459.904,407.004 451.118,436.351 455.128,446.855" fill-opacity="0" stroke="#000000" stroke-width="1"/>
    <path d="M486.419,407.004 C486.419,407.004 498.311,436.633 495.527,444.873" fill-opacity="0" stroke="#000000" stroke-width="1"/>
    <g>
      <path d="M475.506,341.935 C475.506,341.935 481.335,344.909 489.82,376.971 C489.82,377.427 495.341,374.249 495.527,376.971 C495.713,379.694 490.273,381.831 490.273,381.831 L493.446,392.777 C493.446,392.777 497.527,396.404 493.511,398.541 C489.205,400.833 489.69,393.878 489.69,393.878 L485.739,382.414 C485.739,382.414 481.594,385.264 479.198,383.774 C476.801,382.285 483.991,380.342 484.185,379.158 C472.591,351.391 475.506,341.935 475.506,341.935 z" fill="#DEF0FF"/>
      <path d="M475.506,341.935 C475.506,341.935 481.335,344.909 489.82,376.971 C489.82,377.427 495.341,374.249 495.527,376.971 C495.713,379.694 490.273,381.831 490.273,381.831 L493.446,392.777 C493.446,392.777 497.527,396.404 493.511,398.541 C489.205,400.833 489.69,393.878 489.69,393.878 L485.739,382.414 C485.739,382.414 481.594,385.264 479.198,383.774 C476.801,382.285 483.991,380.342 484.185,379.158 C472.591,351.391 475.506,341.935 475.506,341.935 z" fill-opacity="0" stroke="#000000" stroke-width="1"/>
    </g>
    <path d="M444.593,324.821 C444.593,324.821 440.202,333.261 430.316,337.598" fill-opacity="0" stroke="#000000" stroke-width="1"/>
    <path d="M428.775,351.566 C428.775,351.566 437.762,361.1 426.464,382.828" fill-opacity="0" stroke="#000000" stroke-width="1"/>
    <g>
      <path d="M377.827,373.47 C392.526,374.87 398.826,400.537 398.826,400.537 C398.826,400.537 400.693,404.037 408.86,400.07 C417.026,396.103 395.793,418.037 400.693,421.77 C405.593,425.503 405.593,434.37 414.226,440.203 C422.86,446.036 417.493,467.503 420.293,476.136 C423.093,484.769 427.759,459.103 423.093,449.07 C418.426,439.036 419.359,432.036 427.293,432.503 C435.226,432.97 425.893,431.103 433.126,419.203 C440.359,407.303 431.026,491.769 427.06,491.303 C423.093,490.836 424.726,501.102 415.393,496.902 C406.06,492.703 405.593,483.369 405.593,483.369 C405.593,483.369 399.993,489.902 405.126,496.202 C410.26,502.502 410.26,487.103 426.826,494.803 C443.393,502.502 435.693,513.236 430.559,518.136 C425.426,523.036 390.66,520.936 399.76,523.036 C408.86,525.136 416.56,547.535 410.26,536.569 C403.96,525.602 387.86,528.893 392.76,534.248 C380.386,521.924 363.38,541.014 356.827,537.269 C350.274,533.523 362.893,528.059 373.16,526.13 C383.427,524.202 355.427,515.802 344.227,518.836 C333.027,521.869 339.794,527.592 329.527,526.13 C319.26,524.669 318.548,507.636 321.821,501.569 C325.094,495.503 330.694,492.936 328.127,492.003 C325.56,491.069 318.561,443.236 325.56,437.87 C332.56,432.503 325.794,433.67 328.594,423.403 C331.394,413.137 330.694,431.57 332.094,433.67 C333.494,435.77 338.16,434.37 339.56,443.236 C340.96,452.103 334.194,454.436 334.194,454.436 C334.194,454.436 334.427,478.469 338.16,475.436 C341.894,472.403 343.294,469.836 341.427,464.47 C339.56,459.103 338.627,452.803 343.527,443.703 C348.427,434.603 346.599,436.703 353.113,430.403 C359.627,424.103 364.293,422.003 357.06,420.37 C349.827,418.737 342.127,404.27 348.66,408.47 C355.194,412.67 357.527,407.537 360.327,406.37 C363.127,405.203 363.127,372.07 377.827,373.47 z" fill="#6F7041"/>
      <path d="M377.827,373.47 C392.526,374.87 398.826,400.537 398.826,400.537 C398.826,400.537 400.693,404.037 408.86,400.07 C417.026,396.103 395.793,418.037 400.693,421.77 C405.593,425.503 405.593,434.37 414.226,440.203 C422.86,446.036 417.493,467.503 420.293,476.136 C423.093,484.769 427.759,459.103 423.093,449.07 C418.426,439.036 419.359,432.036 427.293,432.503 C435.226,432.97 425.893,431.103 433.126,419.203 C440.359,407.303 431.026,491.769 427.06,491.303 C423.093,490.836 424.726,501.102 415.393,496.902 C406.06,492.703 405.593,483.369 405.593,483.369 C405.593,483.369 399.993,489.902 405.126,496.202 C410.26,502.502 410.26,487.103 426.826,494.803 C443.393,502.502 435.693,513.236 430.559,518.136 C425.426,523.036 390.66,520.936 399.76,523.036 C408.86,525.136 416.56,547.535 410.26,536.569 C403.96,525.602 387.86,528.893 392.76,534.248 C380.386,521.924 363.38,541.014 356.827,537.269 C350.274,533.523 362.893,528.059 373.16,526.13 C383.427,524.202 355.427,515.802 344.227,518.836 C333.027,521.869 339.794,527.592 329.527,526.13 C319.26,524.669 318.548,507.636 321.821,501.569 C325.094,495.503 330.694,492.936 328.127,492.003 C325.56,491.069 318.561,443.236 325.56,437.87 C332.56,432.503 325.794,433.67 328.594,423.403 C331.394,413.137 330.694,431.57 332.094,433.67 C333.494,435.77 338.16,434.37 339.56,443.236 C340.96,452.103 334.194,454.436 334.194,454.436 C334.194,454.436 334.427,478.469 338.16,475.436 C341.894,472.403 343.294,469.836 341.427,464.47 C339.56,459.103 338.627,452.803 343.527,443.703 C348.427,434.603 346.599,436.703 353.113,430.403 C359.627,424.103 364.293,422.003 357.06,420.37 C349.827,418.737 342.127,404.27 348.66,408.47 C355.194,412.67 357.527,407.537 360.327,406.37 C363.127,405.203 363.127,372.07 377.827,373.47 z" fill-opacity="0" stroke="#000000" stroke-width="3"/>
    </g>
    <g>
      <path d="M376.622,526.13 C376.622,526.13 389.432,515.741 405.963,529.484" fill="#DEF0FF"/>
      <path d="M376.622,526.13 C376.622,526.13 389.432,515.741 405.963,529.484" fill-opacity="0" stroke="#000000" stroke-width="1"/>
    </g>
    <path d="M376.622,526.13 L379.564,530.491 L363.671,535.574 L361.659,530.412" fill-opacity="0" stroke="#000000" stroke-width="1"/>
    <g>
      <path d="M377.843,391.259 C373.954,398.429 362.175,406.48 366.892,409.901 C361.797,404.643 347.312,409.901 347.312,409.901 C347.312,409.901 353.987,417.601 363.081,421.783 C372.175,425.964 365.081,436.766 376.741,437.403 C388.401,438.04 389.689,410.917 393.007,418.724 C398.024,420.304 402.147,415.547 402.147,415.547 L406.809,402.002 C406.809,402.002 390.705,405.705 388.232,409.325 C388.401,402.945 380.788,398.052 377.843,391.259 z" fill="#A6CEC6" fill-opacity="0.756"/>
      <path d="M377.843,391.259 C373.954,398.429 362.175,406.48 366.892,409.901 C361.797,404.643 347.312,409.901 347.312,409.901 C347.312,409.901 353.987,417.601 363.081,421.783 C372.175,425.964 365.081,436.766 376.741,437.403 C388.401,438.04 389.689,410.917 393.007,418.724 C398.024,420.304 402.147,415.547 402.147,415.547 L406.809,402.002 C406.809,402.002 390.705,405.705 388.232,409.325 C388.401,402.945 380.788,398.052 377.843,391.259 z" fill-opacity="0" stroke="#000000" stroke-width="1"/>
    </g>
    <g>
      <path d="M330.138,422.739 C327.299,422.038 326.682,439.36 322.984,441.551 C319.286,443.742 327.382,491.033 327.382,491.033 C327.382,491.033 329.126,485.025 338.16,475.436 C324.621,450.95 347.301,444.714 336.133,437.414 C324.964,430.114 332.977,423.441 330.138,422.739 z" fill="#A6CEC6" fill-opacity="0.754"/>
      <path d="M330.138,422.739 C327.299,422.038 326.682,439.36 322.984,441.551 C319.286,443.742 327.382,491.033 327.382,491.033 C327.382,491.033 329.126,485.025 338.16,475.436 C324.621,450.95 347.301,444.714 336.133,437.414 C324.964,430.114 332.977,423.441 330.138,422.739 z" fill-opacity="0" stroke="#000000" stroke-width="2"/>
    </g>
    <g>
      <path d="M433.595,420.053 C437.107,418.59 435.57,460.085 428.59,492.227 C428.668,495.177 423.141,483.457 422.633,475.867 C427.573,446.912 419.088,439.932 420.959,435.624 C422.831,431.317 430.316,433.402 430.316,433.402 C430.316,433.402 430.083,421.516 433.595,420.053 z" fill="#A6CEC6" fill-opacity="0.754"/>
      <path d="M433.595,420.053 C437.107,418.59 435.57,460.085 428.59,492.227 C428.668,495.177 423.141,483.457 422.633,475.867 C427.573,446.912 419.088,439.932 420.959,435.624 C422.831,431.317 430.316,433.402 430.316,433.402 C430.316,433.402 430.083,421.516 433.595,420.053 z" fill-opacity="0" stroke="#000000" stroke-width="2"/>
    </g>
    <path d="M379.564,453.114 C383.394,475.867 373.699,499.327 373.699,499.327" fill-opacity="0" stroke="#000000" stroke-width="1"/>
    <path d="M360.274,453.114 C365.739,470.161 342.344,500.652 334.274,499.327" fill-opacity="0" stroke="#000000" stroke-width="1"/>
    <path d="M397.616,444.873 C394.053,457.058 387.986,471.124 402.147,488.988" fill-opacity="0" stroke="#000000" stroke-width="1"/>
    <path d="M339.339,508.93 C354.175,505.781 348.185,509.468 364.414,515.741" fill-opacity="0" stroke="#000000" stroke-width="1"/>
    <path d="M420.684,508.587 C402.102,499.962 418.198,509.468 395.943,515.741" fill-opacity="0" stroke="#000000" stroke-width="1"/>
    <g>
      <path d="M702.034,593.964 C660.514,593.964 626.855,572.792 626.855,546.676 C626.855,520.56 660.514,499.389 702.034,499.389 C743.555,499.389 777.214,520.56 777.214,546.676 C777.214,572.792 743.555,593.964 702.034,593.964 z" fill="#A86D36"/>
      <path d="M702.034,593.964 C660.514,593.964 626.855,572.792 626.855,546.676 C626.855,520.56 660.514,499.389 702.034,499.389 C743.555,499.389 777.214,520.56 777.214,546.676 C777.214,572.792 743.555,593.964 702.034,593.964 z" fill-opacity="0" stroke="#000000" stroke-width="1"/>
    </g>
    <path d="M646.071,499.389 L646.071,593.963 L646.071,544.161 L670.627,544.161 L670.627,500.144 L670.627,591.7" fill-opacity="0" stroke="#000000" stroke-width="3"/>
    <path d="M775.215,593.963 C763.971,577.111 701.503,501.904 734.236,499.389 C766.969,496.874 709.499,571.998 721.992,585.999 C734.486,600 747.979,594.718 777.214,545.419" fill-opacity="0" stroke="#000000" stroke-width="3"/>
    <path d="M694.463,545.361 L694.463,526.19 L703.06,531.128 L698.203,536.88 L705.394,545.361" fill-opacity="0" stroke="#000000" stroke-width="3"/>
    <path d="M712.632,527.82 L718.727,534.723 L713.203,542.776 L708.584,535.969 L712.632,527.82 z" fill-opacity="0" stroke="#000000" stroke-width="3"/>
    <path d="M684.875,526.19 L676.681,537.18 L684.875,537.486 L676.377,538.198 L684.875,545.361" fill-opacity="0" stroke="#000000" stroke-width="3"/>
    <path d="M730.078,529.55 L723.1,536.875 L730.685,536.875 L722.594,537.384 L729.774,543.797" fill-opacity="0" stroke="#000000" stroke-width="3"/>
    <path d="M746.158,529.138 L739.786,523.946 L735.943,532.701 L745.955,539.013 L740.595,543.797 L733.718,540.438" fill-opacity="0" stroke="#000000" stroke-width="3"/>
    <path d="M681.737,551.025 L676.377,560.187 L683.052,566.397 L688.76,559.678 L681.737,551.025 z" fill-opacity="0" stroke="#000000" stroke-width="3"/>
    <path d="M695.961,567.983 L694.343,551.695 L702.324,553.833 L698.287,561.06 L705.514,567.983" fill-opacity="0" stroke="#000000" stroke-width="3"/>
    <path d="M711.973,568.594 L708.584,551.084 L717.232,553.222 L713.085,560.144 L719.355,566.15" fill-opacity="0" stroke="#000000" stroke-width="3"/>
    <path d="M730.684,550.669 L724.819,558.202 L731.595,565.837 L733.718,558.508 L730.684,550.669 z" fill-opacity="0" stroke="#000000" stroke-width="3"/>
    <path d="M740.595,567.55 L738.067,549.873 L746.157,553.399 L740.595,559.711 L748.888,564.699" fill-opacity="0" stroke="#000000" stroke-width="3"/>
    <path d="M761.024,554.69 L755.057,548.378 L748.888,555.606 L760.518,562.02 L754.652,569.044 L751.922,564.768" fill-opacity="0" stroke="#000000" stroke-width="3"/>
    <path d="M373.093,437.403 C373.093,437.403 378.943,447.088 379.564,453.114 C380.185,459.14 377.353,439.274 386.302,430.673" fill-opacity="0" stroke="#000000" stroke-width="1"/>
    <path d="M376.622,406.127 C376.622,406.127 370.474,404.107 367.014,407.004" fill-opacity="0" stroke="#000000" stroke-width="1"/>
    <path d="M381.298,406.015 C381.298,406.015 384.335,403.712 388.232,407.318" fill-opacity="0" stroke="#000000" stroke-width="1"/>
    <g>
      <path d="M374.666,411.82 C374.666,411.82 368.333,411.475 366.491,408.827 C364.649,406.179 368.35,414.755 371.508,414.813 C374.666,414.87 374.666,411.82 374.666,411.82 z" fill="#000000"/>
      <path d="M374.666,411.82 C374.666,411.82 368.333,411.475 366.491,408.827 C364.649,406.179 368.35,414.755 371.508,414.813 C374.666,414.87 374.666,411.82 374.666,411.82 z" fill-opacity="0" stroke="#000000" stroke-width="1"/>
    </g>
    <g>
      <path d="M379.564,412.108 C379.564,412.108 386,412.484 389.432,409.901 C392.865,407.318 386.452,416.281 384.127,415.547 C380.995,417 379.564,412.108 379.564,412.108 z" fill="#000000"/>
      <path d="M379.564,412.108 C379.564,412.108 386,412.484 389.432,409.901 C392.865,407.318 386.452,416.281 384.127,415.547 C380.995,417 379.564,412.108 379.564,412.108 z" fill-opacity="0" stroke="#000000" stroke-width="1"/>
    </g>
    <path d="M371.672,412.874 C371.305,412.874 371.008,412.655 371.008,412.385 C371.008,412.115 371.305,411.896 371.672,411.896 C372.039,411.896 372.336,412.115 372.336,412.385 C372.336,412.655 372.039,412.874 371.672,412.874 z" fill="#FF0000"/>
    <path d="M382.455,413.335 C382.088,413.335 381.791,413.116 381.791,412.846 C381.791,412.576 382.088,412.357 382.455,412.357 C382.822,412.357 383.12,412.576 383.12,412.846 C383.12,413.116 382.822,413.335 382.455,413.335 z" fill="#FF0000"/>
    <path d="M376.741,417.549 L377.843,419.747 C377.843,419.747 374.588,421.263 376.741,417.549 z" fill-opacity="0" stroke="#000000" stroke-width="1"/>
    <path d="M373.699,424.205 C373.699,424.205 375.619,426.281 380.185,425.182" fill-opacity="0" stroke="#000000" stroke-width="1"/>
    <path d="M363.081,412.857 C363.081,412.857 356.172,410.166 356.05,412.857 C355.928,415.547 359.451,416.358 361.659,416.801 C358.859,413.946 363.081,412.857 363.081,412.857 z" fill-opacity="0" stroke="#000000" stroke-width="1"/>
    <path d="M394.766,411.661 C394.766,411.661 395.54,406.317 402.147,407.318 C402.705,410.404 400.751,412.053 399.163,413.835 C398.247,411.661 398.504,411.661 394.766,411.661 z" fill-opacity="0" stroke="#000000" stroke-width="1"/>
    <path d="M369.155,420.053 C369.155,420.053 368.207,421.253 369.155,421.783" fill-opacity="0" stroke="#000000" stroke-width="1"/>
    <path d="M384.935,420.053 C384.935,420.053 387.669,420.663 386.302,422.74" fill-opacity="0" stroke="#000000" stroke-width="1"/>
  </g>
</svg>
