<?xml version="1.0" encoding="UTF-8"?>
<!DOCTYPE svg PUBLIC "-//W3C//DTD SVG 1.1//EN" "http://www.w3.org/Graphics/SVG/1.1/DTD/svg11.dtd">
<svg version="1.1" xmlns="http://www.w3.org/2000/svg" xmlns:xlink="http://www.w3.org/1999/xlink" x="0" y="0" width="300" height="450" viewBox="0, 0, 300, 450">
  <g id="Background">
    <rect x="0" y="0" width="300" height="450" fill="#D7D9FF"/>
  </g>
  <g id="Layer_1">
    <path d="M10.625,322.047 C32.654,285.31 46.64,178.653 45.189,127.864 C-3.04,43.093 66.624,22.566 84.653,56.401 C124.4,25.993 203.608,50.011 211.754,57.865 C264.519,8.203 271.767,102.748 244.469,114.46 C249.914,136.363 289.404,290.459 291.226,320.147 C293.047,349.836 286.954,451.649 152.383,452.695 C17.811,453.741 -11.405,358.784 10.625,322.047 z" fill="#FFFFFF"/>
    <path d="M118.069,192.767 L118.285,193.628 L118.999,195.165 L119.929,196.603 L121.033,197.939 L122.268,199.189 L123.62,200.342 L125.087,201.37 L126.655,202.261 L127.912,202.853 L128.792,203.197 L129.662,203.497 L130.551,203.754 L131.457,203.959 L132.38,204.12 L133.316,204.233 L134.266,204.287 L135.227,204.283 L136.197,204.221 L137.173,204.097 L138.15,203.901 L139.127,203.638 L140.098,203.305 L141.062,202.902 L142.011,202.423 L142.528,202.128 L142.528,202.128 C142.566,202.105 142.603,202.083 142.639,202.059 L142.639,202.059 L142.94,201.87 L143.685,201.342 L144.414,200.747 L145.072,200.146 L145.927,199.28 L146.946,198.187 L147.628,197.481 L148.023,197.109 L148.403,196.786 L148.754,196.531 L149.077,196.342 L149.372,196.21 L149.653,196.126 L149.94,196.077 L149.991,196.08 L149.834,196.098 L150.037,196.077 L150.27,196.066 L150.419,196.07 L150.538,196.082 L150.737,196.122 L150.932,196.198 L151.051,196.278 L151.198,196.386 L151.397,196.546 L151.657,196.777 L152.175,197.288 L153.015,198.148 L153.82,198.917 L154.491,199.492 L155.234,200.043 L156.082,200.566 L156.619,200.845 L156.619,200.845 C156.66,200.866 156.702,200.887 156.743,200.907 L156.743,200.907 L157.041,201.034 L157.789,201.322 L158.594,201.578 L159.403,201.78 L160.212,201.932 L161.02,202.034 L162.185,202.093 L163.736,202.042 L165.289,201.848 L166.797,201.532 L168.247,201.077 L169.625,200.493 L170.92,199.797 L172.126,199.015 L173.239,198.172 L174.259,197.298 L175.177,196.399 L175.991,195.498 L176.7,194.619 L177.015,194.194 L177.015,194.194 C177.016,194.193 177.017,194.191 177.016,194.189 C177.015,194.187 177.013,194.187 177.011,194.188 L176.499,194.288 L175.421,194.496 L174.28,194.706 L173.098,194.92 L171.889,195.134 L170.663,195.33 L169.439,195.513 L168.231,195.682 L167.052,195.839 L165.909,195.976 L164.807,196.076 L163.752,196.1 L162.714,196.042 L161.962,195.933 L161.507,195.84 L161.07,195.727 L160.649,195.59 L160.245,195.431 L159.807,195.224 L159.52,195.074 L159.644,195.136 L159.54,195.075 L159.194,194.846 L158.845,194.565 L158.509,194.249 L157.916,193.615 L157.007,192.584 L156.217,191.751 L155.57,191.159 L154.814,190.579 L153.937,190.049 L152.944,189.614 L151.922,189.318 L151.126,189.185 L150.54,189.137 L149.945,189.128 L149.395,189.153 L149.192,189.17 L149.192,189.17 C149.139,189.175 149.087,189.181 149.035,189.188 L149.035,189.188 L148.352,189.294 L147.253,189.569 L146.245,189.956 L145.337,190.426 L144.528,190.953 L143.809,191.509 L143.165,192.077 L142.573,192.657 L141.817,193.459 L140.929,194.435 L140.31,195.089 L139.941,195.455 L139.594,195.77 L139.201,196.077 L138.906,196.273 L139.017,196.204 L138.8,196.344 L138.269,196.647 L137.739,196.911 L137.204,197.134 L136.664,197.319 L136.115,197.468 L135.559,197.589 L134.991,197.674 L134.411,197.725 L133.82,197.745 L133.215,197.738 L132.599,197.698 L131.971,197.624 L131.332,197.527 L130.682,197.401 L130.052,197.253 L129.067,196.988 L127.697,196.536 L126.3,196.018 L124.876,195.45 L123.438,194.835 L121.987,194.191 L120.496,193.562 L118.936,192.975 L118.074,192.762 C118.073,192.761 118.071,192.761 118.069,192.762 C118.068,192.764 118.068,192.766 118.069,192.767 L118.069,192.767" fill="#000000"/>
    <path d="M289.111,320.148 C263.426,367.645 215.255,406.776 159.175,421.438 C167.46,440.135 191.57,448.652 203.603,450.958 C317.686,456.123 304.237,460.065 300,345.281 C297.976,336.005 305.928,338.848 289.111,320.148 z" fill="#4571AF"/>
    <path d="M10.889,323.317 C33.011,367.644 93.044,387.419 141.655,422.743 C133.506,433.412 103.238,454.179 92.353,450 C-27.211,451.54 2.804,460.611 0,368.258 C0,363.475 -5.112,339.562 10.889,323.317 z" fill="#4571AF"/>
    <g>
      <path d="M124.552,152.92 C128.017,120.848 175.84,122.34 176.996,155.158 C178.151,187.975 121.086,184.992 124.552,152.92 z" fill="#000000"/>
      <path d="M124.552,152.92 C128.017,120.848 175.84,122.34 176.996,155.158 C178.151,187.975 121.086,184.992 124.552,152.92 z" fill-opacity="0" stroke="#000000" stroke-width="7"/>
    </g>
    <path d="M151.151,450.73 C139.066,449.127 137.419,444.124 137.419,434.883 C132.948,420.23 143.388,414.469 148.541,414.469 C153.694,414.469 162.776,417.596 160.481,433.998 C160.481,443.239 156.304,450.73 151.151,450.73 z" fill="#4571AF"/>
    <path d="M85.155,56.898 L85.062,56.14 L84.795,54.725 L84.442,53.417 L84.016,52.21 L83.538,51.082 L83.005,50.038 L82.435,49.057 L81.821,48.151 L81.163,47.317 L80.475,46.542 L79.757,45.822 L79.006,45.163 L78.223,44.566 L77.416,44.018 L76.587,43.516 L75.734,43.066 L74.859,42.662 L73.967,42.298 L73.058,41.975 L72.133,41.69 L71.191,41.446 L70.239,41.232 L68.795,40.975 L66.84,40.714 L64.86,40.535 L61.88,40.384 L59.891,40.325 L59.891,40.325 C59.885,40.325 59.88,40.325 59.874,40.325 L59.874,40.325 L59.5,40.321 L58.673,40.332 L57.788,40.368 L56.863,40.428 L55.905,40.51 L54.922,40.614 L53.419,40.813 L51.393,41.145 L49.881,41.44 L48.892,41.657 L47.937,41.889 L47.015,42.137 L46.133,42.399 L45.295,42.675 L44.873,42.827 L44.873,42.827 C44.856,42.833 44.84,42.839 44.823,42.846 L44.823,42.846 L44.477,42.979 L43.687,43.315 L42.861,43.708 L42.03,44.145 L40.805,44.861 L39.175,45.946 L37.932,46.873 L37.11,47.538 L36.329,48.212 L35.568,48.913 L34.828,49.642 L34.111,50.402 L33.422,51.193 L32.761,52.019 L32.398,52.506 L32.398,52.506 C32.368,52.548 32.338,52.59 32.308,52.632 L32.308,52.632 L32.127,52.892 L31.654,53.616 L31.18,54.417 L30.747,55.228 L30.199,56.395 L29.579,57.978 L29.068,59.596 L28.671,61.189 L28.367,62.756 L28.139,64.302 L27.977,65.824 L27.866,67.325 L27.777,69.511 L27.75,72.343 L27.766,74.382 L27.779,75.672 L27.784,76.291 L27.784,76.263 L27.783,77.711 L27.745,80.591 L27.72,83.537 L27.761,85.797 L27.835,87.328 L27.891,88.108 L27.891,88.108 C27.892,88.126 27.893,88.144 27.895,88.162 L27.895,88.162 L27.937,88.615 L28.068,89.658 L28.25,90.777 L28.479,91.942 L28.752,93.154 L29.065,94.415 L29.415,95.719 L29.802,97.065 L30.221,98.448 L30.676,99.861 L31.161,101.3 L31.673,102.764 L32.487,104.988 L33.653,107.988 L34.917,110.967 L36.282,113.861 L37.732,116.623 L38.834,118.617 L39.586,119.885 L40.336,121.107 L41.083,122.281 L41.829,123.396 L42.565,124.453 L43.291,125.446 L44.001,126.372 L44.693,127.227 L45.364,128.005 L45.687,128.367 L45.687,128.367 C45.688,128.368 45.689,128.368 45.69,128.366 C45.692,128.365 45.692,128.363 45.692,128.362 C45.692,128.362 45.692,128.362 45.692,128.362 L45.487,127.859 L45.072,126.787 L44.641,125.639 L44.196,124.421 L43.74,123.137 L43.272,121.796 L42.794,120.402 L42.304,118.965 L41.808,117.486 L41.308,115.972 L40.533,113.666 L39.505,110.509 L38.452,107.347 L37.397,104.216 L36.375,101.134 L35.656,98.865 L35.207,97.384 L34.784,95.934 L34.389,94.519 L34.02,93.149 L33.685,91.827 L33.386,90.557 L33.125,89.348 L32.904,88.206 L32.725,87.143 L32.586,86.168 L32.491,85.264 L32.458,84.802 L32.461,84.855 L32.427,84.189 L32.387,82.809 L32.391,80.67 L32.462,77.723 L32.547,74.733 L32.568,73.27 L32.568,73.27 C32.568,73.261 32.568,73.252 32.568,73.242 L32.568,73.242 L32.57,72.602 L32.572,71.314 L32.577,69.36 L32.623,66.709 L32.715,64.73 L32.812,63.456 L32.943,62.222 L33.108,61.045 L33.311,59.938 L33.549,58.92 L33.814,58.005 L34.125,57.147 L34.388,56.554 L34.55,56.228 L34.718,55.923 L34.937,55.575 L35.12,55.311 L35.03,55.437 L35.131,55.293 L35.467,54.857 L35.86,54.392 L36.305,53.907 L36.794,53.411 L37.322,52.911 L37.883,52.415 L38.446,51.946 L39.342,51.255 L40.632,50.369 L41.612,49.774 L42.241,49.428 L42.858,49.118 L43.485,48.837 L43.834,48.696 L43.784,48.715 L44.093,48.597 L44.81,48.346 L45.594,48.098 L46.435,47.857 L47.32,47.621 L48.234,47.395 L49.655,47.078 L51.6,46.705 L53.047,46.471 L53.986,46.335 L54.895,46.22 L55.765,46.129 L56.587,46.061 L57.362,46.019 L57.744,46.008 L57.727,46.008 L59.708,45.964 L62.677,45.943 L64.629,45.98 L66.56,46.08 L67.985,46.213 L68.921,46.323 L69.845,46.462 L70.759,46.621 L71.661,46.809 L72.551,47.028 L73.425,47.283 L74.286,47.573 L75.134,47.897 L75.964,48.265 L76.775,48.678 L77.574,49.131 L78.36,49.625 L79.125,50.173 L79.869,50.777 L80.602,51.426 L81.322,52.124 L82.021,52.887 L82.713,53.697 L83.394,54.565 L84.081,55.475 L84.785,56.423 L85.151,56.903 C85.151,56.904 85.153,56.904 85.154,56.903 C85.155,56.901 85.156,56.899 85.155,56.898 L85.155,56.898" fill="#000000"/>
    <path d="M212.256,58.363 L212.291,58.188 L212.331,57.816 L212.347,57.247 L212.365,56.708 L212.409,56.41 L212.487,56.196 L212.571,56.153 L212.53,56.296 L212.37,56.48 L212.386,56.469 L212.396,56.483 L212.512,56.431 L212.696,56.346 L212.933,56.234 L213.219,56.095 L213.55,55.936 L213.92,55.758 L214.327,55.56 L214.765,55.337 L215.476,54.977 L216.501,54.461 L217.586,53.884 L218.702,53.292 L219.819,52.699 L220.906,52.103 L221.932,51.544 L222.643,51.157 L223.082,50.916 L223.489,50.693 L223.858,50.492 L224.187,50.316 L224.469,50.167 L224.698,50.05 L224.866,49.966 L224.907,49.949 L224.846,49.982 L225.412,49.729 L226.45,49.344 L227.505,49.036 L228.613,48.772 L229.764,48.553 L230.948,48.37 L232.781,48.112 L234.014,47.947 L233.987,47.951 L234.096,47.938 L234.28,47.931 L234.517,47.93 L234.817,47.938 L235.168,47.954 L235.563,47.979 L236.23,48.03 L237.223,48.127 L238.306,48.256 L239.454,48.413 L240.641,48.592 L241.844,48.784 L243.031,48.993 L244.176,49.216 L245.253,49.448 L246.235,49.685 L247.094,49.918 L247.63,50.089 L247.925,50.197 L248.174,50.301 L248.362,50.395 L248.408,50.425 L248.372,50.404 L248.859,50.708 L249.748,51.327 L250.565,51.98 L251.329,52.674 L252.041,53.403 L252.705,54.171 L253.32,54.974 L253.89,55.812 L254.417,56.683 L254.903,57.585 L255.352,58.514 L255.764,59.47 L256.141,60.453 L256.485,61.461 L256.797,62.492 L257.08,63.545 L257.336,64.618 L257.568,65.707 L257.873,67.383 L258.21,69.656 L258.481,71.951 L258.701,74.27 L258.886,76.596 L259.048,78.916 L259.208,81.211 L259.292,82.349 L259.286,82.152 L259.288,82.965 L259.269,84.494 L259.222,85.935 L259.147,87.308 L259.046,88.615 L258.921,89.855 L258.774,91.031 L258.611,92.14 L258.431,93.187 L258.236,94.173 L258.027,95.098 L257.808,95.965 L257.581,96.774 L257.348,97.527 L257.113,98.226 L256.877,98.871 L256.64,99.467 L256.404,100.014 L256.173,100.515 L255.946,100.971 L255.726,101.386 L255.514,101.761 L255.312,102.099 L255.121,102.401 L254.941,102.669 L254.773,102.907 L254.618,103.116 L254.477,103.297 L254.35,103.454 L254.237,103.588 L254.136,103.705 L254.042,103.811 L253.995,103.863 L253.995,103.863 C253.992,103.866 253.989,103.87 253.986,103.873 L253.986,103.873 L253.426,104.503 L252.358,105.729 L251.371,106.881 L250.453,107.941 L249.587,108.909 L248.754,109.794 L247.932,110.602 L247.096,111.342 L246.217,112.027 L245.268,112.67 L244.506,113.113 L243.965,113.394 L243.382,113.674 L242.766,113.942 L242.115,114.197 L241.428,114.44 L240.702,114.673 L239.936,114.894 L239.128,115.104 L238.275,115.304 L237.375,115.495 L236.426,115.68 L235.933,115.767 L235.933,115.767 C235.932,115.767 235.931,115.769 235.93,115.77 C235.929,115.772 235.93,115.773 235.931,115.773 C235.931,115.773 235.931,115.773 235.931,115.773 L236.361,115.855 L237.196,115.997 L238.001,116.103 L238.777,116.175 L239.525,116.216 L240.247,116.226 L240.946,116.206 L241.624,116.155 L242.283,116.074 L242.924,115.966 L243.55,115.83 L244.174,115.654 L245.086,115.337 L246.252,114.828 L247.383,114.205 L248.483,113.482 L249.557,112.675 L250.609,111.794 L251.65,110.848 L252.693,109.847 L253.753,108.795 L254.849,107.673 L255.425,107.077 L255.415,107.087 L255.474,107.027 L255.631,106.863 L255.831,106.648 L256.067,106.388 L256.331,106.083 L256.621,105.734 L256.932,105.341 L257.261,104.904 L257.606,104.422 L257.963,103.894 L258.328,103.322 L258.7,102.704 L259.074,102.039 L259.45,101.328 L259.824,100.57 L260.195,99.766 L260.559,98.915 L260.916,98.016 L261.263,97.069 L261.596,96.075 L261.914,95.031 L262.217,93.937 L262.503,92.791 L262.77,91.594 L263.016,90.343 L263.241,89.036 L263.437,87.676 L263.608,86.259 L263.752,84.783 L263.867,83.246 L263.95,81.648 L263.997,80.006 L264.008,79.183 L264.008,79.183 C264.009,79.116 264.007,79.05 264.003,78.986 L264.003,78.986 L263.94,77.852 L263.816,75.518 L263.679,73.126 L263.515,70.691 L263.303,68.233 L263.029,65.769 L262.671,63.334 L262.34,61.534 L262.083,60.339 L261.794,59.159 L261.473,57.995 L261.118,56.85 L260.726,55.727 L260.295,54.626 L259.823,53.553 L259.307,52.509 L258.744,51.498 L258.133,50.523 L257.473,49.584 L256.761,48.685 L255.995,47.828 L255.175,47.015 L254.295,46.253 L253.356,45.541 L252.371,44.889 L251.876,44.595 L251.876,44.595 C251.864,44.588 251.851,44.581 251.839,44.574 L251.839,44.574 L251.675,44.487 L251.368,44.347 L251.028,44.216 L250.646,44.088 L250.018,43.905 L249.078,43.672 L248.028,43.453 L246.889,43.246 L245.688,43.053 L244.449,42.875 L243.196,42.715 L241.95,42.583 L240.74,42.474 L239.588,42.39 L238.524,42.334 L237.796,42.311 L237.342,42.308 L236.917,42.315 L236.52,42.331 L236.148,42.359 L235.813,42.4 L235.7,42.419 L235.7,42.419 C235.691,42.421 235.682,42.422 235.672,42.424 L235.672,42.424 L234.392,42.67 L232.447,43.06 L231.125,43.372 L229.794,43.735 L228.458,44.168 L227.116,44.701 L225.82,45.332 L225.245,45.661 L225.245,45.661 C225.225,45.671 225.204,45.682 225.184,45.693 L225.184,45.693 L225.067,45.763 L224.838,45.907 L224.569,46.084 L224.26,46.292 L223.911,46.53 L223.527,46.796 L223.108,47.087 L222.658,47.401 L221.935,47.919 L220.898,48.669 L219.804,49.465 L218.682,50.307 L217.562,51.155 L216.474,51.984 L215.447,52.8 L214.736,53.368 L214.296,53.719 L213.888,54.056 L213.516,54.367 L213.183,54.647 L212.893,54.892 L212.649,55.105 L212.451,55.279 L212.296,55.417 L212.153,55.546 L212.138,55.564 L212.138,55.564 C212.08,55.616 212.026,55.679 211.977,55.748 L211.977,55.748 L211.776,56.118 L211.66,56.578 L211.669,56.921 L211.739,57.219 L211.904,57.62 L212.093,58 L212.206,58.245 L212.251,58.367 C212.251,58.368 212.253,58.369 212.254,58.368 C212.255,58.367 212.256,58.365 212.256,58.363 L212.256,58.363" fill="#000000"/>
    <path d="M11.122,322.549 L11.399,323.335 L12.051,324.862 L13.209,327.062 L14.929,329.911 L16.77,332.685 L18.636,335.413 L20.474,338.106 L21.788,340.108 L22.613,341.436 L23.408,342.775 L24.163,344.115 L24.508,344.767 L24.482,344.722 L24.836,345.401 L25.479,346.71 L26.106,348.033 L26.758,349.388 L27.469,350.766 L28.257,352.161 L29.152,353.564 L29.929,354.634 L30.512,355.348 L30.834,355.715 L30.834,355.715 C30.843,355.725 30.852,355.735 30.862,355.745 L30.862,355.745 L31.931,356.937 L34.128,359.358 L36.376,361.774 L38.632,364.155 L39.758,365.326 L39.758,365.326 C39.768,365.336 39.778,365.346 39.788,365.356 L39.788,365.356 L40.06,365.629 L40.69,366.227 L41.677,367.084 L43.037,368.145 L44.433,369.131 L46.492,370.469 L48.506,371.717 L49.764,372.512 L50.345,372.893 L50.296,372.861 L51.312,373.55 L53.245,374.934 L55.16,376.365 L57.097,377.842 L59.068,379.342 L61.084,380.839 L63.164,382.306 L64.787,383.379 L65.907,384.077 L66.488,384.422 L66.488,384.422 C66.502,384.431 66.517,384.439 66.531,384.447 L66.531,384.447 L66.71,384.55 L67.115,384.77 L67.526,384.976 L67.928,385.158 L68.471,385.368 L69.157,385.576 L69.767,385.718 L70.2,385.811 L70.418,385.87 L70.54,385.909 L70.709,385.969 L70.916,386.051 L71.01,386.091 L70.94,386.061 L71.756,386.421 L73.253,387.147 L75.513,388.347 L77.836,389.622 L79.467,390.485 L81.168,391.319 L82.95,392.094 L83.925,392.47 L83.925,392.47 C83.931,392.472 83.937,392.475 83.943,392.477 L83.943,392.477 L84.944,392.85 L86.799,393.607 L88.58,394.411 L90.332,395.271 L92.064,396.178 L93.786,397.124 L96.38,398.592 L99.863,400.588 L102.551,402.073 L104.408,403.04 L106.306,403.968 L108.263,404.848 L110.289,405.663 L111.87,406.233 L112.956,406.588 L113.515,406.759 L113.486,406.749 L113.787,406.844 L114.263,407.016 L115.009,407.318 L116.106,407.788 L117.039,408.167 L117.747,408.425 L118.147,408.554 L118.139,408.551 L118.483,408.652 L119.033,408.841 L119.555,409.059 L120.096,409.318 L120.962,409.786 L122.15,410.504 L123.387,411.28 L124.683,412.086 L125.715,412.667 L126.436,413.036 L127.167,413.371 L127.919,413.668 L128.325,413.81 L128.325,413.81 C128.325,413.81 128.326,413.81 128.326,413.81 L128.326,413.81 L128.993,414.026 L130.245,414.463 L131.479,414.936 L132.731,415.406 L134.007,415.831 L134.989,416.095 L135.656,416.232 L136.327,416.327 L137.004,416.378 L137.69,416.378 L138.382,416.321 L138.731,416.273 L138.731,416.273 C138.733,416.273 138.735,416.272 138.735,416.27 C138.735,416.268 138.733,416.266 138.731,416.266 L138.391,416.205 L137.741,416.044 L137.125,415.844 L136.536,415.61 L135.971,415.344 L135.427,415.052 L134.628,414.566 L133.567,413.844 L132.485,413.065 L131.347,412.262 L130.145,411.471 L129.541,411.114 L129.541,411.115 L129.298,410.964 L128.772,410.61 L128.251,410.215 L127.739,409.792 L126.952,409.092 L125.854,408.083 L124.704,407.017 L123.475,405.966 L122.491,405.215 L121.772,404.739 L121.007,404.297 L120.24,403.914 L119.913,403.766 L119.913,403.766 C119.91,403.765 119.908,403.764 119.905,403.763 L119.905,403.763 L119.714,403.675 L119.255,403.449 L118.465,403.02 L117.284,402.363 L116.303,401.871 L115.607,401.579 L115.312,401.467 L115.312,401.467 C115.303,401.464 115.293,401.461 115.283,401.457 L115.283,401.457 L114.829,401.291 L113.916,400.938 L112.56,400.374 L110.777,399.553 L109.028,398.674 L107.306,397.741 L105.611,396.766 L103.056,395.227 L99.613,393.098 L96.981,391.49 L95.168,390.432 L93.305,389.397 L91.382,388.396 L89.391,387.442 L87.356,386.564 L86.363,386.172 L86.382,386.179 L85.695,385.905 L84.213,385.234 L82.71,384.465 L81.18,383.624 L78.788,382.27 L76.308,380.915 L74.595,380.069 L73.783,379.701 L73.783,379.701 C73.759,379.691 73.736,379.681 73.712,379.671 L73.712,379.671 L73.453,379.562 L73.009,379.389 L72.595,379.245 L72.189,379.122 L71.7,378.995 L71.291,378.903 L71.098,378.865 L70.938,378.829 L70.769,378.77 L70.638,378.715 L70.459,378.628 L70.206,378.49 L70.027,378.386 L70.07,378.411 L69.6,378.13 L68.639,377.536 L67.189,376.583 L65.24,375.216 L63.284,373.777 L61.31,372.289 L59.306,370.775 L57.254,369.264 L55.168,367.806 L54.146,367.127 L54.146,367.127 C54.13,367.116 54.114,367.106 54.097,367.095 L54.097,367.095 L53.418,366.66 L52.1,365.847 L50.175,364.684 L48.31,363.523 L47.156,362.747 L46.06,361.933 L45.286,361.292 L44.79,360.842 L44.514,360.574 L44.544,360.604 L43.42,359.494 L41.139,357.213 L38.856,354.898 L36.592,352.589 L35.478,351.44 L35.506,351.47 L35.308,351.265 L34.899,350.814 L34.294,350.086 L33.512,349.01 L32.768,347.852 L32.043,346.618 L31.306,345.323 L30.541,343.975 L29.741,342.613 L29.338,341.961 L29.338,341.961 C29.329,341.946 29.321,341.931 29.312,341.916 L29.312,341.916 L28.832,341.176 L27.859,339.773 L26.837,338.417 L25.767,337.094 L24.117,335.184 L21.846,332.752 L19.509,330.413 L17.152,328.127 L14.777,325.874 L12.99,324.19 L11.761,323.087 L11.127,322.545 C11.127,322.545 11.127,322.545 11.127,322.545 C11.126,322.543 11.124,322.543 11.123,322.544 C11.121,322.545 11.121,322.547 11.122,322.549 L11.122,322.549" fill="#000000"/>
    <path d="M291.723,318.151 L291.308,318.412 L290.558,318.91 L289.907,319.39 L289.31,319.835 L288.501,320.479 L287.5,321.348 L286.735,322.056 L286.205,322.584 L285.645,323.163 L285.037,323.805 L284.542,324.336 L284.19,324.717 L283.821,325.121 L283.442,325.557 L283.041,326.019 L282.618,326.509 L282.17,327.03 L281.695,327.582 L281.448,327.871 L281.448,327.871 C281.442,327.879 281.437,327.886 281.432,327.894 L281.432,327.894 L281.085,328.31 L280.384,329.242 L279.725,330.237 L279.106,331.256 L278.523,332.293 L277.97,333.342 L277.202,334.921 L276.225,337.026 L275.281,339.09 L274.576,340.564 L274.108,341.496 L273.62,342.398 L273.114,343.254 L272.87,343.635 L272.903,343.579 L272.649,343.966 L272.172,344.635 L271.693,345.261 L271.193,345.873 L270.386,346.79 L269.252,347.983 L268.062,349.168 L266.829,350.401 L265.563,351.703 L264.287,353.103 L263.626,353.884 L263.626,353.884 C263.616,353.896 263.606,353.909 263.596,353.921 L263.596,353.921 L261.244,356.811 L257.718,361.122 L255.368,363.957 L252.99,366.75 L250.583,369.492 L248.129,372.17 L246.258,374.12 L244.998,375.393 L244.367,376.016 L244.419,375.965 L243.871,376.484 L242.868,377.342 L241.858,378.111 L240.795,378.852 L239.084,379.957 L236.673,381.462 L235.398,382.282 L235.398,382.282 C235.382,382.293 235.366,382.303 235.35,382.314 L235.35,382.314 L234.064,383.172 L231.481,384.96 L228.927,386.768 L226.403,388.558 L223.895,390.308 L221.387,391.989 L219.51,393.186 L218.258,393.945 L216.986,394.682 L215.704,395.385 L215.077,395.714 L215.104,395.701 L214.345,396.093 L212.812,396.872 L211.239,397.653 L209.621,398.437 L207.962,399.223 L206.266,400.011 L203.651,401.197 L200.06,402.756 L196.377,404.281 L192.619,405.76 L188.809,407.178 L184.969,408.519 L181.145,409.844 L178.301,410.803 L176.421,411.426 L174.543,412.033 L172.677,412.612 L170.827,413.174 L168.992,413.702 L167.174,414.195 L165.375,414.659 L163.597,415.086 L161.84,415.475 L160.106,415.827 L158.395,416.132 L157.549,416.266 L157.549,416.266 C157.547,416.266 157.545,416.268 157.545,416.27 C157.545,416.272 157.547,416.273 157.549,416.273 L158.403,416.393 L160.152,416.591 L161.949,416.73 L163.79,416.806 L165.668,416.823 L167.581,416.784 L169.523,416.686 L171.491,416.537 L173.481,416.342 L175.487,416.086 L177.508,415.785 L179.546,415.432 L182.605,414.804 L186.668,413.806 L190.695,412.618 L194.684,411.332 L198.612,409.962 L202.458,408.526 L206.191,407.041 L208.909,405.909 L210.68,405.143 L212.412,404.372 L214.103,403.6 L215.751,402.83 L217.345,402.067 L218.113,401.693 L218.113,401.693 C218.122,401.688 218.13,401.684 218.139,401.679 L218.139,401.679 L218.884,401.304 L220.315,400.549 L221.721,399.766 L223.116,398.952 L225.157,397.698 L227.798,395.979 L230.382,394.224 L232.922,392.459 L235.434,390.71 L237.951,388.993 L239.236,388.134 L239.188,388.166 L240.383,387.395 L242.897,385.82 L244.818,384.562 L246.124,383.634 L247.429,382.616 L248.672,381.532 L249.218,381.01 L249.218,381.01 C249.236,380.994 249.253,380.977 249.27,380.96 L249.27,380.96 L249.957,380.276 L251.299,378.906 L253.258,376.823 L255.786,374.009 L258.242,371.148 L260.631,368.247 L262.978,365.32 L266.416,360.903 L268.688,357.95 L268.658,357.987 L269.139,357.368 L270.225,356.082 L271.387,354.798 L272.607,353.488 L273.848,352.116 L275.078,350.679 L275.975,349.541 L276.566,348.731 L277.136,347.883 L277.661,347.021 L277.888,346.618 L277.888,346.618 C277.899,346.6 277.91,346.581 277.921,346.562 L277.921,346.562 L278.222,346.003 L278.756,344.929 L279.246,343.846 L279.706,342.746 L280.325,341.109 L281.071,338.954 L281.776,336.83 L282.315,335.278 L282.676,334.275 L283.052,333.302 L283.45,332.361 L283.874,331.456 L284.334,330.557 L284.601,330.087 L284.585,330.109 L284.776,329.784 L285.142,329.161 L285.488,328.574 L285.814,328.022 L286.122,327.502 L286.414,327.013 L286.68,326.547 L286.931,326.108 L287.282,325.497 L287.715,324.758 L288.113,324.094 L288.479,323.488 L288.993,322.639 L289.686,321.548 L290.236,320.687 L290.626,320.057 L291.055,319.373 L291.498,318.589 L291.728,318.156 C291.729,318.154 291.729,318.152 291.728,318.151 C291.727,318.15 291.724,318.15 291.723,318.151 L291.723,318.151" fill="#000000"/>
    <path d="M148.798,409.458 L148.507,409.74 L147.972,410.231 L147.472,410.619 L146.968,410.922 L146.478,411.183 L145.97,411.405 L145.174,411.743 L144.042,412.189 L143.15,412.622 L142.507,412.988 L141.861,413.42 L141.216,413.946 L140.596,414.589 L140.01,415.347 L139.707,415.828 L139.707,415.828 C139.699,415.843 139.692,415.859 139.685,415.874 L139.685,415.874 L139.502,416.161 L139.137,416.722 L138.546,417.618 L137.715,418.915 L136.868,420.312 L136.064,421.805 L135.496,422.995 L135.157,423.837 L134.862,424.678 L134.613,425.543 L134.418,426.435 L134.292,427.359 L134.26,427.908 L134.26,427.908 C134.26,427.93 134.259,427.952 134.259,427.974 L134.259,427.974 L134.217,429.165 L134.152,431.553 L134.197,433.448 L134.3,434.791 L134.48,436.143 L134.768,437.528 L134.973,438.294 L134.973,438.294 C134.985,438.335 134.998,438.376 135.012,438.418 L135.012,438.418 L135.07,438.603 L135.272,439.158 L135.525,439.756 L135.809,440.354 L136.123,440.959 L136.466,441.573 L136.839,442.198 L137.242,442.83 L137.884,443.776 L138.831,445.058 L139.875,446.349 L141.003,447.607 L142.201,448.806 L143.464,449.924 L144.481,450.715 L145.201,451.212 L145.914,451.651 L146.653,452.048 L147.421,452.399 L148.223,452.694 L149.067,452.923 L149.957,453.068 L150.893,453.112 L151.866,453.031 L152.856,452.801 L153.828,452.411 L154.413,452.09 L154.413,452.09 C154.472,452.055 154.53,452.018 154.587,451.98 L154.587,451.98 L154.737,451.877 L155.19,451.534 L155.823,450.964 L156.546,450.154 L157.157,449.314 L157.647,448.525 L158.048,447.816 L158.383,447.21 L158.664,446.734 L158.751,446.601 L158.657,446.735 L158.84,446.479 L159.112,446.156 L159.669,445.578 L160.631,444.628 L161.462,443.748 L162.064,443.021 L162.395,442.571 L162.395,442.571 C162.421,442.535 162.447,442.499 162.472,442.461 L162.472,442.461 L162.601,442.262 L162.922,441.725 L163.365,440.868 L163.87,439.669 L164.295,438.402 L164.632,437.108 L164.9,435.796 L165.109,434.474 L165.27,433.148 L165.385,431.828 L165.458,430.523 L165.501,429.243 L165.52,428 L165.511,426.803 L165.488,425.665 L165.453,424.598 L165.41,423.613 L165.375,423.153 L165.375,423.153 C165.375,423.153 165.375,423.153 165.375,423.153 L165.375,423.153 L165.342,422.746 L165.27,421.978 L165.201,421.265 L165.123,420.601 L165.047,419.981 L164.963,419.403 L164.876,418.861 L164.786,418.35 L164.682,417.868 L164.568,417.408 L164.443,416.967 L164.302,416.542 L164.14,416.129 L163.951,415.729 L163.621,415.199 L163.082,414.556 L162.424,413.991 L161.693,413.533 L161.087,413.238 L160.66,413.06 L160.216,412.89 L159.743,412.718 L159.234,412.547 L158.686,412.366 L158.095,412.176 L157.457,411.974 L156.768,411.757 L156.022,411.526 L155.629,411.402 L155.629,411.402 C155.627,411.401 155.625,411.401 155.624,411.403 C155.623,411.404 155.623,411.407 155.625,411.408 L155.903,411.715 L156.436,412.292 L156.941,412.818 L157.416,413.297 L157.86,413.734 L158.272,414.133 L158.649,414.499 L158.993,414.829 L159.3,415.132 L159.558,415.404 L159.867,415.755 L160.158,416.138 L160.317,416.435 L160.413,416.726 L160.453,416.974 L160.466,417.142 L160.474,417.343 L160.472,417.583 L160.459,417.868 L160.434,418.199 L160.397,418.578 L160.355,419.007 L160.302,419.489 L160.239,420.024 L160.174,420.615 L160.099,421.264 L160.03,421.973 L159.957,422.744 L159.923,423.151 L159.923,423.15 L159.888,423.592 L159.837,424.538 L159.78,425.548 L159.712,426.611 L159.627,427.713 L159.53,428.842 L159.411,429.984 L159.266,431.125 L159.1,432.249 L158.908,433.343 L158.686,434.388 L158.434,435.37 L158.156,436.269 L157.863,437.07 L157.538,437.789 L157.28,438.258 L157.095,438.545 L156.958,438.739 L157.036,438.629 L156.959,438.732 L156.656,439.083 L155.973,439.762 L154.833,440.824 L153.923,441.739 L153.343,442.416 L153.152,442.666 L153.152,442.666 C153.12,442.71 153.089,442.755 153.058,442.8 L153.058,442.8 L152.8,443.183 L152.411,443.815 L152.078,444.384 L151.786,444.88 L151.531,445.289 L151.318,445.6 L151.111,445.859 L150.959,446.013 L150.842,446.108 L150.69,446.208 L150.864,446.098 L151.002,446.042 L151.048,446.063 L151.073,446.092 L151.047,446.125 L150.954,446.146 L150.788,446.139 L150.555,446.095 L150.262,446.003 L149.921,445.861 L149.54,445.667 L149.128,445.424 L148.721,445.157 L148.054,444.662 L147.103,443.849 L146.153,442.925 L145.232,441.928 L144.359,440.897 L143.552,439.85 L143.007,439.081 L142.687,438.6 L142.395,438.145 L142.138,437.72 L141.918,437.335 L141.74,436.998 L141.607,436.726 L141.502,436.481 L141.439,436.297 L141.477,436.421 L141.35,436.031 L141.111,435.101 L140.926,434.13 L140.797,433.142 L140.679,431.523 L140.592,429.187 L140.558,427.996 L140.557,428.063 L140.542,427.942 L140.543,427.502 L140.591,427.001 L140.687,426.448 L140.829,425.852 L141.005,425.245 L141.329,424.25 L141.873,422.839 L142.465,421.386 L143.065,419.932 L143.483,418.858 L143.737,418.161 L143.842,417.837 L143.819,417.883 L143.852,417.693 L144.012,417.229 L144.225,416.793 L144.486,416.363 L144.802,415.935 L145.165,415.519 L145.826,414.872 L146.771,413.936 L147.472,413.185 L147.904,412.614 L148.289,412.002 L148.583,411.33 L148.785,410.618 L148.844,409.864 L148.804,409.461 C148.805,409.459 148.804,409.457 148.802,409.456 C148.8,409.455 148.798,409.456 148.798,409.458 L148.798,409.458" fill="#000000"/>
    <path d="M135.774,424.76 L135.66,424.719 L135.393,424.658 L135.07,424.617 L134.711,424.613 L134.304,424.623 L133.863,424.663 L133.397,424.742 L132.892,424.837 L132.367,424.972 L131.813,425.13 L131.234,425.315 L130.638,425.534 L130.021,425.779 L129.386,426.053 L128.742,426.362 L128.091,426.709 L127.087,427.269 L125.711,428.104 L124.294,429.02 L122.844,430.004 L121.37,431.047 L119.876,432.134 L117.617,433.823 L114.63,436.156 L112.462,437.95 L111.06,439.138 L109.713,440.314 L108.428,441.475 L107.213,442.607 L106.078,443.703 L105.296,444.511 L104.828,445.066 L104.408,445.63 L104.027,446.193 L103.685,446.752 L103.372,447.294 L103.101,447.828 L102.85,448.329 L102.638,448.814 L102.451,449.265 L102.295,449.684 L102.166,450.066 L102.065,450.408 L101.99,450.705 L101.943,450.954 L101.923,451.152 L101.92,451.228 L101.92,451.228 C101.919,451.229 101.92,451.232 101.922,451.233 C101.923,451.234 101.925,451.233 101.926,451.231 L101.988,451.199 L102.157,451.137 L102.38,451.068 L102.654,450.991 L102.977,450.905 L103.345,450.807 L103.755,450.696 L104.203,450.569 L104.692,450.43 L105.204,450.262 L105.754,450.085 L106.322,449.875 L106.916,449.645 L107.522,449.382 L108.139,449.085 L108.757,448.745 L109.684,448.156 L110.971,447.292 L112.32,446.367 L113.722,445.39 L115.163,444.363 L116.631,443.297 L118.876,441.651 L121.865,439.367 L124.068,437.636 L125.5,436.494 L126.89,435.365 L128.221,434.25 L129.482,433.156 L130.66,432.084 L131.478,431.292 L131.992,430.778 L132.471,430.262 L132.914,429.745 L133.326,429.24 L133.709,428.747 L134.057,428.264 L134.374,427.798 L134.663,427.356 L134.911,426.92 L135.135,426.52 L135.319,426.133 L135.468,425.769 L135.594,425.448 L135.684,425.146 L135.752,424.885 L135.777,424.766 C135.779,424.765 135.78,424.763 135.779,424.762 C135.778,424.76 135.776,424.759 135.774,424.76 L135.774,424.76" fill="#000000"/>
    <path d="M168.161,425.352 L169.048,427.95 L171.754,432.073 L175.113,435.403 L177.712,437.76 L179.433,439.314 L181.159,440.858 L182.874,442.399 L184.591,443.925 L186.28,445.47 L187.963,447.015 L189.664,448.549 L191.69,449.834 L194.027,450.948 L195.314,451.46 L195.314,451.46 C195.315,451.462 195.318,451.462 195.319,451.461 C195.321,451.46 195.321,451.458 195.32,451.456 L195.233,450.037 L194.717,447.374 L193.761,444.99 L192.363,442.957 L190.843,441.028 L189.233,439.184 L187.568,437.398 L185.828,435.698 L184.04,434.061 L182.197,432.489 L179.383,430.241 L175.457,427.545 L170.886,425.716 L168.165,425.347 C168.164,425.345 168.162,425.346 168.16,425.347 C168.159,425.349 168.159,425.351 168.161,425.352 L168.161,425.352" fill="#000000"/>
    <path d="M191.928,125.842 L192.112,126.456 L192.498,127.653 L192.902,128.814 L193.276,129.981 L193.651,131.139 L193.996,132.309 L194.332,133.483 L194.648,134.668 L194.931,135.87 L195.213,137.075 L195.469,138.295 L195.706,139.526 L195.928,140.766 L196.132,142.017 L196.422,143.919 L196.765,146.474 L197.039,149.038 L197.258,151.611 L197.427,154.183 L197.543,156.742 L197.62,159.274 L197.652,161.765 L197.653,164.204 L197.643,165.386 L197.643,165.384 L197.625,167.505 L197.613,171.747 L197.566,175.927 L197.473,178.995 L197.364,181 L197.21,182.996 L197.005,184.968 L196.743,186.917 L196.419,188.841 L196.022,190.742 L195.547,192.621 L194.982,194.477 L194.324,196.315 L193.974,197.185 L194.011,197.1 L193.706,197.804 L193.103,199.049 L192.462,200.208 L191.767,201.326 L191.017,202.403 L190.213,203.438 L189.357,204.432 L188.456,205.389 L187.508,206.306 L186.514,207.181 L185.476,208.014 L184.397,208.807 L183.284,209.562 L182.134,210.274 L180.95,210.942 L179.737,211.57 L178.496,212.155 L177.231,212.698 L175.946,213.204 L174.651,213.701 L173.34,214.167 L172.015,214.605 L170.678,215.018 L169.329,215.403 L167.968,215.747 L166.599,216.072 L165.22,216.349 L163.835,216.596 L162.445,216.803 L161.05,216.976 L159.651,217.109 L158.25,217.206 L157.549,217.239 L157.549,217.239 C157.547,217.239 157.546,217.24 157.545,217.242 C157.545,217.244 157.546,217.245 157.548,217.246 L158.208,217.509 L159.564,217.988 L160.961,218.4 L162.396,218.748 L163.862,219.027 L165.356,219.242 L166.872,219.383 L168.407,219.468 L169.955,219.469 L171.512,219.407 L173.073,219.269 L174.633,219.053 L176.187,218.761 L177.731,218.397 L179.253,217.938 L180.757,217.411 L182.242,216.825 L183.706,216.177 L185.142,215.465 L186.552,214.694 L187.931,213.862 L189.271,212.964 L190.573,212.003 L191.833,210.981 L193.048,209.897 L194.213,208.749 L195.321,207.535 L196.371,206.259 L197.36,204.92 L198.284,203.52 L199.134,202.056 L199.891,200.575 L200.213,199.878 L200.213,199.878 C200.226,199.85 200.238,199.821 200.25,199.793 L200.25,199.793 L200.724,198.68 L201.54,196.528 L202.232,194.365 L202.813,192.197 L203.289,190.026 L203.671,187.854 L203.967,185.683 L204.187,183.516 L204.342,181.354 L204.445,179.184 L204.522,175.961 L204.517,171.711 L204.461,167.486 L204.431,165.365 L204.431,165.365 C204.431,165.364 204.431,165.363 204.431,165.363 L204.431,165.363 L204.412,164.104 L204.34,161.555 L204.212,158.941 L204.027,156.276 L203.764,153.575 L203.425,150.852 L202.991,148.123 L202.453,145.403 L201.811,142.722 L201.239,140.746 L200.807,139.44 L200.341,138.151 L199.838,136.884 L199.297,135.64 L198.727,134.419 L198.099,133.236 L197.443,132.08 L196.745,130.962 L195.992,129.892 L195.203,128.865 L194.346,127.905 L193.449,127.001 L192.464,126.198 L191.934,125.838 C191.934,125.838 191.934,125.838 191.934,125.838 C191.933,125.837 191.931,125.836 191.929,125.837 C191.928,125.839 191.927,125.841 191.928,125.842 L191.928,125.842" fill="#000000"/>
    <path d="M53.348,67.91 L52.175,68.381 L50.86,69.58 L50.065,70.931 L49.599,72.351 L49.35,73.803 L49.27,75.266 L49.319,76.728 L49.486,78.182 L49.785,79.616 L50.217,81.02 L50.77,82.386 L51.462,83.697 L52.287,84.939 L53.277,86.079 L54.732,86.879 L56.584,87.265 L57.641,87.278 L57.641,87.278 C57.642,87.279 57.644,87.279 57.646,87.278 C57.647,87.277 57.647,87.275 57.646,87.273 L57.8,86.281 L57.987,84.606 L57.958,83.282 L57.643,82.236 L57.335,81.234 L57.062,80.245 L56.815,79.259 L56.605,78.26 L56.417,77.244 L56.247,76.203 L56.103,75.129 L55.972,74.016 L55.807,72.857 L55.557,71.632 L55.103,70.307 L54.251,68.802 L53.355,67.912 C53.355,67.91 53.354,67.908 53.352,67.908 C53.35,67.907 53.348,67.909 53.348,67.91 L53.348,67.91" fill="#000000"/>
    <path d="M244.027,65.243 L243.785,64.755 L243.249,64.052 L242.651,63.597 L242.02,63.296 L241.369,63.093 L240.706,62.982 L240.041,62.959 L239.384,63.02 L238.477,63.223 L237.315,63.657 L236.201,64.244 L235.159,64.912 L234.638,65.282 L234.638,65.282 C234.628,65.29 234.619,65.298 234.609,65.306 L234.609,65.306 L234.295,65.536 L233.661,66.032 L233.061,66.547 L232.504,67.064 L231.991,67.589 L231.515,68.121 L231.08,68.668 L230.686,69.231 L230.338,69.817 L230.033,70.424 L229.779,71.051 L229.575,71.694 L229.391,72.608 L229.315,73.85 L229.44,75.114 L229.73,76.289 L230.138,77.376 L230.637,78.395 L231.211,79.376 L231.99,80.294 L233.127,81.114 L234.549,81.917 L235.439,82.302 L235.439,82.302 C235.439,82.304 235.441,82.305 235.443,82.304 C235.445,82.304 235.446,82.302 235.445,82.3 L235.846,81.399 L236.305,79.79 L236.519,78.396 L236.444,77.272 L236.256,76.36 L236.113,75.609 L236.029,75.026 L235.999,74.609 L236.005,74.331 L236.038,74.058 L236.101,73.84 L236.146,73.724 L236.214,73.586 L236.306,73.417 L236.433,73.215 L236.596,72.974 L236.803,72.698 L237.059,72.385 L237.368,72.041 L237.73,71.661 L238.147,71.247 L238.631,70.781 L238.916,70.517 L238.887,70.54 L239.232,70.21 L239.862,69.593 L240.377,69.065 L240.85,68.573 L241.202,68.218 L241.412,67.975 L241.642,67.708 L241.908,67.413 L242.228,67.089 L242.615,66.732 L243.086,66.29 L243.679,65.669 L244.026,65.25 C244.026,65.25 244.026,65.25 244.026,65.25 C244.028,65.25 244.03,65.249 244.03,65.247 C244.03,65.245 244.029,65.243 244.027,65.243 L244.027,65.243" fill="#000000"/>
    <path d="M53.018,191.384 L53.054,192.181 L53.226,193.271 L53.469,193.973 L53.655,194.342 L53.655,194.342 C53.664,194.351 53.673,194.36 53.683,194.37 L53.683,194.37 L55.08,196.804 L58.473,201.076 L62.203,204.987 L66.033,208.762 L67.954,210.621 L67.922,210.59 L68.347,211.006 L69.103,211.788 L70.217,212.995 L71.694,214.686 L73.213,216.434 L74.426,217.772 L75.284,218.678 L76.184,219.557 L77.128,220.419 L78.13,221.249 L79.193,222.037 L80.325,222.77 L81.529,223.436 L82.214,223.736 L82.214,223.736 C82.253,223.758 82.292,223.779 82.332,223.8 L82.332,223.8 L82.834,223.96 L84.059,224.241 L85.31,224.327 L86.471,224.286 L87.559,224.107 L88.588,223.87 L89.594,223.594 L90.62,223.314 L91.155,223.185 L91.155,223.185 C91.157,223.186 91.159,223.184 91.16,223.183 C91.16,223.181 91.159,223.179 91.157,223.178 L90.717,222.809 L89.804,222.155 L88.885,221.599 L88.003,221.112 L87.193,220.652 L86.469,220.236 L85.849,219.792 L85.215,219.326 L84.793,219.011 L84.91,219.075 L84.552,218.77 L83.758,218.141 L82.999,217.472 L82.266,216.763 L81.552,216.012 L80.85,215.222 L80.16,214.39 L79.472,213.537 L78.419,212.176 L76.95,210.272 L75.385,208.339 L74.119,206.905 L73.218,205.985 L72.789,205.572 L72.789,205.572 C72.778,205.562 72.767,205.551 72.756,205.541 L72.756,205.541 L70.766,203.702 L66.737,200.126 L62.597,196.698 L58.155,193.59 L55.661,192.302 L55.689,192.329 L55.429,192.247 L54.828,191.991 L53.797,191.577 L53.024,191.379 C53.024,191.379 53.024,191.379 53.024,191.379 C53.023,191.378 53.02,191.377 53.019,191.379 C53.017,191.38 53.017,191.382 53.018,191.384 L53.018,191.384" fill="#000000"/>
    <path d="M211.837,221.23 L212.547,221.012 L213.869,220.414 L215.167,219.708 L216.442,218.899 L217.722,218.018 L218.995,217.059 L220.273,216.041 L221.541,214.954 L222.801,213.807 L224.062,212.614 L225.946,210.747 L228.443,208.137 L230.912,205.414 L233.331,202.608 L235.674,199.744 L237.92,196.844 L239.521,194.641 L240.544,193.163 L241.513,191.692 L242.438,190.225 L243.312,188.76 L244.136,187.305 L244.9,185.855 L245.607,184.417 L246.247,182.99 L246.819,181.575 L247.091,180.845 L247.091,180.845 C247.099,180.827 247.106,180.808 247.114,180.789 L247.114,180.789 L247.29,180.279 L247.646,179.149 L247.974,177.965 L248.272,176.759 L248.534,175.532 L248.767,174.29 L249.01,172.406 L249.114,169.848 L248.986,167.28 L248.72,164.77 L248.391,162.94 L248.135,161.758 L247.992,161.181 L247.992,161.181 C247.992,161.179 247.991,161.177 247.989,161.177 C247.987,161.177 247.985,161.178 247.985,161.18 C247.985,161.18 247.985,161.18 247.985,161.18 L247.725,161.713 L247.219,162.798 L246.467,164.459 L245.543,166.726 L244.635,168.999 L243.824,171.268 L243.286,172.948 L242.949,174.036 L242.599,175.09 L242.243,176.108 L241.872,177.079 L241.483,178.027 L241.269,178.523 L241.291,178.467 L241.042,179.01 L240.466,180.18 L239.828,181.384 L239.131,182.621 L238.373,183.884 L237.568,185.175 L236.709,186.486 L235.808,187.818 L234.863,189.166 L233.892,190.52 L232.371,192.583 L230.244,195.378 L228.031,198.18 L225.77,200.975 L223.495,203.749 L221.243,206.493 L219.599,208.527 L218.538,209.869 L217.508,211.201 L216.527,212.532 L215.602,213.865 L214.728,215.186 L213.923,216.509 L213.183,217.823 L212.544,219.154 L212.014,220.505 L211.832,221.225 C211.831,221.227 211.831,221.229 211.832,221.23 C211.833,221.231 211.836,221.231 211.837,221.23 L211.837,221.23" fill="#000000"/>
    <path d="M154.594,329.762 L153.379,330.825 L151.534,333.159 L150.121,335.653 L149.021,338.249 L148.117,340.906 L147.324,343.593 L146.66,346.313 L146.094,349.056 L145.619,351.819 L145.231,354.6 L144.948,357.399 L144.772,360.216 L144.716,363.049 L144.743,365.893 L144.9,368.748 L145.193,371.611 L145.38,373.066 L145.38,373.066 C145.381,373.089 145.383,373.111 145.385,373.133 L145.385,373.133 L145.434,373.423 L145.591,374.119 L145.933,375.121 L146.531,376.344 L147.205,377.457 L147.924,378.455 L148.633,379.387 L149.319,380.299 L149.798,381.004 L150.099,381.507 L150.241,381.776 L150.241,381.776 C150.242,381.778 150.243,381.779 150.245,381.779 C150.247,381.779 150.249,381.778 150.248,381.776 C150.248,381.776 150.248,381.776 150.248,381.776 L150.38,381.487 L150.6,380.881 L150.826,379.935 L150.984,378.663 L151.023,377.418 L151.011,376.232 L150.976,375.141 L150.968,374.128 L150.973,373.423 L150.981,372.963 L150.982,372.67 L150.987,372.737 L151.01,371.402 L151.103,368.711 L151.227,366.043 L151.382,363.395 L151.609,360.763 L151.868,358.141 L152.166,355.527 L152.499,352.916 L152.88,350.307 L153.301,347.697 L153.748,345.08 L154.187,342.445 L154.63,339.791 L154.986,337.088 L155.134,334.291 L154.95,331.341 L154.601,329.764 C154.601,329.762 154.6,329.76 154.598,329.76 C154.596,329.759 154.595,329.76 154.594,329.762 L154.594,329.762" fill="#000000"/>
    <path d="M104.091,90.893 L104.331,91.167 L104.745,91.541 L105.074,91.777 L105.319,91.979 L105.476,92.143 L105.553,92.279 L105.573,92.409 L105.585,92.551 L105.645,92.717 L105.772,92.94 L105.97,93.242 L106.252,93.617 L106.528,93.942 L106.742,94.188 L106.983,94.445 L107.252,94.719 L107.552,95.011 L107.888,95.313 L108.261,95.626 L108.675,95.949 L108.899,96.121 L108.796,96.062 L108.877,96.13 L108.75,96.099 L108.624,96.076 L108.58,96.178 L108.603,96.401 L108.693,96.746 L108.801,97.167 L108.919,97.624 L109.055,98.087 L109.137,98.344 L109.128,98.318 L109.205,98.573 L109.262,98.886 L109.275,99.1 L109.267,99.282 L109.242,99.435 L109.204,99.565 L109.161,99.68 L109.111,99.786 L109.053,99.889 L108.983,99.994 L108.901,100.102 L108.807,100.219 L108.697,100.343 L108.567,100.473 L108.295,100.713 L107.878,101.012 L107.433,101.267 L106.933,101.512 L106.392,101.727 L105.827,101.903 L105.258,102.031 L104.709,102.107 L104.202,102.131 L104.063,102.131 L104.275,102.154 L104.103,102.139 L104.117,102.142 L104.233,102.175 L104.315,102.21 L104.352,102.238 L104.345,102.24 L104.301,102.206 L104.227,102.132 L104.134,102.016 L104.026,101.86 L103.828,101.521 L103.588,100.985 L103.376,100.399 L103.18,99.755 L102.939,99.083 L102.708,98.391 L102.477,97.694 L102.311,97.193 L102.224,96.871 L102.148,96.524 L102.098,96.181 L102.071,95.837 L102.074,95.491 L102.115,95.141 L102.203,94.784 L102.271,94.606 L102.271,94.606 C102.273,94.605 102.274,94.603 102.272,94.601 C102.271,94.599 102.269,94.599 102.268,94.6 C102.268,94.6 102.268,94.6 102.268,94.6 L102.057,94.601 L101.623,94.661 L101.187,94.799 L100.758,95.008 L100.342,95.279 L99.948,95.605 L99.572,95.978 L99.228,96.418 L98.757,97.133 L98.265,98.159 L97.94,99.268 L97.767,100.429 L97.798,101.606 L97.969,102.787 L98.263,103.918 L98.564,104.738 L98.835,105.301 L99.156,105.854 L99.533,106.393 L99.975,106.913 L100.489,107.402 L101.081,107.845 L101.753,108.219 L102.492,108.508 L103.162,108.678 L103.331,108.712 L103.331,108.712 C103.401,108.722 103.472,108.73 103.543,108.735 L103.543,108.735 L104.215,108.799 L105.384,108.82 L106.559,108.722 L107.732,108.512 L108.896,108.19 L110.039,107.751 L111.152,107.194 L112.216,106.502 L113.174,105.714 L113.828,105.052 L114.257,104.539 L114.656,103.988 L115.017,103.399 L115.332,102.771 L115.598,102.108 L115.809,101.415 L115.96,100.697 L116.044,99.959 L116.057,99.21 L116.002,98.456 L115.88,97.705 L115.69,96.961 L115.453,96.291 L115.347,96.046 L115.347,96.046 C115.344,96.037 115.341,96.028 115.338,96.02 L115.338,96.02 L115.27,95.875 L115.078,95.418 L114.828,94.846 L114.522,94.191 L114.146,93.473 L113.647,92.709 L113.02,91.958 L112.412,91.422 L111.943,91.122 L111.845,91.082 L111.845,91.082 C111.811,91.061 111.777,91.041 111.743,91.022 L111.743,91.022 L111.504,90.936 L111.048,90.768 L110.622,90.623 L110.226,90.498 L109.856,90.393 L109.514,90.3 L109.2,90.218 L108.909,90.151 L108.514,90.055 L108.044,89.952 L107.623,89.865 L107.234,89.777 L106.847,89.701 L106.453,89.663 L106.075,89.666 L105.73,89.717 L105.411,89.831 L105.094,90.009 L104.744,90.237 L104.33,90.613 L104.091,90.886 C104.089,90.886 104.087,90.888 104.087,90.89 C104.087,90.892 104.089,90.893 104.091,90.893 L104.091,90.893" fill="#000000"/>
    <path d="M181.119,88.104 L181.309,88.736 L181.691,89.76 L182.016,90.563 L182.274,91.241 L182.449,91.842 L182.554,92.371 L182.604,92.833 L182.615,93.236 L182.599,93.59 L182.553,93.91 L182.483,94.205 L182.397,94.481 L182.286,94.746 L182.166,95.004 L182.019,95.257 L181.853,95.506 L181.667,95.752 L181.455,95.989 L181.225,96.218 L180.973,96.435 L180.699,96.635 L180.408,96.818 L180.101,96.982 L179.778,97.121 L179.443,97.234 L179.096,97.324 L178.736,97.384 L178.365,97.412 L177.982,97.411 L177.585,97.378 L177.169,97.316 L176.732,97.214 L176.577,97.17 L176.74,97.224 L176.479,97.138 L176.274,97.046 L176.212,96.996 L176.184,96.962 L176.171,96.936 L176.161,96.907 L176.141,96.863 L176.107,96.791 L176.067,96.68 L176.025,96.524 L175.988,96.323 L175.956,96.078 L175.94,95.793 L175.945,95.473 L175.999,94.895 L176.144,94.079 L176.362,93.255 L176.599,92.385 L176.774,91.74 L176.869,91.295 L176.98,90.817 L177.102,90.34 L177.227,89.854 L177.375,89.378 L177.539,88.902 L177.722,88.426 L177.941,87.963 L178.196,87.504 L178.342,87.279 L178.342,87.279 C178.344,87.278 178.345,87.276 178.344,87.274 C178.344,87.272 178.342,87.272 178.34,87.272 L178.059,87.212 L177.469,87.151 L176.856,87.172 L176.223,87.26 L175.59,87.422 L174.964,87.652 L174.341,87.935 L173.745,88.283 L173.169,88.682 L172.614,89.158 L171.887,89.966 L171.075,91.137 L170.446,92.429 L169.97,93.757 L169.722,94.779 L169.609,95.51 L169.547,96.257 L169.543,97.02 L169.612,97.796 L169.757,98.58 L169.987,99.366 L170.311,100.144 L170.739,100.896 L171.27,101.603 L171.896,102.247 L172.606,102.812 L173.386,103.285 L174.129,103.631 L174.383,103.732 L174.383,103.732 C174.437,103.751 174.492,103.769 174.546,103.786 L174.546,103.786 L175.14,103.972 L176.187,104.219 L177.23,104.364 L178.261,104.404 L179.272,104.348 L180.255,104.198 L181.205,103.966 L182.116,103.657 L182.982,103.27 L183.8,102.814 L184.569,102.296 L185.282,101.717 L185.935,101.08 L186.529,100.394 L187.057,99.66 L187.512,98.88 L187.895,98.062 L188.196,97.208 L188.408,96.324 L188.533,95.421 L188.55,94.503 L188.468,93.585 L188.274,92.68 L187.97,91.801 L187.557,90.963 L187.027,90.19 L186.387,89.497 L185.647,88.899 L184.817,88.408 L183.905,88.036 L182.891,87.837 L181.757,87.915 L181.122,88.098 C181.122,88.098 181.122,88.098 181.122,88.098 C181.121,88.097 181.118,88.097 181.118,88.099 C181.117,88.101 181.117,88.103 181.119,88.104 L181.119,88.104" fill="#000000"/>
    <path d="M46.68,127 L46.547,127.023 L46.271,127.044 L45.841,127.052 L45.409,127.08 L45.117,127.144 L44.834,127.27 L44.572,127.495 L44.447,127.682 L44.447,127.682 C44.44,127.695 44.434,127.709 44.429,127.723 L44.429,127.723 L44.403,127.774 L44.333,127.936 L44.256,128.14 L44.172,128.382 L44.082,128.666 L43.985,128.989 L43.88,129.352 L43.767,129.752 L43.653,130.191 L43.533,130.665 L43.342,131.439 L43.082,132.585 L42.803,133.847 L42.524,135.214 L42.241,136.674 L41.946,138.214 L41.649,139.821 L41.368,141.485 L41.083,143.192 L40.652,145.804 L40.122,149.324 L39.737,151.937 L39.498,153.643 L39.272,155.305 L39.054,156.91 L38.853,158.447 L38.667,159.903 L38.501,161.267 L38.35,162.524 L38.216,163.664 L38.13,164.434 L38.077,164.904 L38.029,165.338 L37.986,165.734 L37.947,166.09 L37.913,166.406 L37.884,166.68 L37.859,166.912 L37.841,167.1 L37.827,167.248 L37.821,167.318 L37.821,167.318 C37.821,167.327 37.82,167.336 37.82,167.345 L37.82,167.345 L37.595,170.206 L37.251,175.993 L36.992,181.803 L36.785,187.606 L36.586,193.389 L36.353,199.142 L36.053,204.852 L35.758,209.09 L35.518,211.89 L35.387,213.276 L35.39,213.248 L35.263,214.487 L34.983,216.919 L34.495,220.563 L33.742,225.428 L32.916,230.302 L32.042,235.199 L31.163,240.122 L30.32,245.075 L29.557,250.062 L29.216,252.588 L29.216,252.588 C29.215,252.594 29.214,252.601 29.213,252.607 L29.213,252.607 L28.825,255.612 L28.022,261.617 L27.143,267.599 L26.414,272.05 L25.883,274.994 L25.31,277.931 L24.693,280.849 L24.024,283.746 L23.297,286.619 L22.509,289.466 L21.66,292.286 L20.739,295.075 L19.741,297.831 L19.22,299.174 L19.24,299.128 L19.014,299.682 L18.571,300.7 L18.111,301.678 L17.625,302.647 L16.844,304.1 L15.737,306.012 L14.574,307.919 L13.372,309.858 L12.158,311.855 L10.956,313.931 L10.355,315.027 L10.355,315.027 C10.35,315.037 10.344,315.046 10.339,315.056 L10.339,315.056 L10.202,315.313 L9.94,315.813 L9.697,316.284 L9.474,316.725 L9.27,317.138 L9.083,317.526 L8.834,318.058 L8.549,318.703 L8.306,319.296 L8.105,319.845 L7.933,320.36 L7.715,321.071 L7.511,321.78 L7.368,322.265 L7.202,322.8 L7.057,323.245 L6.947,323.568 L6.821,323.925 L6.681,324.311 L6.526,324.731 L6.356,325.187 L6.267,325.424 L6.267,325.424 C6.266,325.426 6.265,325.428 6.265,325.429 L6.265,325.429 L6.158,325.713 L5.947,326.287 L5.752,326.845 L5.576,327.378 L5.348,328.125 L5.098,329.05 L4.894,329.906 L4.725,330.689 L4.515,331.739 L4.321,332.682 L4.186,333.249 L4.024,333.815 L3.826,334.392 L3.576,335.005 L3.258,335.676 L2.971,336.218 L2.756,336.609 L2.508,337.033 L2.233,337.483 L2.09,337.712 L2.09,337.712 C2.088,337.715 2.086,337.717 2.083,337.72 L2.083,337.72 L1.825,338.131 L1.312,338.997 L0.837,339.877 L0.409,340.754 L0.025,341.626 L-0.31,342.493 L-0.604,343.352 L-0.861,344.198 L-1.082,345.032 L-1.27,345.85 L-1.423,346.652 L-1.546,347.435 L-1.643,348.197 L-1.714,348.938 L-1.762,349.654 L-1.79,350.345 L-1.799,351.009 L-1.791,351.643 L-1.77,352.247 L-1.736,352.818 L-1.691,353.355 L-1.64,353.857 L-1.582,354.321 L-1.521,354.747 L-1.458,355.131 L-1.396,355.474 L-1.336,355.772 L-1.282,356.025 L-1.233,356.231 L-1.194,356.387 L-1.166,356.493 L-1.154,356.548 L-1.153,356.555 L-1.153,356.555 C-1.152,356.556 -1.15,356.558 -1.149,356.557 C-1.147,356.557 -1.145,356.555 -1.146,356.553 C-1.146,356.553 -1.146,356.553 -1.146,356.553 L-1.147,356.546 L-1.152,356.491 L-1.155,356.382 L-1.157,356.222 L-1.158,356.012 L-1.155,355.756 L-1.148,355.456 L-1.134,355.114 L-1.113,354.732 L-1.083,354.312 L-1.042,353.857 L-0.99,353.369 L-0.925,352.851 L-0.845,352.304 L-0.75,351.732 L-0.637,351.135 L-0.506,350.517 L-0.356,349.88 L-0.184,349.226 L0.011,348.558 L0.228,347.876 L0.471,347.185 L0.741,346.485 L1.035,345.779 L1.359,345.069 L1.713,344.357 L2.1,343.646 L2.518,342.937 L2.965,342.229 L3.448,341.527 L3.968,340.833 L4.537,340.134 L4.853,339.766 L4.847,339.774 L5.056,339.532 L5.441,339.073 L5.798,338.629 L6.135,338.188 L6.585,337.545 L7.098,336.737 L7.53,335.963 L7.892,335.219 L8.195,334.506 L8.456,333.811 L8.785,332.836 L9.094,331.862 L9.315,331.195 L9.566,330.492 L9.863,329.724 L10.121,329.097 L10.312,328.659 L10.523,328.198 L10.759,327.702 L10.892,327.43 L10.89,327.435 L11.014,327.18 L11.244,326.704 L11.451,326.258 L11.639,325.84 L11.811,325.449 L11.969,325.078 L12.18,324.568 L12.416,323.969 L12.614,323.447 L12.853,322.798 L13.067,322.225 L13.214,321.861 L13.382,321.473 L13.584,321.03 L13.84,320.504 L14.075,320.048 L14.251,319.715 L14.448,319.352 L14.667,318.958 L14.907,318.531 L15.174,318.063 L15.32,317.81 L15.304,317.839 L15.868,316.885 L17.073,314.957 L18.332,313.037 L19.617,311.094 L20.907,309.107 L22.167,307.063 L23.077,305.478 L23.667,304.375 L24.233,303.24 L24.761,302.094 L24.998,301.546 L24.998,301.546 C25.005,301.53 25.011,301.514 25.017,301.499 L25.017,301.499 L25.621,300.036 L26.745,297.134 L27.784,294.205 L28.745,291.252 L29.624,288.277 L30.434,285.285 L31.182,282.278 L31.873,279.26 L32.507,276.232 L33.096,273.188 L33.902,268.627 L34.855,262.562 L35.715,256.524 L36.123,253.521 L36.12,253.54 L36.46,251.128 L37.22,246.248 L38.052,241.344 L38.92,236.414 L39.788,231.456 L40.618,226.468 L41.359,221.457 L41.837,217.683 L42.109,215.163 L42.227,213.923 L42.227,213.923 C42.228,213.913 42.229,213.904 42.23,213.895 L42.23,213.895 L42.356,212.434 L42.57,209.523 L42.821,205.161 L43.047,199.352 L43.177,193.546 L43.254,187.753 L43.31,181.981 L43.376,176.24 L43.495,170.521 L43.576,167.652 L43.575,167.68 L43.575,167.654 L43.58,167.537 L43.588,167.366 L43.6,167.146 L43.615,166.879 L43.633,166.568 L43.654,166.216 L43.677,165.823 L43.704,165.391 L43.732,164.923 L43.78,164.154 L43.847,163.013 L43.92,161.753 L43.999,160.386 L44.077,158.924 L44.158,157.38 L44.237,155.766 L44.32,154.095 L44.402,152.38 L44.515,149.749 L44.667,146.2 L44.755,143.561 L44.814,141.837 L44.876,140.157 L44.915,138.53 L44.95,136.97 L44.987,135.491 L45.018,134.105 L45.035,132.822 L45.056,131.658 L45.065,130.869 L45.072,130.388 L45.08,129.943 L45.085,129.537 L45.092,129.171 L45.101,128.847 L45.111,128.569 L45.12,128.338 L45.131,128.16 L45.143,128.035 L45.154,127.978 L45.137,128.019 L45.126,127.97 L45.186,127.821 L45.322,127.678 L45.523,127.552 L45.911,127.382 L46.32,127.213 L46.57,127.081 L46.682,127.007 C46.684,127.006 46.685,127.004 46.684,127.002 C46.683,127 46.681,126.999 46.68,127 L46.68,127" fill="#000000"/>
    <path d="M87.225,53.094 L88.673,52.958 L91.484,52.431 L94.262,51.782 L97.018,51.056 L99.768,50.309 L102.511,49.558 L105.242,48.809 L107.963,48.082 L110.677,47.399 L113.379,46.763 L116.076,46.207 L118.761,45.735 L121.436,45.359 L124.097,45.092 L126.744,44.942 L128.696,44.912 L129.984,44.935 L130.613,44.959 L130.578,44.958 L130.998,44.977 L131.877,45.023 L132.835,45.08 L133.869,45.148 L134.964,45.226 L136.106,45.311 L137.881,45.449 L140.292,45.634 L142.078,45.771 L143.238,45.858 L144.357,45.94 L145.424,46.015 L146.429,46.08 L147.36,46.134 L147.802,46.157 L147.802,46.157 C147.809,46.157 147.817,46.158 147.824,46.158 L147.824,46.158 L148.378,46.183 L149.491,46.222 L150.572,46.242 L151.613,46.249 L153.101,46.243 L154.997,46.229 L156.822,46.228 L158.618,46.27 L159.963,46.345 L160.871,46.417 L161.824,46.514 L162.811,46.639 L163.3,46.709 L163.274,46.705 L163.816,46.788 L164.935,46.964 L166.109,47.152 L167.335,47.351 L169.25,47.669 L171.891,48.121 L174.565,48.579 L177.199,49.039 L179.102,49.378 L180.321,49.591 L181.489,49.797 L182.596,49.995 L183.123,50.089 L183.111,50.087 L184.055,50.261 L185.847,50.601 L187.548,50.949 L189.18,51.304 L190.766,51.632 L192.309,51.968 L193.831,52.293 L195.339,52.623 L197.613,53.131 L199.92,53.657 L201.495,54.027 L203.126,54.402 L204.817,54.79 L206.583,55.18 L208.434,55.575 L209.396,55.771 L209.396,55.771 C209.398,55.772 209.4,55.771 209.401,55.769 C209.401,55.768 209.4,55.765 209.399,55.765 L208.593,55.202 L207.022,54.137 L205.499,53.14 L204.01,52.213 L202.548,51.34 L201.094,50.522 L198.93,49.373 L196.753,48.321 L195.267,47.666 L193.745,47.047 L192.177,46.476 L190.557,45.926 L188.868,45.431 L187.111,44.951 L185.284,44.482 L184.352,44.257 L184.352,44.257 C184.348,44.256 184.344,44.255 184.34,44.255 L184.34,44.255 L183.811,44.129 L182.704,43.868 L181.537,43.596 L180.318,43.314 L178.412,42.888 L175.775,42.31 L173.093,41.734 L170.437,41.189 L168.506,40.803 L167.261,40.56 L166.061,40.333 L164.92,40.125 L164.381,40.029 L164.381,40.029 C164.372,40.028 164.364,40.026 164.355,40.025 L164.355,40.025 L163.744,39.922 L162.596,39.751 L161.487,39.612 L160.398,39.503 L158.84,39.393 L156.876,39.314 L154.985,39.284 L153.114,39.276 L151.687,39.265 L150.72,39.251 L149.729,39.227 L148.693,39.192 L148.139,39.167 L148.161,39.168 L147.761,39.148 L146.872,39.098 L145.897,39.036 L144.85,38.968 L143.743,38.893 L142.591,38.813 L140.803,38.686 L138.375,38.515 L136.576,38.399 L135.407,38.327 L134.278,38.261 L133.198,38.204 L132.178,38.157 L131.239,38.123 L130.818,38.113 L130.818,38.113 C130.806,38.112 130.794,38.112 130.782,38.112 L130.782,38.112 L130.012,38.101 L128.499,38.113 L126.252,38.204 L123.302,38.463 L120.375,38.865 L117.473,39.4 L114.599,40.058 L111.757,40.833 L108.946,41.705 L106.178,42.689 L103.452,43.764 L100.775,44.934 L98.153,46.196 L95.587,47.536 L93.08,48.951 L90.653,50.476 L88.32,52.133 L87.222,53.087 C87.22,53.088 87.219,53.09 87.22,53.092 C87.221,53.094 87.223,53.094 87.225,53.094 L87.225,53.094" fill="#000000"/>
    <path d="M244.966,114.96 L244.891,115.663 L244.854,117.066 L244.928,118.473 L245.097,119.875 L245.34,121.268 L245.637,122.651 L246.16,124.698 L246.913,127.398 L247.658,130.057 L248.139,132.013 L248.394,133.293 L248.598,134.575 L248.748,135.845 L248.79,136.446 L248.786,136.417 L248.825,136.989 L248.912,138.181 L249.009,139.42 L249.124,140.697 L249.254,142.011 L249.392,143.359 L249.622,145.431 L249.974,148.278 L250.374,151.197 L250.813,154.157 L251.274,157.135 L251.771,160.099 L252.283,163.025 L252.805,165.886 L253.345,168.652 L253.751,170.654 L254.021,171.947 L254.288,173.2 L254.553,174.411 L254.82,175.578 L255.084,176.696 L255.345,177.765 L255.602,178.781 L255.731,179.276 L255.731,179.276 C255.731,179.276 255.731,179.277 255.732,179.278 L255.732,179.278 L255.962,180.158 L256.414,181.931 L257.083,184.652 L257.964,188.368 L258.81,192.146 L259.613,195.948 L260.37,199.732 L260.896,202.526 L261.224,204.359 L261.533,206.169 L261.824,207.945 L261.961,208.811 L261.961,208.811 C261.978,208.918 262,209.024 262.027,209.128 L262.027,209.128 L262.438,210.735 L263.242,213.876 L264.022,216.926 L264.78,219.884 L265.517,222.751 L266.233,225.53 L266.928,228.222 L267.605,230.827 L268.264,233.348 L268.902,235.786 L269.52,238.143 L270.119,240.42 L270.699,242.62 L271.258,244.743 L271.798,246.791 L272.322,248.765 L272.826,250.667 L273.312,252.499 L273.779,254.262 L274.228,255.958 L274.662,257.587 L275.079,259.151 L275.48,260.653 L275.863,262.093 L276.231,263.473 L276.582,264.794 L276.917,266.059 L277.238,267.268 L277.544,268.422 L277.838,269.524 L278.118,270.574 L278.383,271.575 L278.635,272.527 L278.874,273.432 L279.099,274.293 L279.313,275.109 L279.514,275.883 L279.703,276.616 L279.88,277.309 L280.047,277.965 L280.203,278.583 L280.349,279.167 L280.484,279.716 L280.61,280.232 L280.785,280.951 L280.987,281.81 L281.156,282.56 L281.295,283.216 L281.409,283.789 L281.499,284.29 L281.57,284.732 L281.625,285.128 L281.688,285.689 L281.719,286.029 L281.719,286.029 C281.73,286.182 281.752,286.333 281.786,286.482 L281.786,286.482 L281.929,287.063 L282.207,288.199 L282.607,289.848 L283.114,291.943 L283.587,293.925 L284.027,295.799 L284.439,297.567 L284.828,299.234 L285.205,300.8 L285.563,302.272 L285.895,303.654 L286.211,304.95 L286.506,306.163 L286.779,307.299 L287.041,308.359 L287.283,309.35 L287.509,310.274 L287.723,311.135 L287.927,311.938 L288.118,312.686 L288.299,313.384 L288.47,314.035 L288.636,314.645 L288.796,315.216 L288.959,315.753 L289.202,316.494 L289.534,317.395 L289.894,318.233 L290.296,319.02 L290.529,319.425 L290.529,319.425 C290.534,319.434 290.539,319.443 290.543,319.452 L290.543,319.452 L290.591,319.528 L290.714,319.723 L290.871,319.97 L291.057,320.263 L291.272,320.599 L291.512,320.976 L291.779,321.387 L292.069,321.83 L292.537,322.547 L293.214,323.583 L293.933,324.681 L294.679,325.81 L295.429,326.941 L296.163,328.045 L296.863,329.092 L297.351,329.823 L297.654,330.277 L297.937,330.701 L298.196,331.09 L298.429,331.443 L298.633,331.753 L298.806,332.019 L298.944,332.237 L299.045,332.403 L299.106,332.513 L299.118,332.547 L299.118,332.547 C299.119,332.549 299.121,332.55 299.123,332.549 C299.124,332.549 299.125,332.547 299.125,332.545 C299.125,332.545 299.125,332.545 299.125,332.545 L299.116,332.509 L299.082,332.386 L299.023,332.199 L298.939,331.954 L298.833,331.653 L298.706,331.302 L298.559,330.905 L298.394,330.465 L298.212,329.988 L298.015,329.477 L297.695,328.656 L297.231,327.483 L296.735,326.251 L296.223,324.992 L295.707,323.739 L295.201,322.527 L294.721,321.386 L294.388,320.597 L294.182,320.109 L293.991,319.658 L293.814,319.25 L293.656,318.885 L293.52,318.568 L293.406,318.305 L293.318,318.098 L293.283,318.016 L293.296,318.043 L293.191,317.77 L292.984,317.146 L292.806,316.453 L292.645,315.644 L292.534,314.948 L292.461,314.441 L292.384,313.89 L292.306,313.292 L292.227,312.644 L292.143,311.941 L292.056,311.182 L291.962,310.362 L291.859,309.479 L291.742,308.53 L291.615,307.509 L291.476,306.415 L291.315,305.245 L291.14,303.993 L290.945,302.658 L290.724,301.236 L290.482,299.722 L290.21,298.114 L289.898,296.412 L289.554,294.608 L289.179,292.7 L288.775,290.682 L288.341,288.552 L287.991,286.88 L287.747,285.728 L287.622,285.143 L287.69,285.595 L287.661,285.114 L287.6,284.394 L287.542,283.871 L287.469,283.311 L287.378,282.706 L287.267,282.044 L287.135,281.312 L286.977,280.498 L286.793,279.592 L286.635,278.842 L286.518,278.305 L286.392,277.736 L286.257,277.136 L286.114,276.5 L285.96,275.83 L285.797,275.122 L285.623,274.375 L285.439,273.589 L285.244,272.76 L285.038,271.888 L284.819,270.971 L284.589,270.008 L284.347,268.996 L284.092,267.935 L283.824,266.824 L283.54,265.66 L283.241,264.442 L282.928,263.17 L282.601,261.84 L282.258,260.451 L281.901,259.003 L281.527,257.493 L281.138,255.92 L280.731,254.283 L280.305,252.58 L279.862,250.81 L279.401,248.972 L278.923,247.062 L278.426,245.081 L277.908,243.027 L277.37,240.898 L276.812,238.693 L276.235,236.41 L275.635,234.048 L275.013,231.606 L274.37,229.081 L273.703,226.474 L273.009,223.782 L272.292,221.004 L271.551,218.138 L270.784,215.183 L269.994,212.137 L269.18,208.998 L268.763,207.393 L268.83,207.711 L268.682,206.801 L268.372,204.973 L268.039,203.114 L267.687,201.223 L267.125,198.353 L266.321,194.489 L265.453,190.613 L264.54,186.763 L263.592,182.984 L262.855,180.221 L262.359,178.422 L262.113,177.546 L262.113,177.548 L261.987,177.101 L261.725,176.143 L261.456,175.126 L261.18,174.053 L260.897,172.93 L260.607,171.759 L260.312,170.545 L260.014,169.294 L259.564,167.349 L258.957,164.643 L258.336,161.845 L257.719,158.979 L257.11,156.074 L256.5,153.161 L255.913,150.264 L255.341,147.413 L254.787,144.634 L254.386,142.615 L254.129,141.308 L253.885,140.034 L253.65,138.799 L253.422,137.604 L253.209,136.45 L253.108,135.885 L253.108,135.885 C253.107,135.876 253.105,135.866 253.104,135.856 L253.104,135.856 L252.958,135.085 L252.618,133.638 L252.196,132.235 L251.712,130.859 L250.918,128.872 L249.77,126.323 L248.57,123.834 L247.693,121.975 L247.128,120.74 L246.594,119.496 L246.09,118.237 L245.617,116.954 L245.183,115.634 L244.973,114.96 C244.973,114.96 244.973,114.96 244.973,114.96 C244.972,114.958 244.971,114.956 244.969,114.957 C244.967,114.957 244.965,114.959 244.966,114.96 L244.966,114.96" fill="#000000"/>
  </g>
</svg>
